<?xml version="1.0" encoding="utf-8"?>
<!-- Generator: Adobe Illustrator 18.1.1, SVG Export Plug-In . SVG Version: 6.00 Build 0)  -->
<svg version="1.1" id="Calque_1" xmlns="http://www.w3.org/2000/svg" xmlns:xlink="http://www.w3.org/1999/xlink" x="0px" y="0px"
	 viewBox="254.8 292.9 130 96.9" enable-background="new 254.8 292.9 130 96.9" xml:space="preserve">
<g>
	<path d="M318.1,373.6l-0.2,0.2c0.1,0,0.2-0.1,0.3-0.1C318.1,373.7,318.1,373.7,318.1,373.6z"/>
	<g>
		<path fill="#F2BE96" d="M351,365c-1.7,1.7-4.6,1.7-6.3,0l-6.7-6.7c-1.7-1.7-1.7-4.6,0-6.3l0,0c1.7-1.7,4.5-1.7,6.3,0l6.7,6.7
			C352.7,360.4,352.7,363.3,351,365L351,365z"/>
		<path fill="#F2BE96" d="M343.1,372.8c-1.7,1.7-4.7,1.5-6.7-0.4l-9.5-9.5c-2-2-2.2-5-0.4-6.7l0,0c1.7-1.7,4.7-1.5,6.7,0.4l9.5,9.5
			C344.7,368.1,344.9,371.1,343.1,372.8L343.1,372.8z"/>
		<path fill="#F2BE96" d="M335.3,380.7c-1.7,1.7-4.7,1.5-6.7-0.4l-8.2-8.2c-2-2-2.2-5-0.4-6.7l0,0c1.7-1.7,4.7-1.5,6.7,0.4l8.2,8.2
			C336.8,375.9,337,379,335.3,380.7L335.3,380.7z"/>
		<path fill="#F2BE96" d="M327.4,388.5c-1.7,1.7-4.7,1.5-6.7-0.4l-3.8-3.8c-2-2-2.2-5-0.4-6.7l0,0c1.7-1.7,4.7-1.5,6.7,0.4l3.8,3.8
			C329,383.8,329.2,386.8,327.4,388.5L327.4,388.5z"/>
		<path fill="#F2BE96" d="M336.3,312.4l-13.5,0c-0.2,0-0.3,0-0.5,0h-17.6c-2.3,0-5.5,1.3-7.1,3l-21.1,21.4c-1.6,1.6-1.6,4.3,0,5.9
			l9.7,9.7c1.6,1.6,4.3,1.6,5.9,0l28.7-28.7c1-1,2.8-2,4.5-2.5l10.9,0c2.8,0,5.1-2,5.1-4.4C341.4,314.4,339.1,312.4,336.3,312.4z"/>
		<path fill="#9B7034" d="M297.9,306l-7.8-11.9c-1.6-1.6-4.3-1.6-5.9,0l-28,27.5c-1.6,1.6-1.6,4.3,0,5.9l12.4,7.8
			c1.6,1.6,4.3,1.6,5.9,0l23.4-23.4C299.5,310.3,299.5,307.6,297.9,306z"/>
	</g>
	<path fill="#C6C6C6" d="M341.8,313.1l23.4,23.4c1.6,1.6,4.3,1.6,5.9,0l12.4-7.8c1.6-1.6,1.6-4.3,0-5.9l-28-27.5
		c-1.6-1.6-4.3-1.6-5.9,0l-7.8,11.9C340.1,308.8,340.1,311.5,341.8,313.1z M370.4,328c0-1.5,1.2-2.7,2.7-2.7c1.5,0,2.7,1.2,2.7,2.7
		c0,1.5-1.2,2.7-2.7,2.7C371.6,330.7,370.4,329.5,370.4,328z"/>
	<path fill="#F2BE96" d="M363,336.9L344,318c-0.3,1.6-1,3-2.3,4.1c-1.5,1.3-3.4,2-5.4,2h-10.4c-1.2,0.4-2.3,1.1-2.9,1.7l-28.7,28.7
		c-1.1,1.1-2.4,1.7-3.9,1.9l-0.4,0.4c-1.7,1.7-1.7,4.6,0,6.3c1.7,1.7,4.6,1.7,6.3,0l16.5-16.5c0.2-0.2,0.5-0.4,0.9-0.4
		c0.7,0,1.3,0.6,1.3,1.2c0,0.3-0.1,0.7-0.4,0.9l0,0L295,367.9c-2,2-2.2,5-0.4,6.7c1.7,1.7,4.7,1.5,6.7-0.4l19.5-19.5
		c0.2-0.2,0.5-0.4,0.9-0.4c0.7,0,1.3,0.6,1.3,1.2c0,0.3-0.1,0.7-0.4,0.9h0l-19.1,19.1c-2,2-2.2,5-0.4,6.7c1.7,1.7,4.7,1.5,6.7-0.4
		l3-3c0.3-1.2,0.9-2.4,1.8-3.3c0.9-0.9,2.1-1.5,3.3-1.8l0.2-0.2c-1.2-1.4-2-3-2.1-4.8c-0.1-2.1,0.6-4,2-5.4c1.3-1.3,3-2,4.9-2
		c-0.2-0.7-0.4-1.5-0.4-2.3c0-1.9,0.7-3.6,2-4.9c1.3-1.3,3-2,4.9-2c1.6,0,3.2,0.5,4.6,1.5c0.3-1.4,1-2.7,2-3.7
		c1.4-1.4,3.2-2.1,5.1-2.1c1.9,0,3.7,0.8,5.1,2.1l5.6,5.6l11.2-11.4C365,342.1,365,338.9,363,336.9z"/>
</g>
</svg>
