<?xml version="1.0" encoding="utf-8"?>
<!-- Generator: Adobe Illustrator 18.1.1, SVG Export Plug-In . SVG Version: 6.00 Build 0)  -->
<svg version="1.1" id="Calque_1" xmlns="http://www.w3.org/2000/svg" xmlns:xlink="http://www.w3.org/1999/xlink" x="0px" y="0px"
	 viewBox="0 0 82.5 79.7" enable-background="new 0 0 82.5 79.7" xml:space="preserve">
<path fill="#FFFFFF" d="M82.5,0v79.6H0C0.5,35.6,36.4,0,80.6,0C81.2,0,81.9,0,82.5,0z"/>
<g id="Layer_1">
	<g>
		<path fill="#0C41A4" d="M46.8,51.4l-7.7,2.8l7.7-13.4l-9.1-0.7v32.2l19.3,3V44.2l-8.8,15.3L46.8,51.4z"/>
		<path fill="#01297A" d="M76.6,54.2l-7.7-2.8l-1.4,8.1l-8.8-15.3v31.2l19.3-3V40.1l-9.1,0.7L76.6,54.2z"/>
		<path fill="#0C41A4" d="M43.5,36.7V32h-2.3h-1.6h-1.1c-1.1,0-1.9,0.9-1.9,1.9v1.3v1.3v1.9l7.8,0.6C43.8,38.3,43.5,37.5,43.5,36.7z
			"/>
		<path fill="#D61C64" d="M49.5,52.3l7.4-12.9h-6.4l-5.8,10.1l4.1-1.5L49.5,52.3z"/>
		<path fill="#951046" d="M66.3,52.3l0.7-4.3l4.1,1.5l-5.8-10.1h-6.4L66.3,52.3z"/>
		<path fill="#D61C64" d="M69.7,36.7v-6.6c0-0.8-1-2.3-4.3-2c-3.3,0.3-7.6,4-7.6,4s-4.3-3.5-7.6-4c-3.4-0.5-4.3,1.2-4.3,2v6.6
			c0,0.8,1,2,4.3,2c3.3,0,7.6,0,7.6,0s4.3,0,7.6,0C68.7,38.7,69.7,37.5,69.7,36.7z M50.3,32.1c-2.4,0-3.2-0.7-3.2-1.3
			c0-0.6,0.8-1.6,3.2-1.3c1.5,0.2,3.7,1.3,5.4,2.6H50.3z M57.9,36.9c-0.8,0-1.5-0.7-1.5-1.5c0-0.8,0.7-1.5,1.5-1.5
			c0.8,0,1.5,0.7,1.5,1.5S58.7,36.9,57.9,36.9z M65.4,29.5c2.4-0.3,3.2,0.7,3.2,1.3c0,0.6-0.8,1.3-3.2,1.3H60
			C61.7,30.8,63.9,29.7,65.4,29.5z"/>
		<path fill="#01297A" d="M77.1,32h-1.5h-1.2h-2.3v4.7c0,0.8-0.3,1.6-0.9,2.4l7.8-0.6v-1.9v-1.3v-1.3C79.1,32.8,78.2,32,77.1,32z"/>
	</g>
</g>
</svg>
