<?xml version="1.0" encoding="utf-8"?>
<!-- Generator: Adobe Illustrator 18.1.1, SVG Export Plug-In . SVG Version: 6.00 Build 0)  -->
<svg version="1.1" id="Calque_1" xmlns="http://www.w3.org/2000/svg" xmlns:xlink="http://www.w3.org/1999/xlink" x="0px" y="0px"
	 viewBox="0 0 82.5 79.7" enable-background="new 0 0 82.5 79.7" xml:space="preserve">
<path fill="#FFFFFF" d="M82.5,0v79.6H0C0.5,35.6,36.4,0,80.6,0C81.2,0,81.9,0,82.5,0z"/>
<g>
	<circle fill="#FBDD4A" cx="57.4" cy="53.7" r="2"/>
	<path fill="#447DC4" d="M57.4,75.4c-12,0-21.7-9.7-21.7-21.7S45.4,32,57.4,32c12,0,21.7,9.7,21.7,21.7S69.3,75.4,57.4,75.4z
		 M57.4,35.9c-9.8,0-17.8,8-17.8,17.8c0,9.8,8,17.8,17.8,17.8c9.8,0,17.8-8,17.8-17.8C75.1,43.9,67.2,35.9,57.4,35.9z"/>
	
		<rect x="60.1" y="42.2" transform="matrix(0.7073 0.7069 -0.7069 0.7073 52.7966 -29.5384)" fill="#FBDD4A" width="3.9" height="13.5"/>
	<circle fill="#FBDD4A" cx="66.8" cy="44.2" r="2"/>
	<path fill="#447DC4" d="M63.3,24.1C63.3,24.1,63.3,24.1,63.3,24.1L63.3,24.1l-11.8,0c0,0,0,0,0,0s0,0,0,0h0v0c-1.1,0-1.9,0.9-1.9,2
		c0,1.1,0.9,2,1.9,2v0h3.9v7.9h3.9V28h3.9v0c0,0,0,0,0,0c1.1,0,2-0.9,2-2C65.3,25,64.4,24.1,63.3,24.1z"/>
	<path fill="#447DC4" d="M34.6,46.6c0-1.1-0.8-1.9-1.9-2v0H19.4c0,0-0.1,0-0.1,0h-0.1v0c-0.5,0-0.9,0.2-1.2,0.6
		c-0.8,0.8-0.8,2,0,2.8c0.3,0.3,0.8,0.5,1.2,0.6v0h13.5c0,0,0,0,0,0s0,0,0,0h0.1v0C33.8,48.5,34.6,47.7,34.6,46.6z"/>
	<path fill="#447DC4" d="M27.6,53.9c0-1.1-0.8-1.9-1.9-2v0H12.3c0,0-0.1,0-0.1,0h-0.1v0c-0.5,0-0.9,0.2-1.2,0.6
		c-0.8,0.8-0.8,2,0,2.8c0.3,0.3,0.8,0.5,1.2,0.6v0h13.5l0,0c0,0,0,0,0,0h0.1v0C26.7,55.8,27.6,55,27.6,53.9z"/>
	<path fill="#447DC4" d="M35.2,61.2c0-1.1-0.8-1.9-1.9-2v0H20c0,0-0.1,0-0.1,0h-0.1v0c-0.5,0-0.9,0.2-1.2,0.6c-0.8,0.8-0.8,2,0,2.8
		c0.3,0.3,0.8,0.5,1.2,0.6v0h13.5c0,0,0,0,0,0c0,0,0,0,0,0h0.1v0C34.4,63.1,35.2,62.3,35.2,61.2z"/>
</g>
</svg>
