<?xml version="1.0" encoding="utf-8"?>
<!-- Generator: Adobe Illustrator 18.1.1, SVG Export Plug-In . SVG Version: 6.00 Build 0)  -->
<svg version="1.1" id="Calque_1" xmlns="http://www.w3.org/2000/svg" xmlns:xlink="http://www.w3.org/1999/xlink" x="0px" y="0px"
	 viewBox="0 0 82.5 79.7" enable-background="new 0 0 82.5 79.7" xml:space="preserve">
<path fill="#FFFFFF" d="M82.5,0v79.6H0C0.5,35.6,36.4,0,80.6,0C81.2,0,81.9,0,82.5,0z"/>
<g>
	<g>
		<path fill="#FBE05B" d="M68.7,38.3l-7.7,0l-7.7,0c-0.5,0-0.9,0.4-0.9,0.9c0,0.3,0.1,0.5,0.3,0.6l0,0l6.2,5.9c0,0,0,0,0,0
			c0,0,0,0,0,0c0,0,0,0,0,0c0,0,0,0,0.1,0.1c0,0,0,0,0,0c0,0,0,0.1,0.1,0.1c0,0,0,0,0,0c0,0,0,0.1,0.1,0.1c0,0,0,0,0,0
			c0,0,0,0.1,0.1,0.1c0,0,0,0,0,0c0,0,0,0.1,0.1,0.1c0,0,0,0,0,0.1c0,0,0,0.1,0,0.1c0,0,0,0,0,0.1c0,0,0,0,0,0.1c0,0,0,0,0,0.1
			c0,0,0,0,0,0.1c0,0,0,0.1,0,0.1c0,0,0,0,0,0.1c0,0,0,0.1,0,0.1c0,0,0,0,0,0.1c0,0,0,0.1,0,0.1c0,0,0,0,0,0c0,0,0,0.1,0,0.1
			c0,0,0,0,0,0c0,0,0,0.1,0,0.1c0,0,0,0,0,0.1c0,0,0,0.1,0,0.1c0,0,0,0,0,0.1c0,0,0,0.1,0,0.1c0,0,0,0,0,0.1c0,0,0,0.1,0,0.1
			c0,0,0,0.1,0,0.1v8.7c0,2.2-1.4,2.8-2.3,3c-2.2,0.6-8.3,1.8-9.1,2c0,0,0,0-0.1,0c0,0,0,0,0,0v0c-0.7,0.2-1.2,0.8-1.2,1.5v3.2v3.2
			c0,0.8,0.7,1.5,1.5,1.5H61h12.2c0.8,0,1.5-0.7,1.5-1.5v-3.2v-3.2c0-0.7-0.5-1.3-1.2-1.5v0c0,0,0,0,0,0c0,0,0,0-0.1,0
			c-0.8-0.2-6.9-1.3-9.1-2c-0.9-0.3-2.3-0.8-2.3-3V48c0,0,0-0.1,0-0.1c0,0,0-0.1,0-0.1c0,0,0,0,0-0.1c0,0,0-0.1,0-0.1c0,0,0,0,0-0.1
			c0,0,0-0.1,0-0.1c0,0,0,0,0-0.1c0,0,0-0.1,0-0.1c0,0,0,0,0,0c0,0,0-0.1,0-0.1c0,0,0,0,0,0c0,0,0-0.1,0-0.1c0,0,0,0,0-0.1
			c0,0,0-0.1,0-0.1c0,0,0,0,0-0.1c0,0,0-0.1,0-0.1c0,0,0,0,0-0.1c0,0,0,0,0-0.1c0,0,0,0,0-0.1c0,0,0,0,0-0.1c0,0,0-0.1,0-0.1
			c0,0,0,0,0-0.1c0,0,0-0.1,0.1-0.1c0,0,0,0,0,0c0,0,0-0.1,0.1-0.1c0,0,0,0,0,0c0,0,0-0.1,0.1-0.1c0,0,0,0,0,0c0,0,0-0.1,0.1-0.1
			c0,0,0,0,0,0c0,0,0,0,0.1-0.1c0,0,0,0,0,0c0,0,0,0,0,0c0,0,0,0,0,0l6.2-5.9l0,0c0.2-0.2,0.3-0.4,0.3-0.6
			C69.5,38.7,69.2,38.3,68.7,38.3z"/>
	</g>
	<g>
		<polygon fill="#5490CE" points="58.4,47.6 58.4,47.6 58.4,47.6 		"/>
		<polygon fill="#5490CE" points="63.6,47.7 63.6,47.7 63.6,47.7 		"/>
		<path fill="#5490CE" d="M79.1,62.5c0-1.2-0.3-2.4-1-3.5c-0.5-0.8-1.2-1.6-2.3-2.6L67,48l8.8-8.4c1.5-1.4,3.3-3.3,3.3-6.1v-7
			c0-3.2-2.6-5.9-5.9-5.9H48.8c-3.2,0-5.9,2.6-5.9,5.9v7c0,1.2,0.3,2.4,1,3.5c0.5,0.8,1.2,1.6,2.3,2.6l0.1,0.1L55,48l-8.8,8.4
			c-1.5,1.4-3.3,3.3-3.3,6.1v7c0,3.2,2.6,5.9,5.9,5.9h24.4c3.2,0,5.9-2.6,5.9-5.9V62.5z M76.8,69.5c0,2-1.6,3.6-3.6,3.6H48.8
			c-2,0-3.6-1.6-3.6-3.6v-7c0-1.5,0.7-2.7,2.4-4.2l0.1,0c0,0,0.1-0.1,0.1-0.1l9.8-9.3c0,0,0,0,0.1-0.1l0,0l0-0.1l0-0.1l0-0.1l0-0.1
			l0-0.1l0-0.1l0-0.3l-0.1-0.4l0-0.1l-0.3-0.4l-9.7-9.3c0,0-0.1-0.1-0.1-0.1c-1.7-1.6-2.4-2.8-2.4-4.3v-7c0-2,1.6-3.6,3.6-3.6h24.4
			c2,0,3.6,1.6,3.6,3.6v7c0,1.5-0.7,2.7-2.4,4.2c-0.1,0.1-0.1,0.1-0.1,0.1l-9.8,9.4l-0.1,0.1l0,0.1l0,0.1l-0.1,0.4c0,0,0,0.1,0,0.1
			l0,0.1l0,0.2l0,0.1l0,0.1l0,0.1l0.2,0.3c0,0,0,0,0,0l0,0c0,0,0,0,0,0l0,0l9.7,9.3c0,0,0.1,0.1,0.1,0.1c1.7,1.6,2.4,2.8,2.4,4.3
			V69.5z"/>
	</g>
</g>
</svg>
