<?xml version="1.0" encoding="utf-8"?>
<!-- Generator: Adobe Illustrator 18.1.1, SVG Export Plug-In . SVG Version: 6.00 Build 0)  -->
<svg version="1.1" id="Calque_1" xmlns="http://www.w3.org/2000/svg" xmlns:xlink="http://www.w3.org/1999/xlink" x="0px" y="0px"
	 viewBox="515 -125 600 430" enable-background="new 515 -125 600 430" xml:space="preserve">
<path fill="#EAEAEA" d="M515,125h180v180H515V125z"/>
<g>
	<path fill="#F2BE96" d="M947.6-108.7c21.7,0,39.4,17.6,39.4,39.4c0,21.7-17.6,39.3-39.4,39.3c-21.7,0-39.3-17.6-39.3-39.3
		C908.2-91.1,925.8-108.7,947.6-108.7z"/>
	<polygon fill="#FBE05B" points="949,115.4 978.8,-21.8 922.6,-21.9 	"/>
	<path fill="#F2BE96" d="M1008.9,150c0,23.7,30.9,23.7,30.8,0v-1.8h-30.8V150z"/>
	<path fill="#F2BE96" d="M860.2,150c0,23.5,31,23.5,31,0v-1.8h-31V150z"/>
	<path fill="#D0D0D0" d="M993.7-21.8l-14.9,0L949,115.4L922.6-21.9l-14.2,0l-5.4,0.3c-26.3,1.4-42.8,23.4-42.8,50.8v119h31V32.4h9.9
		l0,131.3c10.8,0,36.9,0,41,0c5.2,0,6.9-13.8,6.9-13.8s0,13.8,6,13.8c5.1,0,35.2,0,44.1,0l0-131.3h9.7v115.8h30.8V29.9
		C1039.7,3.8,1024.3-21.8,993.7-21.8z"/>
	<polygon fill="#838383" points="978.8,-21.9 991.7,-3.3 980,1 988.6,9.7 949,115.4 972.6,-21.9 	"/>
	<rect x="989" y="7.9" fill="#17479C" width="13.8" height="13.8"/>
	
		<linearGradient id="SVGID_1_" gradientUnits="userSpaceOnUse" x1="335" y1="365" x2="336" y2="365" gradientTransform="matrix(0 -5.5886 -5.5886 0 3035.7871 1889.5712)">
		<stop  offset="0" style="stop-color:#9C9EA0"/>
		<stop  offset="0.87" style="stop-color:#EFEFF0"/>
		<stop  offset="1" style="stop-color:#9C9EA0"/>
	</linearGradient>
	<rect x="992.7" y="11.9" fill="url(#SVGID_1_)" width="6.5" height="5.8"/>
	<path fill="#17479C" d="M992.9,15.9c2.3-0.6,3.9-1,6-1.4c0.1,0,0.1,0,0,0l-3.6,0.1c0,0.1-0.1,0.4-0.5,0.6
		C994.7,15.2,994.3,15.4,992.9,15.9L992.9,15.9"/>
	<path fill="#17479C" d="M996.7,15.1l-0.4,0.5c-0.1,0.1-0.2,0.2-0.3,0.2l-2.5,0.1v0L996.7,15.1L996.7,15.1"/>
	<path fill="#17479C" d="M997.3,13.7c0.3,0,0.3,0.2,0.2,0.4l-0.1,0.2l-2.1,0c-0.3-0.3-0.8-0.5-1.1-0.6l0,0
		C994.4,13.8,997.1,13.7,997.3,13.7"/>
	<polyline fill="#FDC922" points="991.3,10.7 991.7,10.7 991.8,10.8 991.8,10.9 991.7,11 991.1,11 991,10.9 991,9.6 991.1,9.6 
		991.3,9.6 991.3,9.6 991.3,10.7 	"/>
	<path fill="#FDC922" d="M992.4,9.8l-0.2,0.6h0.3L992.4,9.8L992.4,9.8z M993,10.9L993,10.9l-0.3,0l0,0l-0.1-0.3h-0.4l-0.1,0.3l0,0
		h-0.2l0,0l0.4-1.3l0,0h0.3l0,0L993,10.9"/>
	<path fill="#FDC922" d="M993.8,10.3v0.4h0.2c0.2,0,0.2-0.1,0.2-0.2c0-0.1-0.1-0.2-0.3-0.2H993.8z M993.8,9.8v0.4h0.1
		c0.2,0,0.2-0.1,0.2-0.2c0-0.1-0.1-0.2-0.3-0.2H993.8z M994,9.6c0.3,0,0.5,0.1,0.5,0.3c0,0.2-0.2,0.2-0.3,0.3v0
		c0.2,0,0.3,0.1,0.3,0.3c0,0.3-0.3,0.4-0.5,0.4h-0.4l0,0V9.6l0,0H994"/>
	<path fill="#FDC922" d="M995.2,9.8l-0.2,0.6h0.3L995.2,9.8L995.2,9.8z M995.8,10.9L995.8,10.9l-0.3,0l0,0l-0.1-0.3H995l-0.1,0.3
		l0,0h-0.2l0,0l0.4-1.3l0,0h0.3l0,0L995.8,10.9"/>
	<polyline fill="#FDC922" points="996.2,10.1 996.2,10.9 996.2,11 996,11 996,10.9 996,9.6 996,9.6 996.2,9.6 996.3,9.6 996.8,10.5 
		996.8,9.6 996.8,9.6 997,9.6 997,9.6 997,10.9 997,11 996.8,11 996.8,10.9 996.2,10.1 	"/>
	<path fill="#FDC922" d="M997.9,10.8c0.2,0,0.3-0.2,0.3-0.5c0-0.3-0.1-0.5-0.3-0.5c-0.2,0-0.3,0.2-0.3,0.5S997.7,10.8,997.9,10.8z
		 M997.9,11L997.9,11c-0.5,0-0.6-0.3-0.6-0.7c0-0.4,0.2-0.7,0.6-0.7c0.4,0,0.6,0.3,0.6,0.7c0,0.3-0.1,0.5-0.3,0.6
		c0.1,0,0.2,0.1,0.4,0.1l0,0v0.1l0,0C998.3,11.2,998.1,11.1,997.9,11"/>
	<path fill="#FDC922" d="M999.5,9.6L999.5,9.6l0.2,0l0,0v0.8c0,0.3-0.2,0.5-0.5,0.5c-0.4,0-0.5-0.2-0.5-0.5V9.6l0,0h0.2l0,0v0.8
		c0,0.2,0,0.4,0.2,0.4c0.2,0,0.2-0.2,0.2-0.4V9.6"/>
	<polyline fill="#FDC922" points="1000.3,10.4 1000.3,10.7 1000.8,10.7 1000.8,10.8 1000.8,10.9 1000.8,11 1000,11 1000,10.9 
		1000,9.6 1000,9.6 1000.8,9.6 1000.8,9.6 1000.8,9.8 1000.8,9.8 1000.3,9.8 1000.3,10.1 1000.7,10.1 1000.7,10.2 1000.7,10.3 
		1000.7,10.4 1000.3,10.4 	"/>
	<path fill="#FDC922" d="M992.5,18.9v0.5h0.1c0.2,0,0.3-0.1,0.3-0.3c0-0.2-0.1-0.2-0.3-0.2H992.5z M992.5,19.6V20l0,0h-0.2l0,0v-1.3
		l0,0h0.4c0.3,0,0.6,0.1,0.6,0.4c0,0.4-0.3,0.5-0.6,0.5H992.5"/>
	<path fill="#FDC922" d="M993.9,19.9c0.2,0,0.3-0.2,0.3-0.5c0-0.3-0.1-0.5-0.3-0.5c-0.2,0-0.3,0.2-0.3,0.5
		C993.6,19.7,993.7,19.9,993.9,19.9z M993.9,20.1c-0.4,0-0.6-0.3-0.6-0.7c0-0.4,0.2-0.7,0.6-0.7c0.4,0,0.6,0.3,0.6,0.7
		C994.6,19.8,994.4,20.1,993.9,20.1"/>
	<path fill="#FDC922" d="M995,19.9c0.2,0,0.3,0,0.3-0.2c0-0.3-0.6-0.2-0.6-0.6c0-0.2,0.1-0.4,0.5-0.4c0.1,0,0.2,0,0.2,0l0,0v0.1l0,0
		c-0.1,0-0.1,0-0.2,0c-0.2,0-0.2,0-0.2,0.2c0,0.2,0.6,0.2,0.6,0.6c0,0.3-0.1,0.4-0.5,0.4c-0.1,0-0.2,0-0.3,0l0,0v-0.1l0,0
		C994.8,19.9,994.9,19.9,995,19.9"/>
	<polyline fill="#FDC922" points="996.3,20 996.3,20.1 996,20.1 996,20 996,18.9 995.6,18.9 995.6,18.9 995.6,18.8 995.6,18.7 
		996.7,18.7 996.7,18.8 996.7,18.9 996.7,18.9 996.3,18.9 996.3,20 	"/>
	<path fill="#FDC922" d="M997.1,19l-0.2,0.6h0.3L997.1,19z M997.8,20L997.8,20l-0.3,0l0,0l-0.1-0.3h-0.4l-0.1,0.3l0,0h-0.2l0,0
		l0.4-1.3l0,0h0.3l0,0L997.8,20"/>
	<polyline fill="#FDC922" points="998.2,19.9 998.6,19.9 998.7,19.9 998.7,20 998.6,20.1 998,20.1 997.9,20 997.9,18.8 998,18.7 
		998.2,18.7 998.2,18.8 998.2,19.9 	"/>
	<polyline fill="#FDC922" points="999.1,19.5 999.1,19.9 999.7,19.9 999.7,19.9 999.7,20 999.7,20.1 998.9,20.1 998.8,20 
		998.8,18.8 998.9,18.7 999.6,18.7 999.7,18.8 999.7,18.9 999.6,18.9 999.1,18.9 999.1,19.3 999.5,19.3 999.6,19.3 999.6,19.4 
		999.5,19.5 999.1,19.5 	"/>
	<polygon fill="#838383" points="922.6,-21.9 909.7,-3.3 921.4,1 912.8,9.6 949,115.4 926.2,-21.9 	"/>
	
		<ellipse transform="matrix(0.9446 -0.3282 0.3282 0.9446 49.319 321.4083)" fill="#FFDD00" cx="976.8" cy="14.6" rx="8.2" ry="5.7"/>
	<path fill="#053F8F" d="M970.4,16.9c5.2-1.3,8.6-2.3,13.2-3.2c0.1,0,0.2-0.1,0-0.1l-8,0.1c0,0.3-0.3,0.8-1,1.2
		C974.3,15.2,973.4,15.7,970.4,16.9L970.4,16.9"/>
	<path fill="#053F8F" d="M978.8,15.1l-0.9,1.2c-0.1,0.2-0.4,0.4-0.7,0.5l-5.5,0.2l0,0L978.8,15.1L978.8,15.1"/>
	<path fill="#053F8F" d="M980.1,12.1c0.7,0,0.7,0.5,0.4,0.9c-0.1,0.2-0.2,0.2-0.3,0.4l-4.6,0c-0.6-0.6-1.8-1-2.5-1.3
		c-0.1-0.1-0.1-0.1,0.1-0.1C973.7,12.1,979.7,12.1,980.1,12.1"/>
	<path fill="#FFFFFF" d="M981.3,9.4L981.3,9.4c-0.8,0-1.7-0.1-2.8,0l0.3-0.4C979.5,9,980.9,9.3,981.3,9.4"/>
	<path fill="#FFFFFF" d="M981.4,9.4l0.1-0.1c-0.3-0.1-0.8-0.2-1.2-0.2C980.7,9.1,981.2,9.3,981.4,9.4"/>
	<path fill="#FFFFFF" d="M972.4,19.1c0,0.1-0.3,0-0.5-0.1c-0.2-0.1-0.4-0.3-0.3-0.4c0-0.1,0.3,0,0.5,0.1
		C972.2,18.9,972.4,19,972.4,19.1"/>
	<path fill="#FFFFFF" d="M972.8,10.8v0.4c0.6-0.4,1.1-0.7,1.4-0.8c0-0.1,0-0.3,0-0.4C973.8,10.2,973.3,10.5,972.8,10.8 M971.5,12
		l0.4-0.3l0,0l-0.4,0.4l0,0.1c0.3-0.3,0.7-0.6,1.1-0.8V11c-0.4,0.3-0.7,0.6-1,0.9L971.5,12z M970.7,13.1L970.7,13.1l0.1-0.4
		c-0.1,0.1-0.2,0.2-0.2,0.3C970.7,13,970.6,13,970.7,13.1 M970.9,12.8c0.1-0.1,0.2-0.2,0.3-0.3l0-0.3c-0.1,0.1-0.2,0.2-0.3,0.3
		L970.9,12.8z"/>
	<rect x="515" y="-85" opacity="0.5" fill="#2AA3FF" width="300" height="210"/>
	<rect x="715" y="85" fill="#2B2B2B" width="380" height="220"/>
	<path fill="#FFFFFF" d="M715,295V95c0-5.5,4.5-10,10-10h360c5.5,0,10,4.5,10,10v200c0,5.5,4.5,10,10,10l0,0c5.5,0,10-4.5,10-10V75
		c0-5.5-4.5-10-10-10H705c-5.5,0-10,4.5-10,10v220c0,5.5,4.5,10,10,10l0,0C710.5,305,715,300.5,715,295z"/>
	<path fill="#EAEAEA" d="M527-125h276c6.6,0,12,5.4,12,12v28H515v-28C515-119.6,520.4-125,527-125z"/>
	<g>
		<defs>
			<rect id="SVGID_2_" x="715" y="-35" width="50" height="50"/>
		</defs>
		<clipPath id="SVGID_3_">
			<use xlink:href="#SVGID_2_"  overflow="visible"/>
		</clipPath>
		<g clip-path="url(#SVGID_3_)">
			<defs>
				<rect id="SVGID_4_" x="715" y="-35" width="50" height="50"/>
			</defs>
			<clipPath id="SVGID_5_">
				<use xlink:href="#SVGID_4_"  overflow="visible"/>
			</clipPath>
			<g transform="matrix(1 0 0 1 6.103516e-05 0)" clip-path="url(#SVGID_5_)">
				
					<image overflow="visible" width="180" height="180" xlink:href="A046553FF29DFB38.jpg"  transform="matrix(0.2778 0 0 0.2778 715 -35)">
				</image>
			</g>
		</g>
	</g>
	<rect x="888.9" y="112.9" fill="#FFFFFF" width="2.6" height="15"/>
	<path fill="#FFFFFF" d="M906.8,122.1h2.7c-0.7,3.7-3.5,6.1-7.3,6.1c-4.3,0-7.8-3.3-7.8-7.8s3.5-7.8,7.8-7.8c3.8,0,6.6,2.4,7.3,6.1
		h-2.7c-0.6-2.3-2.2-3.6-4.6-3.6c-2.9,0-5.1,2.2-5.1,5.3s2.2,5.3,5.1,5.3C904.6,125.7,906.2,124.3,906.8,122.1z"/>
	<rect x="912.4" y="112.9" fill="#FFFFFF" width="2.6" height="15"/>
	<path fill="#FFFFFF" d="M791.3,172.7c0,3.9-2.5,6.7-6.4,6.7s-6.4-2.8-6.4-6.7v-8.6h1.6v8.6c0,3,1.9,5.2,4.8,5.2s4.8-2.2,4.8-5.2
		v-8.6h1.5V172.7z"/>
	<path fill="#FFFFFF" d="M804.4,173.2v5.9h-1.5v-5.8c0-2.1-1.2-3.3-3.1-3.3c-1.3,0-2.6,0.7-3.5,1.9v7.2h-1.5v-10.2h1.5v1.2
		c0.9-1,2.2-1.5,3.8-1.5C802.6,168.6,804.4,170.4,804.4,173.2z"/>
	<path fill="#FFFFFF" d="M821.6,175.7h1.6c-0.4,2.2-2.3,3.7-4.8,3.7c-3.1,0-5.3-2.4-5.3-5.4c0-3,2.2-5.3,5.3-5.3
		c2.4,0,4.4,1.5,4.8,3.7h-1.6c-0.3-1.4-1.6-2.3-3.2-2.3c-2.3,0-3.8,1.8-3.8,4c0,2.2,1.5,4,3.8,4C820.1,178,821.3,177.1,821.6,175.7z
		"/>
	<path fill="#FFFFFF" d="M836.4,174c0,3.1-2.4,5.4-5.4,5.4c-3.1,0-5.4-2.4-5.4-5.4c0-3,2.4-5.3,5.4-5.3
		C834,168.7,836.4,171,836.4,174z M834.9,174c0-2.2-1.7-4-3.9-4c-2.2,0-3.9,1.8-3.9,4c0,2.2,1.7,4,3.9,4
		C833.2,178,834.9,176.2,834.9,174z"/>
	<path fill="#FFFFFF" d="M848.9,173.2v5.9h-1.5v-5.8c0-2.1-1.2-3.3-3.1-3.3c-1.3,0-2.6,0.7-3.5,1.9v7.2h-1.5v-10.2h1.5v1.2
		c0.9-1,2.2-1.5,3.8-1.5C847.1,168.6,848.9,170.4,848.9,173.2z"/>
	<path fill="#FFFFFF" d="M852.8,175.9c0.3,1.4,1.4,2.2,3.3,2.2c1.7,0,2.8-0.7,2.8-1.8c0-0.9-0.7-1.5-1.8-1.6l-2.3-0.4
		c-1.7-0.3-3-1-3-2.7c0-1.8,1.7-3,4.1-3c2.1,0,4.2,0.9,4.4,3.2h-1.4c-0.2-1.3-1.3-2-3-2c-1.6,0-2.6,0.7-2.6,1.7c0,0.8,0.5,1.4,2,1.6
		l2,0.4c1.5,0.2,3,0.9,3,2.8c0,2-1.8,3.1-4.3,3.1c-2.6,0-4.4-1.2-4.7-3.5H852.8z"/>
	<path fill="#FFFFFF" d="M873,174.6L873,174.6L873,174.6h-8.7c0.2,1.9,1.6,3.5,3.8,3.5c1.4,0,2.5-0.6,2.9-1.6h1.6
		c-0.6,1.7-2.4,2.9-4.6,2.9c-3.1,0-5.3-2.4-5.3-5.4c0-3,2.2-5.3,5.3-5.3c2.9,0,4.9,2.2,5,5.3C873,174.2,873,174.4,873,174.6z
		 M864.3,173.4h7.2c-0.2-2-1.5-3.5-3.5-3.5C865.9,169.9,864.5,171.5,864.3,173.4z"/>
	<path fill="#FFFFFF" d="M876,165.1c0-0.6,0.4-1,1-1c0.6,0,1,0.4,1,1c0,0.6-0.5,1-1,1C876.5,166.1,876,165.7,876,165.1z
		 M877.9,179.1h-1.5v-10.2h1.5V179.1z"/>
	<rect x="881.9" y="163.5" fill="#FFFFFF" width="1.5" height="15.6"/>
	<rect x="887" y="163.5" fill="#FFFFFF" width="1.5" height="15.6"/>
	<path fill="#FFFFFF" d="M901.9,174.6L901.9,174.6L901.9,174.6h-8.7c0.2,1.9,1.6,3.5,3.8,3.5c1.4,0,2.5-0.6,2.9-1.6h1.6
		c-0.6,1.7-2.4,2.9-4.6,2.9c-3.1,0-5.3-2.4-5.3-5.4c0-3,2.2-5.3,5.3-5.3c2.9,0,4.9,2.2,5,5.3C901.9,174.2,901.9,174.4,901.9,174.6z
		 M893.2,173.4h7.2c-0.2-2-1.5-3.5-3.5-3.5C894.8,169.9,893.4,171.5,893.2,173.4z"/>
	<path fill="#FFFFFF" d="M906.3,170.7c0.9-1.3,2.3-2,4-2v1.4c-1.7,0-3.1,0.9-4,2.4v6.6h-1.5v-10.2h1.5V170.7z"/>
	<polygon fill="#FFFFFF" points="923.7,179.1 922.3,179.1 917.5,168.9 919.1,168.9 923,177.2 926.9,168.9 928.5,168.9 	"/>
	<path fill="#FFFFFF" d="M940.5,174c0,3.1-2.4,5.4-5.4,5.4c-3.1,0-5.4-2.4-5.4-5.4c0-3,2.4-5.3,5.4-5.3
		C938.1,168.7,940.5,171,940.5,174z M939,174c0-2.2-1.7-4-3.9-4c-2.2,0-3.9,1.8-3.9,4c0,2.2,1.7,4,3.9,4
		C937.3,178,939,176.2,939,174z"/>
	<path fill="#FFFFFF" d="M952.7,179.1h-1.5v-1.2c-0.9,0.9-2.2,1.5-3.7,1.5c-2.6,0-4.3-1.8-4.3-4.6v-5.9h1.5v5.8
		c0,2.1,1.3,3.3,3.1,3.3c1.3,0,2.6-0.7,3.5-1.9v-7.2h1.5V179.1z"/>
	<path fill="#FFFFFF" d="M957.2,175.9c0.3,1.4,1.4,2.2,3.3,2.2c1.7,0,2.8-0.7,2.8-1.8c0-0.9-0.7-1.5-1.8-1.6l-2.3-0.4
		c-1.7-0.3-3-1-3-2.7c0-1.8,1.7-3,4.1-3c2.1,0,4.2,0.9,4.4,3.2h-1.4c-0.2-1.3-1.3-2-3-2c-1.6,0-2.6,0.7-2.6,1.7c0,0.8,0.5,1.4,2,1.6
		l2,0.4c1.5,0.2,3,0.9,3,2.8c0,2-1.8,3.1-4.3,3.1c-2.6,0-4.4-1.2-4.7-3.5H957.2z"/>
	<path fill="#FFFFFF" d="M975.5,170.7c0.9-1.3,2.3-2,4-2v1.4c-1.7,0-3.1,0.9-4,2.4v6.6H974v-10.2h1.5V170.7z"/>
	<path fill="#FFFFFF" d="M991.2,174.6L991.2,174.6L991.2,174.6h-8.7c0.2,1.9,1.6,3.5,3.8,3.5c1.4,0,2.5-0.6,2.9-1.6h1.6
		c-0.6,1.7-2.4,2.9-4.6,2.9c-3.1,0-5.3-2.4-5.3-5.4c0-3,2.2-5.3,5.3-5.3c2.9,0,4.9,2.2,5,5.3C991.2,174.2,991.2,174.4,991.2,174.6z
		 M982.5,173.4h7.2c-0.2-2-1.5-3.5-3.5-3.5C984.1,169.9,982.7,171.5,982.5,173.4z"/>
	<path fill="#FFFFFF" d="M1002.1,175.7h1.6c-0.4,2.2-2.3,3.7-4.8,3.7c-3.1,0-5.3-2.4-5.3-5.4c0-3,2.2-5.3,5.3-5.3
		c2.4,0,4.4,1.5,4.8,3.7h-1.6c-0.3-1.4-1.6-2.3-3.2-2.3c-2.3,0-3.8,1.8-3.8,4c0,2.2,1.5,4,3.8,4
		C1000.6,178,1001.8,177.1,1002.1,175.7z M999.6,180.6l-1.2,3.2H997l1-3.2H999.6z"/>
	<path fill="#FFFFFF" d="M1016.9,174c0,3.1-2.4,5.4-5.4,5.4c-3.1,0-5.4-2.4-5.4-5.4c0-3,2.4-5.3,5.4-5.3
		C1014.5,168.7,1016.9,171,1016.9,174z M1015.4,174c0-2.2-1.7-4-3.9-4c-2.2,0-3.9,1.8-3.9,4c0,2.2,1.7,4,3.9,4
		C1013.7,178,1015.4,176.2,1015.4,174z"/>
	<path fill="#FFFFFF" d="M1019.9,165.1c0-0.6,0.4-1,1-1c0.6,0,1,0.4,1,1c0,0.6-0.5,1-1,1C1020.4,166.1,1019.9,165.7,1019.9,165.1z
		 M1021.7,179.1h-1.5v-10.2h1.5V179.1z"/>
	<path fill="#FFFFFF" d="M1032.4,179.1c-0.9,0.3-1.5,0.4-2.2,0.4c-2.3,0-3.5-1.3-3.5-4v-5.2h-2.7v-1.3h2.7v-3.8h1.5v3.8h3.9v1.3
		h-3.9v5.2c0,1.8,0.7,2.6,2.3,2.6c0.5,0,1.1-0.1,1.7-0.3L1032.4,179.1z"/>
	<path fill="#FFFFFF" d="M780,206.4c0.3,1.7,1.6,2.5,3.6,2.5c1.7,0,2.9-0.6,2.9-1.6c0-0.8-0.6-1.3-1.8-1.6l-3.2-0.5
		c-2.2-0.4-4.3-1.6-4.3-4.2c0-2.9,2.5-4.7,6.2-4.7c2.5,0,6.1,0.9,6.5,4.9l-3.3,0c-0.1-1.5-1.5-2.1-3.2-2.1c-1.7,0-2.6,0.7-2.6,1.6
		c0,0.7,0.5,1.4,2.1,1.7l2.7,0.4c2.2,0.4,4.4,1.4,4.4,4.2c0,3.1-2.8,4.8-6.4,4.8c-3.3,0-6.4-1.4-6.8-5.4L780,206.4z"/>
	<path fill="#FFFFFF" d="M807.9,211.3h-3.6v-1c-1.2,0.9-2.7,1.4-4.5,1.4c-4.1,0-7.4-3.4-7.4-7.7c0-4.3,3.3-7.7,7.4-7.7
		c1.8,0,3.3,0.5,4.5,1.4v-1h3.6V211.3z M804.3,206.4v-5c-1-1.5-2.4-2.1-4-2.1c-2.5,0-4.3,2.1-4.3,4.6c0,2.4,1.8,4.6,4.3,4.6
		C801.9,208.5,803.3,208,804.3,206.4z"/>
	<path fill="#FFFFFF" d="M826.6,203.2v8.1h-3.6v-7.9c0-2.6-1.4-4-3.6-4c-1.3,0-2.7,0.7-3.8,2.1v9.8h-3.6v-14.7h3.6v1.2
		c1.3-1.1,2.8-1.7,4.5-1.7C824.1,196.1,826.6,198.9,826.6,203.2z"/>
	<path fill="#FFFFFF" d="M832.8,206.4c0.3,1.7,1.6,2.5,3.6,2.5c1.7,0,2.9-0.6,2.9-1.6c0-0.8-0.6-1.3-1.8-1.6l-3.2-0.5
		c-2.2-0.4-4.3-1.6-4.3-4.2c0-2.9,2.5-4.7,6.2-4.7c2.5,0,6.1,0.9,6.5,4.9l-3.3,0c-0.1-1.5-1.5-2.1-3.2-2.1c-1.7,0-2.6,0.7-2.6,1.6
		c0,0.7,0.5,1.4,2.1,1.7l2.7,0.4c2.2,0.4,4.4,1.4,4.4,4.2c0,3.1-2.8,4.8-6.4,4.8c-3.3,0-6.4-1.4-6.8-5.4L832.8,206.4z"/>
	<path fill="#FFFFFF" d="M858.1,198.5c1.3-1.4,3.1-2.1,5.3-2.1v3.4c-2.3,0.1-4.1,0.9-5.3,2.5v9.1h-3.6v-14.7h3.6V198.5z"/>
	<path fill="#FFFFFF" d="M880,205.4L880,205.4h-11.3c0.4,1.8,1.8,3.2,4.3,3.2c1.4,0,2.4-0.5,3-1.4h3.8c-0.8,2.7-3.5,4.4-6.9,4.4
		c-4.7,0-7.8-3.3-7.8-7.7c0-4.4,3.1-7.7,7.8-7.7c4.1,0,7.1,3,7.2,7.4C880,204.2,880,204.8,880,205.4z M868.7,202.7h7.8
		c-0.3-2.1-1.6-3.4-3.7-3.4C870.4,199.3,869.1,200.8,868.7,202.7z"/>
	<path fill="#FFFFFF" d="M897.8,203.2v8.1h-3.6v-7.9c0-2.6-1.4-4-3.6-4c-1.3,0-2.7,0.7-3.8,2.1v9.8h-3.6v-14.7h3.6v1.2
		c1.3-1.1,2.8-1.7,4.5-1.7C895.2,196.1,897.8,198.9,897.8,203.2z"/>
	<path fill="#FFFFFF" d="M916.3,211.3h-3.6v-1.1c-1.2,0.9-2.7,1.4-4.5,1.4c-4.1,0-7.4-3.4-7.4-7.7c0-4.2,3.3-7.7,7.4-7.7
		c1.8,0,3.3,0.5,4.5,1.4v-8.4h3.6V211.3z M912.7,206.4v-5c-1-1.5-2.4-2-4-2c-2.5,0-4.3,2.1-4.3,4.6c0,2.5,1.8,4.6,4.3,4.6
		C910.3,208.5,911.7,208,912.7,206.4z"/>
	<path fill="#FFFFFF" d="M934.5,205.4L934.5,205.4h-11.3c0.4,1.8,1.8,3.2,4.3,3.2c1.4,0,2.5-0.5,3-1.4h3.8c-0.8,2.7-3.5,4.4-6.9,4.4
		c-4.7,0-7.8-3.3-7.8-7.7c0-4.4,3.1-7.7,7.8-7.7c4.1,0,7.1,3,7.2,7.4C934.6,204.2,934.6,204.8,934.5,205.4z M923.2,202.7h7.8
		c-0.3-2.1-1.6-3.4-3.7-3.4C925,199.3,923.6,200.8,923.2,202.7z"/>
	<polygon fill="#FFFFFF" points="942,208.3 949.9,208.3 949.9,211.3 936.7,211.3 936.7,209.6 944.7,199.6 936.9,199.6 936.9,196.6 
		949.9,196.6 949.9,198.5 	"/>
	<rect x="953" y="201.4" fill="#FFFFFF" width="10.7" height="3.6"/>
	<polygon fill="#FFFFFF" points="975.7,211.3 972.6,211.3 965.8,196.6 969.6,196.6 974.2,206.7 978.7,196.6 982.5,196.6 	"/>
	<path fill="#FFFFFF" d="M998.9,204c0,4.5-3.3,7.8-7.8,7.8c-4.5,0-7.8-3.3-7.8-7.8c0-4.4,3.3-7.7,7.8-7.7
		C995.5,196.3,998.9,199.5,998.9,204z M995.3,204c0-2.5-1.7-4.4-4.2-4.4c-2.5,0-4.2,2-4.2,4.4c0,2.5,1.7,4.5,4.2,4.5
		C993.6,208.5,995.3,206.5,995.3,204z"/>
	<path fill="#FFFFFF" d="M1016.5,211.3h-3.6V210c-1.3,1.1-2.8,1.7-4.6,1.7c-3.8,0-6.4-2.8-6.4-7v-8.1h3.6v7.9c0,2.5,1.4,4,3.6,4
		c1.3,0,2.7-0.8,3.8-2.2v-9.7h3.6V211.3z"/>
	<path fill="#FFFFFF" d="M1023,206.4c0.3,1.7,1.6,2.5,3.6,2.5c1.7,0,2.9-0.6,2.9-1.6c0-0.8-0.6-1.3-1.8-1.6l-3.2-0.5
		c-2.2-0.4-4.3-1.6-4.3-4.2c0-2.9,2.5-4.7,6.2-4.7c2.5,0,6.1,0.9,6.5,4.9l-3.3,0c-0.1-1.5-1.5-2.1-3.2-2.1c-1.7,0-2.6,0.7-2.6,1.6
		c0,0.7,0.5,1.4,2.1,1.7l2.7,0.4c2.2,0.4,4.4,1.4,4.4,4.2c0,3.1-2.8,4.8-6.4,4.8c-3.3,0-6.4-1.4-6.8-5.4L1023,206.4z"/>
</g>
</svg>
