<?xml version="1.0" encoding="utf-8"?>
<!-- Generator: Adobe Illustrator 18.1.1, SVG Export Plug-In . SVG Version: 6.00 Build 0)  -->
<svg version="1.1" id="Calque_1" xmlns="http://www.w3.org/2000/svg" xmlns:xlink="http://www.w3.org/1999/xlink" x="0px" y="0px"
	 viewBox="0 33.5 130 68" enable-background="new 0 33.5 130 68" xml:space="preserve">
<g>
	<g>
		<rect x="81.2" y="53" fill="none" width="48.5" height="48.5"/>
		<path fill="#FBE05B" d="M96.2,92.4c-8,0-14.5-3.6-14.6-8c0,1.7,0,3.2,0,3.2c0,4.4,6.5,8,14.6,8s14.6-3.6,14.6-8v-3.2
			C110.7,88.8,104.2,92.4,96.2,92.4z M96.2,98c-8,0-14.5-3.6-14.6-8c0,1.7,0,3.2,0,3.2c0,4.4,6.5,8,14.6,8s14.6-3.6,14.6-8V90
			C110.7,94.4,104.2,98,96.2,98z"/>
		<g>
			<path fill="#FBE05B" d="M114.7,88.6c-0.5,0-0.9,0-1.4,0c0,0.1,0,0.3,0,0.4c0.1,0.3,0.1,0.6,0.1,0.9v1.9c0.4,0,0.8,0,1.3,0
				c8.1,0,14.6-3.6,14.6-8v-3.2C129.3,85,122.8,88.6,114.7,88.6z"/>
			<path fill="#FBE05B" d="M114.7,83c-0.5,0-0.9,0-1.4,0c0,0.1,0,0.3,0,0.4c0.1,0.3,0.1,0.6,0.1,0.9v1.9c0.4,0,0.8,0,1.3,0
				c8.1,0,14.6-3.6,14.6-8V75C129.3,79.4,122.8,83,114.7,83z"/>
			<path fill="#FBE05B" d="M114.7,71.8c-8,0-14.5-3.6-14.6-8c0,1.7,0,3.2,0,3.2c0,1.9,1.2,3.6,3.2,5c2,0.6,3.8,1.3,5.3,2.3
				c1.9,0.5,3.9,0.7,6.1,0.7c8.1,0,14.6-3.6,14.6-8v-3.2C129.3,68.2,122.8,71.8,114.7,71.8z"/>
			<path fill="#FBE05B" d="M114.7,77.4c-1,0-1.9-0.1-2.9-0.2c0.7,1,1.2,2.1,1.5,3.3c0.5,0,0.9,0,1.4,0c8.1,0,14.6-3.6,14.6-8v-3.1
				C129.3,73.8,122.8,77.4,114.7,77.4z"/>
		</g>
		<path fill="#FBE05B" d="M114.7,53.3c-8.1,0-14.6,3.6-14.6,8s6.5,8,14.6,8s14.6-3.6,14.6-8S122.8,53.3,114.7,53.3z"/>
		<path fill="#FBE05B" d="M96.2,73.9c-8.1,0-14.6,3.6-14.6,8s6.5,8,14.6,8s14.6-3.6,14.6-8C110.7,77.5,104.2,73.9,96.2,73.9z"/>
	</g>
</g>
<g>
	<rect x="0.3" y="67.7" fill="#89C8A8" width="75.7" height="32.3"/>
	<polygon fill="#FFFFFF" points="3.8,74.3 2.2,74.3 2.2,69.5 6.9,69.5 6.9,71.1 3.8,71.1 	"/>
	<polygon fill="#FFFFFF" points="74.2,74.3 72.6,74.3 72.6,71.1 69.3,71.1 69.3,69.5 74.2,69.5 	"/>
	<polygon fill="#FFFFFF" points="6.9,98.2 2.2,98.2 2.2,93.4 3.8,93.4 3.8,96.7 6.9,96.7 	"/>
	<polygon fill="#FFFFFF" points="74.2,98.2 69.3,98.2 69.3,96.7 72.6,96.7 72.6,93.4 74.2,93.4 	"/>
	<path fill="#FFFFFF" d="M48.6,83.9c0,5.7-4.7,10.4-10.4,10.4c-5.7,0-10.4-4.7-10.4-10.4s4.7-10.4,10.4-10.4
		C43.9,73.5,48.6,78.1,48.6,83.9z"/>
	<g>
		<path fill="#89C8A8" d="M41.8,85.1h2.8c-0.5,3.3-3,5.5-6.3,5.5c-2.9,0-5.4-1.7-6.3-4.3h-1.8v-1.7h1.5c0-0.2,0-0.5,0-0.7v-0.4h-1.4
			v-1.7h1.7c0.9-2.8,3.4-4.6,6.4-4.6c3.3,0,5.8,2.2,6.3,5.5h-2.8c-0.4-1.8-1.7-2.9-3.5-2.9c-1.6,0-2.8,0.8-3.5,2h4.8l-0.5,1.7h-4.8
			v0.4c0,0.2,0,0.5,0.1,0.7h4.5l-0.4,1.7h-3.4c0.7,1,1.9,1.6,3.3,1.6C40.2,87.9,41.4,86.9,41.8,85.1z"/>
	</g>
</g>
<g>
	<polygon fill="#FDDCAE" points="80.6,64.7 82.4,59.4 11.3,33.5 0.3,63.9 2.4,64.7 	"/>
	<path fill="#FFFFFF" d="M51.3,64.7c1.6-5.3-1.2-10.9-6.4-12.8c-5.4-2-11.4,0.8-13.3,6.2c-0.8,2.2-0.8,4.5-0.2,6.6
		C31.4,64.7,51.3,64.7,51.3,64.7z"/>
	<polygon fill="#FFFFFF" points="12.3,40.8 10.9,40.3 12.6,35.9 16.9,37.5 16.4,38.9 13.4,37.8 	"/>
	<polygon fill="#FFFFFF" points="78.4,64.9 77.1,64.4 78.2,61.4 75.2,60.3 75.7,58.9 80.1,60.5 	"/>
	<polygon fill="#FFFFFF" points="7.1,64.4 2.8,62.8 4.3,58.3 5.8,58.9 4.6,61.9 7.6,63 	"/>
	<g>
		<path fill="#FDDCAE" d="M35.4,64.7h3.3c-0.5-0.5-0.9-1.1-1.1-1.8l3.2,1.2l1-1.5L37.6,61c0-0.2,0.1-0.5,0.2-0.7l0.1-0.3l4.5,1.6
			l1-1.5l-4.5-1.6c1-1,2.5-1.2,3.9-0.7c1.7,0.6,2.6,2,2.4,3.9l2.6,1c0.6-3.3-1-6.2-4.1-7.3c-2.9-1-5.9-0.2-7.6,2.1l-1.6-0.6
			l-0.6,1.6l1.3,0.5l-0.1,0.3C35,59.5,35,59.8,34.9,60l-1.4-0.5l-0.6,1.6l1.7,0.6C34.8,62.8,35.1,63.8,35.4,64.7z"/>
		<path fill="#FDDCAE" d="M43.9,64.7h2.2l-1.7-0.6C44.3,64.3,44.2,64.5,43.9,64.7z"/>
	</g>
</g>
</svg>
