<?xml version="1.0" encoding="utf-8"?>
<!-- Generator: Adobe Illustrator 18.1.1, SVG Export Plug-In . SVG Version: 6.00 Build 0)  -->
<svg version="1.1" id="Calque_1" xmlns="http://www.w3.org/2000/svg" xmlns:xlink="http://www.w3.org/1999/xlink" x="0px" y="0px"
	 viewBox="0 0 130 57.4" enable-background="new 0 0 130 57.4" xml:space="preserve">
<g>
	<rect y="0" fill="#5490CE" width="130" height="57.4"/>
	<g>
		<path fill="#FBE05B" d="M115.2,21.1h3.6c-0.7,4.2-3.9,7-8.1,7c-3.7,0-6.9-2.2-8.1-5.5h-2.3v-2.2h1.9c0-0.3-0.1-0.6-0.1-0.9v-0.5
			h-1.8v-2.2h2.2c1.1-3.6,4.3-5.9,8.3-5.9c4.3,0,7.4,2.8,8.1,7h-3.6c-0.6-2.4-2.2-3.7-4.5-3.7c-2,0-3.6,1-4.4,2.6h6.1l-0.6,2.2h-6.1
			l0,0.5c0,0.3,0,0.6,0.1,0.9h5.8l-0.6,2.2h-4.4c0.9,1.3,2.4,2.1,4.2,2.1C113,24.8,114.6,23.5,115.2,21.1z"/>
	</g>
	<rect x="12.2" y="15.9" fill="#FFFFFF" width="75.5" height="1.6"/>
	<rect x="12.2" y="22.8" fill="#FFFFFF" width="75.5" height="1.6"/>
	<path fill="#FFFFFF" d="M105.1,46.4c-0.6,0-1.2-0.1-1.6-0.4c-0.5-0.4-0.4-1-0.2-1.3c0.2-0.3,0.7-0.5,1.2-0.6c-0.1-1.2,0-2.5,0-3.2
		c-0.2-0.1-0.4-0.3-0.8-0.6c-0.1-0.1-0.2-0.2-0.3-0.4c-0.3,0.6-0.4,1.2-0.5,1.7c-0.3,1-0.5,1.8-1.5,2.3l-0.5-0.9
		c0.6-0.3,0.7-0.7,0.9-1.6c0.2-0.6,0.4-1.4,0.8-2.3c0.8-1.7,2.1-3.4,3.2-3.5c0.4,0,0.7,0.1,0.9,0.4c0.3,0.4,0.2,1,0,1.6
		c0.2,0,0.5,0,0.7,0c1.5,0,2.5,0.7,2.9,1.8c0.2,0.6,0.4,1.2,0.5,1.6c0.1,0.4,0.2,0.8,0.3,1.1c0.1-0.2,0.1-0.6,0-1
		c-0.1-0.7-0.1-1.5,0.4-2.1c0.4-0.4,1-0.6,1.9-0.5c0.2,0,1,0,1.2,0.6c0.3,0.7-0.5,1.6-1.5,2.7c-0.5,0.5-1.5,1.5-1.4,1.8
		c0.2,0,0.4,0,0.8-0.2c1-0.5,2.3-1.8,3.4-3.1c0.9-1.7,2.2-3.8,2.9-3.7l0.5,0.6c0,0.5-1.2,2.2-2.6,3.8c-0.4,0.8-0.6,1.5-0.6,2
		c0,0.3,0.1,0.3,0.3,0.4l-0.4,1c-0.4-0.2-1-0.6-0.9-1.7c-0.5,0.5-1,0.9-1.5,1.3c-0.9,0.6-1.7,0.8-2.3,0.6c-0.5-0.2-0.6-0.5-0.7-0.7
		c0-0.2,0-0.4,0-0.6c-0.4-0.2-0.5-0.8-0.9-1.9c-0.1-0.4-0.3-1-0.5-1.6c-0.3-0.8-1.1-1-1.8-1c-0.4,0-0.9,0-1.3,0.1
		c-0.3,0.6-0.5,1.2-0.6,1.7c0.4,0.3,0.9,0.8,2.1,1.9c1.5,1.4,0.8,2.5,0.5,2.9C107.5,46,106.2,46.4,105.1,46.4z M105.5,44.2
		c0.4,0.2,0.5,0.6,0.5,1c0.6-0.1,1.1-0.3,1.5-0.7c0.1-0.2,0.5-0.6-0.4-1.5c-0.7-0.7-1.2-1.1-1.5-1.4
		C105.4,42.5,105.5,43.5,105.5,44.2z M113.2,39.5c-0.4,0-0.8,0.1-0.9,0.2c-0.2,0.2-0.2,0.8-0.1,1.3c0,0.1,0,0.1,0,0.2
		c0.1-0.1,0.1-0.1,0.2-0.2c0.4-0.4,1.1-1.1,1.3-1.5c-0.1,0-0.1,0-0.2,0C113.3,39.5,113.3,39.5,113.2,39.5z M104.4,39.5
		c0.1,0.1,0.2,0.2,0.3,0.2c0.1-0.2,0.1-0.4,0.2-0.6C104.6,39.3,104.5,39.4,104.4,39.5z M105.9,36.5c-0.2,0-1,0.6-1.8,1.9
		c0.4-0.2,0.9-0.5,1.4-0.6C105.7,37.3,106,36.7,105.9,36.5z"/>
	<rect x="12.2" y="37.5" fill="#FFFFFF" width="27.9" height="1.6"/>
	<rect x="12.2" y="41.1" fill="#FFFFFF" width="27.9" height="1.6"/>
	<rect x="59.5" y="37.5" fill="#FFFFFF" width="27.9" height="1.6"/>
	<rect x="59.5" y="41.1" fill="#FFFFFF" width="27.9" height="1.6"/>
	<rect x="12.2" y="44.4" fill="#FFFFFF" width="27.9" height="1.6"/>
	<rect x="59.5" y="44.4" fill="#FFFFFF" width="27.9" height="1.6"/>
</g>
</svg>
