<?xml version="1.0" encoding="utf-8"?>
<!-- Generator: Adobe Illustrator 18.1.1, SVG Export Plug-In . SVG Version: 6.00 Build 0)  -->
<svg version="1.1" id="Calque_1" xmlns="http://www.w3.org/2000/svg" xmlns:xlink="http://www.w3.org/1999/xlink" x="0px" y="0px"
	 viewBox="0 48.5 130 78.4" enable-background="new 0 48.5 130 78.4" xml:space="preserve">
<g>
	<polyline fill="#E5E5E5" points="128.1,95.5 62.4,107.6 78.1,113.9 78.1,108.8 115.9,102.2 115.9,103.3 128.1,95.5 	"/>
	<polyline opacity="0.5" points="83.4,93.9 17.7,106 40.9,115.3 48.7,116.1 83.4,93.9 	"/>
	<polygon fill="#FFFFFF" points="48.7,59.8 85.4,53.9 69,48.5 32.8,53.7 	"/>
	<polygon fill="#DFE2E6" points="48.7,59.8 48.7,116.1 85.4,109.6 85.4,53.9 	"/>
	<polygon fill="#ADB3BA" points="48.7,59.8 32.8,53.7 32.8,109.8 48.5,116.1 48.7,116.1 	"/>
	<polygon fill="#DB6E4D" points="32.8,70.3 48.7,76.9 48.7,101.8 32.8,95.1 	"/>
	<polygon fill="#F8B381" points="85.4,70.3 48.7,76.9 48.7,101.8 85.4,95.1 	"/>
	<path fill="#FFFFFF" d="M57.5,80.6c0,0-0.1,1.2,0.2,2l8.5,3.1L57.5,80.6z"/>
	<path fill="#FFFFFF" d="M72.4,88.5l-14-3.9c0,0,1,2,2,2.6L72.4,88.5L72.4,88.5z"/>
	<path fill="#FFFFFF" d="M62.2,88.9c4.5,2.8,9.8,3,12.1,2.6c2.3-0.4,4.3-1.8,4.3-1.8C68.3,90.7,62.2,88.9,62.2,88.9z"/>
	<polygon fill="#FDDCAE" points="93.4,61.4 130,55.5 113.6,50 77.4,55.3 	"/>
	<polygon fill="#F2BE96" points="93.4,61.4 93.4,117.7 130,111.2 130,55.5 	"/>
	<polygon fill="#DCA381" points="93.4,61.4 77.4,55.3 77.4,111.4 93.1,117.7 93.4,117.7 	"/>
	<polygon fill="#ADB3BA" points="77.4,71.1 93.4,77.6 93.4,102.6 77.5,95.9 	"/>
	<polygon fill="#EDF1F4" points="130,71.1 93.4,77.6 93.4,102.6 130,95.9 	"/>
	<path fill="#ADB3BA" d="M117.1,77c5,0,7.2,2.8,7.2,5.6c0,4.1-6,13.7-16.6,13.7c-4.3,0-7-2.9-7-5.6C100.7,86.2,107.5,77,117.1,77z"
		/>
	<path fill="#EDF1F4" d="M110.4,86c0,0,2.1,1.4-7.2,6.8l20.1-9.5L110.4,86z"/>
	<polygon fill="#EDF1F4" points="114.2,90.2 115.9,87.1 105.3,92.3 	"/>
	<path fill="#EDF1F4" d="M110.1,85.8l7.2-1.5c0,0,0.6-1.1,0.5-1.8c-0.2-0.6-0.7-0.5-0.7-0.5l-11.6,2.4
		C105.6,84.4,109.4,84.9,110.1,85.8z"/>
	<polyline fill="#FFE28B" points="115.9,120.3 115.9,102.2 78.1,108.8 78.1,127 115.9,120.3 	"/>
	<polygon fill="#ECEEF8" points="95.3,114.7 95.3,108.1 80.6,110.8 80.6,117.7 95.3,115.2 	"/>
	<polygon fill="#FFFFFF" points="80.6,117.7 80.6,124.6 95.4,122.2 95.3,115.2 	"/>
	<polygon fill="#D9DBE3" points="82.3,118.9 82.3,119.2 93.8,117.3 93.8,117 	"/>
	<polygon fill="#D9DBE3" points="82.3,120.6 82.3,120.8 93.8,118.9 93.8,118.7 	"/>
	<polygon fill="#D9DBE3" points="82.3,122.2 82.3,122.5 93.8,120.6 93.8,120.3 	"/>
	<polygon fill="#D9DBE3" points="82.3,112.2 82.3,112.5 93.8,110.6 93.8,110.3 	"/>
	<polygon fill="#D9DBE3" points="82.3,113.9 82.3,114.2 93.8,112.2 93.8,112 	"/>
	<polygon fill="#D9DBE3" points="82.3,115.5 82.3,115.8 93.8,113.9 93.8,113.6 	"/>
	<polygon fill="#FFFFFF" points="96.8,111.9 96.8,118.9 111.6,116.4 111.6,109.4 	"/>
	<polygon fill="#D9DBE3" points="98.6,113.1 98.6,113.4 110.2,111.5 110.2,111.2 	"/>
	<polygon fill="#D9DBE3" points="98.6,114.8 98.6,115.1 110.2,113.2 110.2,112.9 	"/>
	<polygon fill="#D9DBE3" points="98.6,116.5 98.6,116.7 110.2,114.8 110.2,114.6 	"/>
	<path fill="#EE708B" d="M97,118.9c-0.1,0-0.1,0-0.2-0.1c-0.1-0.1,0-0.2,0.1-0.2l14.4-9.3c0.1-0.1,0.2,0,0.2,0.1
		c0.1,0.1,0,0.2-0.1,0.2L97,118.9C97.1,118.9,97.1,118.9,97,118.9z"/>
	<path fill="#EE708B" d="M111.5,116.5L111.5,116.5l-14.6-4.4c-0.1,0-0.2-0.1-0.1-0.2c0-0.1,0.1-0.2,0.2-0.1l14.5,4.4
		C111.6,116.2,111.6,116.3,111.5,116.5C111.6,116.5,111.6,116.5,111.5,116.5z"/>
	<polygon fill="#FFFFFF" points="111.6,105.1 96.8,107.6 96.8,110 111.6,107.6 	"/>
	<polygon fill="#ECEFFD" points="111.6,118.3 96.8,120.7 96.8,121.6 111.6,119.1 	"/>
	<polygon fill="#AFAFAF" points="109.4,105.5 99.3,107.2 99.3,109.6 109.4,108 	"/>
	<polyline opacity="0.5" points="78.1,118.7 65.6,121.2 78.1,127 78.1,118.7 	"/>
	<polyline opacity="0.5" points="24.9,113.8 15.2,115.6 25,122 24.9,113.8 	"/>
	<polygon fill="#F2BE96" points="59.1,119.2 25,122 24.8,102.5 58.9,99.8 	"/>
	<path fill="#424242" d="M56.5,116.6l-20.4,1.6l-0.1-7.8l20.4-1.6L56.5,116.6z M36.4,117.9l19.8-1.6l-0.1-7.3l-19.8,1.6L36.4,117.9z
		"/>
	<path fill="#424242" d="M54.8,111.7L37.7,113l0-0.5l17.1-1.4L54.8,111.7z M38,112.8l16.4-1.3L38,112.8z"/>
	<path fill="#424242" d="M54.8,113.2l-17.1,1.4l0-0.5l17.1-1.4L54.8,113.2z M38,114.3l16.4-1.3L38,114.3z"/>
	<path fill="#424242" d="M54.8,114.7l-17.1,1.4l0-0.5l17.1-1.4L54.8,114.7z M38.1,115.8l16.4-1.3L38.1,115.8z"/>
	<polygon fill="#FDDCAE" points="58.9,105.6 24.9,108.3 24.8,102.5 58.9,99.8 	"/>
	<polygon fill="#838383" points="58.9,105.6 24.9,108.3 24.9,107.9 58.9,105.2 	"/>
	<path fill="#424242" d="M57.2,102.1l-0.1-0.2l0-0.4l0.1-0.2c0-0.1-0.1-0.2-0.2-0.2c-0.1,0-0.2,0.1-0.2,0.1l-0.4,0
		c0-0.1-0.1-0.1-0.2-0.1c-0.1,0-0.2,0.1-0.2,0.1l-0.4,0c0-0.1-0.1-0.1-0.2-0.1c-0.1,0-0.2,0.1-0.2,0.1l-0.4,0c0-0.1-0.1-0.1-0.2-0.1
		c-0.1,0-0.2,0.1-0.2,0.2l0.1,0.2l0,0.4l-0.1,0.2l0.1,0.2l0,0.4l-0.1,0.2l0.1,0.2l0,0.4l-0.1,0.2l0.1,0.2l0,0.4l-0.1,0.2
		c0,0.1,0.1,0.2,0.2,0.2c0.1,0,0.2-0.1,0.2-0.1l0.4,0c0,0.1,0.1,0.1,0.2,0.1c0.1,0,0.2-0.1,0.2-0.1l0.4,0c0,0.1,0.1,0.1,0.2,0.1
		c0.1,0,0.2-0.1,0.2-0.1l0.4,0c0,0.1,0.1,0.1,0.2,0.1c0.1,0,0.2-0.1,0.2-0.2l-0.1-0.2l0-0.4l0.1-0.2l-0.1-0.2l0-0.4l0.1-0.2
		l-0.1-0.2l0-0.4L57.2,102.1z M56.8,104l-1.9,0.1l0-2.3l1.9-0.1L56.8,104z"/>
	<path fill="#424242" d="M55.8,102.2c0.2,0,0.4,0.1,0.4,0.3c0,0.2-0.2,0.4-0.4,0.4c-0.2,0-0.4-0.1-0.4-0.3
		C55.5,102.4,55.6,102.2,55.8,102.2z"/>
	<path fill="#424242" d="M55.3,104.1l0-0.6l0.1,0L55.3,104.1l1-0.1l0-0.6l0.1,0l0,0.6l0.3,0l0-0.7c0-0.2-0.2-0.4-0.4-0.4l-0.8,0.1
		c-0.3,0-0.4,0.2-0.4,0.5l0,0.7L55.3,104.1z"/>
</g>
<circle fill="#17479E" cx="20.1" cy="77" r="20.1"/>
<g>
	<path fill="#FFFFFF" d="M17.5,75.8h2.4c1.6,0,2.9-0.9,2.9-2.5c0-1.5-1-2.5-2.6-2.5c-1.6,0-2.6,0.9-2.7,2.3H13
		c0.2-3.8,2.7-6.3,7.2-6.3c4.1,0,7.1,2.6,7.1,6.4c0,3.1-2.2,5.1-5.7,5.6l-0.2,1.7h-3.6L17.5,75.8z M17,84.8c0-1.4,1.2-2.5,2.5-2.5
		c1.4,0,2.6,1,2.6,2.5s-1.2,2.5-2.6,2.5C18.1,87.3,17,86.2,17,84.8z"/>
</g>
</svg>
