<?xml version="1.0" encoding="utf-8"?>
<!-- Generator: Adobe Illustrator 18.1.1, SVG Export Plug-In . SVG Version: 6.00 Build 0)  -->
<svg version="1.1" id="Calque_1" xmlns="http://www.w3.org/2000/svg" xmlns:xlink="http://www.w3.org/1999/xlink" x="0px" y="0px"
	 viewBox="252.4 -11.2 80 59.7" enable-background="new 252.4 -11.2 80 59.7" xml:space="preserve">
<g>
	<circle fill="#FBE05B" cx="307.1" cy="23.3" r="2.3"/>
	<path fill="#5490CE" d="M307.1,48.5c-13.9,0-25.2-11.3-25.2-25.2S293.2-2,307.1-2c13.9,0,25.2,11.3,25.2,25.2
		S321.1,48.5,307.1,48.5z M307.1,2.6c-11.4,0-20.7,9.3-20.7,20.7c0,11.4,9.3,20.7,20.7,20.7c11.4,0,20.7-9.3,20.7-20.7
		C327.8,11.9,318.5,2.6,307.1,2.6z"/>
	
		<rect x="310.3" y="9.9" transform="matrix(0.7073 0.7069 -0.7069 0.7073 104.0822 -215.7581)" fill="#FBE05B" width="4.6" height="15.8"/>
	<circle fill="#FBE05B" cx="318.1" cy="12.3" r="2.3"/>
	<path fill="#5490CE" d="M314.1-11.2C314.1-11.2,314-11.2,314.1-11.2L314.1-11.2l-13.8,0c0,0,0,0,0,0c0,0,0,0,0,0h0v0
		c-1.3,0-2.3,1-2.3,2.3c0,1.3,1,2.3,2.3,2.3v0h4.6v9.2h4.6v-9.2h4.6v0c0,0,0,0,0,0c1.3,0,2.3-1,2.3-2.3
		C316.4-10.1,315.3-11.2,314.1-11.2z"/>
	<path fill="#5490CE" d="M280.7,15c0-1.2-1-2.2-2.2-2.3v0h-15.5c0,0-0.1,0-0.1,0h-0.1v0c-0.5,0-1,0.3-1.4,0.7
		c-0.9,0.9-0.9,2.3,0,3.2c0.4,0.4,0.9,0.6,1.4,0.7v0h15.7c0,0,0,0,0,0s0,0,0,0h0.1v0C279.7,17.3,280.7,16.3,280.7,15z"/>
	<path fill="#5490CE" d="M272.5,23.5c0-1.2-1-2.2-2.2-2.3v0h-15.5c0,0-0.1,0-0.1,0h-0.1v0c-0.5,0-1,0.3-1.5,0.7
		c-0.9,0.9-0.9,2.4,0,3.2c0.4,0.4,0.9,0.6,1.5,0.7v0h15.7l0,0c0,0,0,0,0,0h0.1v0C271.5,25.8,272.5,24.8,272.5,23.5z"/>
	<path fill="#5490CE" d="M281.4,32c0-1.2-1-2.2-2.2-2.3v0h-15.5c0,0-0.1,0-0.1,0h-0.1v0c-0.5,0-1,0.3-1.4,0.7
		c-0.9,0.9-0.9,2.4,0,3.2c0.4,0.4,0.9,0.6,1.5,0.7v0h15.7c0,0,0,0,0,0c0,0,0,0,0,0h0.1v0C280.4,34.3,281.4,33.2,281.4,32z"/>
</g>
</svg>
