<?xml version="1.0" encoding="utf-8"?>
<!-- Generator: Adobe Illustrator 18.1.1, SVG Export Plug-In . SVG Version: 6.00 Build 0)  -->
<svg version="1.1" id="Calque_1" xmlns="http://www.w3.org/2000/svg" xmlns:xlink="http://www.w3.org/1999/xlink" x="0px" y="0px"
	 viewBox="0 351.6 433.2 432.8" enable-background="new 0 351.6 433.2 432.8" xml:space="preserve">
<g>
	<polygon opacity="0.1" enable-background="new    " points="148.7,779 0,719.9 420.4,641.6 198.4,783.9 	"/>
	<g>
		<polygon fill="#FDDCAE" points="198.4,424 433.2,386.1 327.9,351.6 96.5,384.6 		"/>
		<g>
			<polygon fill="#F2BE96" points="198.4,424 198.4,783.9 433.2,742.5 433.2,386.1 			"/>
		</g>
		<polygon fill="#DCA381" points="198.4,424 96.5,384.6 96.5,744 196.9,784.4 198.4,783.9 		"/>
		<polygon fill="#DFE2E6" points="433.2,534.8 198.4,576.6 198.4,630.8 433.2,588.4 		"/>
		<polygon fill="#ADB3BA" points="96.5,534.3 96.5,588.4 198.4,630.8 198.4,576.6 		"/>
		<g>
			<polygon fill="#FFFFFF" points="177.7,372.8 277.7,411.2 348.6,399.9 250.6,362.5 			"/>
		</g>
		<g>
			<polygon fill="#DFE2E6" points="278.2,770.1 277.7,411.2 348.6,399.9 348.6,757.3 			"/>
		</g>
		<polygon fill="#FFFFFF" points="259.4,503.3 259.4,687.4 367.8,667.7 367.3,483.6 		"/>
		<polygon fill="#DFE2E6" points="281.1,672.6 286.5,671.6 286.5,509.2 281.1,510.2 		"/>
		<polygon fill="#DFE2E6" points="305.7,668.2 311.1,667.2 311.1,504.7 305.7,505.7 		"/>
		<polygon fill="#DFE2E6" points="329.8,663.3 335.3,662.3 335.3,500.3 329.8,501.3 		"/>
	</g>
</g>
</svg>
