<?xml version="1.0" encoding="utf-8"?>
<!-- Generator: Adobe Illustrator 18.1.1, SVG Export Plug-In . SVG Version: 6.00 Build 0)  -->
<svg version="1.1" id="Calque_1" xmlns="http://www.w3.org/2000/svg" xmlns:xlink="http://www.w3.org/1999/xlink" x="0px" y="0px"
	 viewBox="0 0 130 129.7" enable-background="new 0 0 130 129.7" xml:space="preserve">
<g>
	<polygon opacity="0.1" points="44.5,128 0,110.3 125.9,87 59.4,129.6 	"/>
	<g>
		<polygon fill="#FDDCAE" points="59.4,21.7 129.6,10.4 98.2,0 28.9,10 		"/>
		<g>
			<polygon fill="#F2BE96" points="59.4,21.7 59.4,129.6 129.6,117.1 129.6,10.4 			"/>
		</g>
		<polygon fill="#DCA381" points="59.4,21.7 28.9,10 28.9,117.5 58.9,129.7 59.4,129.6 		"/>
		<polygon fill="#DFE2E6" points="129.7,54.8 59.4,67.4 59.4,83.6 129.7,71 		"/>
		<polygon fill="#ADB3BA" points="28.8,54.8 28.9,71.1 59.4,83.6 59.4,67.4 		"/>
		<g>
			<polygon fill="#FFFFFF" points="53.2,6.4 83.2,17.9 104.3,14.5 75,3.2 			"/>
		</g>
		<g>
			<polygon fill="#DFE2E6" points="83.3,125.3 83.2,17.9 104.3,14.5 104.4,121.6 			"/>
		</g>
		<polygon fill="#FFFFFF" points="77.6,45.4 77.6,100.6 110,94.7 110,39.6 		"/>
		<polygon fill="#DFE2E6" points="84.1,96.2 85.7,95.9 85.7,47.2 84.1,47.5 		"/>
		<polygon fill="#DFE2E6" points="91.4,94.8 93.1,94.5 93.1,45.9 91.4,46.2 		"/>
		<polygon fill="#DFE2E6" points="98.8,93.5 100.4,93.2 100.4,44.5 98.8,44.8 		"/>
	</g>
</g>
</svg>
