<?xml version="1.0" encoding="utf-8"?>
<!-- Generator: Adobe Illustrator 18.1.1, SVG Export Plug-In . SVG Version: 6.00 Build 0)  -->
<svg version="1.1" id="Calque_1" xmlns="http://www.w3.org/2000/svg" xmlns:xlink="http://www.w3.org/1999/xlink" x="0px" y="0px"
	 viewBox="0 410.7 640 314.6" enable-background="new 0 410.7 640 314.6" xml:space="preserve">
<g>
	<g>
		<rect x="478.2" y="614.4" fill="#FBE05B" width="161.8" height="89.1"/>
		<rect x="478.2" y="703.2" fill="#FBE05B" width="161.8" height="22"/>
		<rect x="502.7" y="703.2" fill="#424242" width="113.3" height="22"/>
		<rect x="478.2" y="525.3" fill="#F1F1F1" width="161.8" height="88.8"/>
		<path fill="#424242" d="M600.3,670.6c0-11.2-25.5-20.5-56.5-20.5c-31.4,0-56.5,9.3-56.5,20.5s25.5,20.5,56.5,20.5
			C574.8,691.1,600.3,682.1,600.3,670.6z"/>
		<rect x="501.5" y="662.2" width="85.7" height="16.1"/>
		<g>
			<rect x="493.4" y="549.5" fill="#1C5DAD" width="72.7" height="40.4"/>
			<g>
				<g>
					<path fill="#FFFFFF" d="M605.5,553.2c0,1.2-0.9,2.5-2.5,2.5c-1.2,0-2.5-0.9-2.5-2.5c0-1.2,1.2-2.5,2.5-2.5
						C604.6,550.8,605.5,551.7,605.5,553.2z"/>
					<circle fill="#FFFFFF" cx="609.6" cy="553.2" r="2.5"/>
					<circle fill="#FFFFFF" cx="616.1" cy="553.2" r="2.5"/>
					<circle fill="#FFFFFF" cx="622.6" cy="553.2" r="2.5"/>
				</g>
				<g>
					<path fill="#FFFFFF" d="M605.5,559.5c0,1.2-0.9,2.5-2.5,2.5c-1.2,0-2.5-0.9-2.5-2.5c0-1.2,1.2-2.5,2.5-2.5
						C604.6,557.3,605.5,558.2,605.5,559.5z"/>
					<circle fill="#FFFFFF" cx="609.6" cy="559.5" r="2.5"/>
					<circle fill="#FFFFFF" cx="616.1" cy="559.5" r="2.5"/>
					<circle fill="#EE708B" cx="622.6" cy="559.5" r="2.5"/>
				</g>
				<g>
					<path fill="#FFFFFF" d="M605.5,566c0,1.2-0.9,2.5-2.5,2.5c-1.2,0-2.5-1.2-2.5-2.5s1.2-2.5,2.5-2.5
						C604.6,563.5,605.5,564.7,605.5,566z"/>
					<circle fill="#FFFFFF" cx="609.6" cy="566" r="2.5"/>
					<circle fill="#FFFFFF" cx="616.1" cy="566" r="2.5"/>
					<circle fill="#FBE05B" cx="622.6" cy="566" r="2.5"/>
				</g>
				<g>
					<path fill="#FFFFFF" d="M605.5,572.5c0,1.2-0.9,2.5-2.5,2.5c-1.2,0-2.5-0.9-2.5-2.5c0-1.2,1.2-2.5,2.5-2.5
						C604.6,570,605.5,571.3,605.5,572.5z"/>
					<circle fill="#FFFFFF" cx="609.6" cy="572.5" r="2.5"/>
					<circle fill="#FFFFFF" cx="616.1" cy="572.5" r="2.5"/>
					<circle fill="#00CA72" cx="622.6" cy="572.5" r="2.5"/>
				</g>
				<g>
					<rect x="600.6" y="580.6" fill="#424242" width="24.2" height="8.1"/>
					<rect x="602.4" y="584" fill="#F1F1F1" width="21.1" height="1.6"/>
				</g>
			</g>
			<path fill="#424242" d="M591.9,560.4c0,4.3-3.7,8.1-8.1,8.1s-8.1-3.7-8.1-8.1s3.7-8.1,8.1-8.1C588.1,552.3,591.9,556,591.9,560.4
				z"/>
			<g>
				<path fill="#FFFFFF" d="M594.7,567.5c0.3,1.2-0.6,2.5-2.2,2.8c-1.2,0.3-2.5-0.6-2.8-2.2c-0.3-1.2,0.6-2.5,2.2-2.8
					C593.4,565.4,594.7,566.3,594.7,567.5z"/>
				<path fill="#FFFFFF" d="M590.6,571c0.3,1.2-0.6,2.5-2.2,2.8c-1.2,0.3-2.5-0.6-2.8-2.2c-0.3-1.2,0.6-2.5,2.2-2.8
					C589.1,568.8,590.3,569.7,590.6,571z"/>
				<path fill="#FFFFFF" d="M585,571.9c0.3,1.2-0.6,2.5-2.2,2.8c-1.2,0.3-2.5-0.6-2.8-2.2c-0.3-1.2,0.6-2.5,2.2-2.8
					C583.5,569.7,584.7,570.6,585,571.9z"/>
				<path fill="#FFFFFF" d="M580.1,570c0.3,1.2-0.6,2.5-2.2,2.8c-1.2,0.3-2.5-0.6-2.8-2.2c-0.3-1.2,0.6-2.5,2.2-2.8
					C578.5,567.8,579.8,568.8,580.1,570z"/>
				<circle fill="#FFFFFF" cx="574.2" cy="566.3" r="2.5"/>
				<path fill="#FFFFFF" d="M571.7,563.5c-1.2-0.3-2.2-1.6-1.9-2.8c0.3-1.2,1.6-2.2,2.8-1.9c1.2,0.3,2.2,1.6,1.9,2.8
					C574.5,562.9,573.2,563.8,571.7,563.5z"/>
				<path fill="#FFFFFF" d="M572.6,557.9c-1.2-0.3-2.2-1.6-1.9-2.8s1.6-2.2,2.8-1.9c1.2,0.3,2.2,1.6,1.9,2.8
					C575.4,557.3,574.2,558.2,572.6,557.9z"/>
				<path fill="#FFFFFF" d="M576.3,553.9c-1.2-0.3-2.2-1.6-1.9-2.8s1.6-2.2,2.8-1.9c1.2,0.3,2.2,1.6,1.9,2.8
					C578.8,553.2,577.6,554.2,576.3,553.9z"/>
			</g>
			<line fill="none" stroke="#F1F1F1" stroke-miterlimit="10" x1="581.3" y1="556" x2="586" y2="564.7"/>
		</g>
		<rect x="502.4" y="476.9" fill="#FBE05B" width="113.3" height="48.4"/>
	</g>
	<g>
		<path fill="#424242" d="M549,499.2c0-0.3-0.3-0.6-0.6-0.9v-1.9c0.3,0,0.6-0.6,0.6-0.9c0-0.6-0.3-0.9-0.9-0.9
			c-0.3,0-0.6,0.3-0.9,0.6h-1.9c-0.3-0.3-0.6-0.6-0.9-0.6s-0.6,0.3-0.9,0.6h-1.9c0-0.3-0.6-0.6-0.9-0.6s-0.6,0.3-0.9,0.6h-1.9
			c0-0.3-0.6-0.6-0.9-0.6c-0.6,0-0.9,0.3-0.9,0.9c0,0.3,0.3,0.6,0.6,0.9v1.9c-0.3,0-0.6,0.6-0.6,0.9c0,0.3,0.3,0.6,0.6,0.9v1.9
			c-0.3,0-0.6,0.6-0.6,0.9c0,0.3,0.3,0.6,0.6,0.9v1.9c-0.3,0-0.6,0.6-0.6,0.9c0,0.3,0.3,0.6,0.6,0.9v1.9c-0.3,0-0.6,0.6-0.6,0.9
			c0,0.6,0.3,0.9,0.9,0.9c0.3,0,0.6-0.3,0.9-0.6h1.9c0.3,0.3,0.6,0.6,0.9,0.6s0.6-0.3,0.9-0.6h1.9c0,0.3,0.6,0.6,0.9,0.6
			s0.6-0.3,0.9-0.6h1.9c0,0.3,0.6,0.6,0.9,0.6c0.6,0,0.9-0.3,0.9-0.9c0-0.3-0.3-0.9-0.6-0.9v-1.9c0.3,0,0.6-0.6,0.6-0.9
			c0-0.3-0.3-0.6-0.6-0.9v-1.9c0.3,0,0.6-0.6,0.6-0.9c0-0.3-0.3-0.6-0.6-0.9v-1.9C548.7,499.8,549,499.5,549,499.2z M546.8,509.5h-9
			v-12.7h9V509.5z"/>
		<path fill="#424242" d="M558.6,503.9h-7.5c-0.6,0-0.9-0.3-0.9-0.9c0-0.6,0.3-0.9,0.9-0.9h7.5c0.6,0,0.9,0.3,0.9,0.9
			C559.6,503.6,559.3,503.9,558.6,503.9z"/>
		<path fill="#424242" d="M555.5,507c-0.3,0-0.6,0-0.6-0.3c-0.3-0.3-0.3-0.9,0-1.2l3.1-3.1c0.3-0.3,0.9-0.3,1.2,0
			c0.3,0.3,0.3,0.9,0,1.2l-3.1,3.1C555.8,507,555.5,507,555.5,507z"/>
		<path fill="#424242" d="M558.6,503.9c-0.3,0-0.6,0-0.6-0.3l-3.1-3.1c-0.3-0.3-0.3-0.9,0-1.2c0.3-0.3,0.9-0.3,1.2,0l3.1,3.1
			c0.3,0.3,0.3,0.9,0,1.2C559,503.9,559,503.9,558.6,503.9z"/>
		<g id="Your_Icon">
			<path fill="#424242" d="M581.9,484h-21.1c-0.3,0-0.6,0.3-0.6,0.9v14.6c0,0.3,0.3,0.9,0.6,0.9h21.1c0.3,0,0.6-0.3,0.6-0.9v-14.6
				C582.9,484.3,582.6,484,581.9,484z M561.7,486.2l6.8,5.6l-6.8,6.2V486.2z M571.4,492.4l-8.4-6.8h16.8L571.4,492.4z M569.2,492.4
				l1.9,1.6h0.3h0.3l1.9-1.6l6.8,6.2h-18.3L569.2,492.4z M574.5,491.8l6.8-5.6V498L574.5,491.8z"/>
		</g>
		<g>
			<path fill="#424242" d="M575.4,520.6h-14.3c-0.6,0-0.9-0.3-0.9-0.9v-8.4c0-0.6,0.3-0.9,0.9-0.9h14.3c0.3,0,0.9,0.3,0.9,0.9v8.4
				C576,520,575.7,520.6,575.4,520.6z M561.7,518.8h12.7v-6.5h-12.7V518.8z"/>
			<path fill="#424242" d="M575.4,520.6h-0.3c-0.3,0-0.6-0.3-0.6-0.9v-8.4c0-0.3,0-0.3,0.3-0.6l6.5-6.5c0.3-0.3,0.6-0.3,0.9-0.3
				s0.6,0.3,0.6,0.9v8.4c0,0.3,0,0.3-0.3,0.6l-6.5,6.5C575.7,520.3,575.4,520.6,575.4,520.6z M576,511.6v5.9l5-4.7V507L576,511.6z"
				/>
			<path fill="#424242" d="M575.4,512.3h-14.3c-0.3,0-0.6-0.3-0.9-0.6c0-0.3,0-0.6,0.3-0.9l6.5-6.5c0.3,0,0.3-0.3,0.6-0.3h14.3
				c0.3,0,0.6,0.3,0.9,0.6c0,0.3,0,0.6-0.3,0.9l-6.5,6.5C575.7,512.3,575.4,512.3,575.4,512.3z M563,510.4h11.8l5-5H568L563,510.4z"
				/>
			<rect x="564.5" y="507.3" fill="#424242" width="13.7" height="0.9"/>
		</g>
	</g>
</g>
<g id="Your_Icon_1_">
	<path fill="#1A5CAE" d="M164.3,517.5v-11.8H27.3v14.9L0,570l0,0l0,0c0.3,15.2,15.2,27.6,33.8,27.6c18.3,0,33.2-12.1,33.8-27
		L42.5,521h46v104c0,0.6-0.3,0.9-0.9,0.9l0,0c-16.5,0-30.1,13.4-30.1,30.1l0,0h77l0,0c0-16.5-13.4-30.1-30.1-30.1l0,0
		c-0.6,0-0.9-0.3-0.9-0.9V520.6h47.5l-24.8,48.8c0,15.5,15.2,28.3,33.8,28.3s33.8-12.4,33.8-27.9L164.3,517.5z M9,569.4l25.8-46.9
		L59,569.4H9L9,569.4z M135.1,569.4l23.3-47.2l26.7,46.9h-50V569.4z"/>
</g>
<g>
	<path fill="#F07679" d="M241.9,557.6v-8.1h29.8v8.1H241.9z M241.9,570.6v-8.1h29.8v8.1H241.9z"/>
</g>
<g>
	<path fill="#F07679" d="M556.8,441.8v18.6h12.4v-18.6c0-17.1-14-31.1-31.1-31.1h-118c-17.1,0-31.1,14-31.1,31.1v67.1h12.4v-67.1
		c0-10.2,8.4-18.6,18.6-18.6h118C548.4,423.1,556.8,431.5,556.8,441.8z"/>
</g>
<polygon fill="#F07679" points="576.3,452 563,475.6 549.6,452 "/>
<g>
	<polygon opacity="0.1" points="341.1,668.4 287.3,647 439.7,618.7 359.2,670.3 	"/>
	<g>
		<polygon fill="#FDDCAE" points="359.2,539.7 444.2,526 406.1,513.4 322.2,525.5 		"/>
		<g>
			<polygon fill="#F2BE96" points="359.2,539.7 359.2,670.3 444.2,655.1 444.2,526 			"/>
		</g>
		<polygon fill="#DCA381" points="359.2,539.7 322.2,525.5 322.2,655.7 358.6,670.4 359.2,670.3 		"/>
		<polygon fill="#DFE2E6" points="444.3,579.8 359.2,595 359.2,614.6 444.3,599.4 		"/>
		<polygon fill="#ADB3BA" points="322.2,579.8 322.2,599.4 359.2,614.6 359.2,595 		"/>
		<g>
			<polygon fill="#FFFFFF" points="351.6,521.1 388,535.1 413.5,531 378,517.3 			"/>
		</g>
		<g>
			<polygon fill="#DFE2E6" points="388.1,665.2 388,535.1 413.5,531 413.6,660.6 			"/>
		</g>
		<polygon fill="#FFFFFF" points="381.3,568.4 381.3,635.1 420.5,628.1 420.5,561.4 		"/>
		<polygon fill="#DFE2E6" points="389.1,629.8 391.1,629.5 391.1,570.6 389.1,571 		"/>
		<polygon fill="#DFE2E6" points="398,628.2 399.9,627.8 399.9,569 398,569.3 		"/>
		<polygon fill="#DFE2E6" points="406.8,626.6 408.8,626.2 408.8,567.3 406.8,567.7 		"/>
	</g>
</g>
</svg>
