<?xml version="1.0" encoding="utf-8"?>
<!-- Generator: Adobe Illustrator 18.1.1, SVG Export Plug-In . SVG Version: 6.00 Build 0)  -->
<svg version="1.1" id="Layer_1" xmlns="http://www.w3.org/2000/svg" xmlns:xlink="http://www.w3.org/1999/xlink" x="0px" y="0px"
	 viewBox="-43.1 19.3 80.2 80.4" enable-background="new -43.1 19.3 80.2 80.4" xml:space="preserve">
<g>
	<polygon opacity="0.1" points="-15.7,98.3 -43.1,87.3 34.5,72.9 -6.5,99.2 	"/>
	<g>
		<polygon fill="#FDDCAE" points="-6.5,32.7 36.9,25.7 17.4,19.3 -25.3,25.4 		"/>
		<g>
			<polygon fill="#F2BE96" points="-6.5,32.7 -6.5,99.2 36.9,91.5 36.9,25.7 			"/>
		</g>
		<polygon fill="#DCA381" points="-6.5,32.7 -25.3,25.4 -25.3,91.8 -6.8,99.3 -6.5,99.2 		"/>
		<polygon fill="#ADB3BA" points="-25.3,44.1 -6.5,51.8 -6.5,81.4 -25.3,73.5 		"/>
		<polygon fill="#EDF1F4" points="36.9,44.1 -6.5,51.8 -6.5,81.4 36.9,73.4 		"/>
		<path fill="#ADB3BA" d="M18.5,50.7c2.5,0,3.6,1.4,3.6,2.9c0,2.1-3,6.9-8.4,6.9c-2.2,0-3.6-1.5-3.6-2.9
			C10.2,55.4,13.7,50.7,18.5,50.7z"/>
		<g>
			<path fill="#EDF1F4" d="M15.1,55.3c0,0,1.1,0.7-3.7,3.4l10.1-4.8L15.1,55.3z"/>
			<polygon fill="#EDF1F4" points="17,57.4 17.9,55.8 12.5,58.5 			"/>
			<path fill="#EDF1F4" d="M15,55.2l3.7-0.8c0,0,0.3-0.6,0.3-0.9c-0.1-0.3-0.4-0.2-0.4-0.2l-5.9,1.2C12.7,54.5,14.6,54.7,15,55.2z"
				/>
		</g>
		<path fill="#FF4C00" d="M28.4,64.1c0.5-0.1,1,0.3,1,1c0,0.7-0.4,1.3-1,1.4c-0.6,0.1-1-0.4-1-1C27.4,64.8,27.8,64.2,28.4,64.1
			L28.4,64.1z M28.3,63c-1.2,0.2-2,1.3-1.9,2.6c0,1.3,0.9,2.1,2.1,1.9c1.2-0.2,2-1.3,1.9-2.6C30.4,63.6,29.5,62.8,28.3,63L28.3,63
			 M19.7,64.7l0.1,4.2l1-0.2l-0.1-2.2c0-0.4,0-0.6,0.1-0.8c0.1-0.2,0.3-0.4,0.5-0.5c0.2,0,0.5,0.1,0.5,0.3c0.1,0.1,0.1,0.3,0.1,0.7
			l0.1,2.3l1-0.2l-0.1-2.2c0-0.8,0.2-1.2,0.6-1.3c0.4-0.1,0.6,0.2,0.6,0.9l0.1,2.3l1-0.2l-0.1-2.7c0-1.1-0.5-1.6-1.2-1.4
			c-0.5,0.1-0.9,0.4-1.1,1c-0.3-0.5-0.6-0.7-1.1-0.6c-0.5,0.1-0.8,0.3-1.1,0.8l0-0.5L19.7,64.7 M17.9,62.5c-0.3,0.1-0.6,0.4-0.6,0.8
			c0,0.4,0.3,0.7,0.6,0.6c0.3-0.1,0.6-0.4,0.6-0.8C18.5,62.7,18.2,62.4,17.9,62.5L17.9,62.5 M18.5,64.9l-1,0.2l0.1,4.2l1-0.2
			L18.5,64.9 M16.3,65.6c-0.4-0.2-0.7-0.3-1.2-0.2c-0.7,0.1-1.2,0.8-1.2,1.6c0,0.4,0.1,0.7,0.4,0.8c0.2,0.1,0.2,0.1,0.7,0.2
			c0.5,0.1,0.6,0.2,0.6,0.4c0,0.3-0.2,0.5-0.4,0.6c-0.3,0.1-0.6-0.1-0.8-0.3l-0.5,0.8c0.4,0.4,0.8,0.6,1.4,0.5
			c0.9-0.2,1.5-0.9,1.4-1.8c0-0.7-0.3-0.9-1.1-1.1c-0.5-0.1-0.6-0.2-0.6-0.4c0-0.2,0.2-0.4,0.4-0.4c0.2,0,0.4,0,0.6,0.2L16.3,65.6
			 M12.7,66.3C12.3,66,12,66,11.5,66c-0.7,0.1-1.2,0.8-1.2,1.6c0,0.4,0.1,0.7,0.4,0.8c0.2,0.1,0.2,0.1,0.7,0.2
			c0.5,0.1,0.6,0.2,0.6,0.4c0,0.3-0.2,0.5-0.4,0.6c-0.3,0.1-0.6-0.1-0.9-0.3l-0.5,0.8c0.4,0.4,0.8,0.6,1.4,0.5
			c0.9-0.2,1.5-0.9,1.4-1.8c0-0.7-0.3-0.9-1.1-1.1c-0.5-0.1-0.6-0.2-0.6-0.4c0-0.2,0.2-0.4,0.4-0.4c0.2,0,0.4,0,0.6,0.2L12.7,66.3
			 M8.4,64.2c-0.3,0.1-0.6,0.4-0.6,0.8c0,0.4,0.3,0.7,0.6,0.6c0.3-0.1,0.6-0.4,0.6-0.8C9,64.4,8.8,64.2,8.4,64.2L8.4,64.2 M9,66.6
			l-1,0.2l0.1,4.2l1-0.2L9,66.6 M6.7,64l-1,0.2l0.3,7.3l1-0.2L6.7,64 M2.7,68.7c0.5-0.1,1,0.3,1,1c0,0.7-0.4,1.3-1,1.4
			c-0.6,0.1-1-0.4-1-1C1.7,69.5,2.2,68.8,2.7,68.7L2.7,68.7 M2.7,67.7c-1.2,0.2-2,1.3-1.9,2.6c0,1.3,0.9,2.1,2.1,1.9
			c1.2-0.2,2-1.3,1.9-2.6C4.7,68.2,3.9,67.4,2.7,67.7L2.7,67.7 M-0.4,66.3c-0.5-0.2-0.9-0.2-1.3-0.2c-1.6,0.3-2.8,2-2.8,3.9
			c0.1,1.9,1.4,3.2,3,2.9c0.5-0.1,0.8-0.3,1.3-0.6l-0.1-1.5c-0.4,0.6-0.8,0.9-1.3,0.9c-1.1,0.2-1.9-0.6-1.9-1.9
			c0-1.3,0.7-2.4,1.7-2.6c0.5-0.1,0.9,0.1,1.4,0.5L-0.4,66.3"/>
		<path fill="#55565A" d="M34.1,59.9c-0.3-0.7-1-0.7-1.4-0.7c-0.5,0.1-1.4,0.4-2,1.5c-0.3,0.4-0.4,1-0.3,1.5c0.2,0.7,0.9,1.2,2,0.7
			C34,62.2,34.4,60.5,34.1,59.9z M33.8,61.4C33.8,61.4,33.8,61.4,33.8,61.4c-0.1,0.2-0.3,0.4-0.5,0.6c-0.6,0.6-1.1,0.7-1.4,0.7
			c-0.4,0.1-1.1,0-1.3-0.8c0,0,0,0,0,0c0,0,0,0,0,0c-0.1-0.5,0-1,0.3-1.4c0,0,0,0,0,0c0.2-0.3,0.4-0.5,0.6-0.7
			c0.4-0.4,0.9-0.6,1.3-0.7c0.4-0.1,1,0,1.3,0.5c0,0.1,0.1,0.2,0.1,0.3c0,0,0,0,0,0C34.2,60.4,34.1,60.9,33.8,61.4z M31.4,60.6
			c0.2,0,0.5,0.1,0.6,0.2l1.1-0.2c0-0.1,0-0.1,0.1-0.1c0.1-0.1,0.1-0.3-0.1-0.2C32.9,60.3,31.6,60.5,31.4,60.6
			C31.4,60.6,31.3,60.6,31.4,60.6z M33.9,60.5L32,60.9c0,0.1-0.1,0.2-0.2,0.4c-0.1,0.1-0.3,0.2-1,0.7c0,0,0,0,0,0
			C32,61.4,32.8,61,33.9,60.5C33.9,60.5,33.9,60.5,33.9,60.5z M32.8,61.1l-1.6,0.8c0,0,0,0,0,0l1.3-0.3c0.1,0,0.1-0.1,0.2-0.2
			L32.8,61.1C32.8,61.1,32.8,61.1,32.8,61.1z"/>
		<g>
			<g>
				<path fill="#FF4C00" d="M-3.8,76.9l0-1.3l0.3-0.1l0,1.3c0,0.3,0.2,0.5,0.5,0.4c0.3-0.1,0.4-0.3,0.4-0.6l0-1.3l0.3-0.1l0,1.3
					c0,0.6-0.2,0.9-0.7,1C-3.5,77.7-3.8,77.4-3.8,76.9z"/>
				<path fill="#FF4C00" d="M-1.6,77.3l-0.1-1.6l0.3,0l0,0.2c0.2-0.2,0.3-0.3,0.5-0.3c0.3-0.1,0.5,0.1,0.5,0.5l0,1l-0.3,0.1l0-1
					c0-0.2-0.1-0.3-0.2-0.2c-0.1,0-0.2,0.1-0.3,0.3l0,1.1L-1.6,77.3z"/>
				<path fill="#FF4C00" d="M1.3,76.2l-0.9,0.2c0,0.2,0.2,0.3,0.4,0.2c0.1,0,0.3-0.1,0.4-0.1l0,0.3c-0.1,0.1-0.3,0.1-0.4,0.1
					c-0.5,0.1-0.7-0.1-0.7-0.7c0-0.5,0.2-0.8,0.6-0.9C1.1,75.2,1.3,75.5,1.3,76.2z M0.4,76l0.6-0.1c0-0.2-0.1-0.3-0.3-0.3
					C0.5,75.7,0.4,75.8,0.4,76z"/>
				<path fill="#FF4C00" d="M2.7,74.3l0.1,2.2l-0.3,0.1l-0.1-2.2L2.7,74.3z"/>
				<path fill="#FF4C00" d="M3.6,74.2l0,0.3l-0.3,0.1l0-0.3L3.6,74.2z M3.7,74.8l0.1,1.6l-0.3,0.1l-0.1-1.6L3.7,74.8z"/>
				<path fill="#FF4C00" d="M4.1,74.7l0.4-0.1l0.4,1.1l0.3-1.2l0.4-0.1L5,76.1l-0.3,0.1L4.1,74.7z"/>
				<path fill="#FF4C00" d="M5.9,75.9l-0.1-1.6l0.3,0l0,0.2c0.1-0.2,0.2-0.2,0.4-0.3l0,0.3c-0.1,0-0.2,0.1-0.3,0.3l0,1.1L5.9,75.9z"
					/>
				<path fill="#FF4C00" d="M6.9,75.3c0-0.3,0.2-0.5,0.6-0.6c0.1,0,0.2,0,0.3,0l0-0.1c0-0.1-0.1-0.2-0.4-0.2c-0.1,0-0.3,0.1-0.4,0.2
					l0-0.3c0.1-0.1,0.3-0.1,0.4-0.2c0.5-0.1,0.7,0.1,0.7,0.4l0,1.1l-0.2,0l-0.1-0.1c-0.1,0.1-0.2,0.2-0.4,0.2
					C7.1,75.7,7,75.6,6.9,75.3z M7.5,75c-0.2,0-0.2,0.1-0.2,0.2c0,0.1,0.1,0.2,0.2,0.1c0.1,0,0.2-0.1,0.3-0.2l0-0.2
					C7.7,74.9,7.6,75,7.5,75z"/>
				<path fill="#FF4C00" d="M9,73.2l0,0.3l-0.3,0.1l0-0.3L9,73.2z M9,73.8l0.1,1.6l-0.3,0.1l-0.1-1.6L9,73.8z"/>
				<path fill="#FF4C00" d="M9.6,75.2l0-0.3c0.1,0,0.3,0,0.5,0c0.1,0,0.2-0.1,0.2-0.2c0-0.1-0.1-0.1-0.1-0.1l-0.2,0
					c-0.3,0-0.4-0.1-0.4-0.4c0-0.3,0.2-0.5,0.6-0.6c0.2,0,0.3,0,0.5,0l0,0.3c-0.1,0-0.3-0.1-0.5,0c-0.2,0-0.3,0.1-0.3,0.2
					c0,0.1,0.1,0.1,0.2,0.1l0.2,0c0.3-0.1,0.4,0.1,0.5,0.4c0,0.3-0.2,0.5-0.5,0.6C10,75.2,9.8,75.2,9.6,75.2z"/>
				<path fill="#FF4C00" d="M11.1,74.2c0-0.5,0.2-0.8,0.6-0.9c0.4-0.1,0.7,0.1,0.7,0.7c0,0.5-0.2,0.8-0.6,0.9
					C11.3,75,11.1,74.7,11.1,74.2z M11.8,74.6c0.2,0,0.3-0.2,0.3-0.6c0-0.3-0.1-0.5-0.4-0.4c-0.2,0-0.3,0.2-0.3,0.5
					C11.4,74.5,11.5,74.6,11.8,74.6z"/>
				<path fill="#FF4C00" d="M12.9,74.7l-0.1-1.6l0.3,0l0,0.2c0.2-0.2,0.3-0.3,0.5-0.3c0.3-0.1,0.5,0.1,0.5,0.5l0,1l-0.3,0.1l0-1
					c0-0.2-0.1-0.3-0.2-0.2c-0.1,0-0.2,0.1-0.3,0.3l0,1.1L12.9,74.7z"/>
				<path fill="#FF4C00" d="M15.4,74.2l-0.1-1.6l0.3,0l0,0.2c0.2-0.2,0.3-0.3,0.5-0.3c0.3-0.1,0.5,0.1,0.5,0.5l0,1l-0.3,0.1l0-1
					c0-0.2-0.1-0.3-0.2-0.2c-0.1,0-0.2,0.1-0.3,0.3l0,1.1L15.4,74.2z"/>
				<path fill="#FF4C00" d="M18.3,73l-0.9,0.2c0,0.2,0.2,0.3,0.4,0.2c0.1,0,0.3-0.1,0.4-0.1l0,0.3c-0.1,0.1-0.3,0.1-0.4,0.1
					c-0.5,0.1-0.7-0.1-0.7-0.7c0-0.5,0.2-0.8,0.6-0.9C18.2,72.1,18.4,72.4,18.3,73z M17.5,72.9l0.6-0.1c0-0.2-0.1-0.3-0.3-0.3
					C17.6,72.5,17.5,72.7,17.5,72.9z"/>
				<path fill="#FF4C00" d="M20.1,71.8l0.1,1.6l-0.3,0l0-0.2c-0.2,0.2-0.3,0.3-0.5,0.3c-0.3,0.1-0.5-0.1-0.5-0.5l0-1l0.3-0.1l0,1
					c0,0.2,0.1,0.3,0.2,0.2c0.1,0,0.2-0.1,0.3-0.3l0-1.1L20.1,71.8z"/>
				<path fill="#FF4C00" d="M20.6,71.4l0.2,0l0.1,0.2l0.3-0.1l0,0.3l-0.3,0l0,0.7c0,0.1,0.1,0.2,0.2,0.2l0.1,0l0,0.3l-0.3,0
					c-0.2,0-0.3-0.1-0.3-0.4L20.6,71.4z"/>
				<path fill="#FF4C00" d="M21.8,73.1l-0.1-1.6l0.3,0l0,0.2c0.1-0.2,0.2-0.2,0.4-0.3l0,0.3c-0.1,0-0.2,0.1-0.3,0.3l0,1.1L21.8,73.1
					z"/>
				<path fill="#FF4C00" d="M24,72l-0.9,0.2c0,0.2,0.2,0.3,0.4,0.2c0.1,0,0.3-0.1,0.4-0.1l0,0.3c-0.1,0.1-0.3,0.1-0.4,0.1
					c-0.5,0.1-0.7-0.1-0.7-0.7c0-0.5,0.2-0.8,0.6-0.9C23.9,71.1,24.1,71.4,24,72z M23.1,71.9l0.6-0.1c0-0.2-0.1-0.3-0.3-0.3
					C23.2,71.5,23.1,71.7,23.1,71.9z"/>
				<path fill="#FF4C00" d="M26.3,71.6l-0.9,0.2c0,0.2,0.2,0.3,0.4,0.2c0.1,0,0.3-0.1,0.4-0.1l0,0.3c-0.1,0.1-0.3,0.1-0.4,0.1
					c-0.5,0.1-0.7-0.1-0.7-0.7c0-0.5,0.2-0.8,0.6-0.9C26.2,70.7,26.4,71,26.3,71.6z M25.5,71.5l0.6-0.1c0-0.2-0.1-0.3-0.3-0.3
					C25.6,71.1,25.5,71.2,25.5,71.5z"/>
				<path fill="#FF4C00" d="M26.9,72.1l-0.1-1.6l0.3,0l0,0.2c0.2-0.2,0.3-0.3,0.5-0.3c0.3-0.1,0.5,0.1,0.5,0.5l0,1L27.8,72l0-1
					c0-0.2-0.1-0.3-0.2-0.2c-0.1,0-0.2,0.1-0.3,0.3l0,1.1L26.9,72.1z"/>
				<path fill="#FF4C00" d="M30.8,71.3c-0.2,0.1-0.3,0.2-0.5,0.2c-0.6,0.1-1-0.2-1-1c0-0.7,0.3-1.1,0.9-1.2c0.2,0,0.4,0,0.5,0l0,0.4
					c-0.2-0.1-0.3-0.1-0.5,0c-0.4,0.1-0.6,0.4-0.6,0.8c0,0.5,0.2,0.7,0.7,0.7c0.2,0,0.3-0.1,0.5-0.2L30.8,71.3z"/>
				<path fill="#FF4C00" d="M31.3,70.3c0-0.7,0.3-1.2,0.9-1.3c0.6-0.1,0.9,0.2,0.9,0.9c0,0.7-0.3,1.1-0.9,1.3
					C31.7,71.3,31.4,71,31.3,70.3z M32.2,70.8c0.4-0.1,0.5-0.4,0.5-0.9c0-0.5-0.2-0.7-0.6-0.6c-0.4,0.1-0.5,0.3-0.5,0.8
					C31.7,70.7,31.9,70.9,32.2,70.8z"/>
			</g>
			<g>
				<path fill="#FF4C00" d="M33.3,71.4l0-0.2c0.4-0.4,0.6-0.8,0.6-1c0-0.1-0.1-0.2-0.2-0.2c-0.1,0-0.3,0.1-0.4,0.2l0-0.3
					c0.1-0.1,0.2-0.2,0.4-0.2c0.3-0.1,0.5,0.1,0.5,0.4c0,0.3-0.2,0.6-0.5,1l0.5-0.1l0,0.3L33.3,71.4z"/>
			</g>
		</g>
	</g>
</g>
</svg>
