<?xml version="1.0" encoding="utf-8"?>
<!-- Generator: Adobe Illustrator 18.1.1, SVG Export Plug-In . SVG Version: 6.00 Build 0)  -->
<svg version="1.1" id="Calque_1" xmlns="http://www.w3.org/2000/svg" xmlns:xlink="http://www.w3.org/1999/xlink" x="0px" y="0px"
	 viewBox="0 0 216.1 101.9" enable-background="new 0 0 216.1 101.9" xml:space="preserve">
<polygon opacity="0.1" points="161,86.5 132.2,75 213.7,59.9 170.6,87.5 "/>
<g>
	<polygon opacity="0.1" points="114.6,82.9 85.8,71.5 167.3,56.3 124.3,83.9 	"/>
	<g>
		<polygon fill="#FFFFFF" points="124.3,14.1 169.8,6.8 149.4,0 104.5,6.5 		"/>
		<g>
			<polygon fill="#DFE2E6" points="124.3,14.1 124.3,83.9 169.8,75.8 169.8,6.8 			"/>
		</g>
		<polygon fill="#ADB3BA" points="124.3,14.1 104.5,6.5 104.5,76.1 124,84 124.3,83.9 		"/>
		<polygon fill="#DB6E4D" points="104.5,27.1 124.3,35.3 124.3,66.2 104.6,57.9 		"/>
		<polygon fill="#F8B381" points="169.8,27.1 124.3,35.3 124.3,66.2 169.8,57.9 		"/>
		<g>
			<path fill="#FFFFFF" d="M135.2,39.9c0,0-0.1,1.5,0.3,2.5l10.5,3.8L135.2,39.9z"/>
			<path fill="#FFFFFF" d="M153.7,49.7l-17.4-4.9c0,0,1.2,2.5,2.5,3.2l14.8,1.8L153.7,49.7z"/>
			<path fill="#FFFFFF" d="M141,50.2c5.6,3.5,12.2,3.7,15,3.2c2.9-0.5,5.3-2.2,5.3-2.2C148.6,52.4,141,50.2,141,50.2z"/>
		</g>
	</g>
</g>
<g>
	<polygon fill="#FDDCAE" points="170.6,17.7 216.1,10.3 195.7,3.6 150.8,10 	"/>
	<g>
		<polygon fill="#F2BE96" points="170.6,17.7 170.6,87.5 216.1,79.4 216.1,10.3 		"/>
	</g>
	<polygon fill="#DCA381" points="170.6,17.7 150.8,10 150.8,79.7 170.3,87.6 170.6,87.5 	"/>
	<polygon fill="#ADB3BA" points="150.8,29.6 170.6,37.8 170.6,68.7 150.9,60.4 	"/>
	<polygon fill="#EDF1F4" points="216.1,29.6 170.6,37.8 170.6,68.7 216.1,60.4 	"/>
	<path fill="#ADB3BA" d="M200.1,37.1c6.2,0,9,3.5,9,7c0,5.1-7.4,17-20.6,17c-5.4,0-8.7-3.6-8.7-7C179.7,48.4,188.2,37.1,200.1,37.1z
		"/>
	<g>
		<path fill="#EDF1F4" d="M191.8,48.2c0,0,2.6,1.7-9,8.4l24.9-11.8L191.8,48.2z"/>
		<polygon fill="#EDF1F4" points="196.5,53.4 198.6,49.6 185.4,56.1 		"/>
		<path fill="#EDF1F4" d="M191.4,47.9l9-1.9c0,0,0.8-1.4,0.6-2.2c-0.2-0.8-0.9-0.6-0.9-0.6l-14.4,3
			C185.8,46.3,190.5,46.9,191.4,47.9z"/>
	</g>
</g>
<g>
	<g>
		<path fill="#FBE05B" d="M47.2,35.7c5.9,0,8.5,3.3,8.5,6.7c0,4.9-7,16.2-19.6,16.2c-5.2,0-8.3-3.5-8.3-6.7
			C27.8,46.5,35.9,35.7,47.2,35.7z"/>
		<g>
			<path fill="#1C5DAD" d="M39.3,46.3c0,0,2.5,1.6-8.5,8L54.4,43L39.3,46.3z"/>
			<polygon fill="#1C5DAD" points="43.8,51.2 45.8,47.6 33.2,53.8 			"/>
			<path fill="#1C5DAD" d="M38.9,46l8.6-1.9c0,0,0.8-1.3,0.6-2.1c-0.2-0.7-0.8-0.5-0.8-0.5l-13.7,2.9C33.6,44.5,38.1,45,38.9,46z"/>
		</g>
	</g>
	<g>
		<g>
			<path d="M36,7.7C35.9,7.7,35.9,7.7,36,7.7l-4,0.6c-0.3,0-0.5,0.3-0.4,0.6c0,0.2,0.2,0.4,0.5,0.4c0,0,0,0,0.1,0l4-0.6
				c0.3,0,0.5-0.3,0.4-0.6C36.4,7.8,36.2,7.7,36,7.7L36,7.7z M28,8.8C28,8.8,28,8.8,28,8.8l-4,0.6c-0.3,0-0.5,0.3-0.4,0.6
				c0,0.2,0.2,0.4,0.5,0.4c0,0,0,0,0.1,0l4-0.6c0.3,0,0.5-0.3,0.4-0.6C28.5,9,28.3,8.8,28,8.8L28,8.8z M20.1,9.9
				C20.1,9.9,20.1,9.9,20.1,9.9l-4,0.6c-0.3,0-0.5,0.3-0.4,0.6c0,0.2,0.2,0.4,0.5,0.4c0,0,0,0,0.1,0l4-0.6c0.3,0,0.5-0.3,0.4-0.6
				C20.6,10.1,20.4,9.9,20.1,9.9L20.1,9.9z M12.2,11.1C12.2,11.1,12.2,11.1,12.2,11.1l-4,0.6c-0.3,0-0.5,0.3-0.4,0.6
				c0,0.2,0.2,0.4,0.5,0.4c0,0,0,0,0.1,0l4-0.6c0.3,0,0.5-0.3,0.4-0.6C12.7,11.3,12.4,11.1,12.2,11.1L12.2,11.1z M4.3,12.2
				C4.3,12.2,4.2,12.2,4.3,12.2l-4,0.6c-0.1,0-0.1,0-0.2,0.1l1.8,0.7l1.4-0.2c0,0-0.1,0.1-0.1,0.2c-0.1,0.3,0,0.5,0.3,0.6l3.7,1.4
				c0.1,0,0.1,0,0.2,0c0.2,0,0.4-0.1,0.5-0.3c0.1-0.3,0-0.5-0.3-0.6l-3.7-1.4l0.4-0.1c0.3,0,0.5-0.3,0.4-0.6
				C4.7,12.4,4.5,12.2,4.3,12.2L4.3,12.2z M11.1,16.1c-0.2,0-0.4,0.1-0.5,0.3c-0.1,0.3,0,0.5,0.3,0.6c0,0,1.2,0.5,2.3,0.9l0,0
				c0,0,0,0,0,0l0,0c0,0,0,0,0,0l0,0c0,0,0,0,0,0l0,0c0,0,0,0,0,0l0,0c0,0,0,0,0,0l0,0c0,0,0,0,0,0l0,0c0,0,0,0,0,0l0,0c0,0,0,0,0,0
				l0,0c0,0,0,0,0,0l1.4,0.5c0.1,0,0.1,0,0.2,0c0.2,0,0.4-0.1,0.5-0.3c0.1-0.3,0-0.5-0.3-0.6l-3.7-1.4
				C11.3,16.1,11.2,16.1,11.1,16.1L11.1,16.1z M22.2,18.8C22.2,18.8,22.2,18.8,22.2,18.8l-2.8,0.4L18.8,19c-0.1,0-0.1,0-0.2,0
				c-0.2,0-0.4,0.1-0.5,0.3c-0.1,0.3,0,0.5,0.3,0.6l0.8,0.3c0,0,0,0,0,0l0,0c0,0,0,0,0,0l0,0c0,0,0,0,0,0l0,0c0,0,0,0,0,0l0,0
				c0,0,0,0,0,0l0,0c0,0,0,0,0,0l0,0c0,0,0,0,0,0l0,0c0,0,0,0,0,0l0,0c0,0,0,0,0,0l0,0c0,0,0,0,0,0l0,0c0,0,0,0,0,0h0c0,0,0,0,0,0
				l0,0c0,0,0,0,0,0l0,0c0,0,0,0,0,0h0c0,0,0,0,0,0l0,0l3-0.5c0.3,0,0.5-0.3,0.4-0.6C22.7,19,22.5,18.8,22.2,18.8L22.2,18.8z
				 M30.1,17.5C30.1,17.5,30.1,17.5,30.1,17.5l-4,0.6c-0.3,0-0.5,0.3-0.4,0.6c0,0.2,0.3,0.4,0.5,0.4c0,0,0.1,0,0.1,0
				c0,0,2.2-0.4,3.3-0.5l0,0c0,0,0,0,0,0h0c0,0,0,0,0,0l0,0c0,0,0,0,0,0l0,0c0,0,0,0,0,0l0,0c0,0,0,0,0,0l0,0c0,0,0,0,0,0l0,0
				c0,0,0,0,0.1,0l0,0c0,0,0,0,0,0l0,0c0,0,0,0,0,0l0,0c0,0,0,0,0,0l0,0c0,0,0,0,0,0l0,0c0,0,0,0,0,0l0,0c0,0,0,0,0,0l0,0
				c0,0,0,0,0,0l0,0c0,0,0,0,0,0h0c0,0,0,0,0,0l0,0c0,0,0,0,0,0l0,0c0,0,0,0,0,0l0,0c0,0,0,0,0,0l0,0c0,0,0,0,0,0l0,0c0,0,0,0,0,0
				l0,0c0,0,0,0,0,0l0,0c0,0,0,0,0,0l0,0c0,0,0,0,0,0l0,0c0,0,0,0,0,0l0,0c0,0,0,0,0,0l0,0c0,0,0,0,0,0l0,0c0,0,0,0,0,0l0,0
				c0,0,0,0,0,0l0,0c0,0,0,0,0,0l0,0c0,0,0,0,0,0l0,0c0,0,0,0,0,0l0,0c0,0,0,0,0,0l0.1,0c0,0,0,0,0,0l0,0c0,0,0,0,0,0l0,0
				c0,0,0,0,0,0l0,0c0,0,0,0,0,0l0,0c0,0,0,0,0,0l0,0c0,0,0,0,0,0l0,0c0,0,0,0,0,0l0,0c0,0,0,0,0,0l0,0c0,0,0,0,0,0l0.1,0
				c0.3,0,0.5-0.3,0.4-0.6C30.6,17.7,30.4,17.5,30.1,17.5L30.1,17.5z M38,16.2C38,16.2,38,16.2,38,16.2l-4,0.6
				c-0.3,0-0.5,0.3-0.4,0.6c0,0.2,0.3,0.4,0.5,0.4c0,0,0.1,0,0.1,0l4-0.6c0.3,0,0.5-0.3,0.4-0.6C38.5,16.4,38.3,16.2,38,16.2
				L38,16.2z M45.9,15C45.9,15,45.9,15,45.9,15l-4,0.6c-0.3,0-0.5,0.3-0.4,0.6c0,0.2,0.3,0.4,0.5,0.4c0,0,0.1,0,0.1,0l4-0.6
				c0.3,0,0.5-0.3,0.4-0.6C46.4,15.1,46.2,15,45.9,15L45.9,15z M53.8,13.7C53.8,13.7,53.8,13.7,53.8,13.7l-4,0.6
				c-0.3,0-0.5,0.3-0.4,0.6c0,0.2,0.3,0.4,0.5,0.4c0,0,0.1,0,0.1,0l4-0.6c0.3,0,0.5-0.3,0.4-0.6C54.3,13.9,54.1,13.7,53.8,13.7
				L53.8,13.7z M57.7,11.2c-0.2,0-0.4,0.1-0.5,0.3c-0.1,0.3,0.1,0.5,0.3,0.6l1.9,0.6l-1.8,0.3c-0.3,0-0.5,0.3-0.4,0.6
				c0,0.2,0.3,0.4,0.5,0.4c0,0,0.1,0,0.1,0l2.1-0.3c0,0,0,0,0,0l0,0c0,0,0,0,0,0l0,0c0.9-0.1,1.8-0.3,1.8-0.3c0.3,0,0.5-0.3,0.4-0.6
				c0-0.1-0.1-0.2-0.1-0.3l-0.5-0.2l0,0c-0.1,0-0.2-0.1-0.3-0.1l0,0c0,0,0,0-0.1,0l0,0c0,0,0,0,0,0h0c0,0,0,0,0,0l0,0c0,0,0,0,0,0
				l0,0c0,0,0,0,0,0l0,0c0,0,0,0,0,0l0,0c0,0,0,0,0,0l0,0c0,0,0,0,0,0l0,0c0,0,0,0,0,0l0,0c0,0,0,0,0,0l0,0c0,0,0,0,0,0l-3.3-1.1
				C57.8,11.2,57.8,11.2,57.7,11.2L57.7,11.2z M50.1,8.7c-0.2,0-0.4,0.1-0.5,0.3c-0.1,0.3,0.1,0.5,0.3,0.6l3.8,1.3
				c0.1,0,0.1,0,0.2,0c0.2,0,0.4-0.1,0.5-0.3c0.1-0.3-0.1-0.5-0.3-0.6l-3.8-1.3C50.2,8.7,50.2,8.7,50.1,8.7L50.1,8.7z M43.8,6.5
				l-0.4,0.1l0,0c-1,0.1-3.5,0.5-3.5,0.5c-0.3,0-0.5,0.3-0.4,0.6c0,0.2,0.2,0.4,0.5,0.4c0,0,0,0,0.1,0l3.7-0.5l2.5,0.8
				c0.1,0,0.1,0,0.2,0c0.2,0,0.4-0.1,0.5-0.3c0.1-0.3-0.1-0.5-0.3-0.6l-2.2-0.7c0,0,0,0,0,0l0,0c0,0,0,0,0,0l0,0c0,0,0,0,0,0l0,0
				c0,0,0,0,0,0L43.8,6.5L43.8,6.5z"/>
		</g>
		<g>
			<polygon fill="none" stroke="#000000" stroke-linecap="round" stroke-miterlimit="10" stroke-dasharray="4" points="19.4,19.9 
				19.4,86.5 62.7,78.8 62.7,13 			"/>
		</g>
		<polygon fill="none" stroke="#000000" stroke-linecap="round" stroke-miterlimit="10" stroke-dasharray="4" points="19.4,19.9 
			0.6,12.7 0.6,79 19.1,86.5 19.4,86.5 		"/>
	</g>
</g>
<path fill="#FBE05B" d="M92.5,81.9l-4.7-2c0.1-0.6,0.2-1.3,0.2-2l5.1-1l-5.1-1c0-0.6-0.1-1.3-0.2-1.9l4.8-2l-5.1,0
	c-0.2-0.6-0.4-1.3-0.6-1.9l4.3-2.9l-5,1c-0.3-0.5-0.5-1-0.8-1.5l3.6-3.6L84.1,65c-0.4-0.5-0.8-1-1.3-1.5l2.9-4.3l-4.3,2.9
	c-0.5-0.4-1-0.8-1.5-1.2l2-4.8l-3.6,3.6c-0.6-0.3-1.1-0.6-1.7-0.9l1-5l-2.8,4.3c-0.5-0.2-1.1-0.4-1.7-0.5l0-5.1l-2,4.7
	c-0.6-0.1-1.3-0.2-2-0.2l-1-5.1L67,57c-0.6,0-1.3,0.1-1.9,0.2l-2-4.8l0,5.1c-0.6,0.2-1.3,0.4-1.9,0.6l-2.9-4.3l1,5
	c-0.5,0.3-1,0.5-1.5,0.8l-3.6-3.6l1.9,4.8c-0.5,0.4-1,0.8-1.5,1.3l-4.3-2.9l2.9,4.3c-0.4,0.5-0.8,1-1.2,1.5l-4.8-2l3.6,3.6
	c-0.3,0.6-0.6,1.1-0.9,1.7l-5-1l4.3,2.8c-0.2,0.5-0.4,1.1-0.5,1.7l-5.1,0l4.7,2c-0.1,0.6-0.2,1.3-0.2,2l-5.1,1l5.1,1
	c0,0.6,0.1,1.3,0.2,1.9l-4.8,2l5.1,0c0.2,0.6,0.4,1.3,0.6,1.9l-4.3,2.9l5-1c0.3,0.5,0.5,1,0.8,1.5l-3.6,3.6l4.8-1.9
	c0.4,0.5,0.8,1,1.3,1.5l-2.9,4.3l4.3-2.9c0.5,0.4,1,0.8,1.5,1.2l-2,4.8l3.6-3.6c0.6,0.3,1.1,0.6,1.7,0.9l-1,5l2.8-4.3
	c0.5,0.2,1.1,0.4,1.7,0.5l0,5.1l2-4.7c0.6,0.1,1.3,0.2,2,0.2l1,5.1l1-5.1c0.6,0,1.3-0.1,1.9-0.2l2,4.8l0-5.1
	c0.6-0.2,1.3-0.4,1.9-0.6l2.9,4.3l-1-5c0.5-0.3,1-0.5,1.5-0.8l3.6,3.6L79.9,93c0.5-0.4,1-0.8,1.5-1.3l4.3,2.9l-2.9-4.3
	c0.4-0.5,0.8-1,1.2-1.5l4.8,2l-3.6-3.6c0.3-0.6,0.6-1.1,0.9-1.7l5,1l-4.3-2.8c0.2-0.5,0.4-1.1,0.5-1.7L92.5,81.9z"/>
<g>
	<path fill="#333333" d="M59,80h-5.4v-1.5h1.9v-4L53.7,75v-1.6l2.4-0.8h1.1v6H59V80z"/>
	<path fill="#333333" d="M66,76.9h1.9c-0.2,1.9-1.7,3.3-3.8,3.3c-1.8,0-3.2-1-3.7-2.6h-1v-1h0.7c0-0.1,0-0.2,0-0.4v-0.2h-0.7v-1h0.9
		c0.5-1.6,2-2.7,3.8-2.7c2,0,3.5,1.3,3.8,3.3H66c-0.2-0.9-0.9-1.5-1.9-1.5c-0.8,0-1.4,0.4-1.8,1h2.5l-0.3,1h-2.6l0,0.2
		c0,0.1,0,0.2,0,0.4h2.4l-0.3,1h-1.8c0.4,0.5,0.9,0.8,1.7,0.8C65.1,78.4,65.8,77.9,66,76.9z"/>
	<path fill="#333333" d="M71.7,75.2c1.7,0,2.7,1,2.7,2.4c0,1.5-1.2,2.6-2.9,2.6c-1.7,0-2.8-0.9-2.9-2.4h1.7c0.1,0.5,0.5,0.9,1.2,0.9
		c0.7,0,1.2-0.4,1.2-1.1c0-0.6-0.5-1-1.3-1h-2.3l0-4.1H74v1.6h-3.2l0,1H71.7z"/>
	<path fill="#333333" d="M82.3,76.3c0,2.3-1.3,3.9-3.5,3.9s-3.5-1.6-3.5-3.9c0-2.3,1.3-3.9,3.5-3.9S82.3,74,82.3,76.3z M80.5,76.3
		c0-1.3-0.6-2.3-1.7-2.3c-1.1,0-1.7,1-1.7,2.3c0,1.3,0.6,2.3,1.7,2.3C79.9,78.6,80.5,77.6,80.5,76.3z"/>
</g>
</svg>
