<?xml version="1.0" encoding="utf-8"?>
<!-- Generator: Adobe Illustrator 18.1.1, SVG Export Plug-In . SVG Version: 6.00 Build 0)  -->
<svg version="1.1" id="Calque_1" xmlns="http://www.w3.org/2000/svg" xmlns:xlink="http://www.w3.org/1999/xlink" x="0px" y="0px"
	 viewBox="0 0 80 50.8" enable-background="new 0 0 80 50.8" xml:space="preserve">
<g>
	<g>
		<path opacity="0.1" d="M34.6,50.8c0,0-1.9,0.4-4.9-0.8c-3-1.2-28.3-11.1-29.3-11.5c-0.9-0.4-0.5-0.7,1-0.9
			c1.5-0.2,15.2-2.7,15.2-2.7L43,45L34.6,50.8z"/>
		<path fill="#595D6D" d="M14.2,41.3c-0.1,0-0.1,0-0.1-0.1c0-0.1,0-0.1,0.1-0.2l43.2-7.6c0.1,0,0.1,0,0.2,0.1c0,0.1,0,0.1-0.1,0.2
			L14.2,41.3C14.2,41.3,14.2,41.3,14.2,41.3z"/>
		<path fill="#81838A" d="M80,42.6v-0.8c0-0.1-0.1-0.2-0.4-0.3c-1-0.4-19.5-7.6-19.9-7.7c-0.4-0.1-1.2-0.4-2.4-0.1
			c-1.2,0.2-43.4,7.7-43.4,7.7c-0.1,0.1-0.2,0.2-0.2,0.3l0,0v0c0,0,0,0,0,0v0.8c0,0,0,0,0,0v0l0,0c0,0.1,0.2,0.3,0.6,0.5
			c0.8,0.4,16.2,6.3,18.5,7.2c2.2,0.9,2.6,0.7,4.1,0.5c1.4-0.2,41.8-7.6,42.3-7.7C79.4,42.9,79.9,42.8,80,42.6L80,42.6L80,42.6
			C80,42.6,80,42.6,80,42.6z M14.1,42C14.1,42,14.2,42.1,14.1,42C14.2,42.1,14.1,42.1,14.1,42L14.1,42z"/>
		<path fill="#FFFFFF" d="M13.9,41.3c0,0,42.2-7.5,43.4-7.7c1.2-0.2,2,0,2.4,0.1c0.4,0.1,18.8,7.3,19.9,7.7c1,0.4,0,0.6-0.4,0.6
			c-0.5,0-40.8,7.5-42.3,7.7c-1.4,0.2-1.9,0.4-4.1-0.5c-2.2-0.9-17.6-6.8-18.5-7.2C13.5,41.8,13.6,41.5,13.9,41.3z"/>
		<path fill="#A6AAB3" d="M20,41.7c0,0,35.3-6.2,36.3-6.4c1-0.2,1.7,0,2,0.1c0.3,0.1,7.8,3,8.6,3.3c1.5,0.6,1.1,0.7,0.7,0.7
			c-0.4,0.1-33.9,6.1-35.1,6.3c-1.2,0.2-2.4,0.5-4.3-0.2c-1.9-0.7-7.2-2.8-7.9-3.1C19.7,42,19.8,41.8,20,41.7z"/>
		<path fill="#A6AAB3" d="M48,44.4c0,0,7.7-1.3,8-1.4c0.3-0.1,1,0.3,1.1,0.3c0.1,0,0.8,0.3,1.1,0.5c0.5,0.2,1.3,0.5,1.2,0.5
			c-0.1,0-7.1,1.3-7.5,1.4c-0.4,0.1-0.8,0.2-1.3-0.1c-0.6-0.2-2.2-0.9-2.5-1C47.9,44.6,47.9,44.5,48,44.4z"/>
		<path fill="#FFFFFF" d="M14,41.2c0,0-1.4,0.5-1.5-1.2c-0.1-1.7-2.2-29.3-2.3-30.4c-0.1-1.1-0.3-1.8,2.4-2.2
			C15.3,7,52.5,0.3,53.7,0c1.2-0.2,2,0.3,2.2,0.7c0.2,0.3-0.7,3.4-0.7,3.4L22,38.7L14,41.2z"/>
		<path fill="#6D717F" d="M15.7,40.8c-1.9,0.2-2,0.5-2.2-2.1c-0.2-2.5-2-26.7-2.2-28.2c-0.2-2-0.4-2.1,1.6-2.5
			c2.3-0.4,40.2-7.1,41.7-7.4c1.5-0.3,1.4,0,1.6,1.9c0.2,1.8,2.1,28.3,2.2,29.4c0,1.1,0,1.4-1.2,1.7C55.8,33.8,15.7,40.8,15.7,40.8z
			"/>
		<polygon fill="#6AABE4" points="15.3,38.9 13.1,10 54.1,2.7 56.4,31.2 		"/>
		<polygon opacity="0.2" fill="#FFFFFF" points="15.3,38.9 13.1,10 54.1,2.7 		"/>
	</g>
	<g>
		<path fill="#FFFFFF" d="M18.3,26.2l-1.1,0.2l-0.4-5.2l1.1-0.2L18.3,26.2z"/>
		<path fill="#FFFFFF" d="M23.1,25.4L22,25.5l0-0.2c-0.3,0.2-0.6,0.4-1.1,0.5c-1,0.2-2-0.5-2-1.5c-0.1-1,0.7-2,1.8-2.1
			c0.4-0.1,0.8,0,1.1,0.1l0-0.2l1.1-0.2L23.1,25.4z M21.9,24.4l-0.1-1.1c-0.3-0.3-0.6-0.3-0.9-0.3c-0.6,0.1-1,0.6-0.9,1.1
			c0,0.5,0.5,0.9,1.1,0.8C21.4,24.8,21.7,24.7,21.9,24.4z"/>
		<path fill="#FFFFFF" d="M28.1,22.8c0.1,1-0.7,2-1.8,2.1c-0.4,0.1-0.8,0-1.1-0.1l0.1,1.9l-1.1,0.2l-0.4-5.2l1.1-0.2l0,0.2
			c0.3-0.2,0.6-0.4,1.1-0.5C27.1,21.1,28,21.7,28.1,22.8z M27,22.9c0-0.5-0.5-0.9-1.1-0.8c-0.3,0.1-0.6,0.2-0.9,0.6l0.1,1.1
			c0.3,0.3,0.6,0.3,0.9,0.3C26.6,24,27,23.5,27,22.9z"/>
		<path fill="#FFFFFF" d="M32.7,22c0.1,1.1-0.7,2-1.9,2.2c-1.2,0.2-2.1-0.4-2.2-1.5c-0.1-1.1,0.7-2,1.9-2.2
			C31.7,20.3,32.6,20.9,32.7,22z M31.6,22.2c0-0.5-0.4-0.9-1-0.8c-0.6,0.1-0.9,0.6-0.9,1.1c0,0.5,0.4,0.9,1,0.8
			C31.3,23.2,31.6,22.7,31.6,22.2z"/>
		<path fill="#FFFFFF" d="M34.2,22.3c0.1,0.4,0.4,0.5,0.8,0.4c0.4-0.1,0.6-0.2,0.6-0.4c0-0.1-0.1-0.2-0.4-0.2l-0.8,0
			c-0.6,0-1.1-0.2-1.2-0.9c-0.1-0.7,0.6-1.3,1.6-1.4c0.7-0.1,1.6-0.1,1.8,0.9l-1,0.2c0-0.3-0.4-0.4-0.7-0.3
			c-0.4,0.1-0.6,0.2-0.5,0.4c0,0.1,0.1,0.3,0.5,0.3l0.7,0c0.6,0,1.2,0.2,1.2,0.8c0.1,0.8-0.7,1.3-1.6,1.5c-0.9,0.1-1.7,0-1.9-1
			L34.2,22.3z"/>
		<path fill="#FFFFFF" d="M40.5,22.4c-0.5,0.2-0.7,0.3-1,0.3c-0.9,0.2-1.6-0.3-1.6-1.3l-0.1-1.3L37,20.4l-0.1-0.9l0.8-0.1l-0.1-1.3
			l1.1-0.2l0.1,1.3l1.4-0.2l0.1,0.9L38.9,20l0.1,1.2c0,0.4,0.3,0.5,0.7,0.5c0.2,0,0.4-0.1,0.6-0.2L40.5,22.4z"/>
		<path fill="#FFFFFF" d="M44.7,20.3l-2.8,0.5c0.1,0.3,0.5,0.6,1,0.5c0.3-0.1,0.5-0.2,0.6-0.4l1.2-0.2c-0.2,0.7-0.8,1.3-1.7,1.4
			c-1.2,0.2-2.1-0.4-2.2-1.5c-0.1-1.1,0.7-2,1.9-2.2c1.1-0.2,1.9,0.4,2,1.4C44.7,20,44.7,20.2,44.7,20.3z M41.9,20.1l1.7-0.3
			c-0.1-0.4-0.4-0.6-0.9-0.5C42.2,19.4,41.9,19.7,41.9,20.1z"/>
		<path fill="#FFFFFF" d="M45.2,21.2c0-0.3,0.3-0.6,0.6-0.7c0.4-0.1,0.7,0.1,0.7,0.5c0,0.3-0.3,0.6-0.6,0.7
			C45.5,21.7,45.2,21.5,45.2,21.2z"/>
		<path fill="#FFFFFF" d="M50.1,17.3l0.1,0.9l-1.4,0.2l0.2,2.6l-1.1,0.2l-0.2-2.6l-1,0.2l-0.1-0.9l1-0.2l0-0.5
			c-0.1-1,0.5-1.7,1.5-1.9c0.3,0,0.6-0.1,0.9,0l-0.1,0.9c-0.2,0-0.4,0-0.6,0c-0.4,0.1-0.7,0.4-0.7,0.8l0,0.5L50.1,17.3z"/>
		<path fill="#FFFFFF" d="M51.7,17.4c0.3-0.3,0.7-0.6,1.3-0.7l0.1,1c-0.6,0.1-1,0.4-1.3,0.7l0.1,2.1l-1.1,0.2l-0.3-3.5l1.1-0.2
			L51.7,17.4z"/>
	</g>
</g>
</svg>
