<?xml version="1.0" encoding="utf-8"?>
<!-- Generator: Adobe Illustrator 18.1.1, SVG Export Plug-In . SVG Version: 6.00 Build 0)  -->
<svg version="1.1" id="Capa_1" xmlns="http://www.w3.org/2000/svg" xmlns:xlink="http://www.w3.org/1999/xlink" x="0px" y="0px"
	 viewBox="-32 34.3 63.7 63.7" enable-background="new -32 34.3 63.7 63.7" xml:space="preserve">
<g>
	<g>
		<path fill="#17479E" d="M25.1,55.5V61l0.3,0.6l-0.3,0.1v9.7l3.7-1.5l0.8,2c0.4,0.9,0,1.9-0.9,2.2l-44.2,18.1
			c-0.8,0.3-1.8-0.1-2.2-1l-0.8-2l33.9-13.8H-8.5L-22,80.9l-2.2-5.5h-2.2l6.8,16.6c0.6,1.4,2,2.4,3.5,2.4c0.5,0,1-0.1,1.4-0.3
			l44.2-18.1c1.9-0.8,2.8-3,2-4.9L25.1,55.5z"/>
		<polygon fill="#17479E" points="12.9,60.7 12.9,59.4 12.1,60.7 		"/>
		<polygon fill="#17479E" points="-14,59.4 -14.8,60.7 -14,60.7 		"/>
		<path fill="#17479E" d="M-8.9,61.3c0.1-0.1,0.1-0.2,0.1-0.4c0-0.2,0-0.3-0.1-0.4c-0.1-0.1-0.2-0.1-0.3-0.1c-0.1,0-0.2,0-0.3,0.1
			c-0.1,0.1-0.2,0.2-0.2,0.5c0,0.2,0,0.3,0.1,0.4c0.1,0.1,0.2,0.2,0.3,0.2C-9.1,61.4-9,61.4-8.9,61.3z"/>
		<path fill="#17479E" d="M-23,68.8c0.1,0,0.2,0,0.3-0.1c0.1-0.1,0.1-0.2,0.2-0.4v-0.2c0,0-0.1,0-0.1,0.1c0,0-0.1,0-0.1,0l-0.1,0
			c-0.1,0-0.2,0-0.2,0.1c-0.1,0-0.1,0.1-0.1,0.2c0,0.1,0,0.2,0.1,0.2C-23.2,68.8-23.1,68.8-23,68.8z"/>
		<path fill="#17479E" d="M-1.9,61.4c0.1,0,0.2,0,0.3-0.1s0.1-0.2,0.1-0.4c0-0.2,0-0.3-0.1-0.4c-0.1-0.1-0.2-0.1-0.3-0.1
			s-0.2,0-0.3,0.1s-0.1,0.2-0.1,0.4c0,0.2,0,0.3,0.1,0.4S-2.1,61.4-1.9,61.4z"/>
		<path fill="#17479E" d="M-17.3,67.5c-0.1,0-0.2,0-0.3,0.1c-0.1,0.1-0.1,0.2-0.1,0.3h0.9c0-0.1-0.1-0.3-0.1-0.3
			C-17.1,67.5-17.2,67.5-17.3,67.5z"/>
		<path fill="#17479E" d="M0.5,59.2c-0.1,0-0.2,0-0.3,0.1c-0.1,0.1-0.2,0.2-0.2,0.5c0,0.2,0,0.3,0.1,0.4c0.1,0.1,0.2,0.1,0.3,0.1
			c0.1,0,0.2,0,0.2-0.1C0.9,60.2,1,60,1,59.8c0-0.2,0-0.3-0.1-0.4C0.8,59.3,0.7,59.2,0.5,59.2z"/>
		<path fill="#17479E" d="M-1.9,60c0.1,0,0.2,0,0.3-0.1c0.1-0.1,0.1-0.2,0.1-0.3c0-0.1,0-0.2-0.1-0.3c-0.1-0.1-0.2-0.1-0.3-0.1
			c-0.1,0-0.2,0-0.3,0.1c-0.1,0.1-0.1,0.2-0.1,0.3c0,0.1,0,0.2,0.1,0.3C-2.2,60-2.1,60-1.9,60z"/>
		<path fill="#17479E" d="M-10.7,68.2c-0.1,0-0.2,0-0.2,0.1c-0.1,0-0.1,0.1-0.1,0.2c0,0.1,0,0.2,0.1,0.2s0.1,0.1,0.2,0.1
			c0.1,0,0.2,0,0.3-0.1c0.1-0.1,0.1-0.2,0.2-0.4v-0.2c0,0-0.1,0-0.1,0.1c0,0-0.1,0-0.1,0L-10.7,68.2z"/>
		<path fill="#17479E" d="M-1.8,68.2c-0.1,0-0.2,0-0.2,0.1c-0.1,0-0.1,0.1-0.1,0.2c0,0.1,0,0.2,0.1,0.2s0.1,0.1,0.2,0.1
			c0.1,0,0.2,0,0.3-0.1c0.1-0.1,0.1-0.2,0.2-0.4v-0.2c0,0-0.1,0-0.1,0.1c0,0-0.1,0-0.1,0L-1.8,68.2z"/>
		<path fill="#17479E" d="M3.6,67.6c-0.1,0.1-0.1,0.2-0.1,0.3h0.9c0-0.1-0.1-0.3-0.1-0.3c-0.1-0.1-0.2-0.1-0.3-0.1
			C3.8,67.5,3.7,67.5,3.6,67.6z"/>
		<path fill="#17479E" d="M17.6,61.4c0.1,0,0.2-0.1,0.3-0.2c0.1-0.1,0.1-0.2,0.1-0.4c0-0.2,0-0.3-0.1-0.4c-0.1-0.1-0.2-0.1-0.3-0.1
			c-0.1,0-0.2,0-0.3,0.1c-0.1,0.1-0.2,0.2-0.2,0.5c0,0.2,0,0.3,0.1,0.4C17.4,61.4,17.5,61.4,17.6,61.4z"/>
		<path fill="#17479E" d="M-26.7,61.1c0.1,0.2,0.2,0.3,0.4,0.3c0.2,0,0.3-0.1,0.4-0.3c0-0.2,0.1-0.4,0.1-0.7c0,0,0-0.1,0-0.1
			c0-0.4,0-0.7-0.1-0.8s-0.2-0.3-0.4-0.3c-0.2,0-0.3,0.1-0.4,0.3c-0.1,0.2-0.1,0.5-0.1,0.8c0,0.2,0,0.3,0,0.5
			C-26.7,60.9-26.7,61-26.7,61.1z"/>
		<path fill="#17479E" d="M-29.8,73.2c0.5,0.2,1,0.4,1.6,0.4h1h2.2h21.2H20h0c1,0,1.9-0.4,2.6-1.1c0.7-0.7,1.2-1.7,1.2-2.7v-7.5
			v-4.5v-5.5V41.7c0-1.1-0.4-2-1.2-2.7c-0.7-0.7-1.6-1.1-2.6-1.1h-48.2c-2.1,0-3.8,1.7-3.8,3.8v28C-32,71.2-31.1,72.6-29.8,73.2z
			 M-27.4,60.3c0-0.5,0.1-0.9,0.2-1.2c0.2-0.3,0.4-0.4,0.8-0.4c0.4,0,0.7,0.1,0.8,0.4c0.1,0.3,0.2,0.6,0.2,1.1c0,0,0,0.1,0,0.1
			c0,0.5-0.1,0.9-0.2,1.2c-0.2,0.3-0.4,0.4-0.8,0.4s-0.7-0.1-0.8-0.4c-0.1-0.1-0.1-0.3-0.2-0.5C-27.4,60.8-27.4,60.6-27.4,60.3z
			 M1.7,47.9c0-2.8,2.3-5.1,5.1-5.1c1.1,0,2.1,0.4,3,1c0.9-0.7,2-1.1,3.2-1.1c1,0,2,0.3,2.8,0.8c0.7,0.4,1.2,1,1.6,1.7
			c0.4,0.8,0.7,1.6,0.7,2.6c0,2.8-2.3,5.1-5.1,5.1c-1.1,0-2.1-0.4-3-1c-0.9,0.7-2,1.2-3.2,1.2c-1.7,0-3.1-0.8-4.1-2
			c-0.4-0.6-0.7-1.2-0.9-1.9C1.8,48.7,1.7,48.3,1.7,47.9z M0.8,67.6c0-0.1-0.1-0.1-0.3-0.1c-0.2,0-0.3,0-0.3,0.1c0,0.1,0,0.1,0,0.3
			v1.2h-0.5v-2h0.5v0.3c0.1-0.1,0.1-0.2,0.2-0.2C0.4,67.1,0.6,67,0.7,67c0.2,0,0.3,0,0.4,0.1c0.1,0.1,0.1,0.1,0.2,0.2
			c0.1-0.1,0.2-0.2,0.3-0.3C1.7,67,1.8,67,1.9,67c0.1,0,0.2,0,0.3,0.1c0.1,0,0.2,0.1,0.2,0.2c0.1,0.1,0.1,0.2,0.1,0.3
			c0,0.1,0,0.2,0,0.3l0,1.3H2v-1.3c0-0.1,0-0.1,0-0.2c0-0.1-0.1-0.1-0.3-0.1c-0.1,0-0.3,0.1-0.3,0.2c0,0.1,0,0.1,0,0.2v1.2H0.8v-1.2
			C0.8,67.8,0.8,67.7,0.8,67.6z M0.8,60.7c-0.1,0.1-0.3,0.1-0.4,0.1c-0.2,0-0.5-0.1-0.7-0.3c-0.2-0.2-0.3-0.4-0.3-0.7
			c0-0.3,0.1-0.6,0.3-0.8c0.2-0.2,0.4-0.3,0.7-0.3c0.5,0,0.8,0.2,1,0.6c0.1,0.2,0.1,0.6,0.1,0.9c0,0.4,0,0.7-0.1,0.9
			c-0.2,0.5-0.5,0.7-1,0.7c-0.2,0-0.4-0.1-0.6-0.2c-0.2-0.1-0.3-0.3-0.3-0.6h0.6c0,0.1,0.1,0.2,0.1,0.2s0.1,0.1,0.3,0.1
			c0.2,0,0.3-0.1,0.4-0.3C0.9,61,1,60.8,1,60.6C0.9,60.6,0.9,60.7,0.8,60.7z M-2.8,59.9c0-0.1-0.1-0.2-0.1-0.3
			c0-0.2,0.1-0.4,0.3-0.6c0.2-0.2,0.4-0.2,0.7-0.2c0.3,0,0.6,0.1,0.7,0.2S-1,59.3-1,59.5c0,0.1,0,0.2-0.1,0.3c0,0.1-0.1,0.2-0.3,0.3
			c0.2,0.1,0.3,0.2,0.3,0.3c0.1,0.1,0.1,0.3,0.1,0.5c0,0.3-0.1,0.5-0.3,0.7c-0.2,0.2-0.5,0.3-0.8,0.3s-0.6-0.1-0.8-0.3
			C-2.9,61.5-3,61.2-3,61c0-0.2,0-0.3,0.1-0.5c0.1-0.1,0.2-0.2,0.3-0.3C-2.7,60.1-2.8,60-2.8,59.9z M-1.5,67.5c-0.1,0-0.1,0-0.3,0
			c-0.1,0-0.2,0-0.3,0.1c0,0-0.1,0.1-0.1,0.2h-0.5c0-0.2,0.1-0.3,0.2-0.4c0.1-0.2,0.4-0.3,0.7-0.3c0.2,0,0.4,0,0.6,0.1
			c0.2,0.1,0.3,0.3,0.3,0.5v0.9c0,0.1,0,0.1,0,0.2c0,0.1,0,0.1,0,0.1c0,0,0,0,0.1,0.1v0.1h-0.6c0,0,0-0.1,0-0.1c0,0,0-0.1,0-0.1
			C-1.4,69-1.5,69-1.6,69.1c-0.1,0.1-0.2,0.1-0.4,0.1c-0.2,0-0.3-0.1-0.5-0.2c-0.1-0.1-0.2-0.3-0.2-0.4c0-0.3,0.1-0.4,0.3-0.5
			c0.1-0.1,0.3-0.1,0.5-0.1l0.2,0c0.1,0,0.2,0,0.2,0c0.1,0,0.1-0.1,0.1-0.2C-1.4,67.6-1.4,67.5-1.5,67.5z M-3.6,67.6
			c-0.1-0.1-0.2-0.2-0.3-0.2c-0.2,0-0.3,0.1-0.4,0.2c0,0.1-0.1,0.2-0.1,0.3v1.1h-0.5v-2h0.5v0.3c0.1-0.1,0.1-0.2,0.2-0.2
			c0.1-0.1,0.2-0.1,0.4-0.1c0.2,0,0.4,0.1,0.5,0.2c0.1,0.1,0.2,0.3,0.2,0.6v1.4h-0.5v-1.2C-3.6,67.8-3.6,67.7-3.6,67.6z M-6.6,68.7
			c0,0,0.1,0,0.2,0c0,0,0,0,0.1,0c0,0,0,0,0.1,0v0.4l-0.3,0c-0.3,0-0.4,0-0.5-0.1c-0.1-0.1-0.1-0.2-0.1-0.3v-1.3h-0.3v-0.4h0.3v-0.6
			h0.5v0.6h0.3v0.4h-0.3v1.1C-6.6,68.6-6.6,68.7-6.6,68.7z M-6.5,60.4c-0.1,0.2-0.2,0.4-0.2,0.7c-0.1,0.3-0.1,0.5-0.1,0.7h-0.6
			c0-0.6,0.2-1.1,0.5-1.7c0.2-0.4,0.4-0.6,0.6-0.8h-1.5l0-0.5h2.2v0.5c-0.1,0.1-0.2,0.2-0.4,0.5C-6.2,60-6.4,60.2-6.5,60.4z
			 M-15.2,61.2v-0.5l1.1-1.9h0.7v1.9h0.4v0.5h-0.4v0.7H-14v-0.7L-15.2,61.2L-15.2,61.2z M-13.8,66.3h0.6v2.3h1.4v0.5h-2V66.3z
			 M-12.5,61.7c-0.2-0.2-0.3-0.4-0.3-0.7h0.6c0,0.1,0.1,0.2,0.1,0.3s0.2,0.1,0.3,0.1c0.2,0,0.3-0.1,0.3-0.2c0.1-0.1,0.1-0.2,0.1-0.4
			c0-0.2,0-0.3-0.1-0.4c-0.1-0.1-0.2-0.2-0.3-0.2c-0.1,0-0.1,0-0.2,0c-0.1,0-0.2,0.1-0.2,0.2l-0.5,0l0.2-1.7h1.7v0.5H-12l-0.1,0.7
			c0.1-0.1,0.2-0.1,0.2-0.1c0.1,0,0.2,0,0.3,0c0.3,0,0.5,0.1,0.7,0.3c0.2,0.2,0.3,0.4,0.3,0.8c0,0.3-0.1,0.5-0.3,0.8
			c-0.2,0.2-0.5,0.3-0.8,0.3C-12,61.9-12.3,61.8-12.5,61.7z M-10.5,67.5c-0.1,0-0.1,0-0.3,0c-0.1,0-0.2,0-0.3,0.1
			c0,0-0.1,0.1-0.1,0.2h-0.5c0-0.2,0.1-0.3,0.2-0.4c0.1-0.2,0.4-0.3,0.7-0.3c0.2,0,0.4,0,0.6,0.1c0.2,0.1,0.3,0.3,0.3,0.5v0.9
			c0,0.1,0,0.1,0,0.2c0,0.1,0,0.1,0,0.1c0,0,0,0,0.1,0.1v0.1h-0.6c0,0,0-0.1,0-0.1c0,0,0-0.1,0-0.1c-0.1,0.1-0.2,0.1-0.3,0.2
			c-0.1,0.1-0.2,0.1-0.4,0.1c-0.2,0-0.3-0.1-0.5-0.2c-0.1-0.1-0.2-0.3-0.2-0.4c0-0.3,0.1-0.4,0.3-0.5c0.1-0.1,0.3-0.1,0.5-0.1l0.2,0
			c0.1,0,0.2,0,0.2,0c0.1,0,0.1-0.1,0.1-0.2C-10.4,67.6-10.4,67.5-10.5,67.5z M-10.1,61.4c-0.1-0.3-0.2-0.6-0.2-1c0-0.2,0-0.4,0-0.6
			c0-0.3,0.1-0.5,0.2-0.7c0.1-0.2,0.2-0.3,0.3-0.4c0.1-0.1,0.3-0.1,0.5-0.1c0.3,0,0.5,0.1,0.7,0.2c0.2,0.1,0.3,0.3,0.3,0.6h-0.6
			c0,0,0-0.1-0.1-0.2c-0.1-0.1-0.2-0.1-0.3-0.1c-0.2,0-0.3,0.1-0.4,0.3c0,0.1-0.1,0.3-0.1,0.5c0.1-0.1,0.2-0.2,0.3-0.2
			c0.1,0,0.2-0.1,0.3-0.1c0.3,0,0.5,0.1,0.7,0.3c0.2,0.2,0.3,0.4,0.3,0.7s-0.1,0.5-0.3,0.8s-0.4,0.3-0.8,0.3
			C-9.6,61.9-9.9,61.8-10.1,61.4z M-8.2,68.4c0,0-0.2-0.1-0.6-0.2c-0.2-0.1-0.4-0.1-0.5-0.2s-0.1-0.2-0.1-0.4c0-0.2,0.1-0.4,0.2-0.5
			c0.1-0.1,0.4-0.2,0.6-0.2c0.3,0,0.5,0.1,0.6,0.2c0.2,0.1,0.3,0.3,0.3,0.5h-0.5c0-0.1,0-0.1-0.1-0.2c-0.1-0.1-0.2-0.1-0.3-0.1
			c-0.1,0-0.2,0-0.2,0.1c0,0-0.1,0.1-0.1,0.1c0,0.1,0,0.1,0.1,0.1c0.1,0,0.2,0.1,0.6,0.1c0.2,0.1,0.4,0.1,0.5,0.2
			c0.1,0.1,0.2,0.2,0.2,0.4c0,0.2-0.1,0.4-0.2,0.5c-0.2,0.1-0.4,0.2-0.7,0.2c-0.3,0-0.6-0.1-0.7-0.2c-0.2-0.1-0.2-0.3-0.2-0.5H-9
			c0,0.1,0,0.2,0.1,0.2c0.1,0.1,0.2,0.1,0.4,0.1c0.1,0,0.2,0,0.3,0c0.1,0,0.1-0.1,0.1-0.1C-8.2,68.5-8.2,68.5-8.2,68.4z M-17.6,68.7
			c0.1,0.1,0.2,0.1,0.3,0.1c0.1,0,0.2,0,0.3-0.1c0,0,0.1-0.1,0.1-0.1h0.5c0,0.1-0.1,0.2-0.2,0.4c-0.2,0.2-0.4,0.3-0.8,0.3
			c-0.3,0-0.5-0.1-0.7-0.3s-0.3-0.4-0.3-0.8c0-0.4,0.1-0.6,0.3-0.8c0.2-0.2,0.4-0.3,0.7-0.3c0.2,0,0.3,0,0.5,0.1
			c0.1,0.1,0.3,0.2,0.4,0.3c0.1,0.1,0.1,0.3,0.2,0.4c0,0.1,0,0.2,0,0.4h-1.5C-17.8,68.4-17.7,68.6-17.6,68.7z M-18,59.6
			c0,0.2-0.1,0.3-0.2,0.5c-0.1,0.1-0.1,0.1-0.2,0.2c0.1,0,0.1,0,0.2,0.1c0.2,0.1,0.2,0.3,0.2,0.6c0,0.3-0.1,0.5-0.3,0.7
			c-0.2,0.2-0.5,0.3-0.8,0.3c-0.4,0-0.7-0.1-0.9-0.4c-0.1-0.2-0.1-0.4-0.1-0.6h0.6c0,0.1,0,0.2,0.1,0.3c0.1,0.1,0.2,0.2,0.4,0.2
			c0.1,0,0.2,0,0.3-0.1c0.1-0.1,0.1-0.2,0.1-0.4c0-0.2-0.1-0.3-0.2-0.4c-0.1,0-0.2-0.1-0.4-0.1V60c0.2,0,0.3,0,0.4-0.1
			c0.1,0,0.1-0.1,0.2-0.2c0,0,0-0.1,0-0.1c0-0.1,0-0.2-0.1-0.3c-0.1-0.1-0.2-0.1-0.3-0.1c-0.1,0-0.2,0-0.3,0.1
			c-0.1,0.1-0.1,0.2-0.1,0.4H-20c0-0.2,0-0.3,0.1-0.4c0-0.1,0.1-0.2,0.2-0.3c0.1-0.1,0.2-0.1,0.3-0.2c0.1,0,0.2-0.1,0.4-0.1
			c0.3,0,0.5,0.1,0.7,0.2C-18.2,59.1-18.1,59.3-18,59.6C-18.1,59.5-18,59.5-18,59.6z M-19.2,67.6c0-0.1-0.1-0.1-0.3-0.1
			c-0.1,0-0.2,0.1-0.3,0.2c0,0.1,0,0.1,0,0.2v1.2h-0.5v-1.2c0-0.1,0-0.2,0-0.3c0-0.1-0.1-0.1-0.3-0.1c-0.2,0-0.3,0-0.3,0.1
			c0,0.1,0,0.1,0,0.3v1.2h-0.5v-2h0.5v0.3c0.1-0.1,0.1-0.2,0.2-0.2c0.1-0.1,0.2-0.1,0.4-0.1c0.2,0,0.3,0,0.4,0.1
			c0.1,0.1,0.1,0.1,0.2,0.2c0.1-0.1,0.2-0.2,0.3-0.3c0.1-0.1,0.2-0.1,0.4-0.1c0.1,0,0.2,0,0.3,0.1c0.1,0,0.2,0.1,0.2,0.2
			c0.1,0.1,0.1,0.2,0.1,0.3c0,0.1,0,0.2,0,0.3l0,1.3h-0.5v-1.3C-19.2,67.7-19.2,67.7-19.2,67.6z M5.7,59.4c-0.1-0.1-0.2-0.1-0.3-0.1
			c-0.2,0-0.3,0.1-0.4,0.2C5,59.5,5,59.7,5,59.8H4.4c0-0.3,0.1-0.5,0.1-0.6c0.2-0.3,0.5-0.5,0.9-0.5c0.3,0,0.6,0.1,0.8,0.3
			c0.2,0.2,0.3,0.4,0.3,0.7c0,0.2-0.1,0.4-0.2,0.6c-0.1,0.1-0.2,0.3-0.4,0.4l-0.2,0.2c-0.2,0.1-0.3,0.2-0.3,0.2
			c-0.1,0-0.1,0.1-0.1,0.2h1.4v0.5H4.3c0-0.2,0.1-0.4,0.1-0.6c0.1-0.2,0.3-0.4,0.6-0.7c0.3-0.2,0.5-0.3,0.5-0.4
			c0.1-0.1,0.2-0.3,0.2-0.4C5.8,59.6,5.8,59.5,5.7,59.4z M4.4,67.1c0.1,0.1,0.3,0.2,0.4,0.3c0.1,0.1,0.1,0.3,0.2,0.4
			c0,0.1,0,0.2,0,0.4H3.4c0,0.2,0.1,0.3,0.2,0.4c0.1,0.1,0.2,0.1,0.3,0.1c0.1,0,0.2,0,0.3-0.1c0,0,0.1-0.1,0.1-0.1h0.5
			c0,0.1-0.1,0.2-0.2,0.4c-0.2,0.2-0.4,0.3-0.8,0.3c-0.3,0-0.5-0.1-0.7-0.3s-0.3-0.4-0.3-0.8c0-0.4,0.1-0.6,0.3-0.8
			C3.4,67.1,3.6,67,3.9,67C4.1,67,4.2,67,4.4,67.1z M3.4,61.8H2.8v-2.1H2.1v-0.4c0.2,0,0.3,0,0.4,0c0.1,0,0.2-0.1,0.3-0.2
			C2.8,59,2.9,59,2.9,58.9c0-0.1,0-0.1,0-0.1h0.5V61.8z M10.5,60.5c-0.1,0-0.2-0.1-0.4-0.1V60c0.2,0,0.3,0,0.4-0.1
			c0.1-0.1,0.2-0.2,0.2-0.4c0-0.1,0-0.2-0.1-0.3c-0.1-0.1-0.2-0.1-0.3-0.1c-0.1,0-0.2,0-0.3,0.1c-0.1,0.1-0.1,0.2-0.1,0.4H9.3
			c0-0.2,0-0.3,0.1-0.4c0-0.1,0.1-0.2,0.2-0.3c0.1-0.1,0.2-0.1,0.3-0.2c0.1,0,0.2-0.1,0.4-0.1c0.3,0,0.5,0.1,0.7,0.2
			c0.2,0.2,0.3,0.4,0.3,0.6c0,0.2-0.1,0.3-0.2,0.5c-0.1,0.1-0.1,0.1-0.2,0.2c0.1,0,0.1,0,0.2,0.1c0.2,0.1,0.2,0.3,0.2,0.6
			c0,0.3-0.1,0.5-0.3,0.7c-0.2,0.2-0.5,0.3-0.8,0.3c-0.4,0-0.7-0.1-0.9-0.4c-0.1-0.2-0.1-0.4-0.1-0.6h0.6c0,0.1,0,0.2,0.1,0.3
			c0.1,0.2,0.2,0.2,0.4,0.2c0.1,0,0.2,0,0.3-0.1c0.1-0.1,0.1-0.2,0.1-0.4C10.7,60.7,10.6,60.6,10.5,60.5z M13.8,60.7v0.5h-0.4v0.7
			h-0.6v-0.7h-1.2v-0.5l1.1-1.9h0.7v1.9H13.8z M15.5,60.5c-0.1-0.1-0.2-0.2-0.3-0.2c-0.1,0-0.1,0-0.2,0c-0.1,0-0.2,0.1-0.2,0.2
			l-0.5,0l0.2-1.7h1.7v0.5h-1.3L14.7,60c0.1-0.1,0.2-0.1,0.2-0.1c0.1,0,0.2,0,0.3,0c0.3,0,0.5,0.1,0.7,0.3c0.2,0.2,0.3,0.4,0.3,0.8
			c0,0.3-0.1,0.5-0.3,0.8s-0.5,0.3-0.8,0.3c-0.3,0-0.5-0.1-0.7-0.2c-0.2-0.2-0.3-0.4-0.3-0.7h0.6c0,0.1,0.1,0.2,0.1,0.3
			s0.2,0.1,0.3,0.1c0.2,0,0.3-0.1,0.3-0.2c0.1-0.1,0.1-0.2,0.1-0.4C15.6,60.7,15.5,60.6,15.5,60.5z M18.6,59.5H18c0,0,0-0.1-0.1-0.2
			c-0.1-0.1-0.2-0.1-0.3-0.1c-0.2,0-0.3,0.1-0.4,0.3c0,0.1-0.1,0.3-0.1,0.5c0.1-0.1,0.2-0.2,0.3-0.2c0.1,0,0.2-0.1,0.3-0.1
			c0.3,0,0.5,0.1,0.7,0.3c0.2,0.2,0.3,0.4,0.3,0.7c0,0.3-0.1,0.5-0.3,0.8c-0.2,0.2-0.4,0.3-0.8,0.3c-0.4,0-0.7-0.2-0.9-0.5
			c-0.1-0.3-0.2-0.6-0.2-1c0-0.2,0-0.4,0-0.6c0-0.3,0.1-0.5,0.2-0.7c0.1-0.1,0.2-0.3,0.3-0.4c0.1-0.1,0.3-0.1,0.5-0.1
			c0.3,0,0.5,0.1,0.7,0.2C18.5,59.1,18.6,59.3,18.6,59.5z M-21.5,58.7c0.3,0,0.6,0.1,0.8,0.3c0.2,0.2,0.3,0.4,0.3,0.7
			c0,0.2-0.1,0.4-0.2,0.6c-0.1,0.1-0.2,0.2-0.4,0.4c0,0,0,0,0,0l-0.2,0.2c-0.2,0.1-0.3,0.2-0.3,0.2c-0.1,0-0.1,0.1-0.1,0.2h1.4v0.5
			h-2.1c0-0.2,0.1-0.4,0.1-0.6c0,0,0,0,0,0c0.1-0.2,0.3-0.4,0.6-0.7c0.3-0.2,0.5-0.3,0.5-0.4c0.1-0.1,0.2-0.3,0.2-0.4
			c0-0.1,0-0.2-0.1-0.3c-0.1-0.1-0.2-0.1-0.3-0.1c-0.2,0-0.3,0.1-0.4,0.2c0,0.1-0.1,0.2-0.1,0.4h-0.6c0-0.3,0.1-0.5,0.1-0.6
			c0.1-0.1,0.2-0.2,0.3-0.3c0.1,0,0.1-0.1,0.2-0.1C-21.7,58.8-21.6,58.7-21.5,58.7z M-25.9,69.1h-0.5v-2.8h0.6l1.1,1.9v-1.9h0.5v2.8
			h-0.6l-1.1-2L-25.9,69.1L-25.9,69.1z M-24.1,61.8v-2.1v0h-0.7v-0.4c0.2,0,0.3,0,0.4,0c0.1,0,0.2-0.1,0.3-0.2C-24,59-24,59-24,58.9
			c0-0.1,0-0.1,0-0.1h0.5v0.7v2.2v0.1h-0.4L-24.1,61.8L-24.1,61.8z M-26.1,52.1v-2h2v2L-26.1,52.1C-26.1,52.2-26.1,52.1-26.1,52.1z
			 M-24.1,54.8c-0.8-0.2-1.4-0.8-1.8-1.6h1.8V54.8z M-23,53.2h1.7v1.7H-23V53.2z M-20.3,53.2h1.8c-0.3,0.8-1,1.3-1.8,1.6
			C-20.3,54.8-20.3,53.2-20.3,53.2z M-18.3,52.1C-18.3,52.1-18.3,52.2-18.3,52.1l-2,0v-2h2L-18.3,52.1L-18.3,52.1z M-20.8,49.1
			L-20.8,49.1l-0.5,0v3.1H-23v-5h2c1.3,0,2.3,0.8,2.6,2L-20.8,49.1L-20.8,49.1z M-24.1,49.1h-1.9c0.3-0.9,1-1.6,1.9-1.9V49.1z
			 M-23.6,68c0.1-0.1,0.3-0.1,0.5-0.1l0.2,0c0.1,0,0.2,0,0.2,0c0.1,0,0.1-0.1,0.1-0.2c0-0.1,0-0.1-0.1-0.2c-0.1,0-0.1,0-0.3,0
			c-0.1,0-0.2,0-0.3,0.1c0,0-0.1,0.1-0.1,0.2h-0.5c0-0.2,0.1-0.3,0.2-0.4c0.1-0.2,0.4-0.3,0.7-0.3c0.2,0,0.4,0,0.6,0.1
			c0.2,0.1,0.3,0.3,0.3,0.5v0.9c0,0.1,0,0.1,0,0.2c0,0.1,0,0.1,0,0.1c0,0,0,0,0.1,0.1v0.1h-0.6c0,0,0-0.1,0-0.1c0,0,0-0.1,0-0.1
			c-0.1,0.1-0.2,0.1-0.3,0.2c-0.1,0.1-0.2,0.1-0.4,0.1c-0.2,0-0.3-0.1-0.5-0.2c-0.1-0.1-0.2-0.3-0.2-0.5
			C-23.9,68.3-23.8,68.1-23.6,68z"/>
		<path fill="#17479E" d="M3.8,50.6C4.6,51.4,5.7,52,6.9,52c0.9,0,1.7-0.3,2.3-0.7h0.1H10h0.1h0.6h0.2c0,0,0,0,0,0
			c0.3-0.2,0.5-0.5,0.8-0.8h-0.4h-0.6h-0.7h0H9.4H8.7c-0.1-0.2-0.2-0.4-0.3-0.6H9h0.6h0.9h0.6h0.6h0.5c0.1-0.3,0.2-0.5,0.3-0.8h-0.6
			h-0.5h-0.5H9.2H8.7H8.1c0-0.1,0-0.1-0.1-0.2C8,48.7,8,48.5,8,48.3h0.5H9h0.2h1.7h0.5H12h0.6c0-0.2,0.1-0.4,0.1-0.6
			c0-0.1,0-0.1,0-0.2H12h-0.5h-0.2h-0.3H9H8.5H7.9c0-0.2,0-0.4,0.1-0.7h0.5h0.5h1.8h0.5h0.5h0.7c-0.1-0.3-0.1-0.5-0.2-0.8h-0.7h-0.5
			h-0.6H9.3h0H8.7H8.2c0.1-0.2,0.2-0.5,0.3-0.7h0.6h0.6h0.5h0.6h0.2h0.4H12c-0.1-0.1-0.2-0.2-0.2-0.3c-0.1-0.2-0.2-0.3-0.4-0.5h-0.6
			h-0.4h-0.2H9.6H9.4H9c0-0.1,0.1-0.1,0.1-0.2c-0.6-0.4-1.4-0.7-2.2-0.7c-2.3,0-4.1,1.8-4.1,4.1c0,0.3,0,0.6,0.1,0.8
			C3,49.4,3.4,50,3.8,50.6z"/>
	</g>
</g>
</svg>
