<?xml version="1.0" encoding="utf-8"?>
<!-- Generator: Adobe Illustrator 18.1.1, SVG Export Plug-In . SVG Version: 6.00 Build 0)  -->
<svg version="1.1" id="Calque_1" xmlns="http://www.w3.org/2000/svg" xmlns:xlink="http://www.w3.org/1999/xlink" x="0px" y="0px"
	 viewBox="-45.2 -16.7 174.2 144.9" enable-background="new -45.2 -16.7 174.2 144.9" xml:space="preserve">
<g>
	<circle fill="#EFB285" cx="93.2" cy="20.8" r="15.6"/>
	<polygon fill="#FBDD4A" points="93.6,93 105.4,39.4 83.5,39.4 	"/>
	<path fill="#EFB285" d="M116.8,106.5c0,9.3,12.2,9.3,12.2,0v-0.8h-12.2V106.5z"/>
	<path fill="#EFB285" d="M58.5,106.5c0,9.3,12.2,9.3,12.2,0v-0.8H58.5V106.5z"/>
	<path fill="#C7C7C7" d="M111.3,39.4h-5.9L93.6,93L83,39.4h-5.5h-2.1c-10.1,0.4-16.9,9.3-16.9,19.9v46.5h12.2V60.5h3.8V112
		c4.2,0,14.4,0,16.1,0c2.1,0,2.5-5.5,2.5-5.5s0,5.5,2.5,5.5c2.1,0,13.9,0,17.3,0V60.5h3.8v45.2h12.2V59.2
		C129.1,49.5,123.2,39.4,111.3,39.4z"/>
	<polygon fill="#717171" points="105.4,39.4 110.5,46.5 105.9,48.2 109.2,51.6 93.6,93 102.9,39.4 	"/>
	<rect x="109.2" y="51.2" fill="#13338B" width="5.5" height="5.5"/>
	<rect x="110.9" y="52.5" fill="#D6D6D6" width="2.5" height="2.1"/>
	<path fill="#13338B" d="M110.9,54.1c0.8-0.4,1.7-0.4,2.5-0.4l0,0h-1.3v0.4C111.3,53.7,111.3,54.1,110.9,54.1L110.9,54.1"/>
	<polyline fill="#13338B" points="112.2,53.7 112.2,54.1 112.2,54.1 110.9,54.1 110.9,54.1 112.2,53.7 112.2,53.7 	"/>
	<polyline fill="#13338B" points="112.6,53.3 112.6,53.3 112.6,53.7 111.8,53.7 111.3,53.3 111.3,53.3 112.6,53.3 	"/>
	<polyline fill="#FDC11C" points="110.1,52 110.5,52 110.5,52 110.5,52 110.5,52 110.1,52 110.1,52 110.1,51.6 110.1,51.6 
		110.1,51.6 110.1,51.6 110.1,52 	"/>
	<path fill="#FDC11C" d="M110.5,51.6L110.5,51.6L110.5,51.6L110.5,51.6L110.5,51.6z M110.9,52L110.9,52L110.9,52L110.9,52L110.9,52
		L110.9,52L110.9,52L110.9,52h-0.4l0,0v-0.4l0,0l0,0l0,0L110.9,52"/>
	<path fill="#FDC11C" d="M111.3,52L111.3,52L111.3,52L111.3,52L111.3,52L111.3,52z M111.3,51.6L111.3,51.6L111.3,51.6L111.3,51.6
		L111.3,51.6L111.3,51.6z M111.3,51.6L111.3,51.6L111.3,51.6L111.3,51.6L111.3,51.6V52l0,0l0,0V51.6L111.3,51.6L111.3,51.6"/>
	<path fill="#FDC11C" d="M111.8,51.6L111.8,51.6L111.8,51.6L111.8,51.6L111.8,51.6z M111.8,52L111.8,52L111.8,52L111.8,52L111.8,52
		L111.8,52L111.8,52L111.8,52h-0.4l0,0v-0.4l0,0l0,0l0,0L111.8,52"/>
	<polyline fill="#FDC11C" points="112.2,52 112.2,52 112.2,52 112.2,52 112.2,52 112.2,51.6 112.2,51.6 112.2,51.6 112.2,51.6 
		112.2,52 112.2,51.6 112.2,51.6 112.6,51.6 112.6,51.6 112.6,52 112.6,52 112.2,52 112.2,52 112.2,52 	"/>
	<path fill="#FDC11C" d="M112.6,52L112.6,52L112.6,52L112.6,52L112.6,52z M112.6,52L112.6,52L112.6,52c-0.4-0.4,0-0.4,0-0.4
		C113,51.6,113,51.6,112.6,52L112.6,52L112.6,52L112.6,52L112.6,52L112.6,52L112.6,52"/>
	<path fill="#FDC11C" d="M113.5,51.6L113.5,51.6L113.5,51.6L113.5,51.6L113.5,51.6V52C113,52,113,52,113.5,51.6L113.5,51.6
		L113.5,51.6L113.5,51.6L113.5,51.6L113.5,51.6V52V51.6L113.5,51.6"/>
	<polyline fill="#FDC11C" points="113.9,52 113.9,52 113.9,52 113.9,52 113.9,52 113.9,52 113.5,52 113.5,52 113.5,51.6 113.5,51.6 
		113.9,51.6 113.9,51.6 113.9,51.6 113.9,51.6 113.9,51.6 113.9,52 113.9,52 113.9,52 113.9,52 113.9,52 113.9,52 	"/>
	<path fill="#FDC11C" d="M110.5,55.4L110.5,55.4L110.5,55.4L110.5,55.4L110.5,55.4L110.5,55.4z M110.5,55.4L110.5,55.4L110.5,55.4
		L110.5,55.4L110.5,55.4L110.5,55.4L110.5,55.4L110.5,55.4L110.5,55.4L110.5,55.4L110.5,55.4"/>
	<path fill="#FDC11C" d="M111.3,55.8L111.3,55.8L111.3,55.8L111.3,55.8L111.3,55.8z M111.3,55.8C110.9,55.8,110.9,55.8,111.3,55.8
		c-0.4-0.4,0-0.4,0-0.4C111.3,55.4,111.3,55.4,111.3,55.8L111.3,55.8"/>
	<path fill="#FDC11C" d="M111.8,55.8L111.8,55.8C111.8,55.4,111.3,55.4,111.8,55.8c0-0.4,0-0.4,0-0.4l0,0l0,0V55.8L111.8,55.8
		L111.8,55.8L111.8,55.8C111.8,55.4,111.8,55.4,111.8,55.8L111.8,55.8L111.8,55.8L111.8,55.8L111.8,55.8L111.8,55.8L111.8,55.8"/>
	<polyline fill="#FDC11C" points="112.2,55.8 112.2,55.8 112.2,55.8 112.2,55.8 112.2,55.4 111.8,55.4 111.8,55.4 111.8,55.4 
		111.8,55.4 112.2,55.4 112.2,55.4 112.2,55.4 112.2,55.4 112.2,55.4 112.2,55.8 	"/>
	<path fill="#FDC11C" d="M112.6,55.4L112.6,55.4L112.6,55.4L112.6,55.4z M112.6,55.8L112.6,55.8L112.6,55.8L112.6,55.8L112.6,55.8
		L112.6,55.8L112.6,55.8L112.6,55.8h-0.4l0,0v-0.4l0,0l0,0l0,0L112.6,55.8"/>
	<polyline fill="#FDC11C" points="113,55.8 113,55.8 113,55.8 113,55.8 113,55.8 112.6,55.8 112.6,55.8 112.6,55.4 112.6,55.4 
		113,55.4 113,55.4 113,55.8 	"/>
	<polyline fill="#FDC11C" points="113.5,55.4 113.5,55.8 113.5,55.8 113.5,55.8 113.5,55.8 113.5,55.8 113,55.8 113,55.8 113,55.4 
		113,55.4 113.5,55.4 113.5,55.4 113.5,55.4 113.5,55.4 113.5,55.4 113.5,55.4 113.5,55.4 113.5,55.4 113.5,55.4 113.5,55.4 
		113.5,55.4 	"/>
	<polygon fill="#717171" points="83.5,39.4 78.4,46.5 82.6,48.2 79.2,51.6 93.6,93 84.7,39.4 	"/>
	
		<ellipse transform="matrix(-0.9446 0.3282 -0.3282 -0.9446 220.9077 70.0505)" fill="#FDD70A" cx="104.5" cy="53.7" rx="3.4" ry="2.1"/>
	<path fill="#092C7C" d="M102,54.6c2.1-0.4,3.4-0.8,5.1-1.3l0,0h-3c0,0,0,0.4-0.4,0.4C103.3,54.1,103.3,54.1,102,54.6L102,54.6"/>
	<polyline fill="#092C7C" points="105.4,54.1 105,54.6 104.6,54.6 102.5,54.6 102.5,54.6 105.4,54.1 105.4,54.1 	"/>
	<path fill="#092C7C" d="M105.9,52.9L105.9,52.9v0.4h-1.7c-0.4-0.4-0.8-0.4-0.8-0.4l0,0C103.3,52.9,105.4,52.9,105.9,52.9"/>
	<path fill="#FFFFFF" d="M106.3,52L106.3,52c-0.4,0-0.8,0-1.3,0l0,0C105.4,51.6,105.9,51.6,106.3,52"/>
	<path fill="#FFFFFF" d="M106.3,52L106.3,52h-0.4C105.9,51.6,106.3,51.6,106.3,52"/>
	<polyline fill="#FFFFFF" points="102.9,55.4 102.5,55.4 102.5,55.4 102.5,55.4 102.9,55.4 	"/>
	<path fill="#FFFFFF" d="M102.9,52.5L102.9,52.5c0.4,0,0.4,0,0.4,0l0,0C103.3,52,102.9,52.5,102.9,52.5 M102.5,52.9L102.5,52.9
		L102.5,52.9L102.5,52.9L102.5,52.9L102.5,52.9L102.5,52.9L102.5,52.9L102.5,52.9z M102,53.3L102,53.3L102,53.3L102,53.3L102,53.3
		 M102,53.3L102,53.3L102,53.3L102,53.3L102,53.3z"/>
	<path fill="#EFB285" d="M12.9,120.5v0.8c0,9.3-12.2,9.3-12.2,0v-0.8H12.9z"/>
	<g>
		<circle fill="#EFB285" cx="34.9" cy="35.1" r="15.6"/>
		<path fill="#9B7134" d="M89,90.5v11.8H64.5c-3,0-5.5-3-5.5-5.9l0,0l0,0V75.3h-3.8v51.5H16.7V75.3h-3.8v45.2H0.7V74
			c0-10.6,6.3-19.4,16.9-19.9h2.1h5.5h22l0,0H53c11.8,0,18.2,10.1,18.2,20.3v16.1H89z"/>
		<path fill="#EFB285" d="M89.4,102.3h-0.8V90.1h0.8C98.7,90.5,98.7,102.3,89.4,102.3z"/>
	</g>
	<rect x="89" y="90.5" fill="#9B7134" width="0" height="11.8"/>
	<polygon fill="#9B7134" points="64.9,102.3 64.9,102.3 64.5,102.3 	"/>
	<path fill="#79C099" d="M27.9,9c0,6.8-5.1,12.9-13.2,16.9c-2.3,1.6-1,8.7,0,9.1c0.4,0.1-5-3.3-5.4-6.9C3.8,29.1-2.1,31-8.7,31
		c-20.2,0-36.6-9.8-36.6-22s16.4-22,36.6-22S27.9-3.1,27.9,9z"/>
	<path fill="#FBDD4A" d="M81-4c0,3.9-3,7.5-7.6,9.8c-1.3,0.9-0.6,5.1,0,5.2c0.2,0.1-2.9-1.9-3.1-4C67,7.6,63.6,8.7,59.8,8.7
		C48.1,8.7,38.7,3,38.7-4s9.5-12.7,21.2-12.7S81-11,81-4z"/>
	<g>
		<g>
			
				<rect x="-33.5" y="11.7" transform="matrix(0.7071 0.7071 -0.7071 0.7071 0.9209 27.7363)" fill="#17479E" width="1" height="6.5"/>
		</g>
		<g>
			
				<rect x="-33.5" y="11.7" transform="matrix(-0.7071 0.7071 -0.7071 -0.7071 -45.7767 48.9209)" fill="#17479E" width="1" height="6.5"/>
		</g>
	</g>
	<g>
		<g>
			<rect x="12" y="-2" transform="matrix(0.7071 0.7071 -0.7071 0.7071 4.5147 -8.4853)" fill="#17479E" width="1" height="6.5"/>
		</g>
		<g>
			
				<rect x="12" y="-2" transform="matrix(-0.7071 0.7071 -0.7071 -0.7071 22.1924 -6.7782)" fill="#17479E" width="1" height="6.5"/>
		</g>
	</g>
	<g>
		<g>
			<path fill="none" stroke="#17479E" stroke-miterlimit="10" d="M-33.2,14.7c0.2-0.3,0.3-0.6,0.5-0.9"/>
			<path fill="none" stroke="#17479E" stroke-miterlimit="10" stroke-dasharray="1.9889,1.9889" d="M-31.7,12
				C-25.3,0.8-20.2-1.7-16.5-1.5c7.6,0.3,11.4,12.2,17.2,11C5.2,8.5,8.4,0.1,6.3-2C3.8-4.6-20.2-0.8-21.8,7.7
				c-1.8,9.3,10.4,16.7,13.2,16.8c5.5,0.2,1.8-8.5,2-12.2c0.6-12.5,25.1-5.5,20.8,0.8c-2.1,3.1-14-7.9-14.3-9.8
				c-0.4-2.5,0.8-4.6,10.4-2.6"/>
			<path fill="none" stroke="#17479E" stroke-miterlimit="10" d="M11.2,0.9c0.3,0.1,0.6,0.1,1,0.2"/>
		</g>
	</g>
	<g>
		<g>
			
				<rect x="47.3" y="-2.2" transform="matrix(0.7071 0.7071 -0.7071 0.7071 14.7053 -33.5018)" fill="#17479E" width="1" height="6.5"/>
		</g>
		<g>
			
				<rect x="47.3" y="-2.2" transform="matrix(-0.7071 0.7071 -0.7071 -0.7071 82.2947 -32.0876)" fill="#17479E" width="1" height="6.5"/>
		</g>
	</g>
	<g>
		<g>
			
				<rect x="75.5" y="-8.8" transform="matrix(0.7071 0.7071 -0.7071 0.7071 18.3422 -55.3629)" fill="#17479E" width="1" height="6.5"/>
		</g>
		<g>
			
				<rect x="75.5" y="-8.8" transform="matrix(-0.7071 0.7071 -0.7071 -0.7071 125.8224 -63.1982)" fill="#17479E" width="1" height="6.5"/>
		</g>
	</g>
	<line fill="none" stroke="#17479E" stroke-miterlimit="10" stroke-dasharray="2" x1="47.8" y1="1" x2="76" y2="-5.5"/>
	<g>
		<path fill="#FFFFFF" d="M55.3-9.7c0.1,0.1,0.1,0.2,0.1,0.3v4.3c0,0.1,0,0.2-0.1,0.3S55.2-4.7,55-4.7h-1.9c-0.1,0-0.2,0-0.3-0.1
			S52.7-5,52.7-5.1v-4.3c0-0.1,0-0.2,0.1-0.3s0.2-0.1,0.3-0.1H55C55.2-9.9,55.3-9.8,55.3-9.7z M54.4-6c0-0.1,0-0.2-0.1-0.3
			S54.1-6.4,54-6.4c-0.1,0-0.2,0-0.3,0.1S53.5-6.1,53.5-6c0,0.1,0,0.2,0.1,0.3s0.2,0.1,0.3,0.1c0.1,0,0.2,0,0.3-0.1S54.4-5.9,54.4-6
			z M63.1-7.9c0,0.3-0.1,0.6-0.3,0.9c0.1,0.2,0.1,0.5,0,0.8c-0.1,0.2-0.2,0.5-0.4,0.6c0,0.5-0.1,0.9-0.3,1.2
			c-0.3,0.3-0.7,0.5-1.3,0.5h-0.2h-0.5H60c-0.3,0-0.6,0-1-0.1c-0.3-0.1-0.6-0.1-0.8-0.2c-0.2-0.1-0.5-0.2-0.8-0.3
			c-0.5-0.2-0.9-0.3-1.1-0.3c-0.1,0-0.2,0-0.3-0.1S55.9-5,55.9-5.1v-4.3c0-0.1,0-0.2,0.1-0.3s0.2-0.1,0.3-0.1c0.1,0,0.3-0.1,0.5-0.4
			s0.4-0.5,0.7-0.8c0.3-0.4,0.5-0.7,0.7-0.8c0.1-0.1,0.1-0.2,0.2-0.3s0.1-0.2,0.1-0.3s0-0.2,0.1-0.4c0-0.2,0.1-0.3,0.1-0.4
			s0.1-0.2,0.1-0.3s0.1-0.2,0.2-0.3c0.1-0.1,0.2-0.1,0.3-0.1c0.2,0,0.4,0,0.6,0.1s0.3,0.1,0.4,0.2s0.2,0.2,0.3,0.3s0.1,0.2,0.2,0.3
			s0.1,0.2,0.1,0.3s0,0.2,0,0.3c0,0.1,0,0.1,0,0.3c0,0.2,0,0.3-0.1,0.5s-0.1,0.3-0.1,0.4s-0.1,0.2-0.2,0.4c0,0,0,0.1-0.1,0.1
			s-0.1,0.1-0.1,0.2s0,0.1-0.1,0.2h1.9c0.4,0,0.7,0.1,0.9,0.4s0.4,0.6,0.4,0.9c0,0.4-0.1,0.7-0.4,1C63.1-8.2,63.1-8.1,63.1-7.9z"/>
	</g>
	<g>
		<path fill="#FFFFFF" d="M3.7,16.1h2c1.3,0,2.4-0.8,2.4-2.1c0-1.2-0.8-2-2.1-2c-1.3,0-2.1,0.7-2.2,1.9H0c0.2-3.1,2.2-5.1,5.9-5.1
			c3.4,0,5.8,2.1,5.8,5.3c0,2.5-1.8,4.2-4.6,4.6L6.9,20H4L3.7,16.1z M3.3,23.5c0-1.2,1-2,2.1-2c1.2,0,2.1,0.9,2.1,2c0,1.2-1,2-2.1,2
			C4.2,25.5,3.3,24.7,3.3,23.5z"/>
	</g>
</g>
</svg>
