<?xml version="1.0" encoding="utf-8"?>
<!-- Generator: Adobe Illustrator 18.1.1, SVG Export Plug-In . SVG Version: 6.00 Build 0)  -->
<svg version="1.1" id="Calque_1" xmlns="http://www.w3.org/2000/svg" xmlns:xlink="http://www.w3.org/1999/xlink" x="0px" y="0px"
	 viewBox="515 -125 688.6 477.1" enable-background="new 515 -125 688.6 477.1" xml:space="preserve">
<path fill="#EAEAEA" d="M515,5.9h94.2v94.2H515V5.9z"/>
<g opacity="0.4">
	<path fill="#F2BE96" d="M741.4-116.5c11.4,0,20.6,9.2,20.6,20.6c0,11.4-9.2,20.6-20.6,20.6c-11.4,0-20.6-9.2-20.6-20.6
		C720.8-107.3,730.1-116.5,741.4-116.5z"/>
	<polygon fill="#FBE05B" points="742.2,0.8 757.8,-71 728.3,-71 	"/>
	<path fill="#F2BE96" d="M773.5,18.9c0,12.4,16.2,12.4,16.1,0V18h-16.1V18.9z"/>
	<path fill="#F2BE96" d="M695.7,18.9c0,12.3,16.2,12.3,16.2,0V18h-16.2V18.9z"/>
	<path fill="#D0D0D0" d="M765.6-71l-7.8,0L742.2,0.8L728.3-71l-7.4,0l-2.8,0.1c-13.8,0.7-22.4,12.2-22.4,26.6V18h16.2v-60.6h5.2
		l0,68.7c5.7,0,19.3,0,21.5,0c2.7,0,3.6-7.2,3.6-7.2s0,7.2,3.2,7.2c2.7,0,18.4,0,23.1,0l0-68.7h5.1V18h16.1v-61.9
		C789.6-57.6,781.6-71,765.6-71z"/>
	<polygon fill="#838383" points="757.8,-71 764.5,-61.3 758.4,-59 762.9,-54.5 742.2,0.8 754.5,-71 	"/>
	<rect x="763.1" y="-55.4" fill="#17479C" width="7.2" height="7.2"/>
	
		<linearGradient id="SVGID_1_" gradientUnits="userSpaceOnUse" x1="347.1415" y1="406.0102" x2="347.6649" y2="406.0102" gradientTransform="matrix(0 -5.5886 -5.5886 0 3035.7871 1889.5712)">
		<stop  offset="0" style="stop-color:#9C9EA0"/>
		<stop  offset="0.87" style="stop-color:#EFEFF0"/>
		<stop  offset="1" style="stop-color:#9C9EA0"/>
	</linearGradient>
	<rect x="765.1" y="-53.3" fill="url(#SVGID_1_)" width="3.4" height="3.1"/>
	<path fill="#17479C" d="M765.2-51.2c1.2-0.3,2-0.5,3.1-0.7c0,0,0,0,0,0l-1.9,0c0,0.1-0.1,0.2-0.2,0.3
		C766.1-51.6,765.9-51.5,765.2-51.2L765.2-51.2"/>
	<path fill="#17479C" d="M767.2-51.7l-0.2,0.3c0,0-0.1,0.1-0.2,0.1l-1.3,0v0L767.2-51.7L767.2-51.7"/>
	<path fill="#17479C" d="M767.5-52.4c0.2,0,0.2,0.1,0.1,0.2l-0.1,0.1l-1.1,0c-0.1-0.1-0.4-0.2-0.6-0.3l0,0
		C766-52.4,767.4-52.4,767.5-52.4"/>
	<polyline fill="#FDC922" points="764.3,-53.9 764.6,-53.9 764.6,-53.9 764.6,-53.8 764.6,-53.8 764.2,-53.8 764.2,-53.8 
		764.2,-54.5 764.2,-54.5 764.3,-54.5 764.3,-54.5 764.3,-53.9 	"/>
	<path fill="#FDC922" d="M764.9-54.4l-0.1,0.3h0.2L764.9-54.4L764.9-54.4z M765.2-53.8L765.2-53.8l-0.1,0l0,0l0-0.2h-0.2l0,0.2l0,0
		h-0.1l0,0l0.2-0.7l0,0h0.2l0,0L765.2-53.8"/>
	<path fill="#FDC922" d="M765.6-54.1v0.2h0.1c0.1,0,0.1,0,0.1-0.1C765.9-54.1,765.8-54.1,765.6-54.1L765.6-54.1z M765.6-54.5v0.2
		h0.1c0.1,0,0.1,0,0.1-0.1C765.8-54.4,765.8-54.5,765.6-54.5L765.6-54.5z M765.7-54.5c0.2,0,0.3,0,0.3,0.2c0,0.1-0.1,0.1-0.1,0.1v0
		c0.1,0,0.2,0.1,0.2,0.2c0,0.1-0.1,0.2-0.3,0.2h-0.2l0,0v-0.7l0,0H765.7"/>
	<path fill="#FDC922" d="M766.4-54.4l-0.1,0.3h0.2L766.4-54.4L766.4-54.4z M766.7-53.8L766.7-53.8l-0.1,0l0,0l0-0.2h-0.2l0,0.2l0,0
		h-0.1l0,0l0.2-0.7l0,0h0.2l0,0L766.7-53.8"/>
	<polyline fill="#FDC922" points="766.9,-54.3 766.9,-53.8 766.9,-53.8 766.8,-53.8 766.8,-53.8 766.8,-54.5 766.8,-54.5 
		766.9,-54.5 766.9,-54.5 767.2,-54.1 767.2,-54.5 767.2,-54.5 767.3,-54.5 767.3,-54.5 767.3,-53.8 767.3,-53.8 767.2,-53.8 
		767.2,-53.8 766.9,-54.3 	"/>
	<path fill="#FDC922" d="M767.8-53.9c0.1,0,0.2-0.1,0.2-0.3c0-0.2,0-0.3-0.2-0.3c-0.1,0-0.2,0.1-0.2,0.3
		C767.6-54,767.6-53.9,767.8-53.9z M767.8-53.8L767.8-53.8c-0.2,0-0.3-0.2-0.3-0.4c0-0.2,0.1-0.4,0.3-0.4c0.2,0,0.3,0.2,0.3,0.4
		c0,0.1,0,0.3-0.2,0.3c0,0,0.1,0,0.2,0l0,0v0.1l0,0C768-53.7,767.9-53.8,767.8-53.8"/>
	<path fill="#FDC922" d="M768.6-54.5L768.6-54.5l0.1,0l0,0v0.4c0,0.2-0.1,0.3-0.3,0.3c-0.2,0-0.3-0.1-0.3-0.3v-0.4l0,0h0.1l0,0v0.4
		c0,0.1,0,0.2,0.1,0.2c0.1,0,0.1-0.1,0.1-0.2V-54.5"/>
	<polyline fill="#FDC922" points="769,-54.1 769,-53.9 769.3,-53.9 769.3,-53.9 769.3,-53.8 769.3,-53.8 768.9,-53.8 768.9,-53.8 
		768.9,-54.5 768.9,-54.5 769.3,-54.5 769.3,-54.5 769.3,-54.5 769.3,-54.4 769,-54.4 769,-54.3 769.2,-54.3 769.3,-54.2 
		769.3,-54.2 769.2,-54.1 769,-54.1 	"/>
	<path fill="#FDC922" d="M765-49.7v0.3h0.1c0.1,0,0.1,0,0.1-0.1C765.2-49.6,765.1-49.7,765-49.7L765-49.7z M765-49.3v0.2l0,0h-0.1
		l0,0v-0.7l0,0h0.2c0.2,0,0.3,0.1,0.3,0.2C765.3-49.3,765.2-49.3,765-49.3L765-49.3"/>
	<path fill="#FDC922" d="M765.7-49.1c0.1,0,0.2-0.1,0.2-0.3c0-0.2,0-0.3-0.2-0.3c-0.1,0-0.2,0.1-0.2,0.3
		C765.6-49.2,765.6-49.1,765.7-49.1z M765.7-49c-0.2,0-0.3-0.2-0.3-0.4c0-0.2,0.1-0.4,0.3-0.4c0.2,0,0.3,0.2,0.3,0.4
		C766-49.2,765.9-49,765.7-49"/>
	<path fill="#FDC922" d="M766.3-49.1c0.1,0,0.1,0,0.1-0.1c0-0.1-0.3-0.1-0.3-0.3c0-0.1,0-0.2,0.3-0.2c0,0,0.1,0,0.1,0l0,0v0.1l0,0
		c0,0-0.1,0-0.1,0c-0.1,0-0.1,0-0.1,0.1c0,0.1,0.3,0.1,0.3,0.3c0,0.1-0.1,0.2-0.3,0.2c-0.1,0-0.1,0-0.2,0l0,0v-0.1l0,0
		C766.2-49.2,766.2-49.1,766.3-49.1"/>
	<polyline fill="#FDC922" points="766.9,-49.1 766.9,-49.1 766.8,-49.1 766.8,-49.1 766.8,-49.7 766.6,-49.7 766.6,-49.7 
		766.6,-49.7 766.6,-49.8 767.1,-49.8 767.1,-49.7 767.1,-49.7 767.1,-49.7 766.9,-49.7 766.9,-49.1 	"/>
	<path fill="#FDC922" d="M767.4-49.6l-0.1,0.3h0.2L767.4-49.6z M767.7-49.1L767.7-49.1l-0.1,0l0,0l0-0.2h-0.2l0,0.2l0,0h-0.1l0,0
		l0.2-0.7l0,0h0.2l0,0L767.7-49.1"/>
	<polyline fill="#FDC922" points="768,-49.2 768.2,-49.2 768.2,-49.1 768.2,-49.1 768.2,-49.1 767.8,-49.1 767.8,-49.1 767.8,-49.7 
		767.8,-49.8 767.9,-49.8 768,-49.7 768,-49.2 	"/>
	<polyline fill="#FDC922" points="768.4,-49.4 768.4,-49.2 768.7,-49.2 768.7,-49.1 768.7,-49.1 768.7,-49.1 768.3,-49.1 
		768.3,-49.1 768.3,-49.7 768.3,-49.8 768.7,-49.8 768.7,-49.7 768.7,-49.7 768.7,-49.7 768.4,-49.7 768.4,-49.5 768.6,-49.5 
		768.7,-49.5 768.7,-49.4 768.6,-49.4 768.4,-49.4 	"/>
	<polygon fill="#838383" points="728.3,-71 721.6,-61.3 727.7,-59 723.2,-54.5 742.2,0.8 730.2,-71 	"/>
	
		<ellipse transform="matrix(0.9446 -0.3282 0.3282 0.9446 58.9606 245.4913)" fill="#FFDD00" cx="756.8" cy="-51.9" rx="4.3" ry="3"/>
	<path fill="#053F8F" d="M753.4-50.7c2.7-0.7,4.5-1.2,6.9-1.6c0.1,0,0.1,0,0,0l-4.2,0.1c0,0.2-0.2,0.4-0.5,0.6
		C755.4-51.6,755-51.4,753.4-50.7L753.4-50.7"/>
	<path fill="#053F8F" d="M757.8-51.7l-0.5,0.6c-0.1,0.1-0.2,0.2-0.4,0.2l-2.9,0.1l0,0L757.8-51.7L757.8-51.7"/>
	<path fill="#053F8F" d="M758.5-53.2c0.4,0,0.4,0.2,0.2,0.5c-0.1,0.1-0.1,0.1-0.2,0.2l-2.4,0c-0.3-0.3-1-0.5-1.3-0.7c-0.1,0,0,0,0,0
		C755.1-53.2,758.3-53.2,758.5-53.2"/>
	<path fill="#FFFFFF" d="M759.1-54.6L759.1-54.6c-0.4,0-0.9,0-1.5,0l0.1-0.2C758.1-54.9,758.9-54.7,759.1-54.6"/>
	<path fill="#FFFFFF" d="M759.1-54.7L759.1-54.7c-0.1-0.1-0.4-0.2-0.6-0.2C758.8-54.8,759-54.7,759.1-54.7"/>
	<path fill="#FFFFFF" d="M754.4-49.6c0,0-0.1,0-0.3,0c-0.1-0.1-0.2-0.2-0.2-0.2c0,0,0.1,0,0.3,0C754.3-49.7,754.4-49.6,754.4-49.6"
		/>
	<path fill="#FFFFFF" d="M754.7-53.9v0.2c0.3-0.2,0.6-0.4,0.8-0.4c0-0.1,0-0.1,0-0.2C755.2-54.2,754.9-54.1,754.7-53.9 M754-53.3
		l0.2-0.2l0,0L754-53.3L754-53.3c0.2-0.1,0.4-0.2,0.5-0.3v-0.2C754.3-53.6,754.1-53.5,754-53.3L754-53.3z M753.5-52.7L753.5-52.7
		l0.1-0.2C753.6-52.9,753.5-52.8,753.5-52.7C753.5-52.7,753.5-52.8,753.5-52.7 M753.6-52.9c0-0.1,0.1-0.1,0.2-0.2l0-0.1
		c0,0.1-0.1,0.1-0.1,0.2L753.6-52.9z"/>
	<rect x="515" y="-104.1" opacity="0.5" fill="#2AA3FF" width="157" height="109.9"/>
	<rect x="619.7" y="-15.1" fill="#2B2B2B" width="198.9" height="115.2"/>
	<path fill="#FFFFFF" d="M619.7,94.9V-9.8c0-2.9,2.3-5.2,5.2-5.2h188.4c2.9,0,5.2,2.3,5.2,5.2V94.9c0,2.9,2.3,5.2,5.2,5.2h0
		c2.9,0,5.2-2.3,5.2-5.2V-20.3c0-2.9-2.3-5.2-5.2-5.2H614.5c-2.9,0-5.2,2.3-5.2,5.2V94.9c0,2.9,2.3,5.2,5.2,5.2l0,0
		C617.3,100.1,619.7,97.7,619.7,94.9z"/>
	<path fill="#EAEAEA" d="M521.3-125h144.5c3.5,0,6.3,2.8,6.3,6.3v14.7H515v-14.7C515-122.2,517.8-125,521.3-125z"/>
	<g>
		<defs>
			<rect id="SVGID_2_" x="619.7" y="-77.9" width="26.2" height="26.2"/>
		</defs>
		<clipPath id="SVGID_3_">
			<use xlink:href="#SVGID_2_"  overflow="visible"/>
		</clipPath>
		<g clip-path="url(#SVGID_3_)">
			<defs>
				<rect id="SVGID_4_" x="619.7" y="-77.9" width="26.2" height="26.2"/>
			</defs>
			<clipPath id="SVGID_5_">
				<use xlink:href="#SVGID_4_"  overflow="visible"/>
			</clipPath>
			<g transform="matrix(1 0 0 1 0 0)" clip-path="url(#SVGID_5_)">
				
					<image overflow="visible" width="180" height="180" xlink:href="9015129CD776B7E.jpg"  transform="matrix(0.1454 0 0 0.1454 619.6924 -77.8884)">
				</image>
			</g>
		</g>
	</g>
	<rect x="710.7" y="-0.5" fill="#FFFFFF" width="1.4" height="7.8"/>
	<path fill="#FFFFFF" d="M720.1,4.3h1.4c-0.4,1.9-1.8,3.2-3.8,3.2c-2.3,0-4.1-1.7-4.1-4.1s1.8-4.1,4.1-4.1c2,0,3.4,1.3,3.8,3.2h-1.4
		c-0.3-1.2-1.2-1.9-2.4-1.9c-1.5,0-2.7,1.1-2.7,2.8s1.1,2.8,2.7,2.8C718.9,6.2,719.8,5.5,720.1,4.3z"/>
	<rect x="723" y="-0.5" fill="#FFFFFF" width="1.4" height="7.8"/>
	<path fill="#FFFFFF" d="M659.6,30.8c0,2.1-1.3,3.5-3.3,3.5c-2,0-3.3-1.4-3.3-3.5v-4.5h0.8v4.5c0,1.6,1,2.7,2.5,2.7s2.5-1.2,2.5-2.7
		v-4.5h0.8V30.8z"/>
	<path fill="#FFFFFF" d="M666.5,31.1v3.1h-0.8v-3c0-1.1-0.6-1.7-1.6-1.7c-0.7,0-1.4,0.4-1.8,1v3.8h-0.8v-5.3h0.8v0.6
		c0.5-0.5,1.2-0.8,2-0.8C665.6,28.7,666.5,29.6,666.5,31.1z"/>
	<path fill="#FFFFFF" d="M675.5,32.4h0.8c-0.2,1.1-1.2,1.9-2.5,1.9c-1.6,0-2.8-1.2-2.8-2.8c0-1.6,1.2-2.8,2.8-2.8
		c1.3,0,2.3,0.8,2.5,1.9h-0.8c-0.2-0.7-0.8-1.2-1.7-1.2c-1.2,0-2,0.9-2,2.1c0,1.2,0.8,2.1,2,2.1C674.7,33.6,675.3,33.1,675.5,32.4z"
		/>
	<path fill="#FFFFFF" d="M683.2,31.5c0,1.6-1.2,2.8-2.8,2.8c-1.6,0-2.8-1.2-2.8-2.8c0-1.6,1.2-2.8,2.8-2.8
		C682,28.7,683.2,29.9,683.2,31.5z M682.4,31.5c0-1.1-0.9-2.1-2-2.1c-1.2,0-2,0.9-2,2.1c0,1.2,0.9,2.1,2,2.1
		C681.6,33.6,682.4,32.7,682.4,31.5z"/>
	<path fill="#FFFFFF" d="M689.8,31.1v3.1H689v-3c0-1.1-0.6-1.7-1.6-1.7c-0.7,0-1.4,0.4-1.8,1v3.8h-0.8v-5.3h0.8v0.6
		c0.5-0.5,1.2-0.8,2-0.8C688.9,28.7,689.8,29.6,689.8,31.1z"/>
	<path fill="#FFFFFF" d="M691.8,32.5c0.2,0.7,0.7,1.2,1.8,1.2c0.9,0,1.5-0.4,1.5-0.9c0-0.5-0.4-0.8-0.9-0.8l-1.2-0.2
		c-0.9-0.1-1.6-0.5-1.6-1.4c0-1,0.9-1.6,2.1-1.6c1.1,0,2.2,0.5,2.3,1.7H695c-0.1-0.7-0.7-1.1-1.6-1.1c-0.8,0-1.4,0.4-1.4,0.9
		c0,0.4,0.3,0.7,1,0.8l1.1,0.2c0.8,0.1,1.6,0.5,1.6,1.5c0,1-0.9,1.6-2.2,1.6c-1.4,0-2.3-0.6-2.5-1.8H691.8z"/>
	<path fill="#FFFFFF" d="M702.4,31.8L702.4,31.8L702.4,31.8h-4.5c0.1,1,0.8,1.8,2,1.8c0.7,0,1.3-0.3,1.5-0.8h0.9
		c-0.3,0.9-1.2,1.5-2.4,1.5c-1.6,0-2.8-1.2-2.8-2.8c0-1.6,1.1-2.8,2.8-2.8c1.5,0,2.6,1.2,2.6,2.8C702.4,31.6,702.4,31.7,702.4,31.8z
		 M697.8,31.2h3.8c-0.1-1.1-0.8-1.8-1.8-1.8C698.7,29.4,698,30.2,697.8,31.2z"/>
	<path fill="#FFFFFF" d="M704,26.8c0-0.3,0.2-0.5,0.5-0.5c0.3,0,0.5,0.2,0.5,0.5c0,0.3-0.2,0.5-0.5,0.5
		C704.2,27.4,704,27.1,704,26.8z M704.9,34.2h-0.8v-5.3h0.8V34.2z"/>
	<rect x="707" y="26" fill="#FFFFFF" width="0.8" height="8.2"/>
	<rect x="709.8" y="26" fill="#FFFFFF" width="0.8" height="8.2"/>
	<path fill="#FFFFFF" d="M717.5,31.8L717.5,31.8L717.5,31.8H713c0.1,1,0.8,1.8,2,1.8c0.7,0,1.3-0.3,1.5-0.8h0.9
		c-0.3,0.9-1.2,1.5-2.4,1.5c-1.6,0-2.8-1.2-2.8-2.8c0-1.6,1.1-2.8,2.8-2.8c1.5,0,2.6,1.2,2.6,2.8C717.5,31.6,717.5,31.7,717.5,31.8z
		 M713,31.2h3.8c-0.1-1.1-0.8-1.8-1.8-1.8C713.8,29.4,713.1,30.2,713,31.2z"/>
	<path fill="#FFFFFF" d="M719.9,29.8c0.5-0.7,1.2-1.1,2.1-1.1v0.7c-0.9,0-1.6,0.5-2.1,1.2v3.5h-0.8v-5.3h0.8V29.8z"/>
	<polygon fill="#FFFFFF" points="728.9,34.2 728.2,34.2 725.7,28.9 726.5,28.9 728.6,33.2 730.6,28.9 731.5,28.9 	"/>
	<path fill="#FFFFFF" d="M737.7,31.5c0,1.6-1.2,2.8-2.8,2.8c-1.6,0-2.8-1.2-2.8-2.8c0-1.6,1.2-2.8,2.8-2.8
		C736.5,28.7,737.7,29.9,737.7,31.5z M736.9,31.5c0-1.1-0.9-2.1-2-2.1c-1.2,0-2,0.9-2,2.1c0,1.2,0.9,2.1,2,2.1
		C736.1,33.6,736.9,32.7,736.9,31.5z"/>
	<path fill="#FFFFFF" d="M744.1,34.2h-0.8v-0.6c-0.5,0.5-1.2,0.8-2,0.8c-1.3,0-2.3-0.9-2.3-2.4v-3.1h0.8v3c0,1.1,0.7,1.8,1.6,1.8
		c0.7,0,1.4-0.4,1.8-1v-3.8h0.8V34.2z"/>
	<path fill="#FFFFFF" d="M746.5,32.5c0.2,0.7,0.7,1.2,1.8,1.2c0.9,0,1.5-0.4,1.5-0.9c0-0.5-0.4-0.8-0.9-0.8l-1.2-0.2
		c-0.9-0.1-1.6-0.5-1.6-1.4c0-1,0.9-1.6,2.1-1.6c1.1,0,2.2,0.5,2.3,1.7h-0.7c-0.1-0.7-0.7-1.1-1.6-1.1c-0.8,0-1.4,0.4-1.4,0.9
		c0,0.4,0.3,0.7,1,0.8l1.1,0.2c0.8,0.1,1.6,0.5,1.6,1.5c0,1-0.9,1.6-2.2,1.6c-1.4,0-2.3-0.6-2.5-1.8H746.5z"/>
	<path fill="#FFFFFF" d="M756.1,29.8c0.5-0.7,1.2-1.1,2.1-1.1v0.7c-0.9,0-1.6,0.5-2.1,1.2v3.5h-0.8v-5.3h0.8V29.8z"/>
	<path fill="#FFFFFF" d="M764.3,31.8L764.3,31.8L764.3,31.8h-4.5c0.1,1,0.8,1.8,2,1.8c0.7,0,1.3-0.3,1.5-0.8h0.9
		c-0.3,0.9-1.2,1.5-2.4,1.5c-1.6,0-2.8-1.2-2.8-2.8c0-1.6,1.1-2.8,2.8-2.8c1.5,0,2.6,1.2,2.6,2.8C764.3,31.6,764.3,31.7,764.3,31.8z
		 M759.7,31.2h3.8c-0.1-1.1-0.8-1.8-1.8-1.8C760.6,29.4,759.8,30.2,759.7,31.2z"/>
	<path fill="#FFFFFF" d="M770,32.4h0.8c-0.2,1.1-1.2,1.9-2.5,1.9c-1.6,0-2.8-1.2-2.8-2.8c0-1.6,1.2-2.8,2.8-2.8
		c1.3,0,2.3,0.8,2.5,1.9H770c-0.2-0.7-0.8-1.2-1.7-1.2c-1.2,0-2,0.9-2,2.1c0,1.2,0.8,2.1,2,2.1C769.2,33.6,769.8,33.1,770,32.4z
		 M768.6,35l-0.6,1.7h-0.7l0.5-1.7H768.6z"/>
	<path fill="#FFFFFF" d="M777.7,31.5c0,1.6-1.2,2.8-2.8,2.8c-1.6,0-2.8-1.2-2.8-2.8c0-1.6,1.2-2.8,2.8-2.8
		C776.5,28.7,777.7,29.9,777.7,31.5z M776.9,31.5c0-1.1-0.9-2.1-2-2.1c-1.2,0-2,0.9-2,2.1c0,1.2,0.9,2.1,2,2.1
		C776.1,33.6,776.9,32.7,776.9,31.5z"/>
	<path fill="#FFFFFF" d="M779.3,26.8c0-0.3,0.2-0.5,0.5-0.5c0.3,0,0.5,0.2,0.5,0.5c0,0.3-0.2,0.5-0.5,0.5
		C779.5,27.4,779.3,27.1,779.3,26.8z M780.3,34.2h-0.8v-5.3h0.8V34.2z"/>
	<path fill="#FFFFFF" d="M785.8,34.2c-0.5,0.1-0.8,0.2-1.2,0.2c-1.2,0-1.8-0.7-1.8-2.1v-2.7h-1.4v-0.7h1.4v-2h0.8v2h2v0.7h-2v2.7
		c0,1,0.4,1.4,1.2,1.4c0.3,0,0.6-0.1,0.9-0.1L785.8,34.2z"/>
	<path fill="#FFFFFF" d="M653.7,48.4c0.2,0.9,0.8,1.3,1.9,1.3c0.9,0,1.5-0.3,1.5-0.8c0-0.4-0.3-0.7-0.9-0.8l-1.7-0.3
		c-1.2-0.2-2.3-0.8-2.3-2.2c0-1.5,1.3-2.5,3.2-2.5c1.3,0,3.2,0.5,3.4,2.5l-1.7,0c-0.1-0.8-0.8-1.1-1.7-1.1c-0.9,0-1.4,0.4-1.4,0.8
		c0,0.4,0.3,0.7,1.1,0.9l1.4,0.2c1.2,0.2,2.3,0.7,2.3,2.2c0,1.6-1.4,2.5-3.4,2.5c-1.8,0-3.4-0.7-3.6-2.8L653.7,48.4z"/>
	<path fill="#FFFFFF" d="M668.3,51h-1.9v-0.5c-0.6,0.5-1.4,0.7-2.4,0.7c-2.1,0-3.9-1.8-3.9-4c0-2.2,1.7-4,3.9-4
		c0.9,0,1.7,0.3,2.4,0.7v-0.5h1.9V51z M666.4,48.5v-2.6c-0.5-0.8-1.3-1.1-2.1-1.1c-1.3,0-2.3,1.1-2.3,2.4c0,1.3,1,2.4,2.3,2.4
		C665.2,49.6,665.9,49.3,666.4,48.5z"/>
	<path fill="#FFFFFF" d="M678.1,46.8V51h-1.9v-4.1c0-1.3-0.7-2.1-1.9-2.1c-0.7,0-1.4,0.4-2,1.1V51h-1.9v-7.7h1.9V44
		c0.7-0.6,1.4-0.9,2.4-0.9C676.8,43.1,678.1,44.6,678.1,46.8z"/>
	<path fill="#FFFFFF" d="M681.4,48.4c0.2,0.9,0.8,1.3,1.9,1.3c0.9,0,1.5-0.3,1.5-0.8c0-0.4-0.3-0.7-0.9-0.8l-1.7-0.3
		c-1.2-0.2-2.3-0.8-2.3-2.2c0-1.5,1.3-2.5,3.2-2.5c1.3,0,3.2,0.5,3.4,2.5l-1.7,0c-0.1-0.8-0.8-1.1-1.7-1.1c-0.9,0-1.4,0.4-1.4,0.8
		c0,0.4,0.3,0.7,1.1,0.9l1.4,0.2c1.2,0.2,2.3,0.7,2.3,2.2c0,1.6-1.4,2.5-3.4,2.5c-1.8,0-3.4-0.7-3.6-2.8L681.4,48.4z"/>
	<path fill="#FFFFFF" d="M694.6,44.3c0.7-0.7,1.6-1.1,2.8-1.1V45c-1.2,0-2.1,0.5-2.8,1.3V51h-1.9v-7.7h1.9V44.3z"/>
	<path fill="#FFFFFF" d="M706,47.9L706,47.9h-5.9c0.2,1,0.9,1.7,2.2,1.7c0.7,0,1.3-0.2,1.6-0.7h2c-0.4,1.4-1.9,2.3-3.6,2.3
		c-2.5,0-4.1-1.7-4.1-4c0-2.3,1.6-4,4.1-4c2.1,0,3.7,1.6,3.7,3.9C706.1,47.3,706.1,47.6,706,47.9z M700.1,46.5h4.1
		c-0.1-1.1-0.8-1.8-1.9-1.8C701,44.8,700.3,45.5,700.1,46.5z"/>
	<path fill="#FFFFFF" d="M715.4,46.8V51h-1.9v-4.1c0-1.3-0.7-2.1-1.9-2.1c-0.7,0-1.4,0.4-2,1.1V51h-1.9v-7.7h1.9V44
		c0.7-0.6,1.4-0.9,2.4-0.9C714,43.1,715.4,44.6,715.4,46.8z"/>
	<path fill="#FFFFFF" d="M725.1,51h-1.9v-0.6c-0.6,0.5-1.4,0.7-2.4,0.7c-2.1,0-3.9-1.8-3.9-4c0-2.2,1.7-4,3.9-4
		c0.9,0,1.7,0.3,2.4,0.7v-4.4h1.9V51z M723.2,48.5v-2.6c-0.5-0.8-1.3-1.1-2.1-1.1c-1.3,0-2.3,1.1-2.3,2.4c0,1.3,1,2.4,2.3,2.4
		C721.9,49.6,722.7,49.3,723.2,48.5z"/>
	<path fill="#FFFFFF" d="M734.6,47.9L734.6,47.9h-5.9c0.2,1,0.9,1.7,2.2,1.7c0.7,0,1.3-0.2,1.6-0.7h2c-0.4,1.4-1.9,2.3-3.6,2.3
		c-2.5,0-4.1-1.7-4.1-4c0-2.3,1.6-4,4.1-4c2.1,0,3.7,1.6,3.7,3.9C734.6,47.3,734.6,47.6,734.6,47.9z M728.7,46.5h4.1
		c-0.1-1.1-0.8-1.8-1.9-1.8C729.6,44.8,728.9,45.5,728.7,46.5z"/>
	<polygon fill="#FFFFFF" points="738.5,49.5 742.6,49.5 742.6,51 735.8,51 735.8,50.2 740,44.9 735.9,44.9 735.9,43.4 742.6,43.4 
		742.6,44.4 	"/>
	<rect x="744.3" y="45.8" fill="#FFFFFF" width="5.6" height="1.9"/>
	<polygon fill="#FFFFFF" points="756.2,51 754.5,51 751,43.4 753,43.4 755.4,48.6 757.7,43.4 759.7,43.4 	"/>
	<path fill="#FFFFFF" d="M768.3,47.2c0,2.3-1.8,4.1-4.1,4.1c-2.3,0-4.1-1.7-4.1-4.1c0-2.3,1.8-4,4.1-4
		C766.5,43.2,768.3,44.9,768.3,47.2z M766.4,47.2c0-1.3-0.9-2.3-2.2-2.3c-1.3,0-2.2,1-2.2,2.3c0,1.3,0.9,2.4,2.2,2.4
		C765.5,49.6,766.4,48.5,766.4,47.2z"/>
	<path fill="#FFFFFF" d="M777.5,51h-1.9v-0.6c-0.7,0.6-1.4,0.9-2.4,0.9c-2,0-3.4-1.5-3.4-3.7v-4.2h1.9v4.1c0,1.3,0.7,2.1,1.9,2.1
		c0.7,0,1.4-0.4,2-1.1v-5.1h1.9V51z"/>
	<path fill="#FFFFFF" d="M780.9,48.4c0.2,0.9,0.8,1.3,1.9,1.3c0.9,0,1.5-0.3,1.5-0.8c0-0.4-0.3-0.7-0.9-0.8l-1.7-0.3
		c-1.2-0.2-2.3-0.8-2.3-2.2c0-1.5,1.3-2.5,3.2-2.5c1.3,0,3.2,0.5,3.4,2.5l-1.7,0c-0.1-0.8-0.8-1.1-1.7-1.1c-0.9,0-1.4,0.4-1.4,0.8
		c0,0.4,0.3,0.7,1.1,0.9l1.4,0.2c1.2,0.2,2.3,0.7,2.3,2.2c0,1.6-1.4,2.5-3.4,2.5c-1.8,0-3.4-0.7-3.6-2.8L780.9,48.4z"/>
</g>
<path fill="#FFFFFF" d="M648,209.7h206.1c47.2,0,85.9-38.6,85.9-85.9V96.4c0-47.2-38.6-85.9-85.9-85.9H648
	c-47.2,0-85.9,38.6-85.9,85.9v27.4C562.1,171,600.7,209.7,648,209.7z"/>
<rect x="798.1" y="193.9" fill="#D0D0D0" width="405.5" height="158.2"/>
<rect x="798.1" y="10.1" fill="#838383" width="405.5" height="210.9"/>
<g>
	<g>
		<path fill="#FFFFFF" d="M922.9,269.8c0,4.6-3.7,8.3-8.3,8.3c-4.6,0-8.3-3.7-8.3-8.3c0-4.6,3.7-8.3,8.3-8.3
			C919.1,261.5,922.9,265.2,922.9,269.8z"/>
		<path fill="#FFFFFF" d="M945,269.8c0,4.6-3.7,8.3-8.3,8.3c-4.6,0-8.3-3.7-8.3-8.3c0-4.6,3.7-8.3,8.3-8.3
			C941.3,261.5,945,265.2,945,269.8z"/>
		<path fill="#FFFFFF" d="M967.1,269.8c0,4.6-3.7,8.3-8.3,8.3c-4.6,0-8.3-3.7-8.3-8.3c0-4.6,3.7-8.3,8.3-8.3
			C963.4,261.5,967.1,265.2,967.1,269.8z"/>
		<path fill="#EE708B" d="M989.2,269.8c0,4.6-3.7,8.3-8.3,8.3c-4.6,0-8.3-3.7-8.3-8.3c0-4.6,3.7-8.3,8.3-8.3
			C985.5,261.5,989.2,265.2,989.2,269.8z"/>
	</g>
	<g>
		<path fill="#FFFFFF" d="M922.9,291.9c0,4.6-3.7,8.3-8.3,8.3c-4.6,0-8.3-3.7-8.3-8.3c0-4.6,3.7-8.3,8.3-8.3
			C919.1,283.6,922.9,287.4,922.9,291.9z"/>
		<path fill="#FFFFFF" d="M945,291.9c0,4.6-3.7,8.3-8.3,8.3c-4.6,0-8.3-3.7-8.3-8.3c0-4.6,3.7-8.3,8.3-8.3
			C941.3,283.6,945,287.4,945,291.9z"/>
		<path fill="#FFFFFF" d="M967.1,291.9c0,4.6-3.7,8.3-8.3,8.3c-4.6,0-8.3-3.7-8.3-8.3c0-4.6,3.7-8.3,8.3-8.3
			C963.4,283.6,967.1,287.4,967.1,291.9z"/>
		<path fill="#FBE05B" d="M989.2,291.9c0,4.6-3.7,8.3-8.3,8.3c-4.6,0-8.3-3.7-8.3-8.3c0-4.6,3.7-8.3,8.3-8.3
			C985.5,283.6,989.2,287.4,989.2,291.9z"/>
	</g>
	<g>
		<path fill="#FFFFFF" d="M922.9,314.1c0,4.6-3.7,8.3-8.3,8.3c-4.6,0-8.3-3.7-8.3-8.3c0-4.6,3.7-8.3,8.3-8.3
			C919.1,305.8,922.9,309.5,922.9,314.1z"/>
		<path fill="#FFFFFF" d="M945,314.1c0,4.6-3.7,8.3-8.3,8.3c-4.6,0-8.3-3.7-8.3-8.3c0-4.6,3.7-8.3,8.3-8.3
			C941.3,305.8,945,309.5,945,314.1z"/>
		<path fill="#FFFFFF" d="M967.1,314.1c0,4.6-3.7,8.3-8.3,8.3c-4.6,0-8.3-3.7-8.3-8.3c0-4.6,3.7-8.3,8.3-8.3
			C963.4,305.8,967.1,309.5,967.1,314.1z"/>
		<path fill="#00CA72" d="M989.2,314.1c0,4.6-3.7,8.3-8.3,8.3c-4.6,0-8.3-3.7-8.3-8.3c0-4.6,3.7-8.3,8.3-8.3
			C985.5,305.8,989.2,309.5,989.2,314.1z"/>
	</g>
</g>
<g>
	<rect x="1040.5" y="49.5" fill="#FFFFFF" width="50.3" height="16.8"/>
	<rect x="1043.8" y="56.2" fill="#424242" width="43.6" height="3.4"/>
</g>
<rect x="855.1" y="208.1" fill="#838383" width="185.3" height="26.6"/>
<rect x="856.5" y="38.5" fill="#5490CE" width="185.3" height="142.5"/>
<g>
	<rect x="871.7" y="200.6" fill="#89C8A8" width="152.1" height="57"/>
	<polygon fill="#FFFFFF" points="878.6,213.9 875.5,213.9 875.5,204.4 885,204.4 885,207.5 878.6,207.5 	"/>
	<polygon fill="#FFFFFF" points="1020,213.9 1016.9,213.9 1016.9,207.5 1010.5,207.5 1010.5,204.4 1020,204.4 	"/>
	<polygon fill="#FFFFFF" points="885,253.8 875.5,253.8 875.5,244.3 878.6,244.3 878.6,250.8 885,250.8 	"/>
	<polygon fill="#FFFFFF" points="1020,253.8 1010.5,253.8 1010.5,250.8 1016.9,250.8 1016.9,244.3 1020,244.3 	"/>
	<path fill="#FFFFFF" d="M968.7,229.1c0,11.5-9.4,20.9-20.9,20.9c-11.5,0-20.9-9.4-20.9-20.9c0-11.5,9.4-20.9,20.9-20.9
		C959.3,208.2,968.7,217.6,968.7,229.1z"/>
	<g>
		<path fill="#89C8A8" d="M955.2,231.6h5.7c-1.1,6.6-6,11-12.7,11c-5.9,0-10.8-3.4-12.7-8.6h-3.7v-3.5h2.9c0-0.5-0.1-1-0.1-1.5v-0.7
			h-2.8v-3.5h3.5c1.7-5.6,6.8-9.3,12.9-9.3c6.7,0,11.6,4.4,12.7,11h-5.7c-0.9-3.7-3.4-5.7-7.1-5.7c-3.1,0-5.7,1.5-7,4h9.6l-0.9,3.5
			h-9.6l0,0.7c0,0.5,0,1,0.1,1.5h9.1l-0.9,3.5h-6.9c1.4,2.1,3.7,3.3,6.5,3.3C951.8,237.3,954.3,235.3,955.2,231.6z"/>
	</g>
</g>
<rect x="855.1" y="208.1" fill="#D0D0D0" width="185.3" height="12.8"/>
<rect x="855.1" y="195" fill="#838383" width="185.3" height="13.1"/>
<path fill="#FFFFFF" d="M1158.7,101.1v-1.1h-9.2v1.1H1158.7z M1158.7,97.2v-1.1h-9.2v1.1H1158.7z M1134.6,160.6v-2.1h-3.8v2.1
	H1134.6z M1134.6,156.7v-2.1h-3.8v2.1H1134.6z M1134.6,152.7v-2.1h-3.8v2.1H1134.6z M1134.6,148.8v-2.1h-3.8v2.1H1134.6z
	 M1134.6,142.4v-2.1h-3.8v2.1H1134.6z M1134.6,138.4v-2.1h-3.8v2.1H1134.6z M1134.6,134.5v-2.1h-3.8v2.1H1134.6z M1134.6,130.5v-2.1
	h-3.8v2.1H1134.6z M1127.8,130.3v-17.4h-2.1v17.4L1127.8,130.3L1127.8,130.3z M1121.9,116.3V91.6h-1.1v24.7H1121.9z M1125.7,91.6
	V109h2.1V91.6H1125.7z M1130.8,91.8V94h3.8v-2.1H1130.8z M1130.8,95.8v2.1h3.8v-2.1H1130.8z M1130.8,99.7v2.1h3.8v-2.1H1130.8z
	 M1130.8,103.7v2.1h3.8v-2.1H1130.8z M1150.3,91.6c-1.2,0-2.1,1-2.1,2.1v9.9c0,1.2,1,2.1,2.1,2.1h1.2V102h1.1v3.7h2.8V102h1.1v3.7
	h1.4c1.2,0,2.1-1,2.1-2.1v-9.9c0-1.2-0.9-2.1-2.1-2.1h-1.4v3.7h-1.1v-3.7h-2.8v3.7h-1.1v-3.7H1150.3z M1130.8,110.1v2.1h3.8v-2.1
	H1130.8z M1130.8,114v2.1h3.8V114H1130.8z M1130.8,118v2.1h3.8V118H1130.8z M1130.8,121.9v2.1h3.8v-2.1H1130.8z M1167,167.9h-41.8
	c-4.5,0-8.1-3.6-8.1-8.1V92.6c0-4.5,3.6-8.1,8.1-8.1h41.8c4.5,0,8.1,3.6,8.1,8.1v67.2C1175.1,164.3,1171.5,167.9,1167,167.9"/>
<g>
	<path fill="#FBE05B" d="M731.6,120.9c0,3-2.4,5.4-5.4,5.4c-3,0-5.4-2.4-5.4-5.4c0-3,2.4-5.4,5.4-5.4
		C729.2,115.5,731.6,117.9,731.6,120.9z"/>
	<path fill="#5490CE" d="M726.2,180.3c-32.7,0-59.4-26.6-59.4-59.4s26.6-59.4,59.4-59.4s59.4,26.6,59.4,59.4S759,180.3,726.2,180.3z
		 M726.2,72.3c-26.8,0-48.6,21.8-48.6,48.6c0,26.8,21.8,48.6,48.6,48.6c26.8,0,48.6-21.8,48.6-48.6C774.8,94.1,753,72.3,726.2,72.3z
		"/>
	<polygon fill="#FBE05B" points="729.8,125 722.1,117.4 748.3,91.2 756,98.8 	"/>
	<path fill="#FBE05B" d="M755.8,98.9c-2.1,2.1-5.5,2.1-7.6,0c-2.1-2.1-2.1-5.5,0-7.6c2.1-2.1,5.5-2.1,7.6,0
		C757.9,93.4,757.9,96.8,755.8,98.9z"/>
	<path fill="#5490CE" d="M742.5,39.9C742.5,39.9,742.4,39.9,742.5,39.9L742.5,39.9l-32.4,0c0,0,0,0,0,0c0,0,0,0,0,0H710v0
		c-2.9,0-5.3,2.4-5.3,5.4c0,3,2.4,5.3,5.3,5.4v0h10.8v21.6h10.8V50.7h10.8v0c0,0,0.1,0,0.1,0c3,0,5.4-2.4,5.4-5.4
		C747.9,42.3,745.5,39.9,742.5,39.9z"/>
	<path fill="#5490CE" d="M663.9,101.5c0-2.9-2.3-5.3-5.2-5.4v0h-36.5c-0.1,0-0.2,0-0.3,0h-0.3v0c-1.2,0.1-2.5,0.6-3.4,1.5
		c-2.1,2.1-2.1,5.5,0,7.6c0.9,0.9,2.2,1.4,3.4,1.5v0.1h36.9c0,0,0,0,0,0s0,0,0,0h0.2v0C661.6,106.8,663.9,104.4,663.9,101.5z"/>
	<path fill="#5490CE" d="M644.7,121.5c0-2.9-2.3-5.3-5.2-5.4v0H603c-0.1,0-0.2,0-0.3,0h-0.3v0c-1.2,0.1-2.5,0.6-3.4,1.5
		c-2.1,2.1-2.1,5.5,0,7.6c1,0.9,2.2,1.4,3.4,1.5v0.1h36.9l0,0c0,0,0,0,0,0h0.2v0C642.3,126.8,644.7,124.4,644.7,121.5z"/>
	<path fill="#5490CE" d="M665.6,141.5c0-2.9-2.3-5.3-5.2-5.4v0h-36.5c-0.1,0-0.2,0-0.3,0h-0.3v0c-1.2,0.1-2.5,0.6-3.4,1.5
		c-2.1,2.1-2.1,5.5,0,7.6c0.9,0.9,2.2,1.4,3.4,1.5v0.1h36.9c0,0,0,0,0,0c0,0,0,0,0,0h0.2v0C663.2,146.8,665.6,144.4,665.6,141.5z"/>
</g>
</svg>
