<?xml version="1.0" encoding="utf-8"?>
<!-- Generator: Adobe Illustrator 18.1.1, SVG Export Plug-In . SVG Version: 6.00 Build 0)  -->
<svg version="1.1" id="Calque_1" xmlns="http://www.w3.org/2000/svg" xmlns:xlink="http://www.w3.org/1999/xlink" x="0px" y="0px"
	 viewBox="0 1.6 130 123.1" enable-background="new 0 1.6 130 123.1" xml:space="preserve">
<g>
	<circle fill="#EFB285" cx="93.2" cy="17.3" r="15.6"/>
	<polygon fill="#FBDD4A" points="93.6,89.5 105.4,35.9 83.5,35.9 	"/>
	<path fill="#EFB285" d="M116.8,103c0,9.3,12.2,9.3,12.2,0v-0.8h-12.2V103z"/>
	<path fill="#EFB285" d="M58.5,103c0,9.3,12.2,9.3,12.2,0v-0.8H58.5V103z"/>
	<path fill="#C7C7C7" d="M111.3,35.9h-5.9L93.6,89.5L83,35.9h-5.5h-2.1c-10.1,0.4-16.9,9.3-16.9,19.9v46.5h12.2V57h3.8v51.5
		c4.2,0,14.4,0,16.1,0c2.1,0,2.5-5.5,2.5-5.5s0,5.5,2.5,5.5c2.1,0,13.9,0,17.3,0V57h3.8v45.2h12.2V55.7
		C129.1,46,123.2,35.9,111.3,35.9z"/>
	<polygon fill="#717171" points="105.4,35.9 110.5,43 105.9,44.7 109.2,48.1 93.6,89.5 102.9,35.9 	"/>
	<rect x="109.2" y="47.7" fill="#13338B" width="5.5" height="5.5"/>
	<rect x="110.9" y="49" fill="#D6D6D6" width="2.5" height="2.1"/>
	<path fill="#13338B" d="M110.9,50.6c0.8-0.4,1.7-0.4,2.5-0.4l0,0h-1.3v0.4C111.3,50.2,111.3,50.6,110.9,50.6L110.9,50.6"/>
	<polyline fill="#13338B" points="112.2,50.2 112.2,50.6 112.2,50.6 110.9,50.6 110.9,50.6 112.2,50.2 112.2,50.2 	"/>
	<polyline fill="#13338B" points="112.6,49.8 112.6,49.8 112.6,50.2 111.8,50.2 111.3,49.8 111.3,49.8 112.6,49.8 	"/>
	<polyline fill="#FDC11C" points="110.1,48.5 110.5,48.5 110.5,48.5 110.5,48.5 110.5,48.5 110.1,48.5 110.1,48.5 110.1,48.1 
		110.1,48.1 110.1,48.1 110.1,48.1 110.1,48.5 	"/>
	<path fill="#FDC11C" d="M110.5,48.1L110.5,48.1L110.5,48.1L110.5,48.1L110.5,48.1z M110.9,48.5L110.9,48.5L110.9,48.5L110.9,48.5
		L110.9,48.5L110.9,48.5L110.9,48.5L110.9,48.5h-0.4l0,0v-0.4l0,0l0,0l0,0L110.9,48.5"/>
	<path fill="#FDC11C" d="M111.3,48.5L111.3,48.5L111.3,48.5L111.3,48.5L111.3,48.5L111.3,48.5z M111.3,48.1L111.3,48.1L111.3,48.1
		L111.3,48.1L111.3,48.1L111.3,48.1z M111.3,48.1L111.3,48.1L111.3,48.1L111.3,48.1L111.3,48.1v0.4l0,0l0,0V48.1L111.3,48.1
		L111.3,48.1"/>
	<path fill="#FDC11C" d="M111.8,48.1L111.8,48.1L111.8,48.1L111.8,48.1L111.8,48.1z M111.8,48.5L111.8,48.5L111.8,48.5L111.8,48.5
		L111.8,48.5L111.8,48.5L111.8,48.5L111.8,48.5h-0.4l0,0v-0.4l0,0l0,0l0,0L111.8,48.5"/>
	<polyline fill="#FDC11C" points="112.2,48.5 112.2,48.5 112.2,48.5 112.2,48.5 112.2,48.5 112.2,48.1 112.2,48.1 112.2,48.1 
		112.2,48.1 112.2,48.5 112.2,48.1 112.2,48.1 112.6,48.1 112.6,48.1 112.6,48.5 112.6,48.5 112.2,48.5 112.2,48.5 112.2,48.5 	"/>
	<path fill="#FDC11C" d="M112.6,48.5L112.6,48.5L112.6,48.5L112.6,48.5L112.6,48.5z M112.6,48.5L112.6,48.5L112.6,48.5
		c-0.4-0.4,0-0.4,0-0.4C113,48.1,113,48.1,112.6,48.5L112.6,48.5L112.6,48.5L112.6,48.5L112.6,48.5L112.6,48.5L112.6,48.5"/>
	<path fill="#FDC11C" d="M113.5,48.1L113.5,48.1L113.5,48.1L113.5,48.1L113.5,48.1v0.4C113,48.5,113,48.5,113.5,48.1L113.5,48.1
		L113.5,48.1L113.5,48.1L113.5,48.1L113.5,48.1v0.4V48.1L113.5,48.1"/>
	<polyline fill="#FDC11C" points="113.9,48.5 113.9,48.5 113.9,48.5 113.9,48.5 113.9,48.5 113.9,48.5 113.5,48.5 113.5,48.5 
		113.5,48.1 113.5,48.1 113.9,48.1 113.9,48.1 113.9,48.1 113.9,48.1 113.9,48.1 113.9,48.5 113.9,48.5 113.9,48.5 113.9,48.5 
		113.9,48.5 113.9,48.5 	"/>
	<path fill="#FDC11C" d="M110.5,51.9L110.5,51.9L110.5,51.9L110.5,51.9L110.5,51.9L110.5,51.9z M110.5,51.9L110.5,51.9L110.5,51.9
		L110.5,51.9L110.5,51.9L110.5,51.9L110.5,51.9L110.5,51.9L110.5,51.9L110.5,51.9L110.5,51.9"/>
	<path fill="#FDC11C" d="M111.3,52.3L111.3,52.3L111.3,52.3L111.3,52.3L111.3,52.3z M111.3,52.3C110.9,52.3,110.9,52.3,111.3,52.3
		c-0.4-0.4,0-0.4,0-0.4C111.3,51.9,111.3,51.9,111.3,52.3L111.3,52.3"/>
	<path fill="#FDC11C" d="M111.8,52.3L111.8,52.3C111.8,51.9,111.3,51.9,111.8,52.3c0-0.4,0-0.4,0-0.4l0,0l0,0V52.3L111.8,52.3
		L111.8,52.3L111.8,52.3C111.8,51.9,111.8,51.9,111.8,52.3L111.8,52.3L111.8,52.3L111.8,52.3L111.8,52.3L111.8,52.3L111.8,52.3"/>
	<polyline fill="#FDC11C" points="112.2,52.3 112.2,52.3 112.2,52.3 112.2,52.3 112.2,51.9 111.8,51.9 111.8,51.9 111.8,51.9 
		111.8,51.9 112.2,51.9 112.2,51.9 112.2,51.9 112.2,51.9 112.2,51.9 112.2,52.3 	"/>
	<path fill="#FDC11C" d="M112.6,51.9L112.6,51.9L112.6,51.9L112.6,51.9z M112.6,52.3L112.6,52.3L112.6,52.3L112.6,52.3L112.6,52.3
		L112.6,52.3L112.6,52.3L112.6,52.3h-0.4l0,0v-0.4l0,0l0,0l0,0L112.6,52.3"/>
	<polyline fill="#FDC11C" points="113,52.3 113,52.3 113,52.3 113,52.3 113,52.3 112.6,52.3 112.6,52.3 112.6,51.9 112.6,51.9 
		113,51.9 113,51.9 113,52.3 	"/>
	<polyline fill="#FDC11C" points="113.5,51.9 113.5,52.3 113.5,52.3 113.5,52.3 113.5,52.3 113.5,52.3 113,52.3 113,52.3 113,51.9 
		113,51.9 113.5,51.9 113.5,51.9 113.5,51.9 113.5,51.9 113.5,51.9 113.5,51.9 113.5,51.9 113.5,51.9 113.5,51.9 113.5,51.9 
		113.5,51.9 	"/>
	<polygon fill="#717171" points="83.5,35.9 78.4,43 82.6,44.7 79.2,48.1 93.6,89.5 84.7,35.9 	"/>
	
		<ellipse transform="matrix(-0.3282 -0.9446 0.9446 -0.3282 91.4204 165.4035)" fill="#FDD70A" cx="104.5" cy="50.2" rx="2.1" ry="3.4"/>
	<path fill="#092C7C" d="M102,51.1c2.1-0.4,3.4-0.8,5.1-1.3l0,0h-3c0,0,0,0.4-0.4,0.4C103.3,50.6,103.3,50.6,102,51.1L102,51.1"/>
	<polyline fill="#092C7C" points="105.4,50.6 105,51.1 104.6,51.1 102.5,51.1 102.5,51.1 105.4,50.6 105.4,50.6 	"/>
	<path fill="#092C7C" d="M105.9,49.4L105.9,49.4v0.4h-1.7c-0.4-0.4-0.8-0.4-0.8-0.4l0,0C103.3,49.4,105.4,49.4,105.9,49.4"/>
	<path fill="#FFFFFF" d="M106.3,48.5L106.3,48.5c-0.4,0-0.8,0-1.3,0l0,0C105.4,48.1,105.9,48.1,106.3,48.5"/>
	<path fill="#FFFFFF" d="M106.3,48.5L106.3,48.5h-0.4C105.9,48.1,106.3,48.1,106.3,48.5"/>
	<polyline fill="#FFFFFF" points="102.9,51.9 102.5,51.9 102.5,51.9 102.5,51.9 102.9,51.9 	"/>
	<path fill="#FFFFFF" d="M102.9,49L102.9,49c0.4,0,0.4,0,0.4,0l0,0C103.3,48.5,102.9,49,102.9,49 M102.5,49.4L102.5,49.4L102.5,49.4
		L102.5,49.4L102.5,49.4L102.5,49.4L102.5,49.4L102.5,49.4L102.5,49.4z M102,49.8L102,49.8L102,49.8L102,49.8L102,49.8 M102,49.8
		L102,49.8L102,49.8L102,49.8L102,49.8z"/>
	<circle fill="#EFB285" cx="34.9" cy="31.6" r="15.6"/>
	<path fill="#EFB285" d="M12.9,117v0.8c0,9.3-12.2,9.3-12.2,0V117H12.9z"/>
	<path fill="#9B7134" d="M89,87v11.8H64.5c-3,0-5.5-3-5.5-5.9l0,0l0,0V71.8h-3.8v51.5H16.7V71.8h-3.8V117H0.7V70.5
		c0-10.6,6.3-19.4,16.9-19.9h2.1h5.5h22l0,0H53c11.8,0,18.2,10.1,18.2,20.3V87H89z"/>
	<path fill="#EFB285" d="M89.4,98.8h-0.8V86.6h0.8C98.7,87,98.7,98.8,89.4,98.8z"/>
	<rect x="89" y="87" fill="#9B7134" width="0" height="11.8"/>
	<polygon fill="#9B7134" points="64.9,98.8 64.9,98.8 64.5,98.8 	"/>
	<polygon fill="#FDD6A0" points="79.7,59.5 99.9,56.1 91.1,53.2 70.8,56.1 	"/>
	<polygon fill="#EFB285" points="79.7,59.5 79.7,90.8 99.9,87 99.9,56.1 	"/>
	<polygon fill="#D4936F" points="79.7,59.5 70.8,56.1 70.8,87.4 79.7,90.8 79.7,90.8 	"/>
	<polygon fill="#D9DCE1" points="99.9,69.2 79.7,72.6 79.7,77.3 99.9,73.9 	"/>
	<polygon fill="#9EA5AD" points="70.8,69.2 70.8,73.9 79.7,77.3 79.7,72.6 	"/>
	<polygon fill="#FFFFFF" points="78,55.3 86.4,58.3 92.8,57.4 84.3,54 	"/>
	<polygon fill="#D9DCE1" points="86.4,89.5 86.4,58.3 92.8,57.4 92.8,88.2 	"/>
	<polygon fill="#FFFFFF" points="84.7,66.3 84.7,82.3 94.4,80.6 94.4,64.6 	"/>
	<polygon fill="#D9DCE1" points="86.8,81.1 87.3,81.1 87.3,67.1 86.8,67.1 	"/>
	<polygon fill="#D9DCE1" points="89,80.6 89.4,80.6 89.4,66.7 89,66.7 	"/>
	<polygon fill="#D9DCE1" points="91.1,80.2 91.5,80.2 91.5,66.3 91.1,66.3 	"/>
</g>
</svg>
