<?xml version="1.0" encoding="utf-8"?>
<!-- Generator: Adobe Illustrator 18.1.1, SVG Export Plug-In . SVG Version: 6.00 Build 0)  -->
<svg version="1.1" id="Calque_1" xmlns="http://www.w3.org/2000/svg" xmlns:xlink="http://www.w3.org/1999/xlink" x="0px" y="0px"
	 viewBox="0 0 130 130" enable-background="new 0 0 130 130" xml:space="preserve">
<path fill="#E68079" d="M82.2,72.7l-6.4-6.5c-0.2-0.2-0.3-0.3-0.5-0.3s-0.4,0.1-0.6,0.2s-0.2,0.4-0.2,0.6V70h-2.8c-0.4,0-0.7,0-1,0
	c-8.4,0-15.1,1.5-15.1,3.3c0,1.8,6.7,3.2,15.1,3.3l0,0c0.1,0,0.2,0,0.3,0c0.4,0,0.8,0,1.2,0h2.5v3.3c0,0.2,0.1,0.4,0.2,0.6
	c0.2,0.2,0.4,0.2,0.6,0.2s0.4-0.1,0.5-0.3l6.4-6.5c0.2-0.2,0.3-0.4,0.3-0.6C82.4,73.1,82.3,72.9,82.2,72.7z"/>
<g>
	<g>
		<g enable-background="new    ">
			<path fill="#EE708B" d="M25.2,74.5h-0.6v-0.8h-0.8v-0.6h0.8v-0.8h0.6v0.8H26v0.6h-0.8V74.5z"/>
			<path fill="#EE708B" d="M28.9,74c0,0.6-0.5,1-1.1,1c-0.7,0-1.1-0.4-1.2-1h0.7c0.1,0.2,0.2,0.4,0.5,0.4c0.3,0,0.5-0.2,0.5-0.4
				c0-0.3-0.2-0.4-0.6-0.4h-0.3v-0.5h0.3c0.3,0,0.5-0.2,0.5-0.4c0-0.3-0.2-0.4-0.4-0.4c-0.2,0-0.4,0.2-0.4,0.4h-0.6
				c0-0.6,0.5-1,1.1-1c0.6,0,1,0.4,1,1c0,0.3-0.1,0.5-0.3,0.7C28.7,73.5,28.9,73.7,28.9,74z"/>
			<path fill="#EE708B" d="M32.1,74.1h0.7c-0.1,0.6-0.5,0.9-1.1,0.9c-0.7,0-1.2-0.5-1.2-1.2c0-0.7,0.5-1.2,1.2-1.2
				c0.6,0,1.1,0.4,1.1,0.9h-0.7c0-0.2-0.2-0.4-0.5-0.4c-0.3,0-0.6,0.3-0.6,0.6c0,0.3,0.2,0.6,0.6,0.6C31.9,74.4,32.1,74.3,32.1,74.1
				z"/>
			<path fill="#EE708B" d="M36.9,73.7V75h-0.7v-1.2c0-0.4-0.2-0.6-0.5-0.6c-0.1,0-0.3,0.1-0.4,0.3c0,0.1,0,0.2,0,0.2V75h-0.7v-1.2
				c0-0.4-0.2-0.6-0.5-0.6c-0.1,0-0.3,0.1-0.4,0.3V75h-0.7v-2.3h0.7v0.1c0.1-0.1,0.3-0.2,0.6-0.2c0.3,0,0.5,0.1,0.7,0.3
				c0.2-0.2,0.5-0.3,0.8-0.3C36.5,72.6,36.9,73.1,36.9,73.7z"/>
		</g>
		<g>
			<polygon fill="#FBE05B" points="39.1,67.7 39.1,63.7 0,63.7 0,83.4 39.1,83.4 39.1,79.5 7.8,79.5 7.8,67.7 			"/>
		</g>
		<g>
			<g>
				<rect x="38.5" y="63.7" fill="#EE708B" width="1.2" height="19.7"/>
			</g>
			<g>
				<g>
					<polygon fill="#EE708B" points="41.2,64.7 36.9,64.7 39.1,62.5 					"/>
				</g>
			</g>
			<g>
				<g>
					<polygon fill="#EE708B" points="41.2,82.5 36.9,82.5 39.1,84.7 					"/>
				</g>
			</g>
		</g>
	</g>
	<g enable-background="new    ">
		<path fill="#424242" d="M9.3,65.9h0.3c-0.1,0.4-0.4,0.7-0.8,0.7c-0.5,0-0.8-0.3-0.8-0.8c0-0.5,0.4-0.8,0.8-0.8
			c0.4,0,0.7,0.3,0.8,0.7H9.3c-0.1-0.2-0.2-0.4-0.4-0.4c-0.3,0-0.5,0.2-0.5,0.5c0,0.3,0.2,0.5,0.5,0.5C9.1,66.3,9.2,66.2,9.3,65.9z"
			/>
		<path fill="#424242" d="M11.5,65.8c0,0.5-0.4,0.8-0.8,0.8c-0.5,0-0.8-0.4-0.8-0.8c0-0.5,0.4-0.8,0.8-0.8
			C11.2,64.9,11.5,65.3,11.5,65.8z M11.2,65.8c0-0.3-0.2-0.5-0.5-0.5c-0.3,0-0.5,0.2-0.5,0.5c0,0.3,0.2,0.5,0.5,0.5
			C11,66.3,11.2,66.1,11.2,65.8z"/>
		<path fill="#424242" d="M13.2,65.9c0,0.5-0.3,0.8-0.7,0.8c-0.4,0-0.7-0.3-0.7-0.8V65h0.3v0.9c0,0.3,0.2,0.4,0.4,0.4
			c0.2,0,0.4-0.2,0.4-0.4V65h0.3V65.9z"/>
		<path fill="#424242" d="M13.8,66.1v0.5h-0.3V65h0.7c0.4,0,0.6,0.2,0.6,0.6c0,0.2-0.1,0.4-0.3,0.5l0.4,0.6h-0.4l-0.4-0.5H13.8z
			 M14.2,65.8c0.2,0,0.3-0.1,0.3-0.2c0-0.1-0.1-0.2-0.3-0.2h-0.3v0.5H14.2z"/>
		<path fill="#424242" d="M15.4,66.1v0.5h-0.3V65h0.7c0.4,0,0.6,0.2,0.6,0.6c0,0.2-0.1,0.4-0.3,0.5l0.4,0.6h-0.4l-0.4-0.5H15.4z
			 M15.8,65.8c0.2,0,0.3-0.1,0.3-0.2c0-0.1-0.1-0.2-0.3-0.2h-0.3v0.5H15.8z"/>
		<path fill="#424242" d="M17,66.6h-0.3V65H17V66.6z"/>
		<path fill="#424242" d="M17.7,65.6h0.7v0.3h-0.7v0.3h0.8v0.3h-1.2V65h1.2v0.3h-0.8V65.6z"/>
		<path fill="#424242" d="M19.1,66.1v0.5h-0.3V65h0.7c0.4,0,0.6,0.2,0.6,0.6c0,0.2-0.1,0.4-0.3,0.5l0.4,0.6h-0.4l-0.4-0.5H19.1z
			 M19.4,65.8c0.2,0,0.3-0.1,0.3-0.2c0-0.1-0.1-0.2-0.3-0.2h-0.3v0.5H19.4z"/>
	</g>
	<g enable-background="new    ">
		<path fill="#F1F1F1" d="M23.7,65.8c0,0.5-0.4,0.8-0.8,0.8c-0.5,0-0.8-0.4-0.8-0.8c0-0.5,0.4-0.8,0.8-0.8
			C23.4,64.9,23.7,65.3,23.7,65.8z M23.4,65.8c0-0.3-0.2-0.5-0.5-0.5c-0.3,0-0.5,0.2-0.5,0.5c0,0.3,0.2,0.5,0.5,0.5
			C23.2,66.3,23.4,66.1,23.4,65.8z"/>
		<path fill="#F1F1F1" d="M25.4,65.9c0,0.5-0.3,0.8-0.7,0.8c-0.4,0-0.7-0.3-0.7-0.8V65h0.3v0.9c0,0.3,0.2,0.4,0.4,0.4
			c0.2,0,0.4-0.2,0.4-0.4V65h0.3V65.9z"/>
	</g>
	<g enable-background="new    ">
		<path fill="#424242" d="M27.7,65.9h0.3c-0.1,0.4-0.4,0.7-0.8,0.7c-0.5,0-0.8-0.3-0.8-0.8c0-0.5,0.4-0.8,0.8-0.8
			c0.4,0,0.7,0.3,0.8,0.7h-0.3c-0.1-0.2-0.2-0.4-0.4-0.4c-0.3,0-0.5,0.2-0.5,0.5c0,0.3,0.2,0.5,0.5,0.5
			C27.5,66.3,27.7,66.2,27.7,65.9z"/>
		<path fill="#424242" d="M30,65.8c0,0.5-0.4,0.8-0.8,0.8c-0.5,0-0.8-0.4-0.8-0.8c0-0.5,0.4-0.8,0.8-0.8C29.6,64.9,30,65.3,30,65.8z
			 M29.6,65.8c0-0.3-0.2-0.5-0.5-0.5c-0.3,0-0.5,0.2-0.5,0.5c0,0.3,0.2,0.5,0.5,0.5C29.4,66.3,29.6,66.1,29.6,65.8z"/>
		<path fill="#424242" d="M31.4,66.6h-1.2V65h0.3v1.3h0.8V66.6z"/>
		<path fill="#424242" d="M32,66.6h-0.3V65H32V66.6z"/>
		<path fill="#424242" d="M33.6,65.5h-0.3c0-0.1-0.1-0.2-0.3-0.2c-0.2,0-0.3,0.1-0.3,0.2c0,0.1,0.1,0.2,0.2,0.2l0.2,0
			c0.3,0.1,0.5,0.2,0.5,0.5c0,0.3-0.3,0.5-0.6,0.5c-0.4,0-0.7-0.2-0.7-0.6h0.3c0,0.2,0.2,0.3,0.4,0.3c0.2,0,0.3-0.1,0.3-0.2
			c0-0.1,0-0.1-0.2-0.2l-0.3,0c-0.3-0.1-0.5-0.2-0.5-0.5c0-0.3,0.2-0.5,0.6-0.5C33.2,64.9,33.5,65.1,33.6,65.5z"/>
	</g>
</g>
<g>
	<polygon opacity="0.1" enable-background="new    " points="103,92.9 88.8,87.3 128.8,79.8 107.7,93.4 	"/>
	<g>
		<polygon fill="#FDDCAE" points="107.7,58.9 130,55.3 120,51.9 98,55.2 		"/>
		<g>
			<polygon fill="#F2BE96" points="107.7,58.9 107.7,93.4 130,89.4 130,55.3 			"/>
		</g>
		<polygon fill="#DCA381" points="107.7,58.9 98,55.2 98,89.6 107.5,93.5 107.7,93.4 		"/>
		<polygon fill="#ADB3BA" points="98,64.8 107.7,68.9 107.7,84.2 98,80 		"/>
		<polygon fill="#EDF1F4" points="130,64.8 107.7,68.9 107.7,84.2 130,80 		"/>
		<path fill="#ADB3BA" d="M122.2,68.5c3,0,4.4,1.7,4.4,3.5c0,2.5-3.6,8.4-10.1,8.4c-2.7,0-4.3-1.8-4.3-3.5
			C112.2,74.1,116.3,68.5,122.2,68.5z"/>
		<g>
			<path fill="#EDF1F4" d="M118.1,74c0,0,1.3,0.8-4.4,4.1l12.2-5.8L118.1,74z"/>
			<polygon fill="#EDF1F4" points="120.4,76.5 121.4,74.7 114.9,77.9 			"/>
			<path fill="#EDF1F4" d="M117.9,73.9l4.4-0.9c0,0,0.4-0.7,0.3-1.1c-0.1-0.4-0.4-0.3-0.4-0.3l-7,1.5
				C115.1,73.1,117.5,73.4,117.9,73.9z"/>
		</g>
	</g>
</g>
</svg>
