<?xml version="1.0" encoding="utf-8"?>
<!-- Generator: Adobe Illustrator 18.1.1, SVG Export Plug-In . SVG Version: 6.00 Build 0)  -->
<svg version="1.1" id="Calque_1" xmlns="http://www.w3.org/2000/svg" xmlns:xlink="http://www.w3.org/1999/xlink" x="0px" y="0px"
	 viewBox="0 0 130 130" enable-background="new 0 0 130 130" xml:space="preserve">
<g>
	<g>
		<g>
			<path fill="#EE708B" d="M74.4,64.9h-3.2v-1.2h3.2V64.9z"/>
			<path fill="#EE708B" d="M80,64.9c0,1.1-0.9,1.9-2.2,1.9c-1.4,0-2.1-0.7-2.3-1.9h1.3c0.1,0.5,0.4,0.8,1,0.8c0.6,0,1-0.3,1-0.8
				c0-0.5-0.4-0.8-1.1-0.8h-0.5v-1h0.5c0.5,0,0.9-0.3,0.9-0.8c0-0.5-0.3-0.8-0.8-0.8c-0.5,0-0.8,0.3-0.9,0.8h-1.3
				c0.1-1.1,0.9-1.9,2.1-1.9c1.2,0,2,0.8,2,1.9c0,0.6-0.2,1-0.6,1.3C79.7,63.8,80,64.3,80,64.9z"/>
			<path fill="#EE708B" d="M86.2,64.9h1.3c-0.1,1.1-1,1.8-2.2,1.8c-1.3,0-2.3-1-2.3-2.3c0-1.3,1-2.3,2.3-2.3c1.1,0,2.1,0.7,2.2,1.8
				h-1.3c-0.1-0.4-0.4-0.7-0.9-0.7c-0.7,0-1.1,0.5-1.1,1.2c0,0.6,0.4,1.1,1.1,1.1C85.8,65.6,86.1,65.4,86.2,64.9z"/>
			<path fill="#EE708B" d="M95.5,64.3v2.4h-1.3v-2.3c0-0.7-0.3-1.1-0.9-1.1c-0.3,0-0.6,0.1-0.8,0.5c0,0.2,0,0.3,0,0.5v2.4h-1.3v-2.3
				c0-0.7-0.3-1.1-0.9-1.1c-0.2,0-0.5,0.1-0.8,0.5v2.9h-1.3v-4.4h1.3v0.3c0.3-0.3,0.6-0.4,1.1-0.4c0.6,0,1,0.2,1.4,0.6
				c0.5-0.4,0.9-0.6,1.6-0.6C94.7,62.2,95.5,63,95.5,64.3z"/>
		</g>
		<g>
			<rect x="98.7" y="58" fill="#EE708B" width="2.3" height="12"/>
			<g>
				<polygon fill="#EE708B" points="104,59.8 95.7,59.8 99.9,55.6 				"/>
			</g>
			<g>
				<polygon fill="#EE708B" points="104,68.2 95.7,68.2 99.9,72.4 				"/>
			</g>
		</g>
		<polygon fill="#FBE05B" points="99.8,52.6 99.8,45 24,45 24,83 99.8,83 99.8,75.4 39.2,75.4 39.2,52.6 		"/>
	</g>
	<g>
		<path fill="#424242" d="M42,49.3h0.7c-0.1,0.8-0.7,1.3-1.5,1.3c-0.9,0-1.6-0.7-1.6-1.6s0.7-1.6,1.6-1.6c0.8,0,1.4,0.5,1.5,1.3H42
			c-0.1-0.4-0.4-0.7-0.9-0.7c-0.5,0-1,0.4-1,1s0.4,1,1,1C41.6,49.9,41.9,49.7,42,49.3z"/>
		<path fill="#424242" d="M46.6,49c0,0.9-0.7,1.6-1.6,1.6c-0.9,0-1.6-0.7-1.6-1.6s0.7-1.6,1.6-1.6C45.9,47.4,46.6,48.1,46.6,49z
			 M46,49c0-0.5-0.4-1-1-1c-0.5,0-1,0.5-1,1s0.4,1,1,1C45.6,50,46,49.5,46,49z"/>
		<path fill="#424242" d="M50.1,49.1c0,0.9-0.6,1.5-1.4,1.5c-0.8,0-1.4-0.6-1.4-1.5v-1.7H48v1.7c0,0.5,0.3,0.9,0.7,0.9
			c0.5,0,0.7-0.3,0.7-0.9v-1.7h0.7V49.1z"/>
		<path fill="#424242" d="M51.6,49.5v1h-0.7v-3.1h1.3c0.7,0,1.2,0.4,1.2,1.1c0,0.5-0.2,0.8-0.6,1l0.8,1.1h-0.8l-0.8-1H51.6z
			 M52.2,48.9c0.3,0,0.6-0.2,0.6-0.5c0-0.3-0.3-0.5-0.6-0.5h-0.6v0.9H52.2z"/>
		<path fill="#424242" d="M54.9,49.5v1h-0.7v-3.1h1.3c0.7,0,1.2,0.4,1.2,1.1c0,0.5-0.2,0.8-0.6,1l0.8,1.1h-0.8l-0.8-1H54.9z
			 M55.5,48.9c0.3,0,0.6-0.2,0.6-0.5c0-0.3-0.3-0.5-0.6-0.5h-0.6v0.9H55.5z"/>
		<path fill="#424242" d="M58.2,50.5h-0.7v-3.1h0.7V50.5z"/>
		<path fill="#424242" d="M59.7,48.7h1.4v0.6h-1.4v0.6h1.6v0.6h-2.3v-3.1h2.3V48h-1.6V48.7z"/>
		<path fill="#424242" d="M62.7,49.5v1h-0.7v-3.1h1.3c0.7,0,1.2,0.4,1.2,1.1c0,0.5-0.2,0.8-0.6,1l0.8,1.1H64l-0.8-1H62.7z
			 M63.4,48.9c0.3,0,0.6-0.2,0.6-0.5c0-0.3-0.3-0.5-0.6-0.5h-0.6v0.9H63.4z"/>
		<path fill="#F1F1F1" d="M69.9,49c0,0.9-0.7,1.6-1.6,1.6c-0.9,0-1.6-0.7-1.6-1.6s0.7-1.6,1.6-1.6C69.1,47.4,69.9,48.1,69.9,49z
			 M69.2,49c0-0.5-0.4-1-1-1c-0.5,0-1,0.5-1,1s0.4,1,1,1C68.8,50,69.2,49.5,69.2,49z"/>
		<path fill="#F1F1F1" d="M73.3,49.1c0,0.9-0.6,1.5-1.4,1.5c-0.8,0-1.4-0.6-1.4-1.5v-1.7h0.7v1.7c0,0.5,0.3,0.9,0.7,0.9
			c0.5,0,0.7-0.3,0.7-0.9v-1.7h0.7V49.1z"/>
		<path fill="#424242" d="M77.8,49.3h0.7c-0.1,0.8-0.7,1.3-1.5,1.3c-0.9,0-1.6-0.7-1.6-1.6s0.7-1.6,1.6-1.6c0.8,0,1.4,0.5,1.5,1.3
			h-0.7c-0.1-0.4-0.4-0.7-0.9-0.7c-0.5,0-1,0.4-1,1s0.4,1,1,1C77.4,49.9,77.7,49.7,77.8,49.3z"/>
		<path fill="#424242" d="M82.4,49c0,0.9-0.7,1.6-1.6,1.6c-0.9,0-1.6-0.7-1.6-1.6s0.7-1.6,1.6-1.6C81.7,47.4,82.4,48.1,82.4,49z
			 M81.7,49c0-0.5-0.4-1-1-1c-0.5,0-1,0.5-1,1s0.4,1,1,1C81.3,50,81.7,49.5,81.7,49z"/>
		<path fill="#424242" d="M85.4,50.5h-2.2v-3.1h0.7v2.5h1.6V50.5z"/>
		<path fill="#424242" d="M86.7,50.5H86v-3.1h0.7V50.5z"/>
		<path fill="#424242" d="M90,48.4h-0.7c0-0.3-0.2-0.5-0.6-0.5c-0.3,0-0.5,0.1-0.5,0.4c0,0.2,0.2,0.3,0.4,0.4l0.4,0.1
			c0.6,0.1,0.9,0.4,0.9,0.9c0,0.6-0.5,1-1.2,1c-0.7,0-1.3-0.4-1.4-1.1h0.7c0.1,0.3,0.3,0.5,0.7,0.5c0.3,0,0.5-0.1,0.5-0.3
			c0-0.1-0.1-0.3-0.4-0.3l-0.5-0.1c-0.6-0.1-0.9-0.4-0.9-0.9c0-0.6,0.5-1,1.2-1C89.3,47.3,90,47.6,90,48.4z"/>
	</g>
</g>
</svg>
