<?xml version="1.0" encoding="utf-8"?>
<!-- Generator: Adobe Illustrator 18.1.1, SVG Export Plug-In . SVG Version: 6.00 Build 0)  -->
<svg version="1.1" id="Calque_1" xmlns="http://www.w3.org/2000/svg" xmlns:xlink="http://www.w3.org/1999/xlink" x="0px" y="0px"
	 viewBox="0 0 130 130" enable-background="new 0 0 130 130" xml:space="preserve">
<g>
	<g>
		<g>
			<path fill="#EE708B" d="M26,71.9h-1.6v-0.6H26V71.9z"/>
			<path fill="#EE708B" d="M28.8,71.9c0,0.6-0.5,1-1.1,1c-0.7,0-1.1-0.3-1.2-1h0.7c0,0.3,0.2,0.4,0.5,0.4s0.5-0.2,0.5-0.4
				s-0.2-0.4-0.6-0.4h-0.3V71h0.3c0.3,0,0.5-0.2,0.5-0.4c0-0.3-0.1-0.4-0.4-0.4c-0.3,0-0.4,0.2-0.5,0.4h-0.7c0-0.6,0.5-1,1.1-1
				c0.6,0,1,0.4,1,1c0,0.3-0.1,0.5-0.3,0.7C28.7,71.4,28.8,71.6,28.8,71.9z"/>
			<path fill="#EE708B" d="M32,71.9h0.7c0,0.6-0.5,0.9-1.1,0.9c-0.7,0-1.2-0.5-1.2-1.2s0.5-1.2,1.2-1.2c0.6,0,1.1,0.3,1.1,0.9H32
				c0-0.2-0.2-0.3-0.5-0.3c-0.3,0-0.6,0.3-0.6,0.6c0,0.3,0.2,0.6,0.6,0.6C31.8,72.3,32,72.2,32,71.9z"/>
			<path fill="#EE708B" d="M36.8,71.6v1.2h-0.7v-1.2c0-0.3-0.2-0.6-0.5-0.6c-0.2,0-0.3,0-0.4,0.3c0,0.1,0,0.2,0,0.3v1.2h-0.7v-1.2
				c0-0.3-0.2-0.6-0.5-0.6c-0.1,0-0.3,0-0.4,0.3v1.5H33v-2.3h0.7v0.2c0.2-0.2,0.3-0.2,0.6-0.2c0.3,0,0.5,0.1,0.7,0.3
				c0.3-0.2,0.5-0.3,0.8-0.3C36.4,70.5,36.8,71,36.8,71.6z"/>
		</g>
		<g>
			<rect x="38.5" y="68.4" fill="#EE708B" width="1.2" height="6.2"/>
			<g>
				<polygon fill="#EE708B" points="41.2,69.3 36.9,69.3 39.1,67.2 				"/>
			</g>
			<g>
				<polygon fill="#EE708B" points="41.2,73.6 36.9,73.6 39.1,75.8 				"/>
			</g>
		</g>
		<polygon fill="#FBE05B" points="39,65.6 39,61.7 0,61.7 0,81.2 39,81.2 39,77.3 7.9,77.3 7.9,65.6 		"/>
	</g>
	<g>
		<path fill="#424242" d="M9.3,63.9h0.3c0,0.4-0.3,0.7-0.8,0.7c-0.5,0-0.8-0.3-0.8-0.8s0.3-0.8,0.8-0.8c0.4,0,0.7,0.3,0.8,0.7H9.3
			c0-0.2-0.2-0.3-0.5-0.3c-0.3,0-0.5,0.2-0.5,0.5s0.2,0.5,0.5,0.5C9.1,64.2,9.3,64.1,9.3,63.9z"/>
		<path fill="#424242" d="M11.7,63.7c0,0.5-0.3,0.8-0.8,0.8S10,64.2,10,63.7s0.3-0.8,0.8-0.8S11.7,63.3,11.7,63.7z M11.4,63.7
			c0-0.3-0.2-0.5-0.5-0.5c-0.3,0-0.5,0.3-0.5,0.5c0,0.3,0.2,0.5,0.5,0.5C11.2,64.2,11.4,64,11.4,63.7z"/>
		<path fill="#424242" d="M13.5,63.8c0,0.5-0.3,0.8-0.7,0.8c-0.4,0-0.7-0.3-0.7-0.8v-0.9h0.3v0.9c0,0.3,0.2,0.5,0.3,0.5
			c0.3,0,0.3-0.2,0.3-0.5v-0.9h0.4C13.5,62.9,13.5,63.8,13.5,63.8z"/>
		<path fill="#424242" d="M14.2,64v0.5h-0.3v-1.6h0.7c0.3,0,0.6,0.2,0.6,0.6c0,0.3-0.1,0.4-0.3,0.5l0.4,0.6h-0.4l-0.4-0.5L14.2,64
			L14.2,64z M14.5,63.7c0.2,0,0.3-0.1,0.3-0.3s-0.2-0.3-0.3-0.3h-0.3v0.5L14.5,63.7L14.5,63.7z"/>
		<path fill="#424242" d="M15.9,64v0.5h-0.3v-1.6h0.7c0.3,0,0.6,0.2,0.6,0.6c0,0.3-0.1,0.4-0.3,0.5l0.4,0.5h-0.4L16.1,64L15.9,64
			L15.9,64z M16.3,63.7c0.2,0,0.3-0.1,0.3-0.3s-0.2-0.2-0.3-0.2h-0.3v0.5L16.3,63.7L16.3,63.7z"/>
		<path fill="#424242" d="M17.6,64.5h-0.3v-1.6h0.3V64.5z"/>
		<path fill="#424242" d="M18.4,63.6h0.7v0.3h-0.7v0.3h0.8v0.3H18v-1.6h1.2v0.3h-0.8V63.6z"/>
		<path fill="#424242" d="M19.9,64v0.5h-0.3v-1.6h0.7c0.3,0,0.6,0.2,0.6,0.6c0,0.3-0.1,0.4-0.3,0.5l0.4,0.6h-0.3l-0.4-0.5L19.9,64
			C19.9,64.1,19.9,64,19.9,64z M20.3,63.7c0.2,0,0.3-0.1,0.3-0.3s-0.2-0.3-0.3-0.3H20v0.5L20.3,63.7L20.3,63.7z"/>
		<path fill="#F1F1F1" d="M23.6,63.7c0,0.5-0.3,0.8-0.8,0.8c-0.5,0-0.8-0.3-0.8-0.8s0.3-0.8,0.8-0.8C23.2,62.9,23.6,63.3,23.6,63.7z
			 M23.3,63.7c0-0.3-0.2-0.5-0.5-0.5c-0.3,0-0.5,0.3-0.5,0.5c0,0.3,0.2,0.5,0.5,0.5C23.1,64.2,23.3,64,23.3,63.7z"/>
		<path fill="#F1F1F1" d="M25.4,63.8c0,0.5-0.3,0.8-0.7,0.8s-0.7-0.3-0.7-0.8v-0.9h0.4v0.9c0,0.3,0.2,0.5,0.3,0.5
			c0.3,0,0.3-0.2,0.3-0.5v-0.9h0.3V63.8L25.4,63.8z"/>
		<path fill="#424242" d="M27.7,63.9h0.3c0,0.4-0.3,0.7-0.8,0.7c-0.5,0-0.8-0.3-0.8-0.8s0.3-0.8,0.8-0.8c0.4,0,0.7,0.3,0.8,0.7h-0.3
			c0-0.2-0.2-0.3-0.5-0.3s-0.5,0.2-0.5,0.5s0.2,0.5,0.5,0.5C27.5,64.2,27.7,64.1,27.7,63.9z"/>
		<path fill="#424242" d="M30.1,63.7c0,0.5-0.3,0.8-0.8,0.8s-0.8-0.3-0.8-0.8s0.3-0.8,0.8-0.8C29.7,62.9,30.1,63.3,30.1,63.7z
			 M29.7,63.7c0-0.3-0.2-0.5-0.5-0.5c-0.3,0-0.5,0.3-0.5,0.5c0,0.3,0.2,0.5,0.5,0.5C29.5,64.2,29.7,64,29.7,63.7z"/>
		<path fill="#424242" d="M31.6,64.5h-1.1v-1.6h0.3v1.3h0.8L31.6,64.5L31.6,64.5z"/>
		<path fill="#424242" d="M32.3,64.5H32v-1.6h0.3V64.5z"/>
		<path fill="#424242" d="M34,63.4h-0.3c0-0.2-0.1-0.3-0.3-0.3c-0.2,0-0.3,0-0.3,0.2c0,0.1,0.1,0.2,0.2,0.2l0.2,0
			c0.3,0,0.5,0.2,0.5,0.5c0,0.3-0.3,0.5-0.6,0.5s-0.7-0.2-0.7-0.6h0.3c0,0.2,0.2,0.3,0.3,0.3c0.2,0,0.3,0,0.3-0.2c0,0,0-0.2-0.2-0.2
			l-0.3,0c-0.3,0-0.5-0.2-0.5-0.5c0-0.3,0.3-0.5,0.6-0.5C33.6,62.9,34,63,34,63.4z"/>
	</g>
</g>
<path fill="#E68079" d="M82.1,70.4L75.7,64c-0.2-0.2-0.3-0.3-0.6-0.3c-0.2,0-0.4,0.1-0.6,0.3c-0.2,0.2-0.3,0.3-0.3,0.6v3.3h-2.8
	c-0.3,0-0.7,0-1,0c-8.4,0-15.2,1.4-15.2,3.2s6.7,3.2,15.1,3.2l0,0c0.1,0,0.2,0,0.3,0c0.4,0,0.8,0,1.2,0h2.5v3.2
	c0,0.3,0.1,0.4,0.3,0.6c0.2,0.2,0.3,0.3,0.6,0.3c0.2,0,0.4-0.1,0.6-0.3l6.4-6.4c0.2-0.2,0.3-0.3,0.3-0.6
	C82.4,70.8,82.3,70.7,82.1,70.4z"/>
<g>
	<polygon opacity="0.1" enable-background="new    " points="96.1,84.1 88.9,81 96.5,79.6 	"/>
	<g>
		<polygon fill="#F1F1F1" points="96.1,63.6 96.1,84.1 130,78 130,58 		"/>
		<polygon fill="#FFFFFF" points="130,58 113.2,72.2 96.1,63.6 		"/>
		<g>
			<polygon fill="#838383" points="111,71.1 96.1,83.9 96.1,84.1 96.4,84 111.3,71.2 			"/>
			<polygon fill="#838383" points="115.2,70.4 115,70.7 129.7,78.1 130,78 130,77.9 			"/>
		</g>
		<polygon fill="#838383" points="113.2,72.4 96.1,63.7 96.1,63.6 96.4,63.5 113.1,72 129.7,58 130,58 130,58.2 		"/>
	</g>
</g>
</svg>
