<?xml version="1.0" encoding="utf-8"?>
<!-- Generator: Adobe Illustrator 18.1.1, SVG Export Plug-In . SVG Version: 6.00 Build 0)  -->
<svg version="1.1" id="Calque_1" xmlns="http://www.w3.org/2000/svg" xmlns:xlink="http://www.w3.org/1999/xlink" x="0px" y="0px"
	 viewBox="433 313.4 130 167.1" enable-background="new 433 313.4 130 167.1" xml:space="preserve">
<g id="Layer_2">
	<path fill="#FFFFFF" d="M433.5,312.4H563V479H433.5V312.4z"/>
	<text transform="matrix(1 0 0 1 533.3877 466.9618)" fill="#FFCB01" font-family="'Helvetica'" font-size="33.3127">€</text>
	<path fill-opacity="0" stroke="#0077CA" stroke-width="2" stroke-dasharray="12,10" d="M461.7,429v50"/>
	<path fill-opacity="0" stroke="#0077CA" stroke-width="2" stroke-dasharray="12,10" d="M461.7,429H563"/>
	<path fill="#2B2B2B" d="M476.5,434.6h0.4v11.1h-0.4V434.6z M472.3,445.7h1.9v-11.1h-1.9V445.7z M485.2,445.7h0.5v-11.1h-0.5V445.7z
		 M486.5,445.7h1.9v-11.1h-1.9V445.7z M481.1,445.7h1.9v-11.1h-1.9V445.7z M478.4,445.7h0.4v-11.1h-0.4V445.7z M479.7,445.7h0.4
		v-11.1h-0.4V445.7z M493.8,445.7h1.9v-11.1h-1.9V445.7z M499.4,445.7h0.4v-11.1h-0.4V445.7z M498.1,445.7h0.4v-11.1h-0.4V445.7z
		 M489.8,445.7h0.4v-11.1h-0.4V445.7z M491.1,445.7h1.9v-11.1h-1.9V445.7z M506.5,445.7h1.9v-11.1h-1.9V445.7z M509.3,445.7h1.9
		v-11.1h-1.9V445.7z M503.9,445.7h0.5v-11.1h-0.5V445.7z M501.2,445.7h0.4v-11.1h-0.4V445.7z M502.5,445.7h0.4v-11.1h-0.4V445.7z"/>
	<path fill-opacity="0" stroke="#2B2B2B" stroke-width="3" d="M444.6,429H439v5.6"/>
	<path fill-opacity="0" stroke="#2B2B2B" stroke-width="3" d="M450.1,429h5.6v5.6"/>
	<path fill-opacity="0" stroke="#2B2B2B" stroke-width="3" d="M444.6,445.7H439v-5.6"/>
	<path fill-opacity="0" stroke="#2B2B2B" stroke-width="3" d="M450.1,445.7h5.6v-5.6"/>
	<path fill="#06A0FF" d="M480.2,379.9h6.1v25.5h-6.1V379.9z M489.9,405.6h6.1V370h-6.1V405.6z M508.8,405.6h6.1V370h-6.1V405.6z
		 M499.2,405.6h6.1v-27.1h-6.1V405.6z M475.5,409.1v-52.3h-3.2v55.5h59.3v-3.2H475.5z"/>
	<path fill="#2BA4FF" d="M451.9,323.5l7.1,13.6c1.6,4.8-3.2,8.6-7.1,8.6c-3.9,0-8.5-3.8-7.1-8.6L451.9,323.5z M446.1,337.6
		c0,0.2,0,0.1,0,0.4c0,0.1,0,0.3,0,0.4c0,0.2,0,0.4,0,0.6c0,0.1,0,0.2,0,0.3c0,0.1,0.1,0.2,0.1,0.3c0,0.2,0.1,0.5,0.2,0.7
		c0.1,0.2,0.2,0.5,0.4,0.8c0.1,0.3,0.3,0.5,0.5,0.7c0.2,0.2,0.4,0.5,0.6,0.7c0.2,0.2,0.5,0.4,0.7,0.6c0.2,0.1,0.5,0.3,0.7,0.4
		c0.1,0.1,0.2,0.1,0.4,0.2c0.1,0,0.2,0.1,0.3,0.1c0.2,0.1,0.4,0.1,0.7,0.2c0.1,0,0.2,0,0.3,0.1c0.1,0,0.1,0,0.2,0
		c0.2,0,0.4,0.1,0.4,0.1c0.1,0,0.2,0,0.3,0c0.6,0,1.1-0.6,1-1.2c0-0.6-0.6-1.1-1.2-1c0,0-0.1,0-0.4,0c-0.1,0-0.1,0-0.2,0
		c-0.1,0-0.1,0-0.2,0c-0.1,0-0.3,0-0.4,0c-0.1,0-0.2,0-0.3,0c-0.1,0-0.2,0-0.3-0.1c-0.2,0-0.4-0.1-0.6-0.2c-0.2-0.1-0.4-0.2-0.6-0.3
		c-0.2-0.1-0.4-0.2-0.6-0.4c-0.2-0.2-0.4-0.3-0.5-0.5c-0.2-0.2-0.3-0.4-0.5-0.5c-0.1-0.2-0.3-0.4-0.4-0.6c-0.1-0.1-0.1-0.2-0.2-0.3
		c0-0.1-0.1-0.2-0.1-0.3c-0.1-0.2-0.1-0.4-0.2-0.5c-0.1-0.2-0.1-0.3-0.1-0.4L446.1,337.6L446.1,337.6z"/>
	<text transform="matrix(1 0 0 1 471.4077 340.1879)" fill="#FFCD00" font-family="'Campton-Medium'" font-size="16.6563">FACTURE</text>
</g>
</svg>
