<?xml version="1.0" encoding="utf-8"?>
<!-- Generator: Adobe Illustrator 18.1.1, SVG Export Plug-In . SVG Version: 6.00 Build 0)  -->
<svg version="1.1" id="Calque_1" xmlns="http://www.w3.org/2000/svg" xmlns:xlink="http://www.w3.org/1999/xlink" x="0px" y="0px"
	 viewBox="-846.3 14.3 1458.3 762.7" enable-background="new -846.3 14.3 1458.3 762.7" xml:space="preserve">
<g>
	<g>
		<defs>
			<rect id="SVGID_1_" x="0" y="14.3" width="612" height="763.5"/>
		</defs>
		<clipPath id="SVGID_2_">
			<use xlink:href="#SVGID_1_"  overflow="visible"/>
		</clipPath>
		<path clip-path="url(#SVGID_2_)" fill="#EFEFEF" d="M198.2,81.4c-4.4,0-7.7-3.4-7.7-7.7V14.3H7.7C3.4,14.3,0,17.6,0,22v320.4
			c0,4.4,3.4,7.7,7.7,7.7h154.8V217.5c0-4.4,3.4-7.7,7.7-7.7h88V81.4H198.2z"/>
	</g>
	<g>
		<defs>
			<rect id="SVGID_3_" x="0" y="14.3" width="612" height="763.5"/>
		</defs>
		<clipPath id="SVGID_4_">
			<use xlink:href="#SVGID_3_"  overflow="visible"/>
		</clipPath>
		<path clip-path="url(#SVGID_4_)" fill="#EFEFEF" d="M208.6,71h50l-57.8-56.8v49C200.9,67.7,204.2,71,208.6,71"/>
	</g>
	<g>
		<defs>
			<rect id="SVGID_5_" x="0" y="14.3" width="612" height="763.5"/>
		</defs>
		<clipPath id="SVGID_6_">
			<use xlink:href="#SVGID_5_"  overflow="visible"/>
		</clipPath>
		<path clip-path="url(#SVGID_6_)" fill="#EFEFEF" d="M370.5,287c-4.4,0-7.7-3.4-7.7-7.7v-59.8H180.4c-4.4,0-7.7,3.4-7.7,7.7v320.4
			c0,4.4,3.4,7.7,7.7,7.7h162.2V438.5c0-4.4,3.4-7.7,7.7-7.7H431V287H370.5z"/>
	</g>
	<g>
		<defs>
			<rect id="SVGID_7_" x="0" y="14.3" width="612" height="763.5"/>
		</defs>
		<clipPath id="SVGID_8_">
			<use xlink:href="#SVGID_7_"  overflow="visible"/>
		</clipPath>
		<path clip-path="url(#SVGID_8_)" fill="#EFEFEF" d="M380.9,276.6h50l-57.8-56.8v49C373.2,272.9,376.9,276.6,380.9,276.6"/>
	</g>
	<g>
		<defs>
			<rect id="SVGID_9_" x="0" y="14.3" width="612" height="763.5"/>
		</defs>
		<clipPath id="SVGID_10_">
			<use xlink:href="#SVGID_9_"  overflow="visible"/>
		</clipPath>
		<path clip-path="url(#SVGID_10_)" fill="#EFEFEF" d="M543.8,501.3v-59.5H361.1c-4.4,0-7.7,3.4-7.7,7.7V770c0,4.4,3.4,7.7,7.7,7.7
			h242.9c4.4,0,7.7-3.4,7.7-7.7V509h-60.5C547.2,509,543.8,505.7,543.8,501.3"/>
	</g>
	<g>
		<defs>
			<rect id="SVGID_11_" x="0" y="14.3" width="612" height="763.5"/>
		</defs>
		<clipPath id="SVGID_12_">
			<use xlink:href="#SVGID_11_"  overflow="visible"/>
		</clipPath>
		<path clip-path="url(#SVGID_12_)" fill="#EFEFEF" d="M562,498.6h50l-57.8-56.8v49C554.2,495.3,557.6,498.6,562,498.6"/>
	</g>
	<g>
		<defs>
			<rect id="SVGID_13_" x="0" y="14.3" width="612" height="763.5"/>
		</defs>
		<clipPath id="SVGID_14_">
			<use xlink:href="#SVGID_13_"  overflow="visible"/>
		</clipPath>
		<polygon clip-path="url(#SVGID_14_)" fill="#FBDD4A" points="133.4,98.2 75.9,199 116.9,199 84,266.2 182.4,165.4 133.4,165.4 
			174.3,98.2 		"/>
	</g>
	<g>
		<defs>
			<rect id="SVGID_15_" x="0" y="14.3" width="612" height="763.5"/>
		</defs>
		<clipPath id="SVGID_16_">
			<use xlink:href="#SVGID_15_"  overflow="visible"/>
		</clipPath>
		<path clip-path="url(#SVGID_16_)" fill="#2BA4FF" d="M486,556.7l39.3,75.2c9.1,26.9-17.5,47.4-39,47.4c-21.5,0-46.7-20.8-39-47.4
			L486,556.7z M454.5,634.3c0,1,0,0.3,0,2c0,0.7,0,1.3,0,2.4s0,2,0.3,3c0,0.7,0,1.3,0.3,1.7c0,0.7,0.3,1.3,0.3,2
			c0.3,1.3,0.7,2.7,1.3,4s1.3,2.7,2,4c0.7,1.3,1.7,2.7,2.7,4c1,1.3,2,2.7,3.4,3.7c1,1.3,2.4,2,3.7,3c1.3,0.7,2.7,1.7,4,2.4
			c0.7,0.3,1.3,0.7,2,1c0.7,0.3,1.3,0.3,2,0.7c1.3,0.3,2.4,0.7,3.7,1c0.7,0,1,0.3,1.7,0.3c0.3,0,0.7,0,1,0.3c1.3,0.3,2,0.3,2,0.3
			c0.7,0,1,0,1.7,0c3.4-0.3,6-3.4,5.7-6.7c-0.3-3.4-3.4-6-6.7-5.7c0,0-0.7,0-2,0.3c-0.3,0-0.7,0-1,0s-0.7,0-1,0c-0.7,0-1.3,0-2.4,0
			c-0.3,0-1,0-1.3,0c-0.3,0-1-0.3-1.7-0.3c-1,0-2-0.7-3.4-1c-1-0.3-2.4-1-3.4-1.7c-1.3-0.7-2.4-1.3-3.4-2c-1-1-2-1.7-3-2.7
			c-1-1-1.7-2-2.7-3c-0.7-1-1.3-2-2-3.4c-0.3-0.7-0.7-1-1-1.7c-0.3-0.7-0.3-1-0.7-1.7c-0.3-1-0.7-2-1-2.7c-0.3-1-0.3-1.7-0.7-2.4
			l-0.3-1.3L454.5,634.3z"/>
	</g>
	<g>
		<defs>
			<rect id="SVGID_17_" x="0" y="14.3" width="612" height="763.5"/>
		</defs>
		<clipPath id="SVGID_18_">
			<use xlink:href="#SVGID_17_"  overflow="visible"/>
		</clipPath>
		<g clip-path="url(#SVGID_18_)">
			<path fill="#9D197F" d="M303.3,314.5c0,0-2,28.6-22.2,49c-17.8,14.4-20.5,22.2-21.5,32.9c-1,10.7,0,31.9,20.2,46.4
				c0,0-7.1-17.5,10.4-31.9c16.8-13.8,14.8-23.5,14.4-24.5c0.3,0.7,4.4,15.1,13.1,23.2c9.1,8.4,7.7,23.2-0.7,36.9
				c0,0,27.5-17.8,29.9-41.7C350.7,365.9,316.1,320.9,303.3,314.5z"/>
		</g>
	</g>
</g>
<g id="Layer_2">
	<path fill="#FFFFFF" d="M-846.3,14.3H-253v762.8h-593.3V14.3z"/>
	<text transform="matrix(1 0 0 1 -388.603 722.0195)" fill="#FFD200" font-family="'Helvetica'" font-size="152.5699">€</text>
	<path fill-opacity="0" stroke="#008BD3" stroke-dasharray="5" d="M-717.1,548.3v228.8"/>
	<path fill-opacity="0" stroke="#008BD3" stroke-dasharray="5" d="M-717.1,548.3H-253"/>
	<path fill="#393939" d="M-643.8,573.7h2.4v64.2h-2.4V573.7z M-668.3,637.8h11.1v-64.2h-11.1V637.8z M-594.1,637.8h2.7v-64.2h-2.7
		V637.8z M-586.6,637.8h11.1v-64.2h-11.1V637.8z M-617.4,637.8h11v-64.2h-11V637.8z M-633.2,637.8h2.3v-64.2h-2.3V637.8z
		 M-625.7,637.8h2.3v-64.2h-2.3V637.8z M-544,637.8h11.1v-64.2H-544V637.8z M-512,637.8h2.4v-64.2h-2.4V637.8z M-519.5,637.8h2.4
		v-64.2h-2.4V637.8z M-567.3,637.8h2.4v-64.2h-2.4V637.8z M-559.8,637.8h11.1v-64.2h-11.1V637.8z M-470.6,637.8h11.1v-64.2h-11.1
		V637.8z M-454.8,637.8h11v-64.2h-11V637.8z M-485.5,637.8h2.7v-64.2h-2.7V637.8z M-501.3,637.8h2.4v-64.2h-2.4V637.8z
		 M-493.8,637.8h2.3v-64.2h-2.3V637.8z"/>
	<path fill-opacity="0" stroke="#393939" d="M-795.5,548.3h-25.4v25.4"/>
	<path fill-opacity="0" stroke="#393939" d="M-770,548.3h25.4v25.4"/>
	<path fill-opacity="0" stroke="#393939" d="M-795.5,624.5h-25.4v-25.4"/>
	<path fill-opacity="0" stroke="#393939" d="M-770,624.5h25.4v-25.4"/>
	<path fill="#00B0FF" d="M-632.4,323.3h27.8v116.6h-27.8V323.3z M-588,440.8h27.8v-163H-588V440.8z M-501,440.8h27.8v-163H-501
		V440.8z M-545.2,440.8h27.8V316.8h-27.8V440.8z M-653.5,457.2V217.7h-14.8V472h271.6v-14.8H-653.5z"/>
	<path fill="#31B4FF" d="M-762,65.1l32.5,62.5c7.5,22.2-14.5,39.2-32.4,39.2s-38.8-17.4-32.4-39.2L-762,65.1z M-788.3,129.6
		c-0.1,0.9,0,0.3-0.1,1.7c-0.1,0.5-0.1,1.2,0,2c0,0.8,0,1.7,0.2,2.6c0.1,0.5,0.2,1,0.2,1.5c0.1,0.5,0.2,1,0.4,1.6
		c0.2,1.1,0.6,2.2,1,3.4c0.5,1.1,1,2.3,1.7,3.5c0.6,1.2,1.4,2.2,2.2,3.4c0.9,1,1.8,2.1,2.8,3c1,1,2.1,1.8,3.1,2.6
		c1.1,0.7,2.2,1.4,3.3,2c0.6,0.3,1.1,0.6,1.6,0.8c0.5,0.2,1.1,0.4,1.6,0.6c1,0.4,2,0.7,3,0.9c0.5,0.1,0.9,0.2,1.3,0.3
		c0.3,0.1,0.6,0.1,0.9,0.2c1.1,0.2,1.7,0.3,1.7,0.3c0.4,0.1,0.9,0.1,1.4,0.1c2.9-0.2,5-2.7,4.8-5.6c-0.2-2.9-2.7-5-5.6-4.8
		c0,0-0.6,0-1.7,0.1c-0.3,0-0.6,0.1-0.9,0.1c-0.2,0-0.5,0-0.7,0c-0.5,0-1.2,0.1-1.9-0.1c-0.4,0-0.8-0.1-1.2-0.1
		c-0.4-0.1-0.8-0.2-1.3-0.2c-0.9-0.1-1.8-0.5-2.8-0.8c-0.9-0.4-1.9-0.7-2.8-1.3c-1-0.5-1.8-1.1-2.8-1.8c-0.9-0.7-1.8-1.4-2.5-2.2
		c-0.8-0.8-1.5-1.7-2.2-2.5c-0.6-0.9-1.2-1.8-1.7-2.7c-0.2-0.4-0.5-0.9-0.7-1.3c-0.2-0.4-0.4-0.9-0.5-1.3c-0.4-0.8-0.6-1.6-0.8-2.3
		c-0.2-0.7-0.4-1.3-0.5-1.9l-0.2-1.2L-788.3,129.6z"/>
	<text transform="matrix(1 0 0 1 -672.4644 141.4009)" fill="#FFD300" font-family="'Campton-Medium'" font-size="76.2849">FACTURE</text>
</g>
</svg>
