<?xml version="1.0" encoding="utf-8"?>
<!-- Generator: Adobe Illustrator 18.1.1, SVG Export Plug-In . SVG Version: 6.00 Build 0)  -->
<svg version="1.1" id="Calque_1" xmlns="http://www.w3.org/2000/svg" xmlns:xlink="http://www.w3.org/1999/xlink" x="0px" y="0px"
	 viewBox="2.9 5.2 126.1 108.3" enable-background="new 2.9 5.2 126.1 108.3" xml:space="preserve">
<g>
	<circle fill="#EFB285" cx="93.2" cy="20.8" r="15.6"/>
	<polygon fill="#FBDD4A" points="93.6,93 105.4,39.4 83.5,39.4 	"/>
	<path fill="#EFB285" d="M116.8,106.5c0,9.3,12.2,9.3,12.2,0v-0.8h-12.2V106.5z"/>
	<path fill="#EFB285" d="M58.5,106.5c0,9.3,12.2,9.3,12.2,0v-0.8H58.5V106.5z"/>
	<path fill="#C7C7C7" d="M111.3,39.4h-5.9L93.6,93L83,39.4h-5.5h-2.1c-10.1,0.4-16.9,9.3-16.9,19.9v46.5h12.2V60.5h3.8V112
		c4.2,0,14.4,0,16.1,0c2.1,0,2.5-5.5,2.5-5.5s0,5.5,2.5,5.5c2.1,0,13.9,0,17.3,0V60.5h3.8v45.2h12.2V59.2
		C129.1,49.5,123.2,39.4,111.3,39.4z"/>
	<polygon fill="#717171" points="105.4,39.4 110.5,46.5 105.9,48.2 109.2,51.6 93.6,93 102.9,39.4 	"/>
	<rect x="109.2" y="51.2" fill="#13338B" width="5.5" height="5.5"/>
	<rect x="110.9" y="52.5" fill="#D6D6D6" width="2.5" height="2.1"/>
	<path fill="#13338B" d="M110.9,54.1c0.8-0.4,1.7-0.4,2.5-0.4l0,0h-1.3v0.4C111.3,53.7,111.3,54.1,110.9,54.1L110.9,54.1"/>
	<polyline fill="#13338B" points="112.2,53.7 112.2,54.1 112.2,54.1 110.9,54.1 110.9,54.1 112.2,53.7 112.2,53.7 	"/>
	<polyline fill="#13338B" points="112.6,53.3 112.6,53.3 112.6,53.7 111.8,53.7 111.3,53.3 111.3,53.3 112.6,53.3 	"/>
	<polyline fill="#FDC11C" points="110.1,52 110.5,52 110.5,52 110.5,52 110.5,52 110.1,52 110.1,52 110.1,51.6 110.1,51.6 
		110.1,51.6 110.1,51.6 110.1,52 	"/>
	<path fill="#FDC11C" d="M110.5,51.6L110.5,51.6L110.5,51.6L110.5,51.6L110.5,51.6z M110.9,52L110.9,52L110.9,52L110.9,52L110.9,52
		L110.9,52L110.9,52L110.9,52h-0.4l0,0v-0.4l0,0l0,0l0,0L110.9,52"/>
	<path fill="#FDC11C" d="M111.3,52L111.3,52L111.3,52L111.3,52L111.3,52L111.3,52z M111.3,51.6L111.3,51.6L111.3,51.6L111.3,51.6
		L111.3,51.6L111.3,51.6z M111.3,51.6L111.3,51.6L111.3,51.6L111.3,51.6L111.3,51.6V52l0,0l0,0V51.6L111.3,51.6L111.3,51.6"/>
	<path fill="#FDC11C" d="M111.8,51.6L111.8,51.6L111.8,51.6L111.8,51.6L111.8,51.6z M111.8,52L111.8,52L111.8,52L111.8,52L111.8,52
		L111.8,52L111.8,52L111.8,52h-0.4l0,0v-0.4l0,0l0,0l0,0L111.8,52"/>
	<polyline fill="#FDC11C" points="112.2,52 112.2,52 112.2,52 112.2,52 112.2,52 112.2,51.6 112.2,51.6 112.2,51.6 112.2,51.6 
		112.2,52 112.2,51.6 112.2,51.6 112.6,51.6 112.6,51.6 112.6,52 112.6,52 112.2,52 112.2,52 112.2,52 	"/>
	<path fill="#FDC11C" d="M112.6,52L112.6,52L112.6,52L112.6,52L112.6,52z M112.6,52L112.6,52L112.6,52c-0.4-0.4,0-0.4,0-0.4
		C113,51.6,113,51.6,112.6,52L112.6,52L112.6,52L112.6,52L112.6,52L112.6,52L112.6,52"/>
	<path fill="#FDC11C" d="M113.5,51.6L113.5,51.6L113.5,51.6L113.5,51.6L113.5,51.6V52C113,52,113,52,113.5,51.6L113.5,51.6
		L113.5,51.6L113.5,51.6L113.5,51.6L113.5,51.6V52V51.6L113.5,51.6"/>
	<polyline fill="#FDC11C" points="113.9,52 113.9,52 113.9,52 113.9,52 113.9,52 113.9,52 113.5,52 113.5,52 113.5,51.6 113.5,51.6 
		113.9,51.6 113.9,51.6 113.9,51.6 113.9,51.6 113.9,51.6 113.9,52 113.9,52 113.9,52 113.9,52 113.9,52 113.9,52 	"/>
	<path fill="#FDC11C" d="M110.5,55.4L110.5,55.4L110.5,55.4L110.5,55.4L110.5,55.4L110.5,55.4z M110.5,55.4L110.5,55.4L110.5,55.4
		L110.5,55.4L110.5,55.4L110.5,55.4L110.5,55.4L110.5,55.4L110.5,55.4L110.5,55.4L110.5,55.4"/>
	<path fill="#FDC11C" d="M111.3,55.8L111.3,55.8L111.3,55.8L111.3,55.8L111.3,55.8z M111.3,55.8C110.9,55.8,110.9,55.8,111.3,55.8
		c-0.4-0.4,0-0.4,0-0.4C111.3,55.4,111.3,55.4,111.3,55.8L111.3,55.8"/>
	<path fill="#FDC11C" d="M111.8,55.8L111.8,55.8C111.8,55.4,111.3,55.4,111.8,55.8c0-0.4,0-0.4,0-0.4l0,0l0,0V55.8L111.8,55.8
		L111.8,55.8L111.8,55.8C111.8,55.4,111.8,55.4,111.8,55.8L111.8,55.8L111.8,55.8L111.8,55.8L111.8,55.8L111.8,55.8L111.8,55.8"/>
	<polyline fill="#FDC11C" points="112.2,55.8 112.2,55.8 112.2,55.8 112.2,55.8 112.2,55.4 111.8,55.4 111.8,55.4 111.8,55.4 
		111.8,55.4 112.2,55.4 112.2,55.4 112.2,55.4 112.2,55.4 112.2,55.4 112.2,55.8 	"/>
	<path fill="#FDC11C" d="M112.6,55.4L112.6,55.4L112.6,55.4L112.6,55.4z M112.6,55.8L112.6,55.8L112.6,55.8L112.6,55.8L112.6,55.8
		L112.6,55.8L112.6,55.8L112.6,55.8h-0.4l0,0v-0.4l0,0l0,0l0,0L112.6,55.8"/>
	<polyline fill="#FDC11C" points="113,55.8 113,55.8 113,55.8 113,55.8 113,55.8 112.6,55.8 112.6,55.8 112.6,55.4 112.6,55.4 
		113,55.4 113,55.4 113,55.8 	"/>
	<polyline fill="#FDC11C" points="113.5,55.4 113.5,55.8 113.5,55.8 113.5,55.8 113.5,55.8 113.5,55.8 113,55.8 113,55.8 113,55.4 
		113,55.4 113.5,55.4 113.5,55.4 113.5,55.4 113.5,55.4 113.5,55.4 113.5,55.4 113.5,55.4 113.5,55.4 113.5,55.4 113.5,55.4 
		113.5,55.4 	"/>
	<polygon fill="#717171" points="83.5,39.4 78.4,46.5 82.6,48.2 79.2,51.6 93.6,93 84.7,39.4 	"/>
	
		<ellipse transform="matrix(-0.9446 0.3282 -0.3282 -0.9446 220.9077 70.0505)" fill="#FDD70A" cx="104.5" cy="53.7" rx="3.4" ry="2.1"/>
	<path fill="#092C7C" d="M102,54.6c2.1-0.4,3.4-0.8,5.1-1.3l0,0h-3c0,0,0,0.4-0.4,0.4C103.3,54.1,103.3,54.1,102,54.6L102,54.6"/>
	<polyline fill="#092C7C" points="105.4,54.1 105,54.6 104.6,54.6 102.5,54.6 102.5,54.6 105.4,54.1 105.4,54.1 	"/>
	<path fill="#092C7C" d="M105.9,52.9L105.9,52.9v0.4h-1.7c-0.4-0.4-0.8-0.4-0.8-0.4l0,0C103.3,52.9,105.4,52.9,105.9,52.9"/>
	<path fill="#FFFFFF" d="M106.3,52L106.3,52c-0.4,0-0.8,0-1.3,0l0,0C105.4,51.6,105.9,51.6,106.3,52"/>
	<path fill="#FFFFFF" d="M106.3,52L106.3,52h-0.4C105.9,51.6,106.3,51.6,106.3,52"/>
	<polyline fill="#FFFFFF" points="102.9,55.4 102.5,55.4 102.5,55.4 102.5,55.4 102.9,55.4 	"/>
	<path fill="#FFFFFF" d="M102.9,52.5L102.9,52.5c0.4,0,0.4,0,0.4,0l0,0C103.3,52,102.9,52.5,102.9,52.5 M102.5,52.9L102.5,52.9
		L102.5,52.9L102.5,52.9L102.5,52.9L102.5,52.9L102.5,52.9L102.5,52.9L102.5,52.9z M102,53.3L102,53.3L102,53.3L102,53.3L102,53.3
		 M102,53.3L102,53.3L102,53.3L102,53.3L102,53.3z"/>
	<rect x="89" y="90.5" fill="#9B7134" width="0" height="11.8"/>
	<polygon fill="#9B7134" points="64.9,102.3 64.9,102.3 64.5,102.3 	"/>
	<g>
		<g>
			<path fill="#F1F1F1" d="M41.9,56.7V44.5H4.5c-0.9,0-1.6,0.7-1.6,1.6v65.5c0,0.9,0.7,1.6,1.6,1.6h49.7c0.9,0,1.6-0.7,1.6-1.6V58.3
				H43.5C42.6,58.3,41.9,57.5,41.9,56.7z M49.3,100.3H9.5v-2.2h39.8V100.3z M49.3,93.8H9.5v-2.2h39.8V93.8z M49.3,87.2H9.5v-2.2
				h39.8V87.2z M49.3,80.7H9.5v-2.2h39.8V80.7z M49.3,74.1H9.5V72h39.8V74.1z M49.3,67.6H9.5v-2.2h39.8V67.6z"/>
			<path fill="#F1F1F1" d="M45.6,56.1h10.2L44,44.5v10C44,55.4,44.7,56.1,45.6,56.1z"/>
		</g>
		<g>
			<polygon fill="#1C5DAD" points="53.6,106.2 49.9,102.5 49.1,107.1 53.7,106.4 			"/>
			<polygon fill="#FBE05B" points="51,96.1 49.9,102.5 53.6,106.2 53.7,106.4 60.3,105.4 			"/>
			<path fill="#EE708B" d="M82.4,83.3c0.6-0.9,0.8-2.4,0-3.3c-0.9-0.9-4.7-4.7-6-6c-1.3-1.3-3.2-0.2-3.2-0.2L73.1,74L82.4,83.3z"/>
			<path fill="#CFCFCF" d="M73.1,74l0.1-0.1l-2.7,2.7l9.4,9.4c1.2-1.2,2.1-2.1,2.3-2.3c0.1-0.1,0.2-0.2,0.3-0.3L73.1,74z"/>
			<polygon fill="#1C5DAD" points="74.7,80.8 70.5,76.5 51,96.1 55.2,100.3 60.3,105.4 79.9,85.9 			"/>
		</g>
	</g>
	<text transform="matrix(1 0 0 1 5.1918 110.6158)" fill="#2185C4" font-family="'Campton-Medium'" font-size="7">Réclamation</text>
</g>
</svg>
