<?xml version="1.0" encoding="utf-8"?>
<!-- Generator: Adobe Illustrator 18.1.1, SVG Export Plug-In . SVG Version: 6.00 Build 0)  -->
<svg version="1.1" id="Calque_1" xmlns="http://www.w3.org/2000/svg" xmlns:xlink="http://www.w3.org/1999/xlink" x="0px" y="0px"
	 viewBox="0 0 80 80" enable-background="new 0 0 80 80" xml:space="preserve">
<path fill="#79C099" d="M69.1,72.6l-13.6-3.7l-6.6,5c0,0,0.5,2.8,0.6,3.8c0.1,1,0.3,1.3-1.7,1.6c-2,0.2-4.9,0.5-4.9,0.5l-9.1-4.3
	l-1.1,1.4L25,76.3l-8.5-5.6L19,68l1.8-19.1l-5.4-11.1l0.5-2.4L0.7,27.9l-0.7-6l10.4-2.4l2,2.9l8-0.1l-2.4-10.2l3.6-0.2l0.7,3.4
	l5.6,1.4l3.5-1.9l-1.6-1.8l9.1-4.8l-0.2-5.9l5.7-2l10.2,9.6l7.7,3.4l15.9,4.7l-1.8,12.7l-2.1,1.5L68.9,41l0.8,0.8l1.8-0.2l2.2,4.1
	l-1.4,2.1l2.3,2.9l-0.1,2.1l-2.2,1.1l1.8,2.3l0.5,2L74.3,61l5,0.6L80,63l-1.6,2.6L69.1,72.6z"/>
</svg>
