<?xml version="1.0" encoding="utf-8"?>
<!-- Generator: Adobe Illustrator 18.1.1, SVG Export Plug-In . SVG Version: 6.00 Build 0)  -->
<svg version="1.1" id="Calque_1" xmlns="http://www.w3.org/2000/svg" xmlns:xlink="http://www.w3.org/1999/xlink" x="0px" y="0px"
	 viewBox="0 0 235.3 99.1" enable-background="new 0 0 235.3 99.1" xml:space="preserve">
<polygon opacity="0.1" points="180.1,86.6 151.3,75.1 232.9,60 189.8,87.6 "/>
<g>
	<polygon opacity="0.1" points="133.8,83 105,71.5 186.5,56.4 143.5,84 	"/>
	<g>
		<polygon fill="#FFFFFF" points="143.5,14.1 189,6.8 168.6,0.1 123.7,6.5 		"/>
		<g>
			<polygon fill="#DFE2E6" points="143.5,14.1 143.5,84 189,75.9 189,6.8 			"/>
		</g>
		<polygon fill="#ADB3BA" points="143.5,14.1 123.7,6.5 123.7,76.2 143.2,84 143.5,84 		"/>
		<polygon fill="#DB6E4D" points="123.7,27.2 143.4,35.3 143.4,66.3 123.7,58 		"/>
		<polygon fill="#F8B381" points="189,27.2 143.4,35.3 143.4,66.3 189,58 		"/>
		<g>
			<path fill="#FFFFFF" d="M154.4,39.9c0,0-0.1,1.5,0.3,2.5l10.5,3.8L154.4,39.9z"/>
			<path fill="#FFFFFF" d="M172.9,49.7l-17.4-4.9c0,0,1.2,2.5,2.5,3.2l14.8,1.8L172.9,49.7z"/>
			<path fill="#FFFFFF" d="M160.2,50.2c5.6,3.5,12.2,3.7,15,3.2c2.9-0.5,5.3-2.2,5.3-2.2C167.8,52.5,160.2,50.2,160.2,50.2z"/>
		</g>
	</g>
</g>
<g>
	<polygon fill="#FDDCAE" points="189.8,17.7 235.3,10.4 214.9,3.6 170,10.1 	"/>
	<g>
		<polygon fill="#F2BE96" points="189.8,17.7 189.8,87.6 235.3,79.5 235.3,10.4 		"/>
	</g>
	<polygon fill="#DCA381" points="189.8,17.7 170,10.1 170,79.8 189.5,87.6 189.8,87.6 	"/>
	<polygon fill="#ADB3BA" points="170,29.7 189.8,37.8 189.8,68.8 170.1,60.5 	"/>
	<polygon fill="#EDF1F4" points="235.3,29.7 189.8,37.8 189.8,68.8 235.3,60.5 	"/>
	<path fill="#ADB3BA" d="M219.3,37.1c6.2,0,9,3.5,9,7c0,5.1-7.4,17-20.6,17c-5.4,0-8.7-3.6-8.7-7C198.9,48.5,207.4,37.1,219.3,37.1z
		"/>
	<g>
		<path fill="#EDF1F4" d="M211,48.2c0,0,2.6,1.7-9,8.4l24.9-11.8L211,48.2z"/>
		<polygon fill="#EDF1F4" points="215.7,53.4 217.8,49.6 204.6,56.1 		"/>
		<path fill="#EDF1F4" d="M210.6,48l9-1.9c0,0,0.8-1.4,0.6-2.2c-0.2-0.8-0.9-0.6-0.9-0.6l-14.4,3C205,46.3,209.7,46.9,210.6,48z"/>
	</g>
</g>
<g>
	<polygon opacity="0.1" points="28.8,83 0,71.5 81.5,56.4 38.5,84 	"/>
	<g>
		<polygon fill="#FDDCAE" points="38.5,14.1 84,6.8 63.6,0.1 18.7,6.5 		"/>
		<g>
			<polygon fill="#F2BE96" points="38.5,14.1 38.5,84 84,75.9 84,6.8 			"/>
		</g>
		<polygon fill="#DCA381" points="38.5,14.1 18.7,6.5 18.7,76.2 38.2,84 38.5,84 		"/>
		<polygon fill="#DFE2E6" points="84,35.6 38.5,43.7 38.5,54.2 84,46.1 		"/>
		<polygon fill="#ADB3BA" points="18.7,35.6 18.7,46.1 38.5,54.2 38.5,43.7 		"/>
		<g>
			<polygon fill="#FFFFFF" points="34.4,4.2 53.9,11.7 67.6,9.5 48.6,2.2 			"/>
		</g>
		<g>
			<polygon fill="#DFE2E6" points="54,81.2 53.9,11.7 67.6,9.5 67.6,78.8 			"/>
		</g>
		<polygon fill="#FFFFFF" points="50.3,29.5 50.3,65.2 71.3,61.4 71.3,25.7 		"/>
		<polygon fill="#DFE2E6" points="54.5,62.3 55.5,62.1 55.5,30.7 54.5,30.8 		"/>
		<polygon fill="#DFE2E6" points="59.2,61.5 60.3,61.3 60.3,29.8 59.2,30 		"/>
		<polygon fill="#DFE2E6" points="64,60.6 65,60.4 65,28.9 64,29.1 		"/>
	</g>
</g>
<g>
	<polygon opacity="0.1" points="69.6,83.7 61,80 70.1,78.4 	"/>
	<g>
		<polygon fill="#F1F1F1" points="69.6,59.3 69.6,83.7 110,76.6 110,52.7 		"/>
		<polygon fill="#FFFFFF" points="110,52.7 90,69.6 69.7,59.3 		"/>
		<g>
			<polygon fill="#838383" points="87.3,68.3 69.6,83.5 69.6,83.7 70,83.6 87.7,68.4 			"/>
			<polygon fill="#838383" points="92.4,67.5 92.1,67.8 109.7,76.6 110,76.6 110,76.4 			"/>
		</g>
		<polygon fill="#838383" points="90,69.8 69.6,59.5 69.6,59.3 69.9,59.3 89.9,69.4 109.7,52.7 110,52.7 110,52.9 		"/>
	</g>
</g>
<g>
	<polygon fill="#FFE28B" points="217.8,90.8 217.8,68.3 170.9,76.6 170.9,99.1 	"/>
	<polygon fill="#ECEEF8" points="192.2,83.9 192.2,75.7 173.9,79 173.9,87.6 192.2,84.5 	"/>
	<polygon fill="#FFFFFF" points="173.9,87.6 173.9,96.2 192.3,93.2 192.2,84.5 	"/>
	<polygon fill="#D9DBE3" points="176.1,89.1 176.1,89.5 190.4,87.1 190.4,86.7 	"/>
	<polygon fill="#D9DBE3" points="176.1,91.2 176.1,91.5 190.4,89.1 190.4,88.8 	"/>
	<polygon fill="#D9DBE3" points="176.1,93.2 176.1,93.6 190.4,91.2 190.4,90.8 	"/>
	<polygon fill="#D9DBE3" points="176.1,80.8 176.1,81.2 190.4,78.8 190.4,78.4 	"/>
	<polygon fill="#D9DBE3" points="176.1,82.9 176.1,83.2 190.4,80.8 190.4,80.5 	"/>
	<polygon fill="#D9DBE3" points="176.1,84.9 176.1,85.3 190.4,82.9 190.4,82.5 	"/>
	<polygon fill="#FFFFFF" points="194.1,80.4 194.1,89.1 212.5,86 212.5,77.3 	"/>
	<polygon fill="#D9DBE3" points="196.3,81.9 196.3,82.3 210.7,79.9 210.7,79.5 	"/>
	<polygon fill="#D9DBE3" points="196.3,84 196.3,84.4 210.7,82 210.7,81.6 	"/>
	<polygon fill="#D9DBE3" points="196.3,86.1 196.3,86.4 210.7,84 210.7,83.7 	"/>
	<path fill="#EE708B" d="M194.3,89.1c-0.1,0-0.1,0-0.2-0.1c-0.1-0.1,0-0.2,0.1-0.3l17.9-11.5c0.1-0.1,0.2,0,0.3,0.1
		c0.1,0.1,0,0.2-0.1,0.3L194.3,89.1C194.4,89.1,194.4,89.1,194.3,89.1z"/>
	<path fill="#EE708B" d="M212.3,86.1C212.3,86.1,212.3,86.1,212.3,86.1l-18.1-5.5c-0.1,0-0.2-0.1-0.1-0.2c0-0.1,0.1-0.2,0.2-0.1
		l18,5.5c0.1,0,0.2,0.1,0.1,0.2C212.5,86.1,212.4,86.1,212.3,86.1z"/>
	<polygon fill="#FFFFFF" points="212.5,72 194.1,75.1 194.1,78.1 212.5,75.1 	"/>
	<polygon fill="#ECEFFD" points="212.5,88.3 194.1,91.3 194.1,92.5 212.5,89.4 	"/>
	<polygon fill="#AFAFAF" points="209.7,72.5 197.2,74.6 197.2,77.6 209.7,75.5 	"/>
	<polygon opacity="0.1" points="170.9,99.1 155.3,91.9 170.9,88.9 	"/>
</g>
</svg>
