<?xml version="1.0" encoding="utf-8"?>
<!-- Generator: Adobe Illustrator 18.1.1, SVG Export Plug-In . SVG Version: 6.00 Build 0)  -->
<svg version="1.1" id="Calque_1" xmlns="http://www.w3.org/2000/svg" xmlns:xlink="http://www.w3.org/1999/xlink" x="0px" y="0px"
	 viewBox="0 0 68 68" enable-background="new 0 0 68 68" xml:space="preserve">
<rect fill="#686868" width="68" height="68"/>
<g>
	<path fill="#FFFFFF" d="M51.9,32.5v3.1c0,0.8-0.3,1.6-0.8,2.2c-0.5,0.6-1.2,0.9-2,0.9H31.9l7.1,7.1c0.6,0.6,0.9,1.3,0.9,2.2
		c0,0.9-0.3,1.6-0.9,2.2L37.3,52c-0.6,0.6-1.4,0.9-2.2,0.9c-0.8,0-1.6-0.3-2.2-0.9L17.1,36.2c-0.6-0.6-0.9-1.4-0.9-2.2
		c0-0.8,0.3-1.6,0.9-2.2L32.9,16c0.6-0.6,1.4-0.9,2.2-0.9c0.8,0,1.6,0.3,2.2,0.9l1.8,1.8c0.6,0.6,0.9,1.4,0.9,2.2
		c0,0.9-0.3,1.6-0.9,2.2l-7.1,7.1h17.1c0.8,0,1.5,0.3,2,0.9S51.9,31.6,51.9,32.5z"/>
</g>
</svg>
