<?xml version="1.0" encoding="utf-8"?>
<!-- Generator: Adobe Illustrator 18.1.1, SVG Export Plug-In . SVG Version: 6.00 Build 0)  -->
<svg version="1.1" id="Calque_1" xmlns="http://www.w3.org/2000/svg" xmlns:xlink="http://www.w3.org/1999/xlink" x="0px" y="0px"
	 viewBox="301 511 100 100" enable-background="new 301 511 100 100" xml:space="preserve">
<circle fill="#F2BE96" cx="351" cy="561" r="50"/>
<g>
	<path fill="#FFFFFF" d="M344.6,557.9h6c4.1,0,7.2-2.3,7.2-6.3c0-3.7-2.6-6.2-6.4-6.2c-3.9,0-6.4,2.3-6.7,5.8h-11.4
		c0.6-9.4,6.7-15.6,17.8-15.6c10.2,0,17.7,6.4,17.7,16c0,7.7-5.5,12.8-14.1,14l-0.4,4.2h-9L344.6,557.9z M343.2,580.4
		c0-3.5,2.9-6.1,6.3-6.1c3.5,0,6.4,2.6,6.4,6.1s-2.9,6.1-6.4,6.1C346.1,586.5,343.2,583.9,343.2,580.4z"/>
</g>
</svg>
