<?xml version="1.0" encoding="utf-8"?>
<!-- Generator: Adobe Illustrator 18.1.1, SVG Export Plug-In . SVG Version: 6.00 Build 0)  -->
<svg version="1.1" id="Calque_1" xmlns="http://www.w3.org/2000/svg" xmlns:xlink="http://www.w3.org/1999/xlink" x="0px" y="0px"
	 viewBox="0 0 130 81.1" enable-background="new 0 0 130 81.1" xml:space="preserve">
<g>
	<rect x="0.3" y="0" fill="#F2BE96" width="129.7" height="81.1"/>
	<g>
		<path fill="#424242" d="M120.3,69.1H42.5V36.6h77.8V69.1z M43.7,68H119V37.7H43.7V68z"/>
		<path fill="#424242" d="M113.9,48.1H48.8v-2.1h65.1V48.1z"/>
		<path fill="#424242" d="M113.9,54.4H48.8v-2.1h65.1V54.4z"/>
		<path fill="#424242" d="M113.9,60.7H48.8v-2.1h65.1V60.7z"/>
	</g>
	<rect x="0.3" y="0" fill="#FDDCAE" width="129.7" height="24.3"/>
	<rect x="0.3" y="22.7" fill="#838383" width="129.7" height="1.6"/>
	<g>
		<path fill="#424242" d="M123.6,9.1c0-0.3-0.2-0.6-0.5-0.7V7c0.3-0.1,0.5-0.4,0.5-0.7c0-0.4-0.3-0.8-0.8-0.8
			c-0.3,0-0.6,0.2-0.7,0.5h-1.5c-0.1-0.3-0.4-0.5-0.7-0.5c-0.3,0-0.6,0.2-0.7,0.5h-1.5c-0.1-0.3-0.4-0.5-0.7-0.5
			c-0.3,0-0.6,0.2-0.7,0.5h-1.5c-0.1-0.3-0.4-0.5-0.7-0.5c-0.4,0-0.8,0.3-0.8,0.8c0,0.3,0.2,0.6,0.5,0.7v1.5
			c-0.3,0.1-0.5,0.4-0.5,0.7c0,0.3,0.2,0.6,0.5,0.7v1.5c-0.3,0.1-0.5,0.4-0.5,0.7s0.2,0.6,0.5,0.7v1.5c-0.3,0.1-0.5,0.4-0.5,0.7
			c0,0.3,0.2,0.6,0.5,0.7V17c-0.3,0.1-0.5,0.4-0.5,0.7c0,0.4,0.3,0.8,0.8,0.8c0.3,0,0.6-0.2,0.7-0.5h1.5c0.1,0.3,0.4,0.5,0.7,0.5
			c0.3,0,0.6-0.2,0.7-0.5h1.5c0.1,0.3,0.4,0.5,0.7,0.5c0.3,0,0.6-0.2,0.7-0.5h1.5c0.1,0.3,0.4,0.5,0.7,0.5c0.4,0,0.8-0.3,0.8-0.8
			c0-0.3-0.2-0.6-0.5-0.7v-1.5c0.3-0.1,0.5-0.4,0.5-0.7c0-0.3-0.2-0.6-0.5-0.7v-1.5c0.3-0.1,0.5-0.4,0.5-0.7s-0.2-0.6-0.5-0.7V9.8
			C123.4,9.7,123.6,9.5,123.6,9.1z M122,16.9h-7.1V7.1h7.1V16.9z"/>
		<g>
			<path fill="#424242" d="M118.3,9.2c0.8,0,1.4,0.6,1.4,1.4s-0.6,1.4-1.4,1.4c-0.8,0-1.4-0.6-1.4-1.4S117.5,9.2,118.3,9.2z"/>
			<path fill="#424242" d="M116.3,17v-2.7h0.4V17h3.5v-2.7h0.3V17h1.1v-2.7c0-0.9-0.6-1.9-1.7-1.9h-3.2c-1,0-1.6,0.8-1.6,1.8V17
				H116.3z"/>
		</g>
	</g>
</g>
</svg>
