<?xml version="1.0" encoding="utf-8"?>
<!-- Generator: Adobe Illustrator 18.1.1, SVG Export Plug-In . SVG Version: 6.00 Build 0)  -->
<svg version="1.1" id="Calque_1" xmlns="http://www.w3.org/2000/svg" xmlns:xlink="http://www.w3.org/1999/xlink" x="0px" y="0px"
	 viewBox="0 0 130 64.1" enable-background="new 0 0 130 64.1" xml:space="preserve">
<g>
	<polygon fill="#FFE28B" points="129.9,46.9 129.9,0 32.4,17.3 32.4,64.1 	"/>
	<polygon fill="#ECEEF8" points="76.8,32.4 76.8,15.4 38.6,22.2 38.6,40.1 76.8,33.7 	"/>
	<polygon fill="#FFFFFF" points="38.6,40.1 38.6,58.1 77,51.7 76.8,33.7 	"/>
	<polygon fill="#D9DBE3" points="43.2,43.2 43.2,44 73,39 73,38.3 	"/>
	<polygon fill="#D9DBE3" points="43.2,47.6 43.2,48.3 73,43.4 73,42.6 	"/>
	<polygon fill="#D9DBE3" points="43.2,51.9 43.2,52.7 73,47.7 73,46.9 	"/>
	<polygon fill="#D9DBE3" points="43.2,26 43.2,26.8 73,21.8 73,21 	"/>
	<polygon fill="#D9DBE3" points="43.2,30.3 43.2,31.1 73,26.1 73,25.3 	"/>
	<polygon fill="#D9DBE3" points="43.2,34.6 43.2,35.4 73,30.4 73,29.6 	"/>
	<polygon fill="#FFFFFF" points="80.7,25.2 80.7,43.2 119.1,36.8 118.9,18.8 	"/>
	<polygon fill="#D9DBE3" points="85.3,28.3 85.3,29.1 115.1,24.1 115.1,23.3 	"/>
	<polygon fill="#D9DBE3" points="85.3,32.7 85.3,33.4 115.1,28.4 115.1,27.7 	"/>
	<polygon fill="#D9DBE3" points="85.3,37 85.3,37.8 115.1,32.8 115.1,32 	"/>
	<path fill="#EE708B" d="M81.2,43.3c-0.1,0-0.2-0.1-0.3-0.2c-0.1-0.2-0.1-0.4,0.1-0.5l37.3-23.9c0.2-0.1,0.4-0.1,0.5,0.1
		c0.1,0.2,0.1,0.4-0.1,0.5L81.4,43.3C81.3,43.3,81.2,43.3,81.2,43.3z"/>
	<path fill="#EE708B" d="M118.6,37.1c0,0-0.1,0-0.1,0L81.1,25.7c-0.2-0.1-0.3-0.3-0.3-0.5c0.1-0.2,0.3-0.3,0.5-0.3l37.5,11.4
		c0.2,0.1,0.3,0.3,0.3,0.5C118.9,37,118.8,37.1,118.6,37.1z"/>
	<polygon fill="#FFFFFF" points="118.9,7.8 80.7,14.2 80.7,20.5 118.9,14.1 	"/>
	<polygon fill="#ECEFFD" points="118.9,41.5 80.7,47.9 80.7,50.3 118.9,43.9 	"/>
	<polygon fill="#AFAFAF" points="113,8.8 87.2,13.1 87.2,19.4 113,15.1 	"/>
	<polygon opacity="0.1" points="32.4,64.1 -0.1,49.1 32.4,42.9 	"/>
</g>
</svg>
