<?xml version="1.0" encoding="utf-8"?>
<!-- Generator: Adobe Illustrator 18.1.1, SVG Export Plug-In . SVG Version: 6.00 Build 0)  -->
<svg version="1.1" id="Layer_1" xmlns="http://www.w3.org/2000/svg" xmlns:xlink="http://www.w3.org/1999/xlink" x="0px" y="0px"
	 viewBox="-33.4 18.9 70.5 80.7" enable-background="new -33.4 18.9 70.5 80.7" xml:space="preserve">
<g id="Your_Icon">
	<g id="XMLID_1_">
		<g>
			<path fill="#D4936F" d="M37,44C37,44,37,44,37,44C37,44,37,44,37,44c0,0.1,0,0.1,0,0.1c0,0,0,0.1,0,0.1c0,0,0,0.1,0,0.1
				c0,0,0,0.1,0,0.1c0,0,0,0,0,0c0,0,0,0,0,0.1c0,0,0,0.1,0,0.1c0,0,0,0.1,0,0.1c0,0,0,0,0,0.1c0,0,0,0,0,0c0,0,0,0,0,0
				c0,0,0,0,0,0.1c0,0,0,0.1,0,0.1c0,0,0,0.1,0,0.1c0,0,0,0,0,0c0,0,0,0,0,0c0,0,0,0,0,0c0,0,0,0,0,0.1c0,0,0,0.1,0,0.1
				c0,0,0,0,0,0.1c0,0,0,0,0,0c0,0,0,0,0,0c0,0,0,0.1-0.1,0.1c0,0-0.1,0.1-0.1,0.1C25.5,55.7,3.1,76,3.2,75.9
				c-0.3,0.4-1,0.5-1.7,0.2l-29.9-11.4c-1.1-0.4-2.1-1.2-2.8-2.1c-0.8-0.9-1.3-2.1-1.4-3.1l-0.6-6.9l5.6,2c-0.7-0.1-1.2,0.6-1.2,1.4
				l0.4,4c0.1,1,1.3,1.3,1.9,1.6L0,71.6c0.6,0.2,1.2,0.2,2-0.4L33,43c-1.2-1.1-1.9-2.6-2-4.2l2.7-2.4c-0.3,0.6-0.4,1.2-0.4,1.9
				c0,1.2,0.5,2.3,1.4,3.1c0,0,0.1,0.1,0.1,0.1l0,0c0,0,0,0,0,0c0,0,0.1,0,0.1,0c0,0,0.1,0,0.1,0c0,0,0.1,0,0.1,0c0,0,0.1,0,0.1,0
				c0,0,0,0,0,0c0,0,0,0,0,0c0,0,0,0,0,0c0,0,0.1,0,0.1,0.1s0.1,0,0.1,0c0,0,0,0,0.1,0.1c0,0,0.1,0,0.1,0.1c0,0,0,0,0,0
				c0,0,0.1,0,0.1,0.1c0,0,0.1,0,0.1,0.1c0,0,0.1,0,0.1,0.1c0,0,0.1,0,0.1,0.1c0,0,0,0,0,0c0,0,0,0,0,0c0,0,0,0,0,0
				c0,0,0.1,0.1,0.1,0.1c0,0,0.1,0.1,0.1,0.2c0,0,0,0,0,0c0,0,0.1,0.1,0.1,0.1c0,0.1,0.1,0.1,0.1,0.2c0,0,0,0.1,0.1,0.1
				c0,0,0,0,0,0.1c0,0,0,0,0,0.1c0,0.1,0.1,0.1,0.1,0.2c0,0,0,0.1,0.1,0.1c0,0,0,0,0,0c0,0,0,0,0,0c0,0,0,0.1,0,0.1c0,0,0,0.1,0,0.1
				C36.9,43.8,37,43.8,37,44C37,43.9,37,43.9,37,44z"/>
			<path fill="#F4F4F4" d="M31,54.8c0.1,1.6,0.8,3.1,2,4.2l-31,28.1c-0.8,0.6-1.4,0.7-2,0.4l-26.6-10.1c-0.6-0.2-1.8-0.6-1.9-1.6
				l-0.4-4c-0.1-0.8,0.6-1.6,1.4-1.3l28,10.6c0.7,0.3,1.3,0.2,1.6-0.2C2.1,81,19.3,65.4,31,54.8z"/>
			<path fill="#EFB285" d="M36.1,33.5C36.1,33.5,36.1,33.5,36.1,33.5c0,0.1,0,0.1,0,0.1c0,0,0,0.1,0,0.1c0,0,0,0.1,0,0.1
				c0,0,0,0,0,0c0,0,0,0,0,0c0,0,0,0,0,0c0,0,0,0.1,0,0.1c0,0,0,0.1,0,0.1c0,0,0,0,0,0.1c0,0,0,0,0,0c0,0,0,0,0,0c0,0,0,0,0,0
				c0,0,0,0,0,0.1c0,0,0,0,0,0.1c0,0,0,0,0,0.1c0,0,0,0,0,0c0,0,0,0,0,0c0,0,0,0.1-0.1,0.1c0,0-0.1,0.1-0.1,0.1
				c-0.3,0.3-0.7,0.6-1.1,1c-0.3,0.3-0.7,0.6-1,0.9L31,38.8C19.3,49.5,2.2,65,2.2,65c-0.3,0.4-0.9,0.5-1.6,0.2l-28-10.6
				c-0.1,0-0.1,0-0.2,0c0,0,0,0,0,0l-5.6-2l0-0.6c-0.1-0.9,0.2-1.6,0.7-2.1c0,0,0,0,0,0L1,19.4c0.1-0.1,0.1-0.1,0.2-0.2
				c0.1-0.1,0.3-0.2,0.5-0.2c0,0,0.1,0,0.2,0c0.1,0,0.2,0,0.3-0.1c0.1,0,0.1,0,0.2,0c0,0,0,0,0,0c0,0,0,0,0,0c0.1,0,0.2,0,0.2,0
				c0.1,0,0.1,0,0.2,0C3,19,3,19,3.1,19c0,0,0,0,0,0c0,0,0,0,0,0c0,0,0.1,0,0.1,0c0.1,0,0.1,0,0.2,0c0,0,0.1,0,0.2,0.1
				c0.1,0,0.1,0,0.2,0c0,0,0.1,0,0.1,0l29.9,11.4c0,0,0,0,0,0c0,0,0,0,0.1,0c0,0,0.1,0,0.1,0c0,0,0.1,0,0.1,0.1c0,0,0.1,0,0.1,0
				c0,0,0,0,0,0h0c0,0,0,0,0,0c0,0,0.1,0,0.1,0.1c0,0,0.1,0,0.1,0c0,0,0.1,0,0.1,0.1c0,0,0.1,0,0.1,0.1c0,0,0,0,0,0v0c0,0,0,0,0.1,0
				c0,0,0.1,0,0.1,0.1c0,0,0.1,0.1,0.1,0.1c0,0,0.1,0.1,0.1,0.1c0,0,0,0,0,0c0,0,0,0,0,0c0,0,0,0,0,0c0,0,0.1,0.1,0.1,0.1
				c0.1,0.1,0.1,0.1,0.2,0.2c0,0,0,0,0,0c0,0,0.1,0.1,0.1,0.1c0,0.1,0.1,0.1,0.1,0.2c0,0,0,0.1,0,0.1c0,0,0,0,0,0.1c0,0,0,0,0,0.1
				c0,0.1,0.1,0.1,0.1,0.2c0,0,0,0.1,0.1,0.1c0,0,0,0,0,0c0,0,0,0,0,0c0,0,0,0.1,0,0.1c0,0,0,0.1,0.1,0.1c0,0,0,0.1,0,0.1
				c0,0,0,0,0,0.1c0,0,0,0,0,0c0,0,0,0,0,0c0,0,0,0.1,0,0.1c0,0,0,0.1,0,0.1c0,0,0,0.1,0,0.1C36.1,33.4,36.1,33.4,36.1,33.5
				C36.1,33.4,36.1,33.4,36.1,33.5z"/>
			<path fill="#5C9E78" d="M31,54.8C19.3,65.4,2.1,81,2.2,80.9c-0.3,0.4-0.9,0.5-1.6,0.2l-28-10.6c-0.8-0.3-1.4,0.5-1.4,1.3l0.4,4
				c0.1,1,1.3,1.3,1.9,1.6L0,87.5c0.6,0.2,1.3,0.2,2-0.4L33,59C31.9,57.8,31.2,56.4,31,54.8z M37,59.9C37,59.9,37,59.9,37,59.9
				C37,59.9,37,59.9,37,59.9c0,0.1,0,0.1,0,0.1c0,0,0,0.1,0,0.1c0,0,0,0.1,0,0.1c0,0,0,0.1,0,0.1c0,0,0,0,0,0c0,0,0,0,0,0.1
				c0,0,0,0,0,0.1c0,0,0,0.1,0,0.1c0,0,0,0,0,0.1c0,0,0,0,0,0c0,0,0,0,0,0c0,0,0,0,0,0c0,0,0,0,0,0.1c0,0,0,0.1,0,0.1c0,0,0,0,0,0.1
				c0,0,0,0,0,0c0,0,0,0,0,0c0,0,0,0,0,0c0,0,0,0.1,0,0.1c0,0,0,0,0,0.1c0,0,0,0,0,0.1c0,0,0,0,0,0c0,0,0,0,0,0c0,0,0,0.1-0.1,0.1
				c0,0-0.1,0.1-0.1,0.1C25.5,71.6,3.1,91.9,3.2,91.8c-0.3,0.4-1,0.5-1.7,0.2l-29.9-11.4c-1.1-0.4-2.1-1.2-2.8-2.2
				c-0.8-0.9-1.3-2.1-1.4-3.1l-0.7-7.5c-0.1-0.9,0.2-1.6,0.7-2.1c0,0,0,0,0,0l1.5-1.3c0.7,0.7,1.6,1.3,2.5,1.6l25.4,9.6l0,0l0.1,0
				l4.5,1.7c0.3,0.1,0.7,0.2,1,0.2c0.6,0,1.1-0.2,1.5-0.6c0.2-0.2,0.5-0.4,0.9-0.8l2.7-2.4l8.9-8.1c6.4-5.8,13.9-12.6,19.5-17.6
				c0,0,0,0,0,0c0,0.1,0.1,0.1,0.1,0.2c0,0,0,0.1,0.1,0.1c0,0,0,0,0,0c0,0,0,0,0,0c0,0,0,0.1,0,0.1c0,0,0,0.1,0.1,0.1
				c0,0,0,0.1,0,0.1c0,0,0,0.1,0,0.1c0,0,0,0,0,0c0,0,0,0,0,0c0,0,0,0.1,0,0.1c0,0,0,0.1,0,0.1c0,0,0,0.1,0,0.1c0,0,0,0.1,0,0.1
				c0,0,0,0,0,0c0,0,0,0,0,0.1c0,0,0,0.1,0,0.1s0,0,0,0.1c0,0,0,0.1,0,0.1s0,0,0,0c0,0,0,0,0,0c0,0,0,0,0,0c0,0,0,0.1,0,0.1
				s0,0,0,0.1c0,0,0,0.1,0,0.1c0,0,0,0,0,0v0c0,0,0,0,0,0c0,0,0,0.1,0,0.1c0,0,0,0.1,0,0.1c0,0,0,0,0,0.1c0,0,0,0,0,0c0,0,0,0,0,0
				c0,0,0,0.1-0.1,0.1c0,0-0.1,0.1-0.1,0.1c-0.7,0.6-1.3,1.2-2,1.9c-0.3,0.6-0.4,1.2-0.4,1.9c0,1.2,0.5,2.2,1.4,3.1
				c0,0,0.1,0.1,0.1,0.1l0,0c0,0,0,0,0,0c0,0,0.1,0,0.1,0c0,0,0.1,0,0.1,0c0,0,0.1,0,0.1,0c0,0,0.1,0,0.1,0c0,0,0,0,0,0c0,0,0,0,0,0
				c0,0,0,0,0,0c0,0,0.1,0,0.1,0c0,0,0.1,0,0.1,0.1s0,0,0.1,0.1c0,0,0.1,0,0.1,0.1c0,0,0,0,0,0c0,0,0.1,0,0.1,0.1c0,0,0.1,0,0.1,0.1
				c0,0,0.1,0,0.1,0.1c0,0,0.1,0,0.1,0.1c0,0,0,0,0,0c0,0,0,0,0,0c0,0,0,0,0,0c0,0,0.1,0.1,0.1,0.1c0,0.1,0.1,0.1,0.1,0.2
				c0,0,0,0,0,0c0,0,0.1,0.1,0.1,0.1c0,0.1,0.1,0.1,0.1,0.2c0,0,0,0,0.1,0.1c0,0,0,0,0,0.1c0,0,0,0,0,0.1c0,0,0.1,0.1,0.1,0.2
				c0,0.1,0,0.1,0.1,0.1c0,0,0,0,0,0c0,0,0,0,0,0c0,0,0,0.1,0,0.1c0,0,0,0.1,0,0.1C36.9,59.7,37,59.8,37,59.9
				C37,59.8,37,59.8,37,59.9z"/>
			<path fill="#F4F4F4" d="M-27.6,54.6c0.1,0,0.1,0,0.2,0l28,10.6c0.7,0.3,1.3,0.2,1.6-0.2c0,0,17.1-15.5,28.9-26.2
				c0.1,1.6,0.8,3.1,2,4.2L2,71.2c-0.8,0.6-1.4,0.7-2,0.4l-26.6-10.1c-0.6-0.2-1.8-0.6-1.9-1.6l-0.4-4
				C-28.9,55.2-28.3,54.4-27.6,54.6C-27.6,54.6-27.6,54.5-27.6,54.6z"/>
		</g>
		<g>
		</g>
	</g>
</g>
<g>
	<g>
		<g id="XMLID_2_">
			<g>
				<path fill="#447DC4" d="M7.9,67.7c7.7,0,13.9,6.2,13.9,13.9S15.6,95.5,7.9,95.5C0.2,95.5-6,89.3-6,81.6S0.2,67.7,7.9,67.7z
					 M12.9,81.6c0-2.8-2.2-5-5-5c-2.8,0-5,2.3-5,5s2.3,5,5,5C10.7,86.6,12.9,84.4,12.9,81.6z"/>
				<path fill="#FFFFFF" d="M7.9,76.5c2.8,0,5,2.3,5,5s-2.2,5-5,5c-2.8,0-5-2.3-5-5S5.1,76.5,7.9,76.5z M9.8,81.6
					c0-1.1-0.9-1.9-1.9-1.9c-1.1,0-1.9,0.9-1.9,1.9c0,1.1,0.9,1.9,1.9,1.9C8.9,83.5,9.8,82.7,9.8,81.6z"/>
				<path fill="#494949" d="M7.9,79.6c1.1,0,1.9,0.9,1.9,1.9c0,1.1-0.9,1.9-1.9,1.9c-1.1,0-1.9-0.9-1.9-1.9
					C5.9,80.5,6.8,79.6,7.9,79.6z"/>
				<path fill="#FFFFFF" d="M23.8,65.6v32.2H-8.4V65.6H23.8z M7.9,95.5c7.7,0,13.9-6.2,13.9-13.9S15.6,67.7,7.9,67.7
					C0.2,67.7-6,73.9-6,81.6S0.2,95.5,7.9,95.5z"/>
				<path fill="#919191" d="M23.8,97.8V65.6H-8.4v32.2H23.8z M25.6,63.8v35.8h-35.8V63.8H25.6z"/>
				<rect x="-11.1" y="63.8" fill="#FFFFFF" width="0.9" height="35.8"/>
				<rect x="-16.5" y="63.8" fill="#494949" width="5.4" height="35.8"/>
			</g>
			<g>
			</g>
		</g>
	</g>
</g>
</svg>
