<?xml version="1.0" encoding="utf-8"?>
<!-- Generator: Adobe Illustrator 18.1.1, SVG Export Plug-In . SVG Version: 6.00 Build 0)  -->
<svg version="1.1" id="Calque_1" xmlns="http://www.w3.org/2000/svg" xmlns:xlink="http://www.w3.org/1999/xlink" x="0px" y="0px"
	 viewBox="0 0 130 130" enable-background="new 0 0 130 130" xml:space="preserve">
<g>
	<polygon fill="#FFFFFF" points="93.7,62.1 90.3,58.7 89.7,61.7 	"/>
	<polygon fill="#FFFFFF" points="98,66.4 94.5,63 95,67 	"/>
	<polygon fill="#E8E8E8" points="98.1,66.7 95.3,67.4 95.3,67.4 96.3,68.5 97.5,69.6 	"/>
	<polygon fill="#E8E8E8" points="88.3,60.3 89.3,61.5 89.3,61.5 90,58.6 90,58.6 87.1,59.3 	"/>
	<polygon fill="#E8E8E8" points="90,62 91,63.1 92.2,64.4 93.6,65.8 94.6,66.7 94.1,62.6 	"/>
	<g>
		<path fill="#E8E8E8" d="M91.9,64.5l-1.1-1.1L87.9,68c0.1,0.1,0.2,0.2,0.3,0.3L91.9,64.5z"/>
		<path fill="#E8E8E8" d="M90.6,63.2l-1.1-1.1l-0.3,0.6l-1.8,4.9c0.1,0.1,0.2,0.2,0.3,0.3L90.6,63.2z"/>
		<path fill="#E8E8E8" d="M87.9,60.5l-1-1l-0.6,7.3c0.1,0,0.1,0.1,0.2,0.1L87.9,60.5z"/>
		<path fill="#E8E8E8" d="M88.5,63.7l0.7-1.8l-1-1l-1.4,6.3c0.1,0.1,0.2,0.1,0.3,0.2L88.5,63.7z"/>
		<path fill="#E8E8E8" d="M93.9,67.4l0.6-0.3l-1.1-1.1L88.9,69c0.1,0.1,0.2,0.2,0.3,0.3L93.9,67.4z"/>
		<path fill="#E8E8E8" d="M97.1,69.8l-1-1l-6.4,1.4c0,0.1,0.1,0.1,0.1,0.2L97.1,69.8z"/>
		<path fill="#E8E8E8" d="M95.8,68.5l-1-1l0,0l-1.8,0.7l-3.6,1.4c0.1,0.1,0.1,0.2,0.2,0.3L95.8,68.5z"/>
		<path fill="#E8E8E8" d="M93.2,65.9l-1.1-1.1l-3.7,3.7c0.1,0.1,0.2,0.2,0.3,0.3L93.2,65.9z"/>
		<path fill="#FBDD4A" d="M79.7,67c5.1,0,9.3,4.1,9.3,9.3s-4.1,9.3-9.3,9.3s-9.3-4.1-9.3-9.3S74.5,67,79.7,67 M79.7,64.4
			c-6.5,0-11.8,5.3-11.8,11.8c0,6.5,5.3,11.8,11.8,11.8c6.5,0,11.8-5.3,11.8-11.8C91.5,69.7,86.2,64.4,79.7,64.4L79.7,64.4z"/>
	</g>
</g>
<rect x="37.2" y="49" transform="matrix(-0.9776 0.2106 -0.2106 -0.9776 119.4943 118.2425)" fill="#FFFFFF" width="32.6" height="32.9"/>
<g>
	<path fill="none" d="M60.6,63.3c0.1,0.4,0.5,0.6,0.8,0.6c0.4-0.1,0.6-0.5,0.6-0.8c-0.1-0.3-0.3-0.6-0.6-0.6l-0.9-3.5h-0.1h-0.1
		l0.7,3.5C60.7,62.6,60.5,63,60.6,63.3z"/>
	<polygon fill="none" points="55.5,74.6 55.7,75.1 55.9,75 55.8,74.7 56.3,74.6 56.1,76.3 56.3,76.3 56.6,74.6 56.6,74.3 	"/>
	<path fill="none" d="M55.1,76.3l0.4-0.7c0.1-0.2,0.2-0.3,0.1-0.4c-0.1-0.3-0.3-0.5-0.6-0.4c-0.3,0.1-0.5,0.3-0.4,0.6l0.3-0.1
		c-0.1-0.3,0.1-0.3,0.3-0.3c0.2,0,0.3,0.1,0.3,0.3c0,0.1,0,0.2-0.1,0.3l-0.5,1l0.1,0.3l1-0.3l-0.1-0.3L55.1,76.3z"/>
	<path fill="none" d="M51.9,63.8c0.1,0.1,0.2,0.1,0.3,0.1l0.3-0.3c0.1-0.1,0.1-0.3,0.1-0.3l-3.8-5c-0.1-0.1-0.3-0.1-0.3-0.1
		l-0.3,0.3c-0.1,0.1-0.1,0.2-0.1,0.3L51.9,63.8z"/>
	<path fill="none" d="M53.7,62.4l0.4,0.1c0.1,0,0.3,0,0.3-0.2l2.4-8.6c0-0.1,0-0.3-0.2-0.3l-0.4-0.1c-0.1,0-0.3,0-0.3,0.2l-2.4,8.6
		C53.6,62.3,53.7,62.3,53.7,62.4z"/>
	<path fill="none" d="M45.3,66.1l-0.9-3.6h-0.1h-0.1l0.7,3.5c-0.3,0.2-0.4,0.5-0.3,0.7c0.1,0.4,0.5,0.6,0.8,0.6
		c0.4-0.1,0.6-0.5,0.6-0.8C45.9,66.3,45.6,66.1,45.3,66.1z"/>
	<path fill="none" d="M64.9,47.8c-0.1-0.5-0.6-0.7-0.9-0.6l-14,3.2l-14,3.2c-0.5,0.1-0.7,0.6-0.6,0.9L41.8,82
		c0.1,0.5,0.6,0.7,0.9,0.6l14-3.2l14-3.1c0.5-0.1,0.7-0.6,0.6-0.9L64.9,47.8z M66.8,61.2l0.7-0.2l0.3,1.2l-0.7,0.2
		c-0.1,0-0.3-0.1-0.3-0.2l-0.2-0.8C66.6,61.4,66.7,61.2,66.8,61.2z M67.2,67.3L67.2,67.3v0.2l-13.4-2.3c-0.2,0.3-0.4,0.3-0.7,0.3
		c-0.3-0.1-0.5-0.3-0.6-0.5l-5-0.7l0.2-1l4.9,1.1c0.2-0.3,0.4-0.3,0.6-0.3c0.3,0.1,0.5,0.3,0.6,0.6L67.2,67.3z M63.7,54.3l1.8-1.8
		l0.3,1.4l-1.4,1.3c-0.1,0.1-0.3,0.1-0.3,0l-0.6-0.6C63.6,54.5,63.6,54.4,63.7,54.3z M65.1,59l1.4,5.9c0.2,0.7-0.2,1.3-0.6,1.6
		l-8.8-1.6l-0.9-3.8c-0.3-0.8,0.3-1.6,1.2-1.8l6-1.4C64,57.7,64.9,58.2,65.1,59z M57.4,49.1l1.4-0.3l-0.6,2c0,0.1-0.2,0.2-0.3,0.2
		l-0.8-0.3c-0.1,0-0.2-0.2-0.2-0.3L57.4,49.1z M50,50.8l0.6-0.2l0.2,0.7c0,0.1-0.1,0.3-0.2,0.3l-0.8,0.2c-0.1,0-0.3-0.1-0.3-0.2
		l-0.2-0.7L50,50.8z M48.6,57.3l4.3,5.8l2.9-10.6l1.1-1l0.5,1.4l-3.1,11.6c-0.3-0.6-1.1-0.7-1.6-0.3l-1.3-0.3l-4.1-5.6l-0.1-1.4
		L48.6,57.3z M42.7,52.4l1,1.1c0.1,0.1,0.1,0.3,0,0.3l-0.6,0.6c-0.1,0.1-0.3,0.1-0.3,0l-1.4-1.6L42.7,52.4z M36.8,59l2.5,0.8
		c0.1,0,0.2,0.2,0.2,0.3l-0.3,0.8c0,0.1-0.2,0.2-0.3,0.2l-1.7-0.6L36.8,59z M39.8,68.6L39,68.8l-0.3-1.2l0.7-0.2
		c0.1,0,0.3,0.1,0.3,0.2l0.2,0.8C39.9,68.5,39.8,68.6,39.8,68.6z M42.8,75.6L41,77.4l-0.3-1.4l1.4-1.3c0.1-0.1,0.3-0.1,0.3,0
		l0.6,0.6C42.9,75.4,42.9,75.5,42.8,75.6z M49.1,80.8l-1.4,0.3l0.6-2c0-0.1,0.2-0.2,0.3-0.2l0.8,0.3c0.1,0,0.2,0.2,0.2,0.3
		L49.1,80.8z M49.2,70.5l-6,1.4c-0.8,0.3-1.6-0.3-1.8-1.2L40,64.7c-0.3-0.8,0.3-1.6,1.2-1.8l6-1.4c0.8-0.3,1.6,0.3,1.8,1.2l0.2,0.6
		l-1.6-0.4l-0.3,1.8l2.3,0.3l0.8,3.6C50.7,69.5,50.1,70.3,49.2,70.5z M53.2,68.1l-0.7-0.3l-0.7-0.3l0.6-2.4h0.2
		c0.3,0.6,1.1,0.7,1.6,0.3l0.9,0.2l0.7,0.9l-1.3,1l-0.7-0.9L53.2,68.1z M56.5,79.2l-0.6,0.2l-0.2-0.7c0-0.1,0.1-0.3,0.2-0.3l0.8-0.2
		c0.1,0,0.3,0.1,0.3,0.2l0.2,0.7L56.5,79.2z M57,76.4l-2,0.5c-0.2,0-0.3-0.1-0.3-0.2l-0.5-1.9c0-0.2,0.1-0.3,0.2-0.3l2-0.5
		c0.2,0,0.3,0.1,0.3,0.2l0.5,1.9C57.2,76.3,57.1,76.4,57,76.4z M57.4,67l-0.3-0.8l6.3,1.1l-4.3,1C58.5,68.4,57.6,67.9,57.4,67z
		 M63.8,77.5l-1-1.1c-0.1-0.1-0.1-0.3,0-0.3l0.6-0.6c0.1-0.1,0.3-0.1,0.3,0l1.4,1.6L63.8,77.5z M67.3,70c-0.1,0-0.2-0.2-0.2-0.3
		l0.3-0.8c0-0.1,0.2-0.2,0.3-0.2l1.7,0.6l0.3,1.4L67.3,70z"/>
	<path d="M51.4,63.8l1.3,0.3c0.6-0.4,1.2-0.3,1.6,0.3l3.1-11.6l-0.5-1.4l-1.1,1L52.9,63l-4.3-5.8l-1.4-0.5l0.1,1.4L51.4,63.8z
		 M56,53.5c0-0.1,0.2-0.2,0.3-0.2l0.4,0.1c0.1,0,0.2,0.2,0.2,0.3l-2.4,8.6c0,0.1-0.2,0.2-0.3,0.2l-0.4-0.1c-0.1,0-0.2-0.2-0.2-0.3
		L56,53.5z M48.3,58.6l0.3-0.3c0.1-0.1,0.3-0.1,0.3,0.1l3.8,5c0.1,0.1,0.1,0.3-0.1,0.3l-0.4,0.3c-0.1,0.1-0.3,0.1-0.3-0.1l-3.8-5
		C48.2,58.7,48.2,58.6,48.3,58.6z"/>
	<path d="M43.1,54.4l0.6-0.6c0.1-0.1,0.1-0.3,0-0.3l-1-1.1l-1.4,0.3l1.4,1.6C42.8,54.5,42.9,54.5,43.1,54.4z"/>
	<path fill="#EFB285" d="M38.4,47.5l20.8-4.8l-3.6-12c-1.8-5.4-5.9-7.9-10.7-6.8l-1.6,0.4c-4.9,1.1-7.5,5.1-6.8,10.7L38.4,47.5z"/>
	<path d="M67.1,62.4l0.7-0.2l-0.3-1.2l-0.7,0.2c-0.1,0-0.2,0.2-0.2,0.3l0.2,0.8C66.8,62.3,67,62.4,67.1,62.4z"/>
	<path d="M64.3,55.1c0.1,0.1,0.3,0.1,0.3,0l1.4-1.3l-0.3-1.4l-1.8,1.8c-0.1,0.1-0.1,0.3,0,0.3L64.3,55.1z"/>
	<path fill="#17479E" d="M53.4,64.2c-0.3-0.1-0.6,0.1-0.6,0.3l-4.9-1.1l-0.2,1l5,0.7c0.1,0.3,0.3,0.5,0.6,0.5
		c0.3,0.1,0.6-0.1,0.7-0.3l13.4,2.3v-0.1v-0.1l-13.2-2.6C53.9,64.4,53.7,64.3,53.4,64.2z"/>
	<path fill="#EFB285" d="M68.2,82.5l-20.8,4.8l3.6,12c1.8,5.4,6,7.9,10.7,6.8l1.6-0.4c4.9-1.1,7.5-5.1,6.8-10.7L68.2,82.5z"/>
	<path fill="#ED9051" d="M56.1,61.1l0.9,3.8l8.8,1.7c0.6-0.4,0.7-1,0.6-1.6L65,59.1c-0.3-0.8-1.1-1.4-1.8-1.2l-6,1.4
		C56.4,59.4,55.9,60.2,56.1,61.1z M60.4,58.9h0.1l0.9,3.5c0.3,0,0.6,0.3,0.6,0.6c0.1,0.4-0.2,0.7-0.6,0.8s-0.7-0.2-0.8-0.6
		c-0.1-0.3,0.1-0.6,0.3-0.7L60.2,59L60.4,58.9z"/>
	<path d="M57.1,50.7l0.8,0.3c0.1,0,0.3,0,0.3-0.2l0.6-2l-1.4,0.3L57,50.5C57,50.6,57,50.7,57.1,50.7z"/>
	<path d="M49.8,51.9l0.8-0.2c0.1,0,0.2-0.2,0.2-0.3l-0.1-0.7l-0.6,0.2L49.5,51l0.1,0.7C49.6,51.8,49.7,51.9,49.8,51.9z"/>
	<path d="M63.5,75.5l-0.6,0.6c-0.1,0.1-0.1,0.3,0,0.3l1,1.1l1.4-0.3l-1.4-1.6C63.8,75.4,63.6,75.4,63.5,75.5z"/>
	<path d="M39.1,60.9l0.3-0.8c0-0.1,0-0.3-0.2-0.3L36.7,59l0.3,1.4l1.7,0.6C38.9,61.1,39,61,39.1,60.9z"/>
	<path d="M56.6,78.1l-0.8,0.2c-0.1,0-0.2,0.2-0.2,0.3l0.2,0.7l0.6-0.2l0.6-0.2l-0.2-0.7C56.9,78.2,56.8,78.1,56.6,78.1z"/>
	<path d="M56.4,74.1l-2,0.5c-0.2,0-0.3,0.2-0.2,0.3l0.5,1.9c0,0.2,0.2,0.3,0.3,0.2l2-0.5c0.2,0,0.3-0.2,0.2-0.3l-0.5-1.9
		C56.6,74.2,56.5,74.1,56.4,74.1z M54.8,76.6l-0.1-0.3l0.5-1c0.1-0.1,0.1-0.2,0.1-0.3c0-0.2-0.2-0.3-0.3-0.3c-0.2,0-0.3,0.2-0.3,0.3
		l-0.3,0.1c-0.1-0.3,0.1-0.6,0.4-0.6c0.3-0.1,0.6,0.1,0.6,0.4c0,0.2,0,0.3-0.1,0.4l-0.4,0.7l0.7-0.2l0.1,0.3L54.8,76.6z M56.3,76.3
		L56,76.4l0.3-1.6l-0.6,0.2l0.1,0.3l-0.3,0.1l-0.1-0.6l1.1-0.3l0.1,0.3L56.3,76.3z"/>
	<path d="M67.6,68.9c-0.1,0-0.3,0-0.3,0.2l-0.3,0.8c0,0.1,0,0.3,0.2,0.3l2.5,0.8l-0.3-1.4L67.6,68.9z"/>
	<path fill="#333333" d="M77.8,70.2l-2.6-0.7l-0.1-0.7L74,68.3c-0.3-1.4-0.5-2.9-0.7-4.5c0.2,0,0.3,0,0.5,0l0.6-0.3
		c0.4-0.2,0.7-0.6,0.6-1c0.3-0.6,0.3-1.5,0-2.6c-0.3-1.1-0.7-1.8-1.1-2.3v-0.1c-0.1-0.5-0.6-0.7-1-0.7l-0.7,0.1
		c-0.2,0-0.3,0.1-0.5,0.3c-0.4-1.5-0.8-3-1.3-4.5l0.9-0.8L71,51.4l1.9-1.8c-0.8-2.4-2-4.2-3.3-5.2l-0.9,0.8l-0.2-0.6l-1,0.9
		c-0.6-1.4-1.2-2.7-1.8-3.8L64,42.2l-2-3.5l-3.5,0.8l1.2,3.8l-10.9,2.5l-10.9,2.4l-0.6-3.9l-3.5,0.8l-0.3,4l-1.8,0.5
		C31.7,55.1,32.3,62,34,69.5v0.1c1.7,7.4,4.1,13.9,6.6,18.9l1.8-0.5l2,3.5l3.5-0.8l-1.2-3.8l10.9-2.5l10.9-2.5l0.6,3.9l3.6-0.8
		l0.3-4l1.8-0.5c0-1.4,0-2.8-0.1-4.3l1.3,0.4L75.8,76l1.1,0.4C77.8,74.9,78.1,72.7,77.8,70.2z M70.6,76.4l-14,3.2l-14,3.2
		c-0.5,0.1-0.8-0.2-0.9-0.6l-6.3-27.6c-0.1-0.5,0.2-0.8,0.6-0.9l14-3.2l14-3.2c0.5-0.1,0.8,0.2,0.9,0.6l6.3,27.6
		C71.3,75.8,71,76.3,70.6,76.4z"/>
	<path fill="#ED9051" d="M57.2,66.2l0.3,0.8c0.3,0.8,1.1,1.4,1.8,1.2l4.3-1L57.2,66.2z"/>
	<path d="M55.6,66.6L55,65.8l-0.9-0.2c-0.5,0.5-1.3,0.3-1.6-0.3h-0.2l-0.6,2.4l0.7,0.3l0.7,0.3l0.4-1.4l0.7,0.9L55.6,66.6z"/>
	<path d="M39.5,67.4l-0.7,0.2l0.3,1.2l0.7-0.2c0.1,0,0.2-0.2,0.2-0.3l-0.2-0.8C39.7,67.5,39.6,67.4,39.5,67.4z"/>
	<path d="M42.2,74.7c-0.1-0.1-0.3-0.1-0.3,0L40.5,76l0.3,1.4l1.8-1.8c0.1-0.1,0.1-0.3,0-0.3L42.2,74.7z"/>
	<path d="M49.4,79.2l-0.8-0.3c-0.1,0-0.3,0-0.3,0.2l-0.6,2l1.4-0.3l0.4-1.4C49.6,79.3,49.5,79.2,49.4,79.2z"/>
	<path fill="#ED9051" d="M49.6,65l-2.3-0.3l0.3-1.8l1.6,0.4l-0.2-0.6c-0.3-0.8-1.1-1.4-1.8-1.2l-6,1.4c-0.8,0.3-1.4,1.1-1.2,1.8
		l1.4,5.9c0.3,0.8,1.1,1.4,1.8,1.2l6-1.4c0.8-0.3,1.4-1.1,1.2-1.8L49.6,65z M45.3,67.5c-0.4,0.1-0.7-0.2-0.8-0.6
		c-0.1-0.3,0.1-0.6,0.3-0.7l-0.7-3.5h0.1h0.1l0.9,3.5c0.3,0,0.6,0.3,0.6,0.6C46.1,66.9,45.9,67.4,45.3,67.5z"/>
</g>
</svg>
