<?xml version="1.0" encoding="utf-8"?>
<!-- Generator: Adobe Illustrator 18.1.1, SVG Export Plug-In . SVG Version: 6.00 Build 0)  -->
<svg version="1.1" id="Calque_1" xmlns="http://www.w3.org/2000/svg" xmlns:xlink="http://www.w3.org/1999/xlink" x="0px" y="0px"
	 viewBox="156 300 300 246" enable-background="new 156 300 300 246" xml:space="preserve">
<g>
	<path fill="#1C5DAD" d="M305.5,338.9c-57.1,0-103.3,46.2-103.3,103.3c0,57.1,46.2,103.7,103.3,103.7c13.8,0,26.9-2.8,38.9-7.7
		c-8.9-3.2-15-11.9-15-21.9c0-12.8,10.3-23.1,23.1-23.1h35.6c2.3,0,4.4,0.6,6.5,1.2c9-15.3,14.2-33.2,14.2-52.3
		C408.8,385.2,362.6,338.9,305.5,338.9L305.5,338.9z"/>
	<path fill="#FBE05B" d="M305.5,300c-65.8,0-120.7,44.4-137,104.9c-7.2,2.9-12.6,9.6-12.6,17.8v39.3c0,10.8,9,19.5,19.9,19.5
		c10.8,0,19.4-8.6,19.4-19.5v-39.3c0-8.4-5.2-15-12.6-17.8c16-52.7,64.8-91.2,122.8-91.2s106.8,38.5,122.8,91.2
		c-7.2,2.9-12.6,9.6-12.6,17.8v39.3c0,9.9,7.5,17.7,17,19c-4.3,15.7-14.8,28.9-28.4,36.9c0.1-0.6,0.4-1,0.4-1.6
		c0-9.3-7.3-16.6-16.6-16.6h-33.6c-9.3,0-17,7.3-17,16.6c0,9.3,7.7,16.6,17,16.6h33.6c5.2,0,9.5-2.4,12.6-6.1
		c18.9-8.3,33.4-25.1,38.5-45.8c9.1-1.6,15.8-9.4,15.8-19v-39.3c0-8.1-5.1-14.9-12.2-17.8C426.5,344.4,371.3,300,305.5,300
		L305.5,300z"/>
</g>
</svg>
