<?xml version="1.0" encoding="utf-8"?>
<!-- Generator: Adobe Illustrator 18.1.1, SVG Export Plug-In . SVG Version: 6.00 Build 0)  -->
<svg version="1.1" id="Calque_1" xmlns="http://www.w3.org/2000/svg" xmlns:xlink="http://www.w3.org/1999/xlink" x="0px" y="0px"
	 viewBox="276.9 296.6 96.3 81.2" enable-background="new 276.9 296.6 96.3 81.2" xml:space="preserve">
<g>
	<path fill="#F1F1F1" d="M332.5,359.5c-0.3,1.5-1.7,2.6-3.3,2.3l-50-8.9c-1.5-0.3-2.6-1.7-2.3-3.3l5.2-29.2c0.3-1.5,1.7-2.6,3.3-2.3
		l50,8.9c1.5,0.3,2.6,1.7,2.3,3.3L332.5,359.5z"/>
	
		<linearGradient id="SVGID_1_" gradientUnits="userSpaceOnUse" x1="306.9789" y1="348.9058" x2="306.9789" y2="324.2297" gradientTransform="matrix(0.9846 0.1746 -0.1746 0.9846 64.4376 -48.4826)">
		<stop  offset="0.4164" style="stop-color:#91ADFB"/>
		<stop  offset="0.5843" style="stop-color:#B1FFC8"/>
	</linearGradient>
	<polygon opacity="0.4" fill="url(#SVGID_1_)" points="331.8,353.3 279.7,344 284.1,319.7 336.1,329 	"/>
	
		<rect x="278.7" y="348.6" transform="matrix(0.9846 0.1746 -0.1746 0.9846 66.1713 -47.8736)" fill="#FFFFFF" width="52.9" height="7.1"/>
	
		<rect x="300.1" y="330.9" transform="matrix(0.9846 0.1746 -0.1746 0.9846 62.6889 -49.6068)" fill="#999999" width="26.4" height="1.1"/>
	
		<rect x="299.4" y="334.4" transform="matrix(0.9846 0.1746 -0.1746 0.9846 63.2855 -49.446)" fill="#999999" width="26.4" height="1.1"/>
	
		<rect x="298.8" y="337.9" transform="matrix(0.9846 0.1746 -0.1746 0.9846 63.8821 -49.2852)" fill="#999999" width="26.4" height="1.1"/>
	
		<rect x="298.2" y="341.3" transform="matrix(0.9846 0.1746 -0.1746 0.9846 64.4787 -49.1244)" fill="#999999" width="26.4" height="1.1"/>
	
		<rect x="297.6" y="344.8" transform="matrix(0.9846 0.1746 -0.1746 0.9846 65.0753 -48.9636)" fill="#999999" width="26.4" height="1.1"/>
	
		<rect x="284.2" y="349.8" transform="matrix(0.9846 0.1746 -0.1746 0.9846 65.8731 -47.954)" fill="#999999" width="42.5" height="1.1"/>
	
		<rect x="283.6" y="353.3" transform="matrix(0.9846 0.1746 -0.1746 0.9846 66.4697 -47.7933)" fill="#999999" width="42.5" height="1.1"/>
	<path fill="#999999" d="M292.2,339.6c-0.4-0.1-1.4-0.2-2.5-0.4l0.2-1c1.3-0.1,2.3-0.8,2.5-2c0-0.2,0.2-1.2,0.2-1.2l0,0
		c0,0,1-0.2,1.1-0.9c0.1-0.5-0.1-0.6-0.3-0.7c-0.3-0.1-0.6,0.2-0.6,0.2l0,0l0,0l0.2-0.8c0,0,0.6-1.6,0.7-1.9
		c0.1-0.3-0.3-1.9-1.4-2.4c-0.9-0.4-2-1-2.2-0.6c0,0.1-0.1,0.2,0,0.3c-0.1,0-2.6-0.8-3.2,0.6c0,0.1-0.1,0.2-0.1,0.3
		c-0.2,1.1,0.2,1.5-0.1,2.8c-0.1,0.8-0.1,0.7-0.1,0.7s-0.1-0.4-0.5-0.5c-0.3,0-0.5,0.1-0.6,0.5c-0.1,0.4,0.1,1.1,0.8,1.4
		c0,0,0,0.3-0.1,0.8c0,0.2,0,0.6,0.1,1.1c0.2,0.7,0.7,1.5,1.7,1.9l-0.2,0.9c-0.9-0.2-1.7-0.3-2.2-0.4c-0.8-0.1-2.1,0.5-2.3,2
		c-0.3,1.5,10,2.9,10.2,1.8C293.7,341.1,293.2,339.8,292.2,339.6z"/>
	
		<rect x="283.4" y="324.3" transform="matrix(0.9846 0.1746 -0.1746 0.9846 61.6223 -49.0996)" fill="#1C5DAD" width="52.9" height="2.6"/>
</g>
<g>
	<path fill="#F1F1F1" d="M373.1,325.9c0.3,1.4-0.6,2.9-2,3.2l-46.7,10.5c-1.4,0.3-2.9-0.6-3.2-2l-6.1-27.3c-0.3-1.4,0.6-2.9,2-3.2
		l46.7-10.5c1.4-0.3,2.9,0.6,3.2,2L373.1,325.9z"/>
	
		<rect x="319.1" y="303.2" transform="matrix(0.9755 -0.2201 0.2201 0.9755 -61.5836 83.5295)" opacity="0.4" fill="#F089A6" width="49.9" height="29.9"/>
	
		<rect x="334.1" y="303.2" transform="matrix(0.9755 -0.2201 0.2201 0.9755 -61.5836 83.5295)" opacity="0.4" fill="#1C5DAD" width="20" height="29.9"/>
	
		<rect x="321.7" y="326.2" transform="matrix(0.9755 -0.2201 0.2201 0.9755 -64.0198 84.3717)" fill="#FFFFFF" width="49.9" height="6.7"/>
	
		<rect x="334.2" y="310.5" transform="matrix(0.9755 -0.2201 0.2201 0.9755 -60.0624 82.9978)" fill="#F1F1F1" width="16.6" height="1.1"/>
	
		<rect x="334.9" y="313.8" transform="matrix(0.9755 -0.2201 0.2201 0.9755 -60.7585 83.2385)" fill="#F1F1F1" width="16.6" height="1.1"/>
	
		<rect x="335.6" y="317" transform="matrix(0.9755 -0.2201 0.2201 0.9755 -61.4545 83.4791)" fill="#F1F1F1" width="16.6" height="1.1"/>
	
		<rect x="336.3" y="320.3" transform="matrix(0.9755 -0.2201 0.2201 0.9755 -62.1506 83.7197)" fill="#F1F1F1" width="16.6" height="1.1"/>
	
		<rect x="337.1" y="323.5" transform="matrix(0.9755 -0.2201 0.2201 0.9755 -62.8466 83.9604)" fill="#F1F1F1" width="16.6" height="1.1"/>
	<path fill="#FFFFFF" d="M331.2,324.9c-0.4,0.1-1.3,0.3-2.3,0.5l-0.2-0.9c1.1-0.5,1.7-1.6,1.5-2.6c0-0.2-0.3-1.1-0.3-1.1l0,0
		c0,0,0.8-0.5,0.7-1.2c-0.1-0.4-0.4-0.5-0.5-0.5c-0.2,0-0.4,0.4-0.4,0.4l0,0l0,0l-0.2-0.8c0,0-0.1-1.6-0.1-1.9
		c-0.1-0.3-0.9-1.5-2.1-1.6c-1,0-2.1-0.1-2.2,0.2c0,0.1,0,0.2,0.1,0.3c-0.1,0-2.5,0.3-2.5,1.7c0,0.1,0,0.2,0,0.3
		c0.2,1,0.7,1.2,1,2.5c0.2,0.7,0.1,0.7,0.1,0.7s-0.3-0.3-0.6-0.3c-0.2,0.1-0.4,0.3-0.3,0.6c0.1,0.4,0.5,0.9,1.2,1
		c0,0,0.1,0.3,0.2,0.7c0,0.2,0.2,0.6,0.5,0.9c0.4,0.5,1.1,1,2.2,1l0.2,0.9c-0.8,0.2-1.6,0.4-2,0.5c-0.8,0.2-1.6,1.2-1.3,2.6
		c0.3,1.4,9.8-1.1,9.5-2.2C333,325.7,332.1,324.7,331.2,324.9z"/>
	
		<rect x="316.4" y="303.5" transform="matrix(0.9755 -0.2201 0.2201 0.9755 -58.9734 82.6272)" fill="#F089A6" width="49.9" height="5"/>
	
		<rect x="331.4" y="303.5" transform="matrix(0.9755 -0.2201 0.2201 0.9755 -58.9734 82.6272)" fill="#1C5DAD" width="20" height="5"/>
</g>
<g>
	<polygon opacity="0.1" points="329.3,377.1 303.3,368.1 329,363.1 	"/>
	<polygon fill="#FFFFFF" points="328.8,327.5 330.4,328.1 364.9,321.8 362.3,321.2 	"/>
	<polygon fill="#5490CE" points="330.4,377.5 330.4,328.1 364.9,321.8 364.9,371.1 	"/>
	<polygon fill="#3B6FB7" points="330.4,377.5 330.4,328.1 328.8,327.5 328.8,376.9 	"/>
	<g>
		<path fill-rule="evenodd" clip-rule="evenodd" fill="#FFFFFF" d="M343.6,354.8c0,0,0.1,0,0.1,0c0,0,0.1,0,0.2,0v0
			c0.2,0,0.3,0.1,0.3,0.4c-0.1,0.1-0.3,0-0.4-0.1C343.5,355,343.5,354.9,343.6,354.8z M345.3,352.3c0.1,0,0,0.1-0.1,0.1l0,0l0,0
			C345.2,352.3,345.3,352.3,345.3,352.3z M347,351.4c0.2-0.1,0.7,0,0.2,0.3c0.2-0.2-0.1-0.1-0.1-0.1
			C346.9,351.5,346.9,351.4,347,351.4z M351.8,349.3c0.2,0,0.6,0.1,0.5,0.3c-0.2,0.3-0.7,0.4-0.5-0.1
			C351.7,349.4,351.7,349.4,351.8,349.3z M347.1,348.3c0.5-0.1,0.4,1.1,0,1.3c-0.4-0.3,0.1-0.9-0.1-1.3
			C347,348.3,347.1,348.3,347.1,348.3z M348.8,347.1c0.3-0.1,0.7,0,0.8,0.4c0.2,0.9-0.7,1.6-1.1,2.4c-0.9-0.1,0.1-1.2-0.3-1.5
			C347.7,347.9,348.3,347.2,348.8,347.1z M348.2,347C348.2,347,348.2,347,348.2,347c0.3,0,0.2,0.2,0.1,0.3c-0.5,0.5-0.6-0.1-0.2-0.2
			L348.2,347z M345.8,346.2c1.1,0.2-0.6,1.6,0.2,2c0.1,0,0.2,0,0.2,0c0,0,0,0,0,0c0.4,0.1,0.5,0.6-0.2,0.7c-0.9-0.1-1.2,1.8-0.4,1.4
			c0.3-0.9,1.3-0.7,1.4,0c0.5,0.7-0.5,0.8-0.9,1.2c0.4,0.6-0.6,0.4-1,0.8c-0.7,0.3-0.9,1.3-1.6,1.5c0-1.1-1.9-0.4-1.6,0.6
			c0.4,0.2,0.9,0.5,0.8,1.1c0,1.4,1.7,0.6,2.4,1.2c0.9,0.2,1.5,1,2.4,1.4c0.7-0.4,2.2,0,1.5,1c-0.4,0.4-1.3,0.8-1.3,1l0,0
			c-1.1,0.3-0.8,0.3-1.1,0.4c-0.6-0.1-1.3-0.2-1.9-0.5c0,0,0,0,0,0c-0.2-0.7-0.9-1-1.4-1.5c-0.2-0.2-0.3-0.5-0.3-0.7c0,0,0,0,0,0
			c0-0.5,0.2-1-0.1-1.3c-0.5-0.8-1.2-1.5-1.5-2.4c0-1-0.1-1.9,0.3-2.9C342.6,349.4,344.5,347.5,345.8,346.2z M349.2,344.6
			c3.2-0.6,6,0.8,7.3,3.2l0,0c0,0.1,0,0.2,0,0.3c0.1,0,0.2,0.1,0.2,0.2c0.2,0.4,0.3,0.9,0.4,1.3c-0.1,0.1-0.2,0.2-0.3,0.2
			c-0.8-0.5,0,0.7,0.4,0.4c0,0.3,0.1,0.6,0.1,0.9c0,2-0.8,3.9-2,5.5c0-0.1,0-0.1,0-0.2c0.6-0.8,0.5-2.1-0.7-1.7
			c-0.6,0.6-1.4,1.3-2.2,0.7c-0.8-0.5-0.4-1.7,0-2.5c0.4-0.7,0.6-1.6,1.3-2c0.7,0,1.7-0.2,1.9-1.1c0.2-0.4,0.1-0.5-0.1-0.6l0,0
			c-0.2-0.1-0.6-0.1-0.6-0.4c0.2-0.4-0.2-1.1-0.4-0.4c0.4,0.4,0.4,1.6-0.5,1.3c0.3,0.5-1.2,0.4-0.9,1c0.2,0.7-1.4,1.4-0.9,0.4
			c0.3-0.8-0.1-1.8,0.6-2.4c0,0,0.1-0.1,0,0l0.1-0.1c0.6-0.5-0.7-1.4-0.6-0.7c0.6,0.2,0.2,0.8-0.3,0.6c-0.6-0.2-0.8-1.7,0-1.7
			c0.6,0,0-0.5-0.2-0.8c0,0.1-0.1,0,0,0l-0.1,0c0.1-0.9-1.5,0.1-1.8-0.6c-1-0.3-2.2-0.1-3.3,0.1c0.4-0.2,0.9-0.4,1.3-0.5l0.1,0
			c0.1,0,0.2-0.1,0.4-0.1C348.8,344.7,349,344.6,349.2,344.6z M349.2,343.7c-5,0.9-9.1,5.5-9.2,10.3c-0.1,4.9,4,8.1,9,7.2
			c5-0.9,9.1-5.5,9.2-10.3C358.2,346.1,354.2,342.8,349.2,343.7z"/>
		<g>
			<path fill="#FBE05B" d="M345.3,362.6l-0.5,0.6c0,0-0.2,0-0.4-0.3l-1.1-2.1c0,0-0.3-0.3-0.5-0.5c-0.2-0.2-0.6-0.3-0.6-0.3
				l-2.3-0.7c-0.4-0.2-0.4-0.4-0.4-0.4l0.5-0.6c0.1-0.2,3.9-0.6,3.9-0.6c2.4-3.5,5.5-7.2,5.5-7.2l-10.2-1.3l1.6-1.2l11.7-1
				c3.9-4,5.4-4.8,5.4-4.8c0.6-0.3,1,0.1,1,0.1l0,0l0,0c0,0,0.4,0.3,0.2,0.9c0,0-0.6,1.6-4.1,5.9l0.9,11.2l-1,1.7l-3-9.4
				c0,0-3.3,3.6-6.6,6.4C345.3,358.8,345.4,362.4,345.3,362.6z"/>
		</g>
		<g enable-background="new    ">
			<path fill="#FFFFFF" d="M338.1,337.8c0.8-0.1,1.3,0.2,1.3,0.9c0,0.7-0.6,1.2-1.4,1.4l-0.6,0.1l0,0.9l-0.6,0.1l0-3.1L338.1,337.8z
				 M338.1,339.5c0.4-0.1,0.7-0.4,0.7-0.8c0-0.3-0.3-0.5-0.7-0.4l-0.6,0.1l0,1.2L338.1,339.5z"/>
			<path fill="#FFFFFF" d="M340.1,339.9l-0.3,0.7l-0.6,0.1l1.5-3.4l0.5-0.1l1.4,2.9l-0.6,0.1l-0.3-0.6L340.1,339.9z M340.9,338
				l-0.6,1.4l1.1-0.2L340.9,338z"/>
			<path fill="#FFFFFF" d="M345.4,337.5l-0.6,0.1c0-0.3-0.3-0.5-0.7-0.4c-0.4,0.1-0.6,0.3-0.7,0.6c0,0.2,0.2,0.3,0.5,0.3l0.4,0
				c0.6,0,1,0.2,1,0.7c0,0.6-0.5,1.1-1.3,1.2c-0.8,0.1-1.3-0.2-1.4-0.9l0.6-0.1c0.1,0.4,0.4,0.5,0.9,0.5c0.4-0.1,0.6-0.3,0.6-0.5
				c0-0.2-0.1-0.3-0.5-0.3l-0.5,0c-0.6,0-0.9-0.3-0.9-0.7c0-0.6,0.5-1.1,1.2-1.2C344.7,336.6,345.4,336.7,345.4,337.5z"/>
			<path fill="#FFFFFF" d="M348.5,336.9l-0.6,0.1c0-0.3-0.3-0.5-0.7-0.4c-0.4,0.1-0.6,0.3-0.7,0.6c0,0.2,0.2,0.3,0.5,0.3l0.4,0
				c0.6,0,1,0.2,1,0.7c0,0.6-0.5,1.1-1.3,1.2c-0.8,0.1-1.3-0.2-1.4-0.9l0.6-0.1c0.1,0.4,0.4,0.5,0.9,0.5c0.4-0.1,0.6-0.3,0.6-0.5
				c0-0.2-0.1-0.3-0.5-0.3l-0.5,0c-0.6,0-0.9-0.3-0.9-0.7c0-0.6,0.5-1.1,1.2-1.2C347.8,336.1,348.4,336.2,348.5,336.9z"/>
			<path fill="#FFFFFF" d="M350.3,335.7c0.8-0.1,1.3,0.2,1.3,0.9c0,0.7-0.6,1.2-1.4,1.4l-0.6,0.1l0,0.9l-0.6,0.1l0-3.1L350.3,335.7z
				 M350.3,337.4c0.4-0.1,0.7-0.4,0.7-0.8c0-0.3-0.3-0.5-0.7-0.4l-0.6,0.1l0,1.2L350.3,337.4z"/>
			<path fill="#FFFFFF" d="M355.4,336.4c0,0.9-0.8,1.8-1.7,1.9c-0.9,0.2-1.7-0.4-1.7-1.3c0-0.9,0.8-1.8,1.7-1.9
				C354.6,334.9,355.4,335.5,355.4,336.4z M354.8,336.5c0-0.6-0.5-1-1.1-0.9c-0.6,0.1-1.1,0.7-1.1,1.3c0,0.6,0.5,1,1.1,0.9
				C354.3,337.7,354.8,337.1,354.8,336.5z"/>
			<path fill="#FFFFFF" d="M356.6,336.7l0,1l-0.6,0.1l0-3.1l1.3-0.2c0.7-0.1,1.3,0.2,1.2,0.8c0,0.5-0.3,0.9-0.8,1.1l0.9,1l-0.7,0.1
				l-0.9-0.9L356.6,336.7L356.6,336.7L356.6,336.7z M357.3,336.1c0.4-0.1,0.7-0.3,0.7-0.7c0-0.3-0.3-0.5-0.7-0.4l-0.7,0.1l0,1.1
				L357.3,336.1L357.3,336.1z"/>
			<path fill="#FFFFFF" d="M360.6,334.5l0,2.6l-0.6,0.1l0-2.6l-1.1,0.2l0-0.5l2.8-0.5l0,0.5L360.6,334.5z"/>
		</g>
	</g>
</g>
</svg>
