<?xml version="1.0" encoding="utf-8"?>
<!-- Generator: Adobe Illustrator 18.1.1, SVG Export Plug-In . SVG Version: 6.00 Build 0)  -->
<svg version="1.1" id="Calque_1" xmlns="http://www.w3.org/2000/svg" xmlns:xlink="http://www.w3.org/1999/xlink" x="0px" y="0px"
	 viewBox="0 0 130 130" enable-background="new 0 0 130 130" xml:space="preserve">
<g>
	<defs>
		
			<rect id="SVGID_1_" x="41.2" y="6.5" transform="matrix(0.9253 0.3791 -0.3791 0.9253 21.5638 -29.0932)" width="86.9" height="67.3"/>
	</defs>
	<clipPath id="SVGID_2_">
		<use xlink:href="#SVGID_1_"  overflow="visible"/>
	</clipPath>
	<g clip-path="url(#SVGID_2_)">
		<g>
			<path fill="#447DC4" d="M114.7,36.9v6.5l0.3,0.8l-0.3,0.1v11.5l4.3-1.8l1,2.3c0.4,1-0.1,2.2-1.1,2.6L66.5,80.4
				c-1,0.4-2.2-0.1-2.6-1.1L63,77l40.1-16.4H74.9L59,67.1l-2.7-6.5h-2.7l8,19.7c0.7,1.7,2.3,2.8,4.1,2.8c0.6,0,1.1-0.1,1.7-0.3
				l52.5-21.4c2.3-0.9,3.3-3.5,2.4-5.8L114.7,36.9z"/>
			<polygon fill="#447DC4" points="100.3,43.1 100.3,41.5 99.3,43.1 			"/>
			<polygon fill="#447DC4" points="68.4,41.5 67.5,43.1 68.4,43.1 			"/>
			<path fill="#447DC4" d="M74.5,43.8c0.1-0.1,0.1-0.3,0.1-0.5c0-0.2-0.1-0.4-0.2-0.5s-0.2-0.2-0.4-0.2c-0.1,0-0.2,0-0.3,0.1
				c-0.1,0.1-0.2,0.3-0.2,0.5c0,0.2,0.1,0.4,0.2,0.5c0.1,0.1,0.2,0.2,0.4,0.2C74.2,43.9,74.4,43.9,74.5,43.8z"/>
			<path fill="#447DC4" d="M57.7,52.7c0.1,0,0.3,0,0.4-0.1c0.1-0.1,0.2-0.2,0.2-0.4v-0.2c0,0-0.1,0-0.1,0.1c0,0-0.1,0-0.2,0l-0.1,0
				c-0.1,0-0.2,0.1-0.3,0.1c-0.1,0.1-0.2,0.1-0.2,0.3c0,0.1,0,0.2,0.1,0.2C57.5,52.7,57.6,52.7,57.7,52.7z"/>
			<path fill="#447DC4" d="M82.7,43.9c0.2,0,0.3,0,0.4-0.1s0.1-0.2,0.1-0.4c0-0.2,0-0.3-0.1-0.4c-0.1-0.1-0.2-0.1-0.4-0.1
				s-0.3,0-0.4,0.1c-0.1,0.1-0.1,0.2-0.1,0.4c0,0.2,0,0.3,0.1,0.4C82.4,43.9,82.6,43.9,82.7,43.9z"/>
			<path fill="#447DC4" d="M64.5,51.1c-0.2,0-0.3,0-0.4,0.1C64,51.3,64,51.4,64,51.6H65c0-0.2-0.1-0.3-0.2-0.4
				C64.8,51.1,64.7,51.1,64.5,51.1z"/>
			<path fill="#447DC4" d="M85.6,41.3c-0.1,0-0.2,0-0.3,0.1c-0.1,0.1-0.2,0.3-0.2,0.6c0,0.2,0,0.4,0.1,0.5c0.1,0.1,0.2,0.2,0.4,0.2
				c0.1,0,0.2,0,0.3-0.1c0.2-0.1,0.2-0.3,0.2-0.5c0-0.2,0-0.4-0.1-0.5C85.9,41.4,85.8,41.3,85.6,41.3z"/>
			<path fill="#447DC4" d="M82.7,42.2c0.1,0,0.3,0,0.3-0.1c0.1-0.1,0.1-0.2,0.1-0.3c0-0.1,0-0.3-0.1-0.3c-0.1-0.1-0.2-0.1-0.3-0.1
				c-0.1,0-0.3,0-0.3,0.1c-0.1,0.1-0.1,0.2-0.1,0.3c0,0.1,0,0.2,0.1,0.3C82.5,42.2,82.6,42.2,82.7,42.2z"/>
			<path fill="#447DC4" d="M72.3,52c-0.1,0-0.2,0.1-0.3,0.1c-0.1,0.1-0.2,0.1-0.2,0.3c0,0.1,0,0.2,0.1,0.2c0.1,0,0.1,0.1,0.2,0.1
				c0.1,0,0.3,0,0.4-0.1c0.1-0.1,0.2-0.2,0.2-0.4v-0.2c0,0-0.1,0-0.1,0.1c0,0-0.1,0-0.2,0L72.3,52z"/>
			<path fill="#447DC4" d="M82.9,52c-0.1,0-0.2,0.1-0.3,0.1c-0.1,0.1-0.2,0.1-0.2,0.3c0,0.1,0,0.2,0.1,0.2c0.1,0,0.1,0.1,0.2,0.1
				c0.1,0,0.3,0,0.4-0.1c0.1-0.1,0.2-0.2,0.2-0.4v-0.2c0,0-0.1,0-0.1,0.1c0,0-0.1,0-0.2,0L82.9,52z"/>
			<path fill="#447DC4" d="M89.3,51.2c-0.1,0.1-0.1,0.2-0.2,0.4h1.1c0-0.2-0.1-0.3-0.2-0.4c-0.1-0.1-0.2-0.1-0.4-0.1
				C89.5,51.1,89.3,51.1,89.3,51.2z"/>
			<path fill="#447DC4" d="M105.9,43.9c0.2,0,0.3-0.1,0.4-0.2c0.1-0.1,0.1-0.3,0.1-0.5c0-0.2-0.1-0.4-0.2-0.5
				c-0.1-0.1-0.2-0.2-0.4-0.2c-0.1,0-0.2,0-0.3,0.1c-0.1,0.1-0.2,0.3-0.2,0.5c0,0.2,0.1,0.4,0.2,0.5
				C105.6,43.9,105.8,43.9,105.9,43.9z"/>
			<path fill="#447DC4" d="M53.4,43.6c0.1,0.2,0.2,0.3,0.4,0.3s0.4-0.1,0.4-0.3c0.1-0.2,0.1-0.5,0.1-0.8c0-0.1,0-0.1,0-0.2
				c0-0.4,0-0.8-0.1-1c-0.1-0.2-0.2-0.3-0.4-0.3s-0.4,0.1-0.4,0.3c-0.1,0.2-0.1,0.5-0.1,1c0,0.2,0,0.4,0,0.6
				C53.3,43.4,53.3,43.5,53.4,43.6z"/>
			<path fill="#447DC4" d="M49.6,57.9c0.6,0.3,1.2,0.4,1.9,0.4h1.2h2.7h25.1h28.2h0c1.2,0,2.3-0.5,3.1-1.3c0.8-0.8,1.4-2,1.4-3.2
				v-8.8v-5.3v-6.5V20.5c0-1.3-0.5-2.4-1.4-3.2c-0.8-0.8-1.9-1.3-3.1-1.3H51.5c-2.5,0-4.5,2-4.5,4.5v33.3
				C47.1,55.6,48.1,57.1,49.6,57.9z M52.5,42.6c0-0.6,0.1-1.1,0.3-1.4c0.2-0.3,0.5-0.5,1-0.5c0.5,0,0.8,0.2,1,0.5
				c0.2,0.3,0.3,0.7,0.3,1.3c0,0.1,0,0.1,0,0.1c0,0.6-0.1,1.1-0.3,1.4c-0.2,0.3-0.5,0.5-1,0.5c-0.5,0-0.8-0.2-1-0.5
				c-0.1-0.2-0.1-0.3-0.2-0.6C52.5,43.2,52.5,43,52.5,42.6z M87.1,27.9c0-3.4,2.7-6.1,6.1-6.1c1.3,0,2.5,0.4,3.5,1.2
				c1-0.8,2.3-1.3,3.8-1.3c1.2,0,2.4,0.4,3.3,1c0.8,0.5,1.4,1.2,1.9,2c0.5,0.9,0.8,1.9,0.8,3c0,3.3-2.7,6.1-6.1,6.1
				c-1.3,0-2.5-0.4-3.5-1.1c-1,0.8-2.4,1.4-3.8,1.4c-2,0-3.7-1-4.8-2.4c-0.5-0.7-0.9-1.4-1.1-2.2C87.1,28.9,87.1,28.4,87.1,27.9z
				 M85.9,51.3c-0.1-0.1-0.2-0.2-0.3-0.2c-0.2,0-0.3,0.1-0.4,0.2c0,0.1,0,0.2,0,0.3v1.5h-0.6v-2.4h0.6V51c0.1-0.1,0.2-0.2,0.2-0.3
				c0.1-0.1,0.3-0.1,0.5-0.1c0.2,0,0.3,0,0.5,0.1c0.1,0.1,0.2,0.2,0.2,0.3c0.1-0.1,0.2-0.2,0.3-0.3c0.1-0.1,0.3-0.1,0.4-0.1
				c0.1,0,0.2,0,0.3,0.1c0.1,0,0.2,0.1,0.3,0.2c0.1,0.1,0.1,0.2,0.1,0.3c0,0.1,0,0.2,0,0.4l0,1.5h-0.6v-1.5c0-0.1,0-0.2,0-0.2
				c-0.1-0.1-0.2-0.2-0.3-0.2c-0.2,0-0.3,0.1-0.4,0.2c0,0.1-0.1,0.2-0.1,0.3v1.4H86v-1.4C86,51.5,86,51.4,85.9,51.3z M86,43.1
				c-0.1,0.1-0.3,0.1-0.5,0.1c-0.3,0-0.6-0.1-0.8-0.3s-0.3-0.5-0.3-0.9c0-0.4,0.1-0.7,0.3-1c0.2-0.2,0.5-0.4,0.9-0.4
				c0.6,0,0.9,0.2,1.2,0.7c0.1,0.3,0.2,0.7,0.2,1.1c0,0.4-0.1,0.8-0.2,1.1c-0.2,0.6-0.6,0.9-1.2,0.9c-0.3,0-0.5-0.1-0.7-0.2
				c-0.2-0.2-0.3-0.4-0.4-0.7h0.7c0,0.1,0.1,0.2,0.1,0.3s0.2,0.1,0.3,0.1c0.2,0,0.4-0.1,0.5-0.4c0.1-0.1,0.1-0.4,0.1-0.6
				C86.1,43,86,43.1,86,43.1z M81.6,42.1c-0.1-0.1-0.1-0.3-0.1-0.4c0-0.3,0.1-0.5,0.3-0.7c0.2-0.2,0.5-0.3,0.9-0.3
				c0.4,0,0.7,0.1,0.9,0.3c0.2,0.2,0.3,0.4,0.3,0.7c0,0.1,0,0.2-0.1,0.4c-0.1,0.1-0.2,0.3-0.3,0.4c0.2,0.1,0.3,0.2,0.4,0.4
				C84,43,84,43.2,84,43.4c0,0.3-0.1,0.6-0.3,0.8c-0.2,0.2-0.6,0.3-1,0.3c-0.4,0-0.7-0.1-0.9-0.3s-0.3-0.5-0.3-0.8
				c0-0.2,0-0.4,0.1-0.6c0.1-0.2,0.2-0.3,0.4-0.4C81.8,42.4,81.7,42.2,81.6,42.1z M83.3,51.1c-0.1,0-0.2-0.1-0.3-0.1
				c-0.2,0-0.3,0-0.3,0.1c0,0.1-0.1,0.1-0.1,0.2h-0.6c0-0.2,0.1-0.4,0.2-0.5c0.2-0.2,0.5-0.3,0.9-0.3c0.3,0,0.5,0.1,0.7,0.2
				c0.2,0.1,0.3,0.3,0.3,0.6v1.1c0,0.1,0,0.2,0,0.3c0,0.1,0,0.1,0,0.2c0,0,0.1,0.1,0.1,0.1v0.1h-0.7c0,0,0-0.1,0-0.1
				c0,0,0-0.1,0-0.1c-0.1,0.1-0.2,0.2-0.3,0.2c-0.1,0.1-0.3,0.1-0.5,0.1c-0.2,0-0.4-0.1-0.5-0.2c-0.1-0.1-0.2-0.3-0.2-0.5
				c0-0.3,0.1-0.5,0.3-0.6c0.1-0.1,0.3-0.1,0.6-0.2l0.2,0c0.1,0,0.2,0,0.3-0.1c0.1,0,0.1-0.1,0.1-0.2C83.4,51.2,83.3,51.2,83.3,51.1
				z M80.7,51.3c-0.1-0.1-0.2-0.2-0.4-0.2c-0.2,0-0.4,0.1-0.4,0.3c0,0.1-0.1,0.2-0.1,0.4v1.3h-0.6v-2.4h0.6V51
				c0.1-0.1,0.2-0.2,0.2-0.3c0.1-0.1,0.3-0.1,0.5-0.1c0.3,0,0.5,0.1,0.6,0.2c0.2,0.1,0.2,0.3,0.2,0.7v1.6h-0.7v-1.5
				C80.8,51.5,80.8,51.4,80.7,51.3z M77.2,52.6c0,0,0.1,0,0.2,0c0,0,0,0,0.1,0c0,0,0,0,0.1,0v0.5l-0.3,0c-0.3,0-0.5,0-0.6-0.2
				c-0.1-0.1-0.1-0.2-0.1-0.3v-1.5h-0.3v-0.5h0.3V50h0.6v0.7h0.4v0.5h-0.4v1.3C77.2,52.5,77.2,52.6,77.2,52.6z M77.3,42.8
				c-0.1,0.2-0.2,0.5-0.3,0.8c-0.1,0.3-0.1,0.6-0.1,0.8h-0.8c0-0.7,0.2-1.3,0.7-2.1c0.3-0.4,0.5-0.8,0.7-0.9h-1.8l0-0.7h2.6v0.6
				c-0.1,0.1-0.3,0.3-0.5,0.6C77.6,42.2,77.4,42.5,77.3,42.8z M67,43.6V43l1.4-2.2h0.8v2.3h0.4v0.6h-0.4v0.8h-0.7v-0.8L67,43.6
				L67,43.6z M68.6,49.8h0.7v2.7h1.6v0.6h-2.3V49.8z M70.2,44.2c-0.2-0.2-0.4-0.5-0.4-0.8h0.7c0,0.2,0.1,0.3,0.2,0.4
				c0.1,0.1,0.2,0.1,0.4,0.1c0.2,0,0.3-0.1,0.4-0.2c0.1-0.1,0.1-0.3,0.1-0.5c0-0.2,0-0.3-0.1-0.5c-0.1-0.1-0.2-0.2-0.4-0.2
				c-0.1,0-0.2,0-0.2,0c-0.1,0-0.2,0.1-0.3,0.2l-0.6,0l0.3-2h2v0.6h-1.5l-0.1,0.8c0.1-0.1,0.2-0.1,0.3-0.1c0.1,0,0.2-0.1,0.4-0.1
				c0.3,0,0.6,0.1,0.8,0.3c0.2,0.2,0.3,0.5,0.3,0.9c0,0.3-0.1,0.6-0.3,0.9c-0.2,0.3-0.5,0.4-1,0.4C70.7,44.5,70.5,44.4,70.2,44.2z
				 M72.6,51.1c-0.1,0-0.2-0.1-0.3-0.1c-0.2,0-0.3,0-0.3,0.1c0,0.1-0.1,0.1-0.1,0.2h-0.6c0-0.2,0.1-0.4,0.2-0.5
				c0.2-0.2,0.5-0.3,0.9-0.3c0.3,0,0.5,0.1,0.7,0.2c0.2,0.1,0.3,0.3,0.3,0.6v1.1c0,0.1,0,0.2,0,0.3c0,0.1,0,0.1,0,0.2
				c0,0,0.1,0.1,0.1,0.1v0.1h-0.7c0,0,0-0.1,0-0.1c0,0,0-0.1,0-0.1c-0.1,0.1-0.2,0.2-0.3,0.2c-0.1,0.1-0.3,0.1-0.5,0.1
				c-0.2,0-0.4-0.1-0.5-0.2c-0.1-0.1-0.2-0.3-0.2-0.5c0-0.3,0.1-0.5,0.3-0.6c0.1-0.1,0.3-0.1,0.6-0.2l0.2,0c0.1,0,0.2,0,0.3-0.1
				c0.1,0,0.1-0.1,0.1-0.2C72.7,51.2,72.7,51.2,72.6,51.1z M73,43.9c-0.2-0.3-0.3-0.7-0.3-1.2c0-0.3,0-0.5,0-0.7
				c0-0.3,0.1-0.6,0.2-0.8c0.1-0.2,0.2-0.3,0.4-0.4c0.2-0.1,0.4-0.2,0.6-0.2c0.3,0,0.6,0.1,0.8,0.3c0.2,0.2,0.3,0.4,0.3,0.7h-0.7
				c0-0.1,0-0.1-0.1-0.2c-0.1-0.1-0.2-0.2-0.4-0.2c-0.2,0-0.4,0.1-0.5,0.4c-0.1,0.1-0.1,0.4-0.1,0.6c0.1-0.1,0.2-0.2,0.3-0.2
				c0.1,0,0.3-0.1,0.4-0.1c0.3,0,0.6,0.1,0.8,0.3c0.2,0.2,0.3,0.5,0.3,0.9s-0.1,0.6-0.3,0.9s-0.5,0.4-1,0.4
				C73.6,44.5,73.3,44.3,73,43.9z M75.2,52.3c-0.1,0-0.3-0.1-0.7-0.2c-0.3-0.1-0.5-0.2-0.6-0.3c-0.1-0.1-0.2-0.2-0.2-0.4
				c0-0.2,0.1-0.4,0.3-0.6c0.2-0.2,0.4-0.2,0.7-0.2c0.3,0,0.6,0.1,0.7,0.2c0.2,0.1,0.3,0.3,0.3,0.6h-0.6c0-0.1,0-0.1-0.1-0.2
				C75.1,51.1,75,51,74.8,51c-0.1,0-0.2,0-0.3,0.1c-0.1,0-0.1,0.1-0.1,0.2c0,0.1,0,0.1,0.1,0.2c0.1,0,0.3,0.1,0.7,0.2
				c0.3,0.1,0.4,0.1,0.6,0.3c0.1,0.1,0.2,0.3,0.2,0.5c0,0.2-0.1,0.4-0.3,0.6c-0.2,0.2-0.5,0.2-0.8,0.2c-0.4,0-0.7-0.1-0.8-0.2
				c-0.2-0.2-0.3-0.4-0.3-0.6h0.6c0,0.1,0,0.2,0.1,0.2c0.1,0.1,0.2,0.1,0.4,0.1c0.1,0,0.2,0,0.3-0.1c0.1,0,0.1-0.1,0.1-0.2
				C75.3,52.4,75.3,52.3,75.2,52.3z M64.2,52.5c0.1,0.1,0.2,0.1,0.4,0.1c0.1,0,0.3,0,0.4-0.1c0,0,0.1-0.1,0.1-0.2h0.6
				c0,0.1-0.1,0.3-0.2,0.4c-0.2,0.2-0.5,0.4-0.9,0.4c-0.3,0-0.6-0.1-0.9-0.3c-0.2-0.2-0.4-0.5-0.4-1c0-0.4,0.1-0.7,0.3-1
				c0.2-0.2,0.5-0.3,0.9-0.3c0.2,0,0.4,0,0.6,0.1c0.2,0.1,0.3,0.2,0.4,0.4c0.1,0.1,0.2,0.3,0.2,0.5c0,0.1,0,0.3,0,0.5h-1.8
				C63.9,52.3,64,52.4,64.2,52.5z M63.6,41.7c0,0.2-0.1,0.4-0.2,0.6c-0.1,0.1-0.2,0.2-0.3,0.2c0.1,0,0.2,0.1,0.3,0.2
				c0.2,0.2,0.3,0.4,0.3,0.7c0,0.3-0.1,0.6-0.3,0.8c-0.2,0.2-0.5,0.4-1,0.4c-0.5,0-0.9-0.2-1.1-0.5c-0.1-0.2-0.2-0.4-0.2-0.7h0.7
				c0,0.1,0,0.3,0.1,0.4c0.1,0.2,0.2,0.3,0.5,0.3c0.1,0,0.3,0,0.4-0.1c0.1-0.1,0.2-0.2,0.2-0.4c0-0.2-0.1-0.4-0.3-0.5
				c-0.1,0-0.3-0.1-0.5-0.1v-0.5c0.2,0,0.4,0,0.5-0.1c0.1,0,0.2-0.1,0.2-0.3c0-0.1,0-0.1,0-0.2c0-0.1,0-0.3-0.1-0.3
				c-0.1-0.1-0.2-0.1-0.3-0.1c-0.2,0-0.3,0.1-0.4,0.2c-0.1,0.1-0.1,0.3-0.1,0.4h-0.7c0-0.2,0-0.4,0.1-0.5c0.1-0.1,0.2-0.3,0.3-0.4
				c0.1-0.1,0.2-0.2,0.3-0.2c0.1,0,0.3-0.1,0.5-0.1c0.4,0,0.6,0.1,0.9,0.3C63.5,41.2,63.6,41.4,63.6,41.7
				C63.6,41.7,63.6,41.7,63.6,41.7z M62.2,51.3c-0.1-0.1-0.2-0.2-0.3-0.2c-0.2,0-0.3,0.1-0.4,0.2c0,0.1-0.1,0.2-0.1,0.3v1.4h-0.6
				v-1.4c0-0.1,0-0.3,0-0.3c-0.1-0.1-0.2-0.2-0.3-0.2c-0.2,0-0.3,0.1-0.4,0.2c0,0.1,0,0.2,0,0.3v1.5h-0.6v-2.4H60V51
				c0.1-0.1,0.2-0.2,0.2-0.3c0.1-0.1,0.3-0.1,0.5-0.1c0.2,0,0.3,0,0.5,0.1c0.1,0.1,0.2,0.2,0.2,0.3c0.1-0.1,0.2-0.2,0.3-0.3
				c0.1-0.1,0.3-0.1,0.4-0.1c0.1,0,0.2,0,0.3,0.1c0.1,0,0.2,0.1,0.3,0.2c0.1,0.1,0.1,0.2,0.1,0.3c0,0.1,0,0.2,0,0.4l0,1.5h-0.7v-1.5
				C62.3,51.4,62.2,51.3,62.2,51.3z M91.8,41.5c-0.1-0.1-0.2-0.2-0.4-0.2c-0.2,0-0.4,0.1-0.4,0.2c0,0.1-0.1,0.2-0.1,0.5h-0.7
				c0-0.3,0.1-0.6,0.2-0.8c0.2-0.4,0.5-0.6,1-0.6c0.4,0,0.7,0.1,0.9,0.3c0.2,0.2,0.3,0.5,0.3,0.9c0,0.3-0.1,0.5-0.2,0.7
				c-0.1,0.1-0.3,0.3-0.5,0.5l-0.3,0.2c-0.2,0.1-0.3,0.2-0.4,0.3c-0.1,0.1-0.1,0.1-0.2,0.2h1.6v0.6h-2.5c0-0.3,0.1-0.5,0.2-0.7
				c0.1-0.2,0.3-0.5,0.7-0.8c0.3-0.2,0.6-0.4,0.6-0.5c0.1-0.2,0.2-0.3,0.2-0.5C91.9,41.7,91.9,41.6,91.8,41.5z M90.2,50.7
				c0.2,0.1,0.3,0.2,0.4,0.4c0.1,0.1,0.2,0.3,0.2,0.5c0,0.1,0,0.3,0,0.5h-1.8c0,0.2,0.1,0.4,0.3,0.5c0.1,0.1,0.2,0.1,0.4,0.1
				c0.1,0,0.3,0,0.4-0.1c0,0,0.1-0.1,0.1-0.2h0.6c0,0.1-0.1,0.3-0.2,0.4c-0.2,0.2-0.5,0.4-0.9,0.4c-0.3,0-0.6-0.1-0.9-0.3
				s-0.4-0.5-0.4-1c0-0.4,0.1-0.7,0.3-1c0.2-0.2,0.5-0.3,0.9-0.3C89.8,50.6,90,50.6,90.2,50.7z M89.1,44.4h-0.7v-2.5h-0.9v-0.5
				c0.2,0,0.4,0,0.5,0c0.1,0,0.3-0.1,0.4-0.2c0.1-0.1,0.1-0.2,0.1-0.3c0-0.1,0-0.1,0-0.1h0.6V44.4z M97.4,42.9
				c-0.1,0-0.3-0.1-0.5-0.1v-0.5c0.2,0,0.4,0,0.5-0.1c0.2-0.1,0.2-0.2,0.2-0.4c0-0.1,0-0.3-0.1-0.3c-0.1-0.1-0.2-0.1-0.3-0.1
				c-0.2,0-0.3,0.1-0.4,0.2c-0.1,0.1-0.1,0.3-0.1,0.4H96c0-0.2,0-0.4,0.1-0.5c0.1-0.1,0.2-0.3,0.3-0.4c0.1-0.1,0.2-0.2,0.3-0.2
				c0.1,0,0.3-0.1,0.5-0.1c0.4,0,0.6,0.1,0.9,0.3c0.2,0.2,0.3,0.4,0.3,0.7c0,0.2-0.1,0.4-0.2,0.5c-0.1,0.1-0.2,0.2-0.3,0.2
				c0.1,0,0.2,0.1,0.3,0.2c0.2,0.2,0.3,0.4,0.3,0.7c0,0.3-0.1,0.6-0.3,0.8c-0.2,0.2-0.5,0.4-1,0.4c-0.5,0-0.9-0.2-1.1-0.5
				c-0.1-0.2-0.2-0.4-0.2-0.7h0.7c0,0.1,0,0.3,0.1,0.4c0.1,0.2,0.2,0.3,0.5,0.3c0.1,0,0.3,0,0.4-0.1c0.1-0.1,0.2-0.2,0.2-0.4
				C97.7,43.1,97.6,43,97.4,42.9z M101.4,43.1v0.6H101v0.8h-0.7v-0.8h-1.5V43l1.4-2.2h0.8v2.3H101.4z M103.4,42.8
				c-0.1-0.1-0.2-0.2-0.4-0.2c-0.1,0-0.2,0-0.2,0c-0.1,0-0.2,0.1-0.3,0.2l-0.6,0l0.3-2h2v0.6h-1.5l-0.1,0.8c0.1-0.1,0.2-0.1,0.3-0.1
				c0.1,0,0.2-0.1,0.4-0.1c0.3,0,0.6,0.1,0.8,0.3c0.2,0.2,0.3,0.5,0.3,0.9c0,0.3-0.1,0.6-0.3,0.9s-0.5,0.4-1,0.4
				c-0.4,0-0.6-0.1-0.9-0.3c-0.2-0.2-0.4-0.5-0.4-0.8h0.7c0,0.2,0.1,0.3,0.2,0.4c0.1,0.1,0.2,0.1,0.4,0.1c0.2,0,0.3-0.1,0.4-0.2
				c0.1-0.1,0.1-0.3,0.1-0.5C103.5,43.1,103.4,42.9,103.4,42.8z M107.1,41.7h-0.7c0-0.1,0-0.1-0.1-0.2c-0.1-0.1-0.2-0.2-0.4-0.2
				c-0.2,0-0.4,0.1-0.5,0.4c-0.1,0.1-0.1,0.4-0.1,0.6c0.1-0.1,0.2-0.2,0.3-0.2c0.1,0,0.3-0.1,0.4-0.1c0.3,0,0.6,0.1,0.8,0.3
				c0.2,0.2,0.3,0.5,0.3,0.9c0,0.3-0.1,0.6-0.3,0.9s-0.5,0.4-1,0.4c-0.5,0-0.8-0.2-1-0.6c-0.2-0.3-0.3-0.7-0.3-1.2
				c0-0.3,0-0.5,0-0.7c0-0.3,0.1-0.6,0.2-0.8c0.1-0.2,0.2-0.3,0.4-0.4c0.2-0.1,0.4-0.2,0.6-0.2c0.3,0,0.6,0.1,0.8,0.3
				C106.9,41.2,107.1,41.4,107.1,41.7z M59.5,40.7c0.4,0,0.7,0.1,0.9,0.3c0.2,0.2,0.3,0.5,0.3,0.9c0,0.3-0.1,0.5-0.2,0.7
				c-0.1,0.1-0.3,0.3-0.5,0.5c0,0,0,0,0,0l-0.3,0.2c-0.2,0.1-0.3,0.2-0.4,0.3c-0.1,0.1-0.1,0.1-0.2,0.2h1.6v0.6h-2.5
				c0-0.2,0.1-0.5,0.2-0.7c0,0,0,0,0,0c0.1-0.2,0.3-0.5,0.7-0.8c0.3-0.2,0.6-0.4,0.6-0.5c0.2-0.2,0.2-0.3,0.2-0.5
				c0-0.2,0-0.3-0.1-0.4c-0.1-0.1-0.2-0.2-0.4-0.2c-0.2,0-0.4,0.1-0.4,0.2c0,0.1-0.1,0.2-0.1,0.5h-0.7c0-0.3,0.1-0.6,0.2-0.8
				c0.1-0.2,0.2-0.3,0.4-0.4c0.1,0,0.1-0.1,0.2-0.1C59.2,40.8,59.4,40.7,59.5,40.7z M54.3,53.1h-0.6v-3.3h0.7l1.3,2.3v-2.3h0.6v3.3
				h-0.7l-1.3-2.3L54.3,53.1L54.3,53.1z M56.5,44.4v-2.5v0h-0.9v-0.5c0.2,0,0.4,0,0.5,0c0.1,0,0.3-0.1,0.4-0.2
				c0.1-0.1,0.1-0.2,0.1-0.3c0-0.1,0-0.1,0-0.1h0.6v0.8v2.7v0.2h-0.4L56.5,44.4L56.5,44.4z M54.1,32.9v-2.3h2.4V33L54.1,32.9
				C54.1,33,54.1,32.9,54.1,32.9z M56.4,36.1c-0.9-0.3-1.7-1-2.1-1.8h2.1V36.1z M57.7,34.2h2v2h-2V34.2z M61,34.2H63
				c-0.4,0.9-1.2,1.6-2.1,1.8C61,36.1,61,34.2,61,34.2z M63.3,32.9C63.3,32.9,63.3,33,63.3,32.9L61,33v-2.4h2.4L63.3,32.9L63.3,32.9
				z M60.3,29.3L60.3,29.3l-0.6,0V33h-2v-6H60c1.5,0,2.7,1,3.1,2.3L60.3,29.3L60.3,29.3z M56.4,29.3h-2.2c0.3-1.1,1.1-1.9,2.2-2.2
				V29.3z M57.1,51.8c0.1-0.1,0.3-0.1,0.6-0.2l0.2,0c0.1,0,0.2,0,0.3-0.1c0.1,0,0.1-0.1,0.1-0.2c0-0.1,0-0.2-0.1-0.2
				c-0.1,0-0.2-0.1-0.3-0.1c-0.2,0-0.3,0-0.3,0.1c0,0.1-0.1,0.1-0.1,0.2h-0.6c0-0.2,0.1-0.4,0.2-0.5c0.2-0.2,0.5-0.3,0.9-0.3
				c0.3,0,0.5,0.1,0.7,0.2c0.2,0.1,0.3,0.3,0.3,0.6v1.1c0,0.1,0,0.2,0,0.3c0,0.1,0,0.1,0,0.2c0,0,0.1,0.1,0.1,0.1v0.1h-0.7
				c0,0,0-0.1,0-0.1c0,0,0-0.1,0-0.1C58.2,52.9,58.1,53,58,53c-0.1,0.1-0.3,0.1-0.5,0.1c-0.2,0-0.4-0.1-0.5-0.2
				c-0.1-0.1-0.2-0.3-0.2-0.5C56.7,52.1,56.8,51.9,57.1,51.8z"/>
			<path fill="#447DC4" d="M89.5,31.1c0.9,1,2.2,1.7,3.6,1.7c1,0,2-0.3,2.8-0.9h0.2h0.8H97h0.7H98c0,0,0,0,0,0
				c0.3-0.3,0.6-0.6,0.9-0.9h-0.5h-0.7h-0.8h0h-0.8h-0.8c-0.1-0.2-0.3-0.5-0.4-0.7h0.7h0.7h1h0.7h0.7h0.6c0.2-0.3,0.3-0.6,0.4-0.9
				h-0.7h-0.6h-0.6h-1.9h-0.6h-0.6c0-0.1-0.1-0.1-0.1-0.2c0-0.2-0.1-0.4-0.1-0.6h0.6h0.6H96h2h0.6h0.6h0.8c0-0.2,0.1-0.5,0.1-0.7
				c0-0.1,0-0.1,0-0.2h-0.8h-0.6h-0.3H98h-2.3H95h-0.6c0-0.3,0-0.5,0.1-0.8h0.6h0.6h2.1h0.6h0.6h0.8c-0.1-0.3-0.2-0.6-0.3-0.9h-0.8
				h-0.6h-0.7H96h0h-0.6h-0.6c0.1-0.3,0.2-0.5,0.3-0.8h0.7h0.7H97h0.8H98h0.5h0.8c-0.1-0.1-0.2-0.3-0.3-0.4
				c-0.1-0.2-0.3-0.4-0.4-0.5h-0.7h-0.5h-0.3h-0.6h-0.3h-0.5c0.1-0.1,0.1-0.1,0.2-0.2c-0.8-0.5-1.7-0.8-2.7-0.8
				c-2.7,0-4.9,2.2-4.9,4.9c0,0.3,0,0.7,0.1,1C88.6,29.7,89,30.5,89.5,31.1z"/>
		</g>
	</g>
</g>
<g>
	<g>
		<rect x="81.2" y="61.1" fill="none" width="48.5" height="48.5"/>
		<path fill="#FBE05B" d="M96.2,100.5c-8,0-14.5-3.6-14.6-8c0,1.7,0,3.2,0,3.2c0,4.4,6.5,8,14.6,8s14.6-3.6,14.6-8v-3.2
			C110.7,96.9,104.2,100.5,96.2,100.5z M96.2,106.1c-8,0-14.5-3.6-14.6-8c0,1.7,0,3.2,0,3.2c0,4.4,6.5,8,14.6,8s14.6-3.6,14.6-8
			v-3.2C110.7,102.5,104.2,106.1,96.2,106.1z"/>
		<g>
			<path fill="#FBE05B" d="M114.7,96.7c-0.5,0-0.9,0-1.4,0c0,0.1,0,0.3,0,0.4c0.1,0.3,0.1,0.6,0.1,0.9v1.9c0.4,0,0.8,0,1.3,0
				c8.1,0,14.6-3.6,14.6-8v-3.2C129.3,93.1,122.8,96.7,114.7,96.7z"/>
			<path fill="#FBE05B" d="M114.7,91.1c-0.5,0-0.9,0-1.4,0c0,0.1,0,0.3,0,0.4c0.1,0.3,0.1,0.6,0.1,0.9v1.9c0.4,0,0.8,0,1.3,0
				c8.1,0,14.6-3.6,14.6-8v-3.2C129.3,87.5,122.8,91.1,114.7,91.1z"/>
			<path fill="#FBE05B" d="M114.7,79.9c-8,0-14.5-3.6-14.6-8c0,1.7,0,3.2,0,3.2c0,1.9,1.2,3.6,3.2,5c2,0.6,3.8,1.3,5.3,2.3
				c1.9,0.5,3.9,0.7,6.1,0.7c8.1,0,14.6-3.6,14.6-8v-3.2C129.3,76.3,122.8,79.9,114.7,79.9z"/>
			<path fill="#FBE05B" d="M114.7,85.5c-1,0-1.9-0.1-2.9-0.2c0.7,1,1.2,2.1,1.5,3.3c0.5,0,0.9,0,1.4,0c8.1,0,14.6-3.6,14.6-8v-3.1
				C129.3,81.9,122.8,85.5,114.7,85.5z"/>
		</g>
		<path fill="#FBE05B" d="M114.7,61.4c-8.1,0-14.6,3.6-14.6,8s6.5,8,14.6,8s14.6-3.6,14.6-8S122.8,61.4,114.7,61.4z"/>
		<path fill="#FBE05B" d="M96.2,82c-8.1,0-14.6,3.6-14.6,8c0,4.4,6.5,8,14.6,8s14.6-3.6,14.6-8C110.7,85.6,104.2,82,96.2,82z"/>
	</g>
</g>
<g>
	<rect x="0.3" y="75.8" fill="#89C8A8" width="75.7" height="32.3"/>
	<polygon fill="#FFFFFF" points="3.8,82.4 2.2,82.4 2.2,77.6 6.9,77.6 6.9,79.2 3.8,79.2 	"/>
	<polygon fill="#FFFFFF" points="74.2,82.4 72.6,82.4 72.6,79.2 69.3,79.2 69.3,77.6 74.2,77.6 	"/>
	<polygon fill="#FFFFFF" points="6.9,106.3 2.2,106.3 2.2,101.5 3.8,101.5 3.8,104.8 6.9,104.8 	"/>
	<polygon fill="#FFFFFF" points="74.2,106.3 69.3,106.3 69.3,104.8 72.6,104.8 72.6,101.5 74.2,101.5 	"/>
	<path fill="#FFFFFF" d="M48.6,92c0,5.7-4.7,10.4-10.4,10.4c-5.7,0-10.4-4.7-10.4-10.4s4.7-10.4,10.4-10.4
		C43.9,81.6,48.6,86.2,48.6,92z"/>
	<g>
		<path fill="#89C8A8" d="M41.8,93.2h2.8c-0.5,3.3-3,5.5-6.3,5.5c-2.9,0-5.4-1.7-6.3-4.3h-1.8v-1.7h1.5c0-0.2,0-0.5,0-0.7v-0.4h-1.4
			v-1.7h1.7c0.9-2.8,3.4-4.6,6.4-4.6c3.3,0,5.8,2.2,6.3,5.5H42c-0.4-1.8-1.7-2.9-3.5-2.9c-1.6,0-2.8,0.8-3.5,2h4.8l-0.5,1.7h-4.8V92
			c0,0.2,0,0.5,0.1,0.7h4.5l-0.4,1.7h-3.4c0.7,1,1.9,1.6,3.3,1.6C40.2,96,41.4,95,41.8,93.2z"/>
	</g>
</g>
<g>
	<polygon fill="#FDDCAE" points="80.6,72.8 82.4,67.5 11.3,41.6 0.3,72 2.4,72.8 	"/>
	<path fill="#FFFFFF" d="M51.3,72.8c1.6-5.3-1.2-10.9-6.4-12.8c-5.4-2-11.4,0.8-13.3,6.2c-0.8,2.2-0.8,4.5-0.2,6.6
		C31.4,72.8,51.3,72.8,51.3,72.8z"/>
	<polygon fill="#FFFFFF" points="12.3,48.9 10.9,48.4 12.6,44 16.9,45.6 16.4,47 13.4,45.9 	"/>
	<polygon fill="#FFFFFF" points="78.4,73 77.1,72.5 78.2,69.5 75.2,68.4 75.7,67 80.1,68.6 	"/>
	<polygon fill="#FFFFFF" points="7.1,72.5 2.8,70.9 4.3,66.4 5.8,67 4.6,70 7.6,71.1 	"/>
	<g>
		<path fill="#FDDCAE" d="M35.4,72.8h3.3c-0.5-0.5-0.9-1.1-1.1-1.8l3.2,1.2l1-1.5l-4.2-1.6c0-0.2,0.1-0.5,0.2-0.7l0.1-0.3l4.5,1.6
			l1-1.5l-4.5-1.6c1-1,2.5-1.2,3.9-0.7c1.7,0.6,2.6,2,2.4,3.9l2.6,1c0.6-3.3-1-6.2-4.1-7.3c-2.9-1-5.9-0.2-7.6,2.1L34.5,65l-0.6,1.6
			l1.3,0.5l-0.1,0.3c-0.1,0.2-0.1,0.5-0.2,0.7l-1.4-0.5l-0.6,1.6l1.7,0.6C34.8,70.9,35.1,71.9,35.4,72.8z"/>
		<path fill="#FDDCAE" d="M43.9,72.8h2.2l-1.7-0.6C44.3,72.4,44.2,72.6,43.9,72.8z"/>
	</g>
</g>
</svg>
