<?xml version="1.0" encoding="utf-8"?>
<!-- Generator: Adobe Illustrator 18.1.1, SVG Export Plug-In . SVG Version: 6.00 Build 0)  -->
<svg version="1.1" id="Calque_1" xmlns="http://www.w3.org/2000/svg" xmlns:xlink="http://www.w3.org/1999/xlink" x="0px" y="0px"
	 viewBox="0 0 80 50.2" enable-background="new 0 0 80 50.2" xml:space="preserve">
<g>
	<path fill="#447DC4" d="M41.5,34.9c-3-2.6-6.1-4.2-9.1-1.6l-1.8,1.6c-1.3,1.1-3.7,6.4-13.1-4.4C8.1,19.7,13.7,18,15,16.9l1.8-1.6
		c3-2.6,1.9-5.9-0.3-9.2l-1.3-2c-2.2-3.4-4.5-5.6-7.5-3L6.1,2.5c-1.3,1-5,4.1-5.9,10c-1.1,7.1,2.3,15.3,10.1,24.2
		c7.8,9,15.4,13.4,22.6,13.4c6-0.1,9.6-3.3,10.7-4.4l1.6-1.4c3-2.6,1.1-5.2-1.9-7.8L41.5,34.9z"/>
	<g>
		<path fill="#FBDD4A" d="M36.5,20.9c0,3-2.4,5.2-6.1,5.2c-3.9,0-5.8-2-6.3-5.1h3.5c0.4,1.3,1,2.1,2.9,2.1c1.6,0,2.7-0.9,2.7-2.2
			c0-1.4-1.2-2.2-3-2.2h-1.4v-2.8h1.4c1.5,0,2.5-0.9,2.5-2.2c0-1.4-0.9-2.2-2.2-2.2c-1.3,0-2.3,0.9-2.4,2.1h-3.5
			c0.2-3.1,2.5-5.1,5.8-5.1c3.4,0,5.6,2.2,5.6,5.2c0,1.6-0.6,2.8-1.7,3.6C35.6,17.9,36.5,19.1,36.5,20.9z"/>
		<path fill="#FBDD4A" d="M45.3,13.9c3.8,0.1,6.5,2.6,6.5,6c0,3.5-2.8,6.2-6.7,6.2c-4,0-6.7-2.8-6.7-6.1c0-1.5,0.6-2.7,1.6-4.3
			l4.5-7.1h4.2L45.3,13.9z M48.3,20.1c0-1.6-1.3-3.1-3.2-3.1c-0.8,0-1.6,0.3-2.2,0.7l0,0c-0.8,1.1-1,1.7-1,2.4
			c0,1.6,1.3,3.1,3.2,3.1C47,23.2,48.3,21.7,48.3,20.1z"/>
		<path fill="#FBDD4A" d="M66.2,20.9c0,3-2.4,5.2-6.1,5.2c-3.9,0-5.8-2-6.3-5.1h3.5c0.3,1.3,1,2.1,2.9,2.1c1.6,0,2.7-0.9,2.7-2.2
			c0-1.4-1.2-2.2-3-2.2h-1.4v-2.8h1.4c1.5,0,2.5-0.9,2.5-2.2c0-1.4-0.9-2.2-2.2-2.2c-1.3,0-2.3,0.9-2.4,2.1h-3.5
			c0.2-3.1,2.5-5.1,5.8-5.1c3.4,0,5.6,2.2,5.6,5.2c0,1.6-0.6,2.8-1.7,3.6C65.4,17.9,66.2,19.1,66.2,20.9z"/>
		<path fill="#FBDD4A" d="M80,25.7H68v-3h4.3V12.5l-4.1,1.2v-3.1l5.6-2h2.1v14.1H80V25.7z"/>
	</g>
</g>
</svg>
