<?xml version="1.0" encoding="utf-8"?>
<!-- Generator: Adobe Illustrator 18.1.1, SVG Export Plug-In . SVG Version: 6.00 Build 0)  -->
<svg version="1.1" id="Calque_1" xmlns="http://www.w3.org/2000/svg" xmlns:xlink="http://www.w3.org/1999/xlink" x="0px" y="0px"
	 viewBox="0 0 80 80" enable-background="new 0 0 80 80" xml:space="preserve">
<path fill="#79C099" d="M76.6,40.2C76.6,60.5,60.1,77,39.8,77C19.5,77,3,60.5,3,40.2C3,19.9,19.5,3.4,39.8,3.4
	C60.1,3.4,76.6,19.9,76.6,40.2z"/>
<path fill-rule="evenodd" clip-rule="evenodd" fill="#A0D9F2" d="M15.9,46.4c0.1-0.1,0.3-0.1,0.6,0c0.2,0,0.4,0,0.7,0.2v0
	c0.8,0.3,1.5,0.9,1.1,1.9c-0.6,0.2-1.2-0.2-1.6-0.7C15.4,47,15.4,46.6,15.9,46.4z M23.3,36.3c0.2,0-0.1,0.4-0.5,0.3h0l-0.1-0.1
	C23,36.3,23.2,36.3,23.3,36.3z M30.9,33.3c1-0.1,3,0.6,1.1,1.7c0.7-0.6-0.4-0.4-0.5-0.3C30.2,33.8,30.3,33.4,30.9,33.3z M51.9,27.8
	c0.8-0.1,2.6,0.7,2.4,1.9c-0.8,1.2-3,1.2-2.1-0.7C51.2,28.1,51.3,27.8,51.9,27.8z M31,19.2c2.4-0.2,1.9,5.2-0.1,6
	c-1.8-1.6,0.6-4-0.4-5.8C30.7,19.3,30.9,19.2,31,19.2z M38.5,15.1c1.4-0.2,3,0.4,3.4,2.2c1,4.2-3.2,6.8-4.7,10.2
	c-3.8-1,0.2-5.2-1.5-7.3C33.5,17.8,36,15.4,38.5,15.1z M35.7,14.5c0.1,0,0.3,0,0.4,0c0.9,0,0.6,1,0,1.2c-2,2-2.5-0.9-0.8-1.2
	L35.7,14.5z M25,8.8c5,1.7-2.5,7,1.2,9.1c0.4-0.1,0.7,0.1,1,0.2c0.1-0.1,0.2,0,0.2,0.1c1.7,0.8,2.1,3.3-0.7,3.1
	c-3.9-1-5.4,7.2-1.6,6.1c1.4-3.8,5.6-2.2,6.3,1.2c2.3,3.4-2.3,3.4-3.9,4.9c1.6,2.9-2.8,1.3-4.5,2.8c-3.2,0.7-4.1,5.4-6.8,5.5
	c-0.2-4.9-8.4-3.3-7,1.2c1.8,1.4,4.1,2.8,3.8,5.7c-0.1,6.2,7.4,4.1,10.8,7.4c4.1,1.8,6.8,5.5,10.5,8c3.1-1.1,9.6,1.9,6.5,5.7
	c-1.9,1.4-5.7,2.6-5.7,3.4v0.1c-5,0.4-3.5,0.8-4.9,0.9c-2.8-0.9-5.7-2.1-8.2-3.6c-0.1,0-0.2,0-0.2-0.1c-1.1-3.2-4.2-5.2-6.3-7.9
	c-1-1.1-1.2-2.3-1.1-3.6c0,0-0.1,0-0.1-0.1c0.2-2,0.8-4.2-0.7-6.1c-2.4-3.9-5.4-7.6-6.9-12c-0.2-4.5-0.5-8.9,1-13.2
	C11.1,20.9,19.5,13.5,25,8.8z M40,4.1c14.2,0,26.5,8.3,32.3,20.2v0.1c0.1,0.4,0.1,0.8,0.1,1.3c0.4,0.2,0.7,0.6,1.1,1.1
	c0.8,2,1.4,4.2,1.8,6.5c-0.3,0.3-0.8,0.5-1.5,0.6c-3.7-2.9-0.1,3.2,2,2.1c0.1,1.3,0.3,2.7,0.3,4.1c0,8.9-3.3,17-8.7,23.3
	c0-0.3,0.1-0.6,0.2-1c2.5-3.1,2-9-3-8.3c-2.7,2-6.3,4.7-9.5,1.7c-3.3-3-1.8-8,0.1-11.4c1.8-2.7,2.5-6.7,5.8-8.1
	c3.3,0.7,7.3,0.5,8.5-3.5c1-1.8,0.4-2.4-0.5-2.8l-0.2-0.1c-1.1-0.4-2.5-0.8-2.6-2.4c1-1.7-1.1-5.1-1.9-2.1c1.7,1.9,2.1,7.7-2,5.6
	c1.5,2.3-5.2,0.8-3.9,4c1,3.5-6,5.5-4,1c1.1-3.3-0.5-8.3,2.4-10.4c0-0.1,0.3-0.5,0.2-0.1l0.3-0.2c2.5-1.8-3.2-7.1-2.9-3.8
	c2.5,1.3,1.1,3.9-1.3,2.6c-2.5-1.3-3.5-8.3,0-7.8c2.7,0.3,0.2-2.5-1.1-3.8c-0.1,0.6-0.3-0.1-0.2-0.2L51.3,12
	c0.4-4.2-6.6-0.5-7.8-4.3C39,5.5,34,5.4,29.1,5.8c1.9-0.6,3.8-1,5.8-1.2l0.6-0.1c0.5-0.1,1.1-0.2,1.6-0.2C38.1,4.1,39,4.1,40,4.1z
	 M40,0C17.9,0,0,17.9,0,40c0,22,17.9,40,40,40c22.1,0,40-18,40-40C80,17.9,62.1,0,40,0z"/>
</svg>
