<?xml version="1.0" encoding="utf-8"?>
<!-- Generator: Adobe Illustrator 18.1.1, SVG Export Plug-In . SVG Version: 6.00 Build 0)  -->
<svg version="1.1" id="Calque_1" xmlns="http://www.w3.org/2000/svg" xmlns:xlink="http://www.w3.org/1999/xlink" x="0px" y="0px"
	 viewBox="279.6 -31.5 52.8 80" enable-background="new 279.6 -31.5 52.8 80" xml:space="preserve">
<g>
	<g>
		<path fill="#FBE05B" d="M317.2-5.7l-11.2,0l-11.2,0c-0.7,0-1.3,0.6-1.3,1.3c0,0.4,0.2,0.7,0.4,0.9l0,0l9,8.6c0,0,0,0,0.1,0.1
			c0,0,0,0,0.1,0.1c0,0,0,0,0,0c0,0,0.1,0.1,0.1,0.1c0,0,0,0,0.1,0.1c0,0,0.1,0.1,0.1,0.1c0,0,0,0,0,0.1c0,0,0.1,0.1,0.1,0.1
			c0,0,0,0,0,0.1c0,0,0.1,0.1,0.1,0.1c0,0,0,0,0,0.1c0,0,0.1,0.1,0.1,0.1c0,0,0,0,0,0.1c0,0,0,0.1,0.1,0.1c0,0,0,0.1,0,0.1
			c0,0,0,0.1,0.1,0.1c0,0,0,0.1,0,0.1c0,0,0,0.1,0,0.1c0,0,0,0.1,0,0.1c0,0,0,0.1,0,0.1c0,0,0,0.1,0,0.1c0,0,0,0.1,0,0.1
			c0,0,0,0.1,0,0.1c0,0,0,0,0,0.1c0,0.1,0,0.1,0,0.1c0,0,0,0,0,0.1c0,0.1,0,0.1,0,0.1c0,0,0,0.1,0,0.1c0,0,0,0.1,0,0.1
			c0,0,0,0.1,0,0.1c0,0,0,0.1,0,0.1c0,0,0,0.1,0,0.1c0,0,0,0.1,0,0.1c0,0,0,0.1,0,0.1v12.7c0,3.2-2,4-3.3,4.4
			c-3.2,0.9-12.1,2.6-13.2,2.9c0,0-0.1,0-0.1,0c0,0,0,0,0,0v0c-1,0.2-1.7,1.1-1.7,2.2v4.6v4.6c0,1.2,1,2.2,2.2,2.2H306h17.8
			c1.2,0,2.2-1,2.2-2.2v-4.6v-4.6c0-1.1-0.7-1.9-1.7-2.2v0c0,0,0,0,0,0c0,0-0.1,0-0.1,0c-1.2-0.2-10.1-2-13.2-2.9
			c-1.3-0.4-3.3-1.2-3.3-4.4V8.5c0,0,0-0.1,0-0.1c0,0,0-0.1,0-0.1c0,0,0-0.1,0-0.1c0,0,0-0.1,0-0.1c0,0,0-0.1,0-0.1c0,0,0-0.1,0-0.1
			c0,0,0-0.1,0-0.1c0,0,0-0.1,0-0.1c0,0,0,0,0-0.1c0,0,0-0.1,0-0.1c0,0,0,0,0-0.1c0,0,0-0.1,0-0.1c0,0,0,0,0-0.1c0,0,0-0.1,0-0.1
			c0,0,0-0.1,0-0.1c0,0,0-0.1,0-0.1c0,0,0-0.1,0-0.1c0,0,0-0.1,0-0.1c0,0,0-0.1,0-0.1c0,0,0-0.1,0-0.1c0,0,0-0.1,0.1-0.1
			c0,0,0,0,0-0.1c0,0,0.1-0.1,0.1-0.1c0,0,0,0,0-0.1c0,0,0.1-0.1,0.1-0.1c0,0,0,0,0-0.1c0,0,0.1-0.1,0.1-0.1c0,0,0,0,0-0.1
			c0,0,0.1-0.1,0.1-0.1c0,0,0,0,0.1-0.1c0,0,0.1-0.1,0.1-0.1c0,0,0,0,0,0c0,0,0,0,0.1-0.1c0,0,0,0,0.1-0.1l9-8.6l0,0
			c0.3-0.2,0.4-0.6,0.4-0.9C318.5-5.1,317.9-5.7,317.2-5.7z"/>
	</g>
	<g>
		<polygon fill="#5490CE" points="302.2,8 302.2,8 302.2,8 		"/>
		<polygon fill="#5490CE" points="309.8,8.2 309.8,8.2 309.8,8.2 		"/>
		<path fill="#5490CE" d="M332.4,29.7c0-1.8-0.5-3.5-1.5-5.1c-0.8-1.2-1.8-2.4-3.3-3.7L314.7,8.5l12.9-12.3c2.2-2,4.8-4.8,4.8-8.8
			v-10.2c0-4.7-3.9-8.6-8.6-8.6h-35.6c-4.7,0-8.6,3.8-8.6,8.6v10.2c0,1.8,0.5,3.5,1.5,5.1c0.8,1.2,1.8,2.4,3.3,3.7l0.1,0.1
			l12.8,12.2l-12.9,12.3c-2.2,2-4.8,4.8-4.8,8.8v10.2c0,4.7,3.8,8.6,8.6,8.6h35.6c4.7,0,8.6-3.8,8.6-8.6V29.7z M329,39.9
			c0,2.9-2.3,5.2-5.2,5.2h-35.6c-2.9,0-5.2-2.3-5.2-5.2V29.7c0-2.1,1-3.9,3.5-6.2l0.1-0.1c0,0,0.1-0.1,0.1-0.1l14.2-13.6
			c0,0,0-0.1,0.1-0.1l0-0.1l0.1-0.1l0.1-0.1l0-0.1l0-0.1l0.1-0.1l0-0.1l0.1-0.4L301.3,8l0-0.1l-0.4-0.7L286.7-6.3
			c0,0-0.1-0.1-0.1-0.1c-2.5-2.3-3.6-4.1-3.6-6.2v-10.2c0-2.9,2.3-5.2,5.2-5.2h35.6c2.9,0,5.2,2.3,5.2,5.2v10.2c0,2.1-1,3.9-3.5,6.2
			c-0.1,0.1-0.2,0.1-0.2,0.2L311,7.4l-0.1,0.1l-0.1,0.1l0,0.1l-0.2,0.6c0,0.1,0,0.1,0,0.2l0,0.1l0,0.3l0,0.1l0,0.1l0,0.1l0.3,0.5
			c0,0,0,0,0,0l0.1,0.1c0,0,0,0,0,0l0,0l14.2,13.6c0,0,0.1,0.1,0.1,0.1c2.5,2.3,3.6,4.1,3.6,6.2V39.9z"/>
	</g>
</g>
</svg>
