<?xml version="1.0" encoding="utf-8"?>
<!-- Generator: Adobe Illustrator 18.1.1, SVG Export Plug-In . SVG Version: 6.00 Build 0)  -->
<svg version="1.1" id="Calque_1" xmlns="http://www.w3.org/2000/svg" xmlns:xlink="http://www.w3.org/1999/xlink" x="0px" y="0px"
	 viewBox="241 0 130 103.4" enable-background="new 241 0 130 103.4" xml:space="preserve">
<g>
	<g>
		<g>
			<path fill="#98C2E9" d="M360.5,0c2.5,0,4.5,2,4.5,4.5S363,9,360.5,9S356,7,356,4.5S358,0,360.5,0z"/>
			<path fill="#98C2E9" d="M355.2,52.4c0,1.4,1.1,2.5,2.5,2.5s2.5-1.1,2.5-2.5V31.3h1.1v21.1c0,1.4,1.1,2.5,2.5,2.5s2.5-1.1,2.5-2.5
				V16.1h1.1v13.4c0,2.7,3.5,2.7,3.5,0V15.8c0-3-1.8-5.9-5.2-5.9h-10c-3.2,0-5.2,2.6-5.2,5.8v13.7c0,2.7,3.5,2.7,3.5,0V16.1h1.1
				L355.2,52.4z"/>
		</g>
	</g>
	<path fill="#89C8A8" d="M355.4,55.1c0,24.4-19.8,44.1-44.1,44.1c-24.4,0-44.1-19.8-44.1-44.1S286.9,11,311.3,11
		C335.7,11,355.4,30.8,355.4,55.1z"/>
	<path fill="#ADDFF4" d="M282.6,62.6c0.2-0.1,0.4-0.1,0.7,0c0.2,0,0.5,0.1,0.8,0.2v0c0.9,0.4,1.8,1.1,1.4,2.3
		c-0.7,0.3-1.5-0.2-1.9-0.8C282,63.4,282,62.8,282.6,62.6z M291.5,50.5c0.3,0.1-0.1,0.5-0.6,0.4h-0.1l-0.2-0.2
		C291.1,50.5,291.4,50.5,291.5,50.5z M300.6,46.9c1.2-0.2,3.6,0.7,1.3,2c0.8-0.8-0.5-0.5-0.7-0.4C299.8,47.5,299.9,47,300.6,46.9z
		 M325.8,40.3c1-0.1,3.1,0.9,2.9,2.3c-1,1.5-3.5,1.4-2.5-0.9C325,40.7,325.2,40.3,325.8,40.3z M300.7,30c2.9-0.2,2.3,6.3-0.1,7.2
		c-2.1-1.9,0.7-4.8-0.5-7C300.4,30,300.5,30,300.7,30z M309.7,25c1.8-0.2,3.5,0.5,4.1,2.6c1.2,5-3.8,8.2-5.6,12.3
		c-4.6-1.3,0.2-6.3-1.8-8.8C303.7,28.2,306.7,25.4,309.7,25z M306.3,24.2c0.2,0,0.3,0,0.5,0.1c1.1,0,0.7,1.2,0,1.5
		c-2.5,2.3-3.1-1.1-1-1.5L306.3,24.2z M293.5,17.5c6,2-3.1,8.4,1.5,10.9c0.5-0.1,0.8,0.1,1.2,0.2c0.1-0.1,0.2-0.1,0.2,0.1
		c2,1,2.5,3.9-0.8,3.7c-4.6-1.3-6.5,8.6-1.9,7.3c1.7-4.6,6.7-2.6,7.6,1.5c2.7,4.1-2.8,4.1-4.7,5.9c1.9,3.5-3.4,1.6-5.3,3.4
		c-3.8,0.8-4.9,6.5-8.2,6.7c-0.2-5.9-10.1-4-8.5,1.5c2.1,1.7,4.9,3.4,4.5,6.9c-0.1,7.4,8.9,4.9,13,8.9c4.9,2.2,8.2,6.7,12.6,9.6
		c3.8-1.3,11.6,2.3,7.8,6.9c-2.3,1.7-6.9,3.1-6.9,4.1V95c-6,0.5-4.1,1-5.9,1.1c-3.4-1-6.9-2.5-9.8-4.3c-0.1-0.1-0.2-0.1-0.2-0.1
		c-1.3-3.9-5-6.3-7.5-9.5c-1.3-1.3-1.5-2.8-1.4-4.3c0,0-0.1-0.1-0.1-0.1c0.2-2.5,1-5.1-0.8-7.4c-2.9-4.7-6.4-9.1-8.3-14.4
		c-0.2-5.5-0.5-10.7,1.3-15.8C276.8,32,286.9,23.1,293.5,17.5z M311.5,11.7c17.1,0,31.8,10,38.8,24.3v0.1c0.1,0.5,0.1,1,0.1,1.6
		c0.4,0.3,0.9,0.8,1.3,1.3c1,2.5,1.7,5,2.2,7.7c-0.4,0.4-1,0.7-1.8,0.7c-4.4-3.5-0.1,3.8,2.3,2.5c0.2,1.6,0.4,3.2,0.4,4.9
		c0,10.7-4,20.4-10.4,27.9c0-0.3,0.1-0.7,0.2-1.2c3-3.7,2.4-10.9-3.7-10c-3.2,2.5-7.6,5.7-11.4,2c-4-3.6-2.2-9.6,0.1-13.7
		c2.2-3.2,3-8.1,7-9.8c4,0.9,8.8,0.7,10.2-4.1c1.3-2.2,0.5-2.9-0.6-3.4l-0.2-0.1c-1.3-0.5-3-1-3.2-2.9c1.2-2-1.3-6.1-2.2-2.5
		c2,2.3,2.5,9.2-2.4,6.7c1.8,2.8-6.3,1-4.7,4.9c1.3,4.2-7.2,6.6-4.8,1.2c1.4-4-0.6-9.9,2.9-12.4c0-0.1,0.3-0.7,0.2-0.1l0.4-0.2
		c3.1-2.1-3.9-8.5-3.5-4.6c3,1.6,1.3,4.7-1.6,3.2c-3.1-1.6-4.2-9.9,0.1-9.4c3.2,0.4,0.2-2.9-1.3-4.6c-0.1,0.8-0.4-0.1-0.2-0.3
		l-0.3-0.3c0.4-5-8-0.6-9.4-5.1c-5.4-2.6-11.4-2.8-17.3-2.3c2.3-0.7,4.6-1.2,7-1.5l0.7-0.1c0.7-0.1,1.3-0.2,1.9-0.3
		C309.2,11.8,310.4,11.7,311.5,11.7z M311.5,6.9c-26.5,0-48,21.5-48,48c0,26.5,21.5,48,48,48s48-21.6,48-48
		C359.6,28.3,338.1,6.9,311.5,6.9z"/>
	<g>
		<g>
			<path fill="none" stroke="#1C5DAD" stroke-width="2" stroke-miterlimit="10" d="M263.9,62.2c0.2,0.1,0.3,0.3,0.5,0.4"/>
			<path fill="none" stroke="#1C5DAD" stroke-width="2" stroke-miterlimit="10" stroke-dasharray="5.9423,5.9423" d="M265.5,63.4
				c27.1,19.1,66.8,6.2,90.1-29.7"/>
			<path fill="none" stroke="#1C5DAD" stroke-width="2" stroke-miterlimit="10" d="M355.9,33.1c0.1-0.2,0.2-0.4,0.3-0.5"/>
			<g>
				<polygon fill="#1C5DAD" points="357.8,36.1 356.1,33.6 353.1,33.1 359.1,29 				"/>
			</g>
		</g>
	</g>
	<g>
		<path fill="#FBE05B" d="M331.2,69.9c0,10.8-8.7,19.5-19.5,19.5c-10.8,0-19.5-8.7-19.5-19.5s8.7-19.5,19.5-19.5
			C322.4,50.4,331.2,59.2,331.2,69.9z"/>
		<g>
			<path fill="#FFFFFF" d="M318.3,71.8h4.2c-0.8,5-4.5,8.2-9.5,8.2c-4.4,0-8-2.5-9.5-6.4h-2.8V71h2.2c0-0.3,0-0.7,0-1.1v-0.5h-2.1
				v-2.6h2.6c1.3-4.2,5.1-6.9,9.7-6.9c5,0,8.7,3.3,9.5,8.2h-4.2c-0.6-2.8-2.5-4.3-5.3-4.3c-2.3,0-4.2,1.1-5.2,3h7.2l-0.7,2.6h-7.2
				l0,0.5c0,0.4,0,0.7,0.1,1.1h6.8l-0.7,2.6h-5.2c1,1.6,2.8,2.5,4.9,2.5C315.8,76.1,317.7,74.5,318.3,71.8z"/>
		</g>
	</g>
	<g>
		<path fill="#447CC4" d="M256.1,21c3.7,0,6.7,3,6.7,6.7s-3,6.7-6.7,6.7c-3.7,0-6.7-3-6.7-6.7S252.4,21,256.1,21z"/>
		<path fill="#447CC4" d="M248.2,99.6c0,2.1,1.7,3.8,3.8,3.8c2.1,0,3.8-1.7,3.8-3.8V68h1.7l0,31.6c0,2.1,1.7,3.8,3.8,3.8
			c2.1,0,3.8-1.7,3.8-3.8l0-54.5h1.6v20.1c0,4,5.3,4,5.3,0V44.7c0-4.5-2.6-8.8-7.8-8.8h-15.1c-4.8,0-7.7,3.9-7.7,8.7v20.6
			c0,4,5.3,4,5.3,0V45.1h1.7L248.2,99.6z"/>
	</g>
</g>
</svg>
